<svg width="11" height="6" viewBox="0 0 11 6" fill="none" xmlns="http://www.w3.org/2000/svg">
<path d="M10.615 1.13352L5.838 5.71052C5.678 5.84552 5.528 5.90052 5.4 5.90052C5.24599 5.89704 5.0985 5.83769 4.985 5.73352L0.185 1.13352C-0.055 0.905523 -0.0620001 0.503523 0.167 0.285523C0.221305 0.228334 0.286404 0.182471 0.358535 0.150584C0.430666 0.118697 0.5084 0.101417 0.587247 0.0997438C0.666095 0.0980702 0.744492 0.112036 0.817911 0.140833C0.891331 0.169631 0.958317 0.21269 1.015 0.267523L5.4 4.47052L9.785 0.270523C9.84168 0.21569 9.90867 0.172631 9.98209 0.143833C10.0555 0.115036 10.1339 0.10107 10.2128 0.102744C10.2916 0.104418 10.3693 0.121697 10.4415 0.153584C10.5136 0.185471 10.5787 0.231334 10.633 0.288523C10.863 0.503523 10.855 0.905523 10.615 1.13352Z" fill="#2A2B32"/>
</svg>
