<svg width="52" height="52" viewBox="0 0 52 52" fill="none" xmlns="http://www.w3.org/2000/svg">
<g clip-path="url(#clip0_30_842)">
<rect width="52" height="52" rx="12" fill="white" fill-opacity="0.5"/>
<path d="M36.6075 47.4003C30.5494 44.9626 28.553 41.9352 29.0702 37.5735H22.4155C22.9327 41.9352 20.9364 44.9626 14.8782 47.4003C8.82008 49.838 8.00635 52.4999 8.00635 52.4999H43.5035C43.5035 52.4999 42.6726 49.838 36.6075 47.4003Z" fill="#FF8482"/>
<path d="M25.702 44.6762C27.4007 44.6773 29.0733 44.258 30.5706 43.4556C29.2293 41.7937 28.8052 39.8697 29.0776 37.594H22.4161C22.6885 39.9007 22.2575 41.835 20.8955 43.5073C22.3792 44.2808 24.0288 44.682 25.702 44.6762Z" fill="#FF5B59"/>
<path d="M36.6081 47.4008C34.8366 46.7443 33.1822 45.8072 31.7085 44.6251L26.1261 49.7972L19.8335 44.5527C18.6371 45.5871 17.0096 46.5284 14.8719 47.387C8.81373 49.8247 8 52.4866 8 52.4866H43.5041C43.5041 52.4866 42.6731 49.8385 36.6081 47.4008Z" fill="#6F87ED"/>
<path d="M17.1374 29.6648C18.2511 31.7991 17.7856 34.2472 16.103 35.1333C14.4204 36.0194 12.1309 35.0057 11.0138 32.8714C9.89661 30.7371 10.3655 28.2856 12.0482 27.3994C13.7308 26.5133 16.0203 27.5201 17.1374 29.6648Z" fill="#FF8482"/>
<path d="M16.1545 33.7338C16.1545 33.6476 16.1338 33.5717 16.1235 33.489C16.135 33.5389 16.1431 33.5896 16.1476 33.6407C16.1492 33.2765 16.0874 32.9148 15.9649 32.5718C15.7374 31.5558 15.2086 30.6322 14.4476 29.9216C13.6866 29.2111 12.7289 28.7467 11.6997 28.5894C13.0551 29.3762 14.2299 30.4394 15.1477 31.7098C13.934 31.2167 12.0445 32.2649 12.0445 32.2649C14.2719 31.6719 15.2856 32.1615 15.7511 32.7304C15.9237 33.0482 16.0591 33.3849 16.1545 33.7338Z" fill="#FF5B59"/>
<path d="M34.2667 29.6648C33.1495 31.7991 33.6185 34.2472 35.3011 35.1333C36.9837 36.0194 39.2732 35.0057 40.3903 32.8714C41.5075 30.7371 41.0386 28.2856 39.3559 27.3994C37.6733 26.5133 35.3838 27.5201 34.2667 29.6648Z" fill="#FF8482"/>
<path d="M35.2458 33.7338C35.2458 33.6476 35.27 33.5717 35.2769 33.489C35.2769 33.551 35.2562 33.5993 35.2528 33.6407C35.2521 33.2763 35.3151 32.9145 35.4389 32.5718C35.6669 31.5548 36.1967 30.6305 36.9591 29.9199C37.7214 29.2092 38.6806 28.7455 39.711 28.5894C38.3556 29.3762 37.1808 30.4394 36.263 31.7098C37.4802 31.2167 39.3662 32.2649 39.3662 32.2649C37.1354 31.6719 36.1216 32.1615 35.6562 32.7304C35.4831 33.0488 35.3455 33.3853 35.2458 33.7338Z" fill="#FF5B59"/>
<path d="M38.9867 20.5929C40.3659 17.5827 42.0416 12.2625 35.2387 9.16273C35.287 9.18687 32.3286 6.69397 27.0704 11.2315C25.3946 12.7038 23.1465 13.3486 21.0157 12.6452C18.8848 11.9418 16.0919 12.0142 14.5403 15.8725C14.1601 16.7472 13.9934 17.6998 14.0542 18.6516C13.5611 18.0344 12.8887 17.6172 12.2612 18.6171C11.7544 19.3998 12.1716 22.8651 13.399 25.9993C13.399 25.9993 14.1128 33.5297 17.5367 34.7021L20.9157 30.068C23.7189 30.0025 27.2083 29.9093 30.0805 29.8473L33.6216 34.7021C36.0731 33.8642 37.1385 29.7887 37.5489 27.5233L37.9488 27.0785C39.528 25.3339 40.1279 22.9134 39.1591 20.9135C39.1004 20.7997 39.0453 20.6997 38.9867 20.5929Z" fill="#420E2F"/>
<path d="M21.0158 12.6372C18.8918 11.9303 16.0921 12.0131 14.5232 15.868C14.3673 16.2464 14.2438 16.6374 14.1543 17.0368L14.2439 17.2506C14.2439 17.2506 16.3196 12.3958 21.0158 12.6372Z" fill="#7C1A59"/>
<path d="M35.2286 9.16202C35.2665 9.16202 33.4804 7.67248 30.2048 9.16202C30.8462 9.16202 39.0283 9.24477 40.0834 17.2648C40.5868 14.4926 39.9282 11.2998 35.2286 9.16202Z" fill="#7C1A59"/>
<path d="M22.5813 17.5058C20.6959 17.5057 18.8867 18.2495 17.5464 19.5755C16.2062 20.9015 15.4432 22.7028 15.4232 24.588L15.3508 31.4116C15.3508 37.6491 19.9849 42.7107 25.6948 42.7107C31.4047 42.7107 36.0388 37.6491 36.0388 31.4116L36.0181 24.1708C36.0181 20.4884 33.6425 15.406 29.9566 15.406L22.5813 17.5058Z" fill="#FDB193"/>
<path opacity="0.39" d="M26.5186 37.8588C26.5186 37.8588 28.3736 37.914 29.0356 36.4382C29.0356 36.4382 29.5631 37.514 28.2977 38.1622C27.0323 38.8105 26.5186 37.8588 26.5186 37.8588Z" fill="#FF8282"/>
<g style="mix-blend-mode:multiply" opacity="0.55">
<path d="M36.0287 24.1708C36.0287 20.4884 33.653 15.406 29.9671 15.406L22.5815 17.5058C20.6961 17.5057 18.8868 18.2495 17.5466 19.5755C16.2063 20.9015 15.4434 22.7028 15.4234 24.588L15.3889 27.8188L16.4233 26.0431C16.4233 26.0121 17.1405 22.9709 23.6951 22.8882C25.9846 22.8571 28.7706 22.1986 30.5912 19.5609C31.2428 21.5193 32.3324 23.2812 33.6288 24.3398C34.3172 24.9222 35.1519 25.305 36.0424 25.4466L36.0287 24.1708Z" fill="#FDB193"/>
</g>
<path d="M28.8495 33.3789C28.9735 33.7168 29.0365 34.0741 29.0357 34.434C29.0523 35.1695 28.7917 35.8843 28.3056 36.4365C27.8195 36.9887 27.1435 37.338 26.4118 37.4148C25.6802 37.4917 24.9464 37.2905 24.3562 36.8514C23.7659 36.4122 23.3624 35.7672 23.2258 35.0443L28.8495 33.3789Z" fill="#230F0B"/>
<path d="M26.1019 37.4442C25.6204 37.4472 25.146 37.3286 24.7227 37.0994C24.8811 36.4339 25.2629 35.8429 25.8044 35.425C26.3459 35.0071 27.0144 34.7876 27.6983 34.803C28.1387 34.8035 28.5742 34.895 28.9775 35.072C28.8436 35.7375 28.4847 36.3367 27.961 36.7687C27.4372 37.2008 26.7807 37.4393 26.1019 37.4442Z" fill="#E8132C"/>
<path d="M27.1774 31.581C27.1774 32.5602 26.5153 33.3533 25.7016 33.3533C24.8879 33.3533 24.2224 32.5602 24.2224 31.581C24.2224 30.6018 24.8844 29.3743 25.7016 29.3743C26.5188 29.3743 27.1774 30.6018 27.1774 31.581Z" fill="#FF6A68"/>
<path d="M31.0246 28.434C31.0246 29.2442 30.7522 29.9028 30.4109 29.9028C30.0695 29.9028 29.7971 29.2442 29.7971 28.434C29.7971 27.6237 30.073 26.9617 30.4109 26.9617C30.7488 26.9617 31.0246 27.6202 31.0246 28.434Z" fill="#25110D"/>
<path d="M33.304 26.8232C33.3833 26.7784 29.9801 24.6268 27.8803 24.7061C27.8562 24.7406 27.9217 22.827 30.7077 23.8303C33.4109 24.9406 33.2799 26.8542 33.304 26.8232Z" fill="#420E2F"/>
<path d="M20.9875 29.9016C21.3265 29.9016 21.6013 29.2439 21.6013 28.4327C21.6013 27.6215 21.3265 26.9639 20.9875 26.9639C20.6486 26.9639 20.3738 27.6215 20.3738 28.4327C20.3738 29.2439 20.6486 29.9016 20.9875 29.9016Z" fill="#25110D"/>
<path d="M17.7846 26.8235C17.7053 26.7786 21.1084 24.6271 23.2083 24.7064C23.2359 24.7409 23.1669 22.8272 20.3809 23.8306C17.6811 24.9408 17.8087 26.8545 17.7846 26.8235Z" fill="#420E2F"/>
<path d="M19.5152 33.4229C19.4749 33.4232 19.4349 33.4149 19.398 33.3987C19.333 33.3668 19.2832 33.3105 19.2593 33.2421C19.2354 33.1737 19.2394 33.0987 19.2704 33.0332L20.1289 31.2575C20.1622 31.1955 20.2181 31.1487 20.2851 31.127C20.3521 31.1053 20.4248 31.1104 20.4881 31.1412C20.5514 31.1719 20.6003 31.226 20.6247 31.292C20.649 31.3581 20.6468 31.431 20.6186 31.4954L19.76 33.2712C19.7378 33.317 19.703 33.3557 19.6596 33.3825C19.6163 33.4094 19.5662 33.4234 19.5152 33.4229Z" fill="#FF6A68"/>
<path d="M17.8017 33.4229C17.7555 33.4236 17.7098 33.4125 17.6691 33.3904C17.6285 33.3684 17.5942 33.3362 17.5695 33.297C17.5449 33.2579 17.5308 33.213 17.5286 33.1668C17.5264 33.1206 17.5362 33.0746 17.5569 33.0332L18.4155 31.2575C18.4487 31.1955 18.5047 31.1487 18.5716 31.127C18.6386 31.1053 18.7113 31.1104 18.7746 31.1412C18.8379 31.1719 18.8869 31.226 18.9112 31.292C18.9355 31.3581 18.9333 31.431 18.9051 31.4954L18.0466 33.2712C18.024 33.3168 17.9891 33.3552 17.9458 33.382C17.9026 33.4088 17.8526 33.423 17.8017 33.4229Z" fill="#FF6A68"/>
<path d="M31.7215 33.4241C31.6705 33.4242 31.6206 33.4101 31.5774 33.3832C31.5341 33.3564 31.4992 33.318 31.4766 33.2724L30.6181 31.4967C30.5899 31.4322 30.5877 31.3593 30.612 31.2933C30.6363 31.2272 30.6853 31.1731 30.7486 31.1424C30.8119 31.1116 30.8846 31.1066 30.9516 31.1283C31.0185 31.1499 31.0745 31.1967 31.1077 31.2587L31.9663 33.0345C31.9972 33.0999 32.0012 33.175 31.9774 33.2433C31.9535 33.3117 31.9037 33.368 31.8387 33.3999C31.8018 33.4162 31.7618 33.4244 31.7215 33.4241Z" fill="#FF6A68"/>
<path d="M33.4349 33.4242C33.384 33.4243 33.3341 33.4102 33.2908 33.3834C33.2475 33.3566 33.2127 33.3182 33.1901 33.2725L32.335 31.4968C32.3192 31.4649 32.3098 31.4302 32.3075 31.3947C32.3051 31.3591 32.3099 31.3235 32.3214 31.2898C32.333 31.2562 32.3511 31.2251 32.3747 31.1985C32.3984 31.1719 32.4271 31.1502 32.4591 31.1348C32.4913 31.1188 32.5262 31.1094 32.562 31.107C32.5978 31.1047 32.6337 31.1094 32.6677 31.1209C32.7016 31.1324 32.733 31.1506 32.7599 31.1743C32.7868 31.1979 32.8088 31.2267 32.8246 31.2589L33.6797 33.0346C33.711 33.0997 33.7154 33.1743 33.6922 33.2427C33.669 33.311 33.62 33.3675 33.5556 33.4001C33.5176 33.4167 33.4764 33.4249 33.4349 33.4242Z" fill="#FF6A68"/>
<path d="M36.4905 21.2266L31.6322 12.9204L19.8918 16.4753L13.5923 24.1057C14.2961 24.5825 14.9111 25.1788 15.4094 25.8676C15.4094 25.8676 16.099 21.9507 23.6846 21.8542C28.6704 21.7887 30.322 18.6648 30.9737 16.1374C31.1116 19.0854 32.5459 22.1266 34.2768 23.5368C34.7469 23.9633 35.3226 24.2561 35.9442 24.3847C36.5657 24.5132 37.2104 24.4729 37.811 24.2678L36.4905 21.2266Z" fill="#420E2F"/>
</g>
<defs>
<clipPath id="clip0_30_842">
<rect width="52" height="52" rx="12" fill="white"/>
</clipPath>
</defs>
</svg>
