<svg width="14" height="17" viewBox="0 0 14 17" fill="none" xmlns="http://www.w3.org/2000/svg">
<path fill-rule="evenodd" clip-rule="evenodd" d="M7.17344 0.610596C4.52141 0.610596 2.37151 2.76049 2.37151 5.41253V6.6867C2.37151 7.78682 1.62039 8.75627 1.19885 9.77243C1.07072 10.0813 1 10.42 1 10.7752C1 12.0397 1.90344 13.1246 3.15596 13.2983C4.39979 13.4708 5.95401 13.6443 7.17391 13.6443C8.39381 13.6443 9.94803 13.4708 11.1919 13.2983C12.4444 13.1246 13.3478 12.0397 13.3478 10.7752C13.3478 10.4199 13.2771 10.0811 13.1489 9.77221C12.7271 8.75569 11.9754 7.78592 11.9754 6.68536V5.41253C11.9754 2.76049 9.82548 0.610596 7.17344 0.610596Z" fill="white"/>
<path d="M3.15596 13.2983L3.08729 13.7936L3.15596 13.2983ZM11.1919 13.2983L11.1232 12.8031H11.1232L11.1919 13.2983ZM1.19885 9.77243L0.737017 9.58084L1.19885 9.77243ZM2.87151 5.41253C2.87151 3.03663 4.79755 1.1106 7.17344 1.1106V0.110596C4.24527 0.110596 1.87151 2.48435 1.87151 5.41253H2.87151ZM2.87151 6.6867V5.41253H1.87151V6.6867H2.87151ZM1.5 10.7752C1.5 10.4869 1.55731 10.2132 1.66069 9.96401L0.737017 9.58084C0.584134 9.94937 0.5 10.3531 0.5 10.7752H1.5ZM3.22464 12.8031C2.23083 12.6653 1.5 11.8019 1.5 10.7752H0.5C0.5 12.2776 1.57604 13.584 3.08729 13.7936L3.22464 12.8031ZM7.17391 13.1443C5.99026 13.1443 4.46441 12.975 3.22464 12.8031L3.08729 13.7936C4.33518 13.9666 5.91777 14.1443 7.17391 14.1443V13.1443ZM11.1232 12.8031C9.88342 12.975 8.35757 13.1443 7.17391 13.1443V14.1443C8.43005 14.1443 10.0126 13.9666 11.2605 13.7936L11.1232 12.8031ZM12.8478 10.7752C12.8478 11.8019 12.117 12.6653 11.1232 12.8031L11.2605 13.7936C12.7718 13.584 13.8478 12.2776 13.8478 10.7752H12.8478ZM12.6871 9.96384C12.7905 10.2131 12.8478 10.4868 12.8478 10.7752H13.8478C13.8478 10.353 13.7637 9.94918 13.6107 9.58058L12.6871 9.96384ZM11.4754 5.41253V6.68536H12.4754V5.41253H11.4754ZM7.17344 1.1106C9.54934 1.1106 11.4754 3.03664 11.4754 5.41253H12.4754C12.4754 2.48435 10.1016 0.110596 7.17344 0.110596V1.1106ZM13.6107 9.58058C13.4967 9.30584 13.3624 9.03895 13.2317 8.7862C13.0982 8.52789 12.9712 8.28933 12.8557 8.04592C12.625 7.55998 12.4754 7.12352 12.4754 6.68536H11.4754C11.4754 7.34776 11.7016 7.94646 11.9522 8.47467C12.0774 8.73835 12.2174 9.00161 12.3434 9.24542C12.4723 9.49479 12.5902 9.73032 12.6871 9.96384L13.6107 9.58058ZM1.87151 6.6867C1.87151 7.12468 1.72196 7.56098 1.49152 8.04674C1.37609 8.29005 1.24916 8.52853 1.11573 8.78675C0.985159 9.0394 0.850946 9.3062 0.737017 9.58084L1.66069 9.96401C1.75753 9.73057 1.87529 9.49513 2.00411 9.24584C2.13007 9.00211 2.26996 8.73894 2.395 8.47536C2.6455 7.94732 2.87151 7.34883 2.87151 6.6867H1.87151Z" fill="white"/>
<path d="M8.88794 15.4692C8.51925 16.0238 7.88879 16.3892 7.17297 16.3892C6.45715 16.3892 5.82669 16.0238 5.45799 15.4692" stroke="white" stroke-linecap="round"/>
</svg>
