<svg width="57" height="36" viewBox="0 0 57 36" fill="none" xmlns="http://www.w3.org/2000/svg">
<path d="M54.5217 -0.00976562H2.47826C1.10956 -0.00976562 0 1.09167 0 2.45036V33.4479C0 34.8066 1.10956 35.908 2.47826 35.908H54.5217C55.8904 35.908 57 34.8066 57 33.4479V2.45036C57 1.09167 55.8904 -0.00976562 54.5217 -0.00976562Z" fill="url(#paint0_linear_42_42)"/>
<mask id="mask0_42_42" style="mask-type:alpha" maskUnits="userSpaceOnUse" x="0" y="-1" width="57" height="37">
<path d="M54.5217 -0.00976562H2.47826C1.10956 -0.00976562 0 1.09167 0 2.45036V33.4479C0 34.8066 1.10956 35.908 2.47826 35.908H54.5217C55.8904 35.908 57 34.8066 57 33.4479V2.45036C57 1.09167 55.8904 -0.00976562 54.5217 -0.00976562Z" fill="url(#paint1_linear_42_42)"/>
</mask>
<g mask="url(#mask0_42_42)">
<path d="M0 36H31C31 19.1134 25.5111 0 8.50003 0H0V36Z" fill="black" fill-opacity="0.21"/>
<path d="M38.5 0C38.5 14.5 40 22.4999 57 22.4999V0H38.5Z" fill="white" fill-opacity="0.21"/>
<path fill-rule="evenodd" clip-rule="evenodd" d="M45.9044 30.3432L46.5493 28.4902V28.4905H47.2458L46.2109 31.2149H45.5144L44.9238 28.8704C45.3411 29.098 45.7149 29.5562 45.8342 29.9778L45.9044 30.3432ZM47.5113 28.4903L47.0994 31.2177H47.7577L48.1693 28.4903H47.5113ZM49.4968 29.6014C49.2668 29.4805 49.1258 29.3989 49.1258 29.2752C49.1286 29.1628 49.245 29.0476 49.505 29.0476C49.7189 29.0419 49.8761 29.0954 49.9953 29.1486L50.055 29.177L50.1445 28.6064C50.0145 28.5529 49.8084 28.4939 49.5537 28.4939C48.9037 28.4939 48.446 28.8536 48.4431 29.368C48.4377 29.7477 48.7708 29.9583 49.0201 30.0847C49.2747 30.2143 49.3614 30.2984 49.3614 30.4135C49.3586 30.5904 49.1555 30.672 48.966 30.672C48.7034 30.672 48.5624 30.63 48.3483 30.5314L48.2616 30.4894L48.1696 31.0824C48.3242 31.1556 48.6085 31.22 48.9037 31.2232C49.5945 31.2232 50.044 30.869 50.0497 30.3208C50.0519 30.02 49.8763 29.7897 49.4968 29.6014ZM51.3228 28.4987H51.8321L52.3629 31.2198H51.7536L51.6549 30.6765H50.882L50.6918 31.2177H50.0009L50.9787 28.7181C51.0467 28.5467 51.1659 28.4987 51.3228 28.4987ZM51.0737 30.1301C51.0877 30.1288 51.3388 29.2469 51.3388 29.2469L51.5393 30.1301H51.0737Z" fill="white"/>
<path d="M45.617 28.8616C45.5699 28.6417 45.4195 28.4934 45.2154 28.4902H44.2574L44.2476 28.5436C44.9948 28.7646 45.622 29.4447 45.8255 30.0844L45.617 28.8616Z" fill="white"/>
</g>
<defs>
<linearGradient id="paint0_linear_42_42" x1="57" y1="-0.00976572" x2="43.1725" y2="48.2722" gradientUnits="userSpaceOnUse">
<stop stop-color="#FDA908"/>
<stop offset="0.396075" stop-color="#DB599B"/>
<stop offset="0.698689" stop-color="#B35CC2"/>
<stop offset="1" stop-color="#BBB1C5"/>
</linearGradient>
<linearGradient id="paint1_linear_42_42" x1="57" y1="-0.00976572" x2="43.1725" y2="48.2722" gradientUnits="userSpaceOnUse">
<stop stop-color="#FDA908"/>
<stop offset="0.396075" stop-color="#DB599B"/>
<stop offset="0.698689" stop-color="#B35CC2"/>
<stop offset="1" stop-color="#BBB1C5"/>
</linearGradient>
</defs>
</svg>
