<svg width="263" height="174" viewBox="0 0 263 174" fill="none" xmlns="http://www.w3.org/2000/svg">
<path d="M176.275 167.365C220.511 167.365 256.372 131.505 256.372 87.2687C256.372 43.0328 220.511 7.17236 176.275 7.17236C132.039 7.17236 96.179 43.0328 96.179 87.2687C96.179 131.505 132.039 167.365 176.275 167.365Z" fill="#E55041"/>
<path d="M222.482 68.7435L212.125 78.2279C206.121 83.7302 196.795 83.3251 191.293 77.3211L181.986 67.1654C176.484 61.1614 176.889 51.8352 182.893 46.3329L193.527 36.5862C201.144 29.606 211.782 26.9513 221.787 29.5481L224.28 30.1925C227.876 31.1263 230.612 34.0511 231.299 37.709L231.843 40.6261C233.787 50.9902 230.249 61.6206 222.474 68.7435H222.478H222.482Z" fill="black"/>
<path d="M196.637 84.0853L176.341 61.941L202.367 42.8757L217.89 59.811L196.637 84.0815V84.0853Z" fill="#F4C9B8"/>
<path d="M197.656 62.7668C192.292 56.9133 191.165 49.8251 196.591 44.4385L205.191 35.8995C211.126 30.0036 220.776 30.2313 226.429 36.3973C232.082 42.5633 231.468 52.1943 225.078 57.5963L215.822 65.4215C209.984 70.3566 203.023 68.6203 197.656 62.7668Z" fill="#F4C9B8"/>
<path d="M225.53 57.1949C225.379 57.3299 225.229 57.465 225.071 57.5962L224.523 58.0592L215.818 65.4214C215.27 65.8844 214.714 66.2896 214.151 66.6368L207.344 49.5858C206.094 46.4488 203.123 44.342 199.747 44.1953L196.953 44.0719L205.184 35.8994C205.357 35.7296 205.531 35.5637 205.708 35.3978C211.678 30.0189 220.934 30.4087 226.421 36.3933C231.908 42.378 231.488 51.7273 225.526 57.191H225.53V57.1949Z" fill="#CEA193"/>
<path d="M204.859 41.1857C206.198 39.9586 206.291 37.8711 205.064 36.5284C203.833 35.1856 201.749 35.093 200.407 36.3239C199.064 37.5547 197.872 40.6493 199.102 41.9921C200.333 43.3349 203.521 42.4127 204.859 41.1818V41.1857Z" fill="#CEA193"/>
<path d="M224.233 62.3191C225.572 61.0921 225.665 59.0046 224.434 57.6618C223.203 56.3191 221.12 56.2303 219.777 57.4573C218.434 58.6882 217.242 61.7828 218.473 63.1256C219.703 64.4684 222.891 63.5462 224.233 62.3191Z" fill="#CEA193"/>
<path d="M205.886 54.2702C205.793 54.1699 205.751 54.0232 205.79 53.8805C205.847 53.6567 206.075 53.5178 206.303 53.5756C206.569 53.6451 212.824 55.2734 214.83 58.7268C214.946 58.9275 214.88 59.186 214.676 59.3056C214.475 59.4214 214.217 59.3558 214.101 59.1513C212.276 56.0027 206.156 54.4091 206.094 54.3937C206.01 54.3705 205.94 54.3319 205.886 54.2702Z" fill="black"/>
<path d="M216.497 51.6037C215.868 52.5954 215.208 53.3054 214.761 53.0198C214.317 52.7343 214.68 51.8391 215.309 50.8436C215.938 49.8519 217.13 50.6121 216.497 51.5999V51.6037Z" fill="black"/>
<path d="M209.378 43.8366C208.749 44.8283 208.089 45.5383 207.642 45.2527C207.194 44.9672 207.561 44.072 208.19 43.0765C208.819 42.0849 210.011 42.845 209.378 43.8328V43.8366Z" fill="black"/>
<path d="M207.383 43.1497C207.005 42.7368 206.635 42.324 206.268 41.9034C205.886 41.4674 205.932 40.7998 206.368 40.4178C206.804 40.0358 207.476 40.0783 207.854 40.5182C213.024 46.4334 219.596 51.7736 219.661 51.8276C220.113 52.1942 220.182 52.854 219.816 53.3093C219.449 53.7608 218.785 53.8302 218.334 53.4637C218.272 53.4135 212.453 48.6868 207.383 43.1497Z" fill="black"/>
<path d="M197.656 62.7665C197.042 62.099 196.486 61.4122 195.989 60.7176C195.672 60.2739 194.978 60.6057 195.128 61.1305C196.05 64.3486 198.763 69.7776 206.681 72.6136L210.663 68.0644C206.175 69.0444 201.503 66.9647 197.656 62.7665Z" fill="#CEA193"/>
<path d="M167.995 149.265L114.268 77.7844C108.442 71.4255 109.788 61.3469 117.073 56.7359L134.541 46.3447C145.619 39.3453 161.875 38.207 172.154 46.337L183.487 55.3082C183.487 55.3082 181.646 64.7077 187.99 71.63C194.337 78.5522 203.86 77.5374 203.86 77.5374L211.813 89.6071C219.021 100.546 218.531 114.846 210.597 125.272L196.668 143.569C191 150.438 180.477 149.265 168.002 149.265H167.995Z" fill="#3D3D3D"/>
<path d="M198.285 82.4493L191.991 79.8795C191.22 79.5631 190.618 80.5934 191.27 81.1143L216.385 101.032C215.656 97.0347 214.136 93.1453 211.805 89.607L205.381 79.8564L198.281 82.4532L198.285 82.4493Z" fill="black"/>
<path d="M231.847 40.6264L231.302 37.7093C230.616 34.0552 227.884 31.1304 224.284 30.1928L221.787 29.5484C211.778 26.9516 201.148 29.6024 193.527 36.5865L180.547 48.5172C177.441 51.361 176.256 55.7443 177.502 59.7688L181.014 71.0937C181.978 74.2037 184.282 76.7195 187.295 77.9466L198.288 82.4418C202.19 84.0354 206.662 83.2367 209.768 80.389L222.482 68.7361C230.253 61.6132 233.799 50.9828 231.85 40.6187H231.847V40.6264ZM186.802 64.0634L185.991 49.9449C185.91 48.5095 186.477 47.1088 187.539 46.1364L196.085 38.2997C197.023 37.4392 198.265 36.9916 199.535 37.0418L207.183 37.3775C210.555 37.5241 213.53 39.6347 214.78 42.7679L220.371 56.7707C221.629 59.9309 220.811 63.5463 218.303 65.8461L210.918 72.614C209.864 73.5786 208.433 74.0262 207.02 73.8256L194.202 72.0584C190.143 71.4989 187.041 68.1496 186.802 64.0595V64.0634Z" fill="#3D3D3D"/>
<path d="M167.995 39.9819H10.8272C4.84637 39.9819 0 44.8283 0 50.8091V138.437C0 144.418 4.84637 149.265 10.8272 149.265H167.995C173.976 149.265 178.822 144.418 178.822 138.437V50.8091C178.822 44.8283 173.976 39.9819 167.995 39.9819Z" fill="#BCBCBC"/>
<path d="M178.822 50.3113H0V69.7354H178.818V50.3113H178.822Z" fill="#3D3D3D"/>
<path d="M137.118 140.127C144.955 140.127 151.31 133.772 151.31 125.935C151.31 118.099 144.955 111.744 137.118 111.744C129.282 111.744 122.927 118.099 122.927 125.935C122.927 133.772 129.282 140.127 137.118 140.127Z" fill="#2E53BB"/>
<path d="M157.31 140.278C165.147 140.278 171.502 133.923 171.502 126.086C171.502 118.249 165.147 111.894 157.31 111.894C149.473 111.894 143.118 118.249 143.118 126.086C143.118 133.923 149.473 140.278 157.31 140.278Z" fill="#2E53BB"/>
<path d="M168.083 40.1902H107.268C101.311 40.1902 100.516 58.2406 98.7796 66.3436L93.7634 87.7587L98.7796 118.241C98.7796 124.199 118.096 149.056 124.053 149.056H168.08C174.037 149.056 178.864 144.229 178.864 138.271V50.9749C178.864 45.0173 174.037 40.1902 168.08 40.1902H168.083Z" fill="#E3E3E3"/>
<path d="M178.868 50.4771H103.024L96.2715 69.8278H178.864V50.4771H178.868Z" fill="black"/>
<path d="M176.275 168.449C221.411 168.449 258 131.86 258 86.7247C258 41.5893 221.411 5 176.275 5C131.14 5 94.5505 41.5893 94.5505 86.7247C94.5505 131.86 131.14 168.449 176.275 168.449Z" stroke="black" stroke-width="10" stroke-miterlimit="10"/>
<path d="M140.854 111.682H132.333C130.486 111.682 128.775 112.697 127.851 114.349L123.589 121.941C122.665 123.588 122.665 125.624 123.589 127.267L127.851 134.867C128.775 136.514 130.486 137.534 132.333 137.534H140.854C142.701 137.534 144.413 136.519 145.336 134.867L149.599 127.267C150.523 125.619 150.523 123.584 149.599 121.941L145.336 114.349C144.413 112.702 142.701 111.682 140.854 111.682Z" fill="#FF7059"/>
<path d="M162.076 111.682H153.555C151.708 111.682 149.997 112.697 149.073 114.349L144.811 121.941C143.887 123.588 143.887 125.624 144.811 127.267L149.073 134.867C149.997 136.514 151.708 137.534 153.555 137.534H162.076C163.923 137.534 165.635 136.519 166.558 134.867L170.821 127.267C171.745 125.619 171.745 123.584 170.821 121.941L166.558 114.349C165.635 112.702 163.923 111.682 162.076 111.682Z" fill="#FF7059"/>
<path d="M73.6987 83.1284H19.2928C15.1373 83.1284 11.7686 86.4971 11.7686 90.6526C11.7686 94.8082 15.1373 98.1769 19.2928 98.1769H73.6987C77.8542 98.1769 81.2229 94.8082 81.2229 90.6526C81.2229 86.4971 77.8542 83.1284 73.6987 83.1284Z" fill="#D9D9D9"/>
<path d="M42.6372 108.981H16.3988C13.8416 108.981 11.7686 111.054 11.7686 113.611C11.7686 116.168 13.8416 118.242 16.3988 118.242H42.6372C45.1944 118.242 47.2675 116.168 47.2675 113.611C47.2675 111.054 45.1944 108.981 42.6372 108.981Z" fill="#F7F7F7"/>
<path d="M76.5928 108.981H60.0009C57.4437 108.981 55.3706 111.054 55.3706 113.611C55.3706 116.168 57.4437 118.242 60.0009 118.242H76.5928C79.15 118.242 81.2231 116.168 81.2231 113.611C81.2231 111.054 79.15 108.981 76.5928 108.981Z" fill="#F7F7F7"/>
</svg>
