<svg width="286" height="150" viewBox="0 0 286 150" fill="none" xmlns="http://www.w3.org/2000/svg">
<mask id="mask0_70_28" style="mask-type:luminance" maskUnits="userSpaceOnUse" x="0" y="0" width="286" height="150">
<path d="M0.5 0H285.5V149.286H0.5V0Z" fill="white"/>
</mask>
<g mask="url(#mask0_70_28)">
<path d="M30.4058 107.97L53.0521 95.3831L82.3232 110.138L90.5122 125.148L82.1191 131.615L53.6417 127.017C52.3479 126.808 51.0281 126.976 49.8299 127.508C45.4877 129.433 34.6619 134.25 31.1662 135.954L30.721 120.82L30.4058 107.97Z" fill="#E47B4C"/>
<path d="M246.268 98.5185L227.781 85.125L200.621 94.9537L191.878 107.223L198.54 113.764L223.936 112.738C225.091 112.691 226.228 112.977 227.22 113.567C230.816 115.709 239.78 121.061 242.658 122.921L244.64 109.727L246.268 98.5185Z" fill="#824F36"/>
<path d="M79.0062 128.012L95.4831 97.6716L78.4003 102.136C77.2304 102.442 75.9864 102.101 75.1356 101.242L69.9589 96.0146L56.5618 107.864L64.0523 122.061L79.0062 128.012Z" fill="#E47B4C"/>
<path d="M201.642 110.939L190.42 82.6628L204.895 88.3659C205.886 88.7561 207.01 88.589 207.845 87.927L212.923 83.8987L223.397 95.6745L215.35 107.306L201.642 110.939Z" fill="#824F36"/>
<path d="M74.9595 118.273L79.7788 115.541L80.6534 123.862C80.8115 125.367 78.7604 125.961 78.09 124.605L74.9595 118.273Z" fill="#CC6942"/>
<path d="M206.207 102.844L202.279 99.9473L200.638 107.135C200.342 108.435 202.073 109.17 202.803 108.055L206.207 102.844Z" fill="#663C2B"/>
<path d="M127.89 65.6002C129.549 64.2114 132.02 64.431 133.409 66.0903C134.797 67.7496 134.578 70.2203 132.919 71.6091L70.6233 123.742C68.9639 125.131 66.4933 124.911 65.1045 123.252C63.716 121.593 63.9353 119.122 65.5946 117.733L127.89 65.6002Z" fill="black"/>
<path d="M165.444 51.1958C164.138 49.8064 161.953 49.7385 160.564 51.0441C159.175 52.3494 159.107 54.5341 160.412 55.9235L209.425 108.085C210.73 109.475 212.915 109.543 214.304 108.237C215.694 106.932 215.762 104.747 214.456 103.357L165.444 51.1958Z" fill="black"/>
<path d="M85.178 80.9728C84.0648 79.3584 81.9217 78.8286 80.1873 79.7406L47.4485 98.5807L47.738 117.772L83.0883 92.754C86.8931 90.0636 87.8229 84.8139 85.1768 80.9762L85.178 80.9728Z" fill="#E47B4C"/>
<path d="M201.193 69.1386C202.336 67.8433 204.267 67.6054 205.688 68.5858L232.347 88.512L230.075 105.27L201.781 79.6649C198.736 76.9111 198.475 72.2206 201.193 69.1416L201.193 69.1386Z" fill="#824F36"/>
<path d="M80.562 115.567L116.873 84.9779C119.523 83.0025 123.221 83.2495 125.585 85.5627C127.491 87.4268 127.467 90.5021 125.536 92.3378L89.0016 126.665C83.0076 127.814 80.562 115.567 80.562 115.567Z" fill="#E47B4C"/>
<path d="M80.8375 115.662L117.028 85.1739C119.58 83.2769 123.136 83.516 125.41 85.7414L125.585 85.5632L125.41 85.7414C127.214 87.5062 127.192 90.4177 125.364 92.156C125.364 92.1562 125.364 92.1564 125.364 92.1566L88.8842 126.433C87.5144 126.671 86.3376 126.165 85.3235 125.232C84.286 124.277 83.435 122.888 82.7606 121.441C82.0878 119.998 81.599 118.517 81.2782 117.394C81.1179 116.833 80.9999 116.363 80.9221 116.034C80.8847 115.875 80.8566 115.749 80.8375 115.662Z" stroke="black" stroke-opacity="0.3" stroke-width="0.5"/>
<path d="M201.59 99.8881L173.043 69.3075C170.932 67.3004 167.671 67.1276 165.359 68.9024C163.497 70.3329 163.193 73.0257 164.69 74.8347L193.039 108.71C198.162 110.345 201.59 99.8881 201.59 99.8881Z" fill="#824F36"/>
<path d="M165.512 69.1007C167.724 67.4024 170.843 67.5661 172.865 69.4836L201.305 99.9492C201.28 100.023 201.244 100.124 201.198 100.248C201.096 100.528 200.943 100.926 200.744 101.4C200.346 102.347 199.763 103.59 199.024 104.78C198.282 105.973 197.394 107.096 196.391 107.818C195.413 108.523 194.343 108.838 193.184 108.492L164.883 74.6753C164.882 74.6751 164.882 74.6749 164.882 74.6748C163.476 72.975 163.761 70.4448 165.512 69.1007Z" stroke="black" stroke-opacity="0.3" stroke-width="0.5"/>
<path d="M100.343 118.957L99.0411 97.7243C98.8972 94.4216 101.18 91.5026 104.422 90.8472C107.034 90.3189 109.565 92.0665 109.997 94.6958L110.776 111.558C110.945 115.213 108.183 118.342 104.535 118.628L100.343 118.957Z" fill="#E47B4C"/>
<path d="M100.577 118.688L99.2908 97.7113C99.1534 94.5324 101.351 91.7231 104.471 91.0923L104.471 91.0923C106.94 90.5929 109.332 92.2405 109.748 94.7221L110.526 111.57C110.689 115.09 108.029 118.103 104.516 118.379L100.577 118.688Z" stroke="black" stroke-opacity="0.3" stroke-width="0.5"/>
<path d="M183.928 100.772L187.301 82.3335C187.775 79.4594 186.085 76.6655 183.318 75.7511C181.088 75.014 178.69 76.2767 178.035 78.5314L175.58 93.2012C175.048 96.3808 177.135 99.4088 180.295 100.043L183.928 100.772Z" fill="#824F36"/>
<path d="M183.24 75.9884L183.24 75.9884C181.148 75.2973 178.901 76.4773 178.279 78.5873L175.826 93.2425M183.24 75.9884L175.826 93.2425M183.24 75.9884C185.889 76.864 187.507 79.5388 187.055 82.2907L183.728 100.477M183.24 75.9884L183.728 100.477M175.826 93.2425C175.316 96.289 177.316 99.1902 180.344 99.7976L180.344 99.7976L183.728 100.477M175.826 93.2425L183.728 100.477" stroke="black" stroke-opacity="0.3" stroke-width="0.5"/>
<path d="M91.5532 126.677L88.9916 104.261C88.8474 100.959 91.1301 98.0397 94.3722 97.3843C96.9848 96.856 99.5155 98.6037 99.9479 101.233L101.899 118.743C102.316 122.486 99.6011 125.852 95.8536 126.236L91.5532 126.677Z" fill="#E47B4C"/>
<path d="M94.4217 97.6294L94.4217 97.6294C96.8934 97.1295 99.2877 98.7812 99.7002 101.267L101.651 118.77C102.052 122.376 99.4374 125.618 95.8281 125.987L91.7736 126.403L89.241 104.242C89.1065 101.066 91.3032 98.2598 94.4217 97.6294Z" stroke="black" stroke-opacity="0.3" stroke-width="0.5"/>
<path d="M190.806 108.451L195.405 89.1106C195.879 86.2365 194.189 83.4426 191.422 82.5282C189.191 81.7911 186.794 83.0538 186.139 85.3085L182.59 100.421C181.831 103.653 183.852 106.883 187.09 107.613L190.806 108.451Z" fill="#824F36"/>
<path d="M195.16 89.0614L190.62 108.152L187.145 107.369C184.043 106.669 182.106 103.574 182.833 100.478L186.381 85.3721C186.999 83.2572 189.25 82.0736 191.343 82.7655L191.343 82.7655C193.991 83.6404 195.609 86.3117 195.16 89.0614Z" stroke="black" stroke-opacity="0.3" stroke-width="0.5"/>
<path d="M82.0775 131.62L79.4447 112.242C79.3008 108.939 81.5832 106.02 84.8253 105.365C87.4379 104.837 89.9686 106.584 90.401 109.214L92.7326 123.613C93.3846 127.638 90.3594 131.324 86.2838 131.47L82.0775 131.62Z" fill="#E47B4C"/>
<path d="M86.2749 131.22L86.2748 131.22L82.2948 131.362L79.6939 112.22C79.5612 109.045 81.7572 106.24 84.8748 105.61C87.3484 105.11 89.7445 106.764 90.1543 109.254C90.1543 109.254 90.1543 109.254 90.1543 109.254L92.4858 123.653C93.1138 127.53 90.2002 131.08 86.2749 131.22Z" stroke="black" stroke-opacity="0.3" stroke-width="0.5"/>
<path d="M198.576 113.773L202.918 97.0972C203.391 94.2231 201.702 91.4292 198.934 90.5147C196.704 89.7777 194.306 91.0404 193.651 93.2951L190.097 105.646C189.103 109.1 191.362 112.643 194.912 113.199L198.576 113.773Z" fill="#824F36"/>
<path d="M198.856 90.7521L198.856 90.7521C201.503 91.6267 203.12 94.2966 202.673 97.0454L198.391 113.491L194.951 112.952L194.915 113.178L194.951 112.952C191.549 112.419 189.385 109.024 190.337 105.715C190.337 105.715 190.337 105.715 190.337 105.715L193.891 93.3648C194.507 91.2461 196.76 90.0595 198.856 90.7521Z" stroke="black" stroke-opacity="0.3" stroke-width="0.5"/>
<path d="M37.6582 104.824C37.0553 102.909 34.9291 101.935 33.0849 102.729L-23.9275 127.283L-6.76853 167.125L42.1781 135.884C44.7612 134.235 45.9168 131.058 44.9964 128.135L37.6582 104.824Z" fill="#F8F8F8"/>
<path d="M240.254 95.0046C240.982 93.3926 242.945 92.7644 244.475 93.6531L291.767 121.132L285.427 173.855L233.032 121.701C230.945 119.987 230.269 117.086 231.381 114.626L240.254 95.0046Z" fill="#FF7059"/>
<path d="M128.762 25.0787C130.567 27.706 132.894 29.5307 134.437 30.4159C134.598 30.5079 134.642 30.7224 134.528 30.869C128.486 38.6906 120.26 37.6892 116.257 35.7428C116.022 35.6285 116.056 35.2968 116.305 35.2162L119.374 34.2238C119.714 34.1139 119.607 33.5237 119.249 33.5175C113.222 33.4149 109.747 31.1562 108.445 29.6503C108.301 29.4841 108.404 29.2381 108.62 29.2001L111.236 28.7419C111.599 28.6785 111.566 27.8948 111.205 27.8245C106.485 26.9048 103.238 24.2486 101.889 22.3414C101.755 22.1511 101.896 21.8996 102.13 21.8994L106.614 21.8965C106.982 21.8964 107.078 21.1424 106.734 21.0116C102.568 19.4277 100.956 16.7397 100.599 15.1292C100.557 14.9367 100.725 14.7733 100.92 14.8019L119.126 17.4546C123.3 18.0627 126.375 21.6021 128.762 25.0787Z" fill="white"/>
<path d="M134.313 30.6328L134.313 30.6328C132.742 29.7315 130.385 27.8825 128.556 25.2203L128.762 25.0787L128.556 25.2203C126.168 21.743 123.147 18.2931 119.09 17.702L100.884 15.0493L100.884 15.0493C100.866 15.0466 100.854 15.053 100.848 15.0593C100.844 15.0624 100.843 15.0649 100.843 15.0661L100.843 15.0661C100.843 15.0668 100.842 15.0692 100.843 15.0751L100.843 15.0752C101.18 16.5954 102.727 19.2209 106.823 20.7779L106.823 20.778C106.994 20.8429 107.095 20.9809 107.146 21.1168C107.197 21.2512 107.207 21.4003 107.189 21.5357C107.171 21.6705 107.123 21.8128 107.036 21.9279C106.945 22.0467 106.803 22.1464 106.614 22.1465M134.313 30.6328L106.614 21.8965M134.313 30.6328C134.343 30.6503 134.35 30.691 134.33 30.7162C128.382 38.4166 120.298 37.4293 116.366 35.518L116.366 35.5179C116.354 35.512 116.351 35.5068 116.35 35.5055L116.35 35.5055C116.349 35.503 116.348 35.4981 116.348 35.4909C116.349 35.4837 116.352 35.4764 116.356 35.4705C116.36 35.4655 116.367 35.4589 116.382 35.4541L119.451 34.4617C119.451 34.4617 119.451 34.4617 119.451 34.4617C119.785 34.3537 119.861 34.0198 119.819 33.7877C119.778 33.5557 119.594 33.2734 119.254 33.2676L119.253 33.2676C113.285 33.1659 109.882 30.9303 108.634 29.4868C108.629 29.4805 108.628 29.4775 108.628 29.4774C108.628 29.477 108.628 29.4762 108.628 29.475C108.629 29.4737 108.629 29.472 108.63 29.4697C108.633 29.4615 108.642 29.4501 108.663 29.4464L111.279 28.9881C111.468 28.9552 111.591 28.828 111.658 28.6946C111.724 28.5646 111.747 28.4141 111.742 28.2763C111.737 28.1379 111.702 27.9903 111.63 27.8645C111.558 27.7377 111.435 27.6146 111.252 27.5791C106.596 26.6718 103.405 24.0521 102.093 22.1971M134.313 30.6328L102.093 22.1971M106.614 22.1465L106.614 21.8965M106.614 22.1465L106.615 22.1465L106.614 21.8965M106.614 22.1465L102.13 22.1494M106.614 21.8965L102.13 21.8994M102.13 22.1494L102.13 21.8994M102.13 22.1494C102.117 22.1494 102.109 22.1525 102.104 22.1557C102.098 22.1593 102.093 22.1644 102.09 22.1698C102.088 22.1751 102.087 22.1795 102.087 22.1822C102.087 22.184 102.087 22.1887 102.093 22.1971M102.13 22.1494L102.13 22.1494L102.13 21.8994M102.13 21.8994L102.093 22.1971" stroke="black" stroke-opacity="0.3" stroke-width="0.5"/>
<path d="M161.424 23.6484C159.794 26.3876 157.59 28.3601 156.108 29.3433C155.954 29.4456 155.924 29.6627 156.047 29.8017C162.585 37.2139 170.728 35.6794 174.596 33.4769C174.824 33.3471 174.768 33.0186 174.514 32.9544L171.387 32.1637C171.04 32.0761 171.109 31.4801 171.466 31.4507C177.474 30.9564 180.794 28.4763 181.996 26.8891C182.128 26.7139 182.01 26.4751 181.791 26.4513L179.151 26.1642C178.785 26.1245 178.767 25.3403 179.123 25.2466C183.773 24.022 186.84 21.1601 188.062 19.1693C188.184 18.9705 188.026 18.7288 187.793 18.7438L183.318 19.0326C182.951 19.0563 182.806 18.3102 183.141 18.1574C187.196 16.3059 188.629 13.5186 188.88 11.8885C188.91 11.6936 188.731 11.5415 188.539 11.5826L170.544 15.4139C166.419 16.2921 163.58 20.024 161.424 23.6484Z" fill="white"/>
<path d="M188.88 11.8885C188.629 13.5186 187.196 16.3059 183.141 18.1574C182.806 18.3102 182.951 19.0563 183.318 19.0326L187.793 18.7438M188.88 11.8885L174.473 33.2597C170.674 35.4225 162.671 36.9337 156.234 29.6365C156.213 29.6124 156.217 29.5709 156.246 29.5516C157.755 28.5505 159.987 26.5519 161.638 23.7763C163.796 20.1512 166.586 16.5121 170.596 15.6584L188.591 11.8271L188.591 11.8271C188.608 11.8234 188.621 11.8288 188.628 11.8348C188.631 11.8377 188.632 11.8402 188.633 11.8414L188.633 11.8414C188.633 11.8421 188.634 11.8445 188.633 11.8504L188.633 11.8505C188.396 13.3892 187.023 16.1098 183.037 17.93L183.037 17.93C182.871 18.0059 182.779 18.1502 182.736 18.2891C182.695 18.4266 182.694 18.576 182.721 18.7099C182.748 18.8432 182.805 18.9821 182.9 19.0913C182.997 19.2039 183.146 19.2942 183.334 19.2821L183.318 19.0353L183.334 19.2821L187.809 18.9933M188.88 11.8885C188.91 11.6936 188.731 11.5415 188.539 11.5826L170.544 15.4139C166.419 16.2921 163.58 20.024 161.424 23.6484L188.88 11.8885ZM187.793 18.7438L187.809 18.9933M187.793 18.7438C188.026 18.7288 188.184 18.9705 188.062 19.1693C186.84 21.1601 183.773 24.022 179.123 25.2466C178.767 25.3403 178.785 26.1245 179.151 26.1642L181.791 26.4513C182.01 26.4751 182.128 26.7139 181.996 26.8891L187.793 18.7438ZM187.809 18.9933C187.822 18.9925 187.83 18.9951 187.836 18.9979C187.842 19.0011 187.847 19.0058 187.85 19.0109C187.853 19.016 187.854 19.0203 187.854 19.0231C187.854 19.0249 187.854 19.0297 187.849 19.0385C186.661 20.9748 183.647 23.7967 179.059 25.0048M187.809 18.9933L179.124 26.4128M181.764 26.6999L181.764 26.6999C181.786 26.7022 181.796 26.7131 181.799 26.721C181.8 26.7225 181.8 26.7238 181.801 26.7249C181.801 26.7267 181.801 26.7279 181.801 26.7285C181.801 26.7285 181.801 26.7316 181.796 26.7382C180.645 28.2597 177.394 30.7121 171.445 31.2016L171.445 31.2016C171.106 31.2296 170.941 31.5231 170.914 31.7573C170.888 31.9918 170.986 32.3201 171.326 32.4061L181.764 26.6999ZM181.764 26.6999L179.124 26.4128M181.764 26.6999L179.124 26.4128M179.124 26.4128C179.124 26.4128 179.124 26.4128 179.124 26.4128C178.934 26.3921 178.803 26.2731 178.727 26.1444C178.653 26.0189 178.62 25.8703 178.616 25.7324C178.613 25.594 178.637 25.4444 178.701 25.3142C178.765 25.183 178.88 25.0521 179.059 25.0048M179.059 25.0048L179.12 25.2364L179.059 25.0048C179.059 25.0048 179.059 25.0048 179.059 25.0048Z" stroke="black" stroke-opacity="0.3" stroke-width="0.5"/>
<path d="M141.687 5.10784C151.855 3.83788 160.851 11.4083 161.517 21.5129C161.628 23.1979 161.502 24.8442 161.16 26.4185C161.153 26.4419 161.15 26.4766 161.136 26.5234C161.128 26.5468 161.125 26.5757 161.118 26.6106C161.103 26.6804 161.085 26.7533 161.069 26.8204C161.072 26.823 161.07 26.8232 161.07 26.8289C160.56 29.12 157.731 39.9512 147.509 53.4641C146.746 54.4756 145.257 54.5736 144.365 53.6715C132.457 41.6176 128.23 31.2516 127.425 29.0471C127.424 29.0442 127.422 29.0444 127.424 29.0385C127.393 28.9603 127.369 28.896 127.348 28.837C127.337 28.8035 127.329 28.7752 127.32 28.7529C127.302 28.7083 127.291 28.6745 127.281 28.6521C126.763 27.2034 126.427 25.6681 126.301 24.0642C125.591 15.0296 132.718 6.2269 141.681 5.10822L141.687 5.10784ZM144.38 29.9027C148.363 29.64 151.376 26.1917 151.113 22.1961C150.849 18.2005 147.41 15.1859 143.427 15.4486C139.443 15.7111 136.43 19.1597 136.693 23.1467C136.956 27.1337 140.396 30.1654 144.38 29.9027Z" fill="#3E5FFF"/>
<path d="M141.705 5.3572C132.879 6.46298 125.851 15.1443 126.55 24.0446L126.551 24.0447C126.674 25.6233 127.004 27.1341 127.514 28.5598C127.521 28.5777 127.528 28.5957 127.532 28.6082L127.533 28.6088C127.539 28.6257 127.544 28.641 127.551 28.6583C127.564 28.6895 127.576 28.7277 127.582 28.7492C127.583 28.7523 127.584 28.755 127.585 28.7574C127.604 28.8119 127.627 28.8722 127.657 28.9467L127.694 29.0422L127.692 29.0486C128.564 31.4033 132.817 41.6258 144.543 53.4957C145.328 54.2897 146.639 54.2029 147.309 53.3136L147.31 53.3133C157.313 40.0895 160.213 29.4477 160.795 26.9123L160.792 26.91L160.826 26.7642C160.833 26.7336 160.84 26.7047 160.847 26.6763C160.856 26.6382 160.864 26.601 160.873 26.5621C160.873 26.5603 160.874 26.5583 160.874 26.556C160.878 26.5331 160.885 26.487 160.896 26.4513C160.896 26.4508 160.896 26.4503 160.897 26.4498L141.705 5.3572ZM141.705 5.3572L141.711 5.35682L141.718 5.35592C151.742 4.10398 160.611 11.5666 161.268 21.5293L161.517 21.5129L161.268 21.5293C161.377 23.1889 161.254 24.8094 160.917 26.3587L141.705 5.3572ZM143.41 15.1991C139.288 15.4708 136.172 19.0389 136.444 23.1631L136.444 23.1631C136.716 27.287 140.274 30.424 144.396 30.1522C148.518 29.8804 151.634 26.3123 151.362 22.1796L151.362 22.1796C151.09 18.0466 147.532 14.9273 143.41 15.1991ZM143.41 15.1991L143.427 15.4486L143.41 15.1991C143.41 15.1991 143.41 15.1991 143.41 15.1991ZM127.641 28.9213C127.642 28.9224 127.643 28.9243 127.644 28.9269L127.641 28.9213Z" stroke="black" stroke-opacity="0.3" stroke-width="0.5"/>
</g>
</svg>
