<svg width="288" height="190" viewBox="0 0 288 190" fill="none" xmlns="http://www.w3.org/2000/svg">
<path d="M54.6097 59.9097H233.391C263.551 59.9097 288 84.3779 288 114.563C288 144.748 263.551 169.217 233.391 169.217H54.6097C24.4488 169.213 0 144.748 0 114.563C0 84.3779 24.4488 59.9097 54.6097 59.9097Z" fill="white"/>
<path d="M117.724 28.1466H187.36C217.52 28.1466 241.969 52.6152 241.969 82.8007C241.969 112.986 217.52 137.454 187.36 137.454H117.724C87.5635 137.454 63.1147 112.986 63.1147 82.8007C63.119 52.6152 87.5677 28.1466 117.724 28.1466Z" fill="white"/>
<path d="M107.044 5.25922C141.353 5.25922 169.165 33.0936 169.165 67.4301V75.2788C169.165 109.615 141.353 137.449 107.044 137.449C72.736 137.449 44.9241 109.615 44.9241 75.2788V67.4301C44.9241 33.0936 72.736 5.25922 107.044 5.25922Z" fill="white"/>
<path d="M76.3679 36.9363C87.0112 36.9363 95.6418 45.574 95.6418 56.2258V58.6622C95.6418 69.314 87.0112 77.9513 76.3679 77.9513C65.725 77.9513 57.094 69.314 57.094 58.6622V56.2258C57.094 45.5702 65.7212 36.9363 76.3679 36.9363Z" fill="#E3E3E3"/>
<path d="M98.8732 39.6399C108.798 39.6399 116.845 47.693 116.845 57.6263V59.8967C116.845 69.8304 108.798 77.8831 98.8732 77.8831C88.948 77.8831 80.9016 69.8304 80.9016 59.8967V57.6263C80.9016 47.693 88.948 39.6399 98.8732 39.6399Z" fill="#E3E3E3"/>
<path d="M56.1241 17.1409C55.2333 13.8165 57.2059 10.3983 60.5277 9.51032L78.9504 4.56886C80.5441 4.13932 82.2431 4.36311 83.675 5.18971L92.6338 10.3622C94.0657 11.1887 95.1078 12.5496 95.537 14.1486L104.377 47.1722C105.268 50.4965 103.295 53.915 99.9731 54.8029L74.4852 61.6395C71.1634 62.5308 67.7483 60.5565 66.8574 57.2322L56.1241 17.1409Z" fill="#DCC6FF"/>
<path d="M94.3326 11.799L87.9091 13.5207C85.9073 14.0585 83.8481 12.8674 83.3108 10.8641L81.5903 4.43549C82.319 4.55819 83.0257 4.80724 83.6787 5.18627L92.6375 10.3587C93.2867 10.7413 93.8599 11.2286 94.3326 11.799Z" fill="#BCA4EA"/>
<path d="M77.277 45.0322C90.3187 45.0322 100.889 55.6118 100.889 68.6641V71.6492C100.889 84.7011 90.3187 95.2806 77.277 95.2806C64.2356 95.2806 53.6646 84.7011 53.6646 71.6492V68.6641C53.6646 55.6118 64.2356 45.0322 77.277 45.0322Z" fill="white"/>
<path d="M104.849 48.3456C117.011 48.3456 126.868 58.2104 126.868 70.3816V73.1648C126.868 85.336 117.011 95.2008 104.849 95.2008C92.6879 95.2008 82.8311 85.336 82.8311 73.1648V70.3816C82.8311 58.2104 92.6879 48.3456 104.849 48.3456Z" fill="white"/>
<path d="M222.7 113.9C233.346 113.9 241.981 122.538 241.981 133.197V135.634C241.981 146.289 233.35 154.93 222.7 154.93C212.053 154.93 203.419 146.292 203.419 135.634V133.197C203.422 122.538 212.053 113.9 222.7 113.9Z" fill="#E3E3E3"/>
<path d="M246.806 112.144C256.735 112.144 264.785 120.201 264.785 130.138V132.408C264.785 142.345 256.735 150.402 246.806 150.402C236.877 150.402 228.827 142.345 228.827 132.408V130.138C228.827 120.197 236.877 112.144 246.806 112.144Z" fill="#E3E3E3"/>
<path d="M222.652 89.3239C223.266 85.9383 226.504 83.6857 229.887 84.2994L248.656 87.6926C250.283 87.9849 251.722 88.9125 252.663 90.2697L258.563 98.7739C259.505 100.131 259.869 101.809 259.577 103.437L253.507 137.082C252.898 140.468 249.659 142.72 246.272 142.106L220.305 137.414C216.922 136.804 214.671 133.563 215.284 130.173L222.652 89.3239Z" fill="#95D1F9"/>
<path d="M259.487 100.791L252.941 99.6075C250.9 99.2396 249.547 97.2868 249.915 95.2436L251.098 88.6959C251.704 89.1183 252.238 89.6451 252.667 90.2626L258.567 98.7665C258.996 99.3874 259.307 100.077 259.487 100.791Z" fill="#6AAED8"/>
<path d="M220.139 121.933C233.18 121.933 243.751 132.513 243.751 145.564V148.55C243.751 161.602 233.18 165.312 220.139 165.312C207.097 165.312 196.526 161.602 196.526 148.55V145.564C196.526 132.516 207.097 121.933 220.139 121.933Z" fill="white"/>
<path d="M249.659 119.782C261.821 119.782 271.677 129.646 271.677 141.818V144.601C271.677 156.772 261.821 159.143 249.659 159.143C237.497 159.143 227.641 156.772 227.641 144.601V141.818C227.641 129.646 237.501 119.782 249.659 119.782Z" fill="white"/>
<path d="M141.86 169.638C142.216 175.513 144.528 181.116 145.094 186.962C145.227 188.33 144.103 189.446 142.733 189.446H125.488C124.113 189.446 122.989 188.33 123.091 186.958C123.665 178.972 126.89 175.93 126.89 169.638H141.86Z" fill="black"/>
<path d="M107.208 117.072C101.758 118.569 96.952 121.858 91.5718 123.55C90.3143 123.946 89.045 123.112 88.7704 121.822L85.3544 105.594C85.0836 104.304 85.9082 103.025 87.2138 102.843C94.834 101.8 98.3264 104.231 104.241 102.985L107.208 117.072Z" fill="black"/>
<path d="M195.672 99.5145L179.07 119.804H138.148L114.476 109.443C105.769 105.632 100.663 96.4804 101.989 87.0616C102.345 84.5411 103.359 82.1626 104.936 80.1638L110.781 72.7438C111.776 71.4817 112.576 70.0818 113.166 68.589L118.894 54.0081C120.628 49.5944 123.766 45.8806 127.824 43.4327L145.461 33.9658H164.667L181.698 43.1861C186.007 45.7834 189.269 49.8089 190.927 54.5627L199.351 78.7601C201.817 85.8481 200.427 93.709 195.677 99.5145H195.672Z" fill="#FFBD6E"/>
<path d="M142.782 95.4601H180.089C189.096 95.4601 196.4 102.771 196.4 111.784C196.4 120.798 189.096 128.109 180.089 128.109H142.782C133.775 128.109 126.47 120.798 126.47 111.784C126.47 102.766 133.775 95.4601 142.782 95.4601Z" fill="#4680E1"/>
<path d="M102.005 106.255C100.708 101.359 104.552 96.6222 109.605 96.8892L178.484 100.546L178.674 104.297C179.325 117.251 169.005 128.11 156.045 128.11H113.534C110.155 128.11 107.196 125.832 106.331 122.563L102.005 106.255Z" fill="#4680E1"/>
<path fill-rule="evenodd" clip-rule="evenodd" d="M123.006 97.7344L137.599 99.1989L152.063 128.106H113.539C110.159 128.106 107.2 125.828 106.335 122.559L102.022 106.307C100.72 101.396 104.593 96.6459 109.662 96.9453L123.006 97.7344Z" fill="#306DC6"/>
<path d="M179.184 69.9767H137.15C134.842 69.9767 132.97 71.8496 132.97 74.1598V97.8474C132.97 100.157 134.842 102.031 137.15 102.031H179.184C181.492 102.031 183.363 100.157 183.363 97.8474V74.1598C183.363 71.8496 181.492 69.9767 179.184 69.9767Z" fill="white"/>
<path d="M158.167 88.5547C159.573 88.5547 160.713 87.4138 160.713 86.0059C160.713 84.5981 159.573 83.4572 158.167 83.4572C156.76 83.4572 155.62 84.5981 155.62 86.0059C155.62 87.4138 156.76 88.5547 158.167 88.5547Z" fill="#C3DCF4"/>
<path d="M102.79 164.836C116.303 164.836 127.258 153.872 127.258 140.347C127.258 126.822 116.303 115.858 102.79 115.858C89.2756 115.858 78.3206 126.822 78.3206 140.347C78.3206 153.872 89.2756 164.836 102.79 164.836Z" fill="white"/>
<path d="M174.644 140.408C159.872 154.354 159.634 149.22 141.12 149.22C122.605 149.22 107.596 158.941 107.596 140.408C107.596 121.875 122.605 106.857 141.12 106.857C159.634 106.857 174.644 121.879 174.644 140.408Z" fill="white"/>
<path d="M123.155 86.0055C129.894 86.0055 135.719 90.7149 137.138 97.309L151.497 164.125C152.495 168.769 148.958 173.154 144.208 173.154H125.003C121.268 173.154 118.11 170.391 117.613 166.685L108.982 102.221C107.831 93.6358 114.5 86.0055 123.155 86.0055Z" fill="#4680E1"/>
<path d="M184.6 85.0068H171.863C170.974 85.0068 170.387 85.9289 170.767 86.734L172.21 89.7969C172.679 90.7921 173.492 91.5849 174.499 92.0302L183.719 96.1203C183.998 96.2415 184.297 96.3066 184.6 96.3066C185.805 96.3066 186.78 95.3313 186.78 94.1257V87.1793C186.78 85.9817 185.805 85.0068 184.6 85.0068Z" fill="#824F36"/>
<path d="M124.986 89.6752C125.573 88.5951 125.492 87.2721 124.772 86.2765L122.27 82.8056C121.223 81.3492 119.181 81.0454 117.754 82.134L115.386 83.9381C114.521 84.5979 113.805 85.4313 113.283 86.3859L111.028 90.5208C110.741 91.0505 110.672 91.6736 110.842 92.2523L111.634 94.9548C111.832 95.6344 112.584 95.9783 113.223 95.6868L123.491 91.0585C124.129 90.7755 124.651 90.286 124.986 89.6752Z" fill="#824F36"/>
<path d="M147.12 17.5048C147.12 16.0219 145.923 14.8283 144.448 14.8283C142.974 14.8283 141.774 16.0219 141.774 17.5048C141.774 18.9876 142.972 21.3955 144.448 21.3955C145.925 21.3955 147.12 18.9784 147.12 17.5048Z" fill="#824F36"/>
<path d="M165.21 17.4317V39.1234C165.21 39.7388 164.818 40.2803 164.235 40.4687L163.25 40.7876C158.128 42.4358 152.62 42.4358 147.504 40.7876L146.524 40.4687C145.942 40.2803 145.55 39.7388 145.55 39.1301V17.4317H165.212H165.21Z" fill="#824F36"/>
<path d="M168.969 17.5048C168.969 16.0219 167.772 14.8283 166.295 14.8283C164.818 14.8283 163.621 16.0219 163.621 17.5048C163.621 18.9876 164.818 21.3955 166.295 21.3955C167.772 21.3955 168.969 18.9784 168.969 17.5048Z" fill="#824F36"/>
<path d="M155.36 32.8521C149.154 32.8521 144.058 27.9492 143.81 21.7491L143.418 15.4712C143.146 8.67902 148.574 3.02307 155.362 3.02307C162.15 3.02307 167.576 8.67902 167.306 15.4712L166.913 21.7491C166.666 27.9492 161.568 32.8521 155.362 32.8521H155.36Z" fill="#824F36"/>
<path d="M151.68 22.8587C151.68 23.8205 151.54 24.5941 151.109 24.5941C150.678 24.5941 150.538 23.8205 150.538 22.8587C150.538 21.8969 150.678 21.1302 151.109 21.1302C151.54 21.1302 151.68 21.9038 151.68 22.8587Z" fill="black"/>
<path d="M152.246 19.1563C152.413 19.0347 152.523 18.8441 152.528 18.6261C152.537 18.2634 152.251 17.9535 151.886 17.9443C151.819 17.9398 150.267 17.9076 148.804 19.0462C148.512 19.2734 148.457 19.6866 148.684 19.9827C148.912 20.2719 149.329 20.3247 149.62 20.0975C150.691 19.2619 151.833 19.2757 151.845 19.2826C151.991 19.2849 152.131 19.2367 152.246 19.1609" fill="black"/>
<path d="M159.61 21.1302C160.041 21.1302 160.181 21.9038 160.181 22.8587C160.181 23.8136 160.041 24.5941 159.61 24.5941C159.179 24.5941 159.039 23.8205 159.039 22.8587C159.039 21.9038 159.179 21.1302 159.61 21.1302Z" fill="black"/>
<path d="M158.475 19.1812C158.59 19.2569 158.73 19.3029 158.876 19.2982C158.887 19.2914 160.032 19.2661 161.11 20.0925C161.403 20.3151 161.821 20.26 162.045 19.9685C162.271 19.6701 162.213 19.2569 161.917 19.032C160.442 17.9072 158.89 17.9531 158.823 17.96C158.459 17.9738 158.174 18.286 158.186 18.6486C158.193 18.8667 158.305 19.0572 158.475 19.1766" fill="black"/>
<path d="M165.21 27.3475V32.6568C163.267 34.1398 160.844 35.0074 158.22 35.0074C156.229 35.0074 154.358 34.509 152.723 33.6186C152.191 33.3292 152.494 32.5051 153.087 32.62C153.826 32.7716 154.59 32.8519 155.371 32.8519C159.52 32.8519 163.174 30.6529 165.21 27.3475Z" fill="#663C2B"/>
<path d="M167.315 11.9637C167.315 5.35981 161.962 0 155.362 0C148.762 0 143.407 5.35981 143.407 11.9637V16.9907C143.407 17.5117 143.832 17.9387 144.352 17.9387C144.872 17.9387 145.297 17.5117 145.297 16.9907C145.297 16.6716 145.313 16.348 145.343 16.0175C145.347 15.0213 145.496 14.0618 145.772 13.1527L148.581 13.4787C152.195 13.8988 155.773 12.4389 158.064 9.60864C157.75 12.3172 159.69 14.7687 162.396 15.0832L165.421 15.4344C165.433 15.6089 165.439 15.781 165.439 15.9532V16.9953C165.439 17.5163 165.863 17.9364 166.384 17.9364C166.905 17.9364 167.329 17.5163 167.329 16.9953V11.9592H167.32L167.315 11.9637Z" fill="black"/>
<path d="M156.05 28.9647C156.05 28.9647 158.612 29.4488 160.362 27.53" stroke="black" stroke-width="1.03495" stroke-miterlimit="10" stroke-linecap="round"/>
<path d="M39.7454 125.215C50.3887 125.215 59.0193 133.853 59.0193 144.504V146.941C48.376 146.941 20.4719 146.941 20.4719 146.941V144.504C20.4719 133.853 29.1025 125.215 39.7454 125.215Z" fill="#E3E3E3"/>
<path d="M62.2543 127.922C72.1795 127.922 80.2259 135.975 80.2259 145.909V148.179C80.2259 158.113 73.0171 156.057 63.0915 156.057C53.1662 156.057 44.2822 158.113 44.2822 148.179V145.909C44.2822 135.975 52.3286 127.922 62.2543 127.922Z" fill="#E3E3E3"/>
<path d="M26.8695 105.277C26.4294 101.862 28.8387 98.7398 32.2505 98.2993L51.1675 95.8628C52.8047 95.6538 54.4601 96.1011 55.7658 97.1081L63.9562 103.432C65.2656 104.443 66.1168 105.93 66.3297 107.572L70.6897 141.48C71.1299 144.895 68.7209 148.017 65.3087 148.458L39.1357 151.829C35.7239 152.269 32.6041 149.858 32.1639 146.444L26.8695 105.277Z" fill="#FFBD6E"/>
<path d="M65.446 105.089L58.8493 105.937C56.7935 106.201 54.9108 104.75 54.6476 102.692L53.8003 96.0903C54.5036 96.307 55.1744 96.6534 55.7695 97.1117L63.96 103.436C64.5551 103.898 65.0565 104.457 65.446 105.089Z" fill="#E59A48"/>
<path d="M40.6544 133.311C53.6957 133.311 64.2668 143.891 64.2668 156.943V159.928C51.2255 159.928 17.6245 151.703 17.6245 151.703C20.006 141.173 29.4121 133.311 40.6544 133.311Z" fill="white"/>
<path d="M68.2273 136.625C80.3887 136.625 90.2455 146.49 90.2455 158.661V161.444C78.0841 161.444 46.2124 161.444 46.2124 161.444V158.661C46.2124 146.49 56.0692 136.625 68.2273 136.625Z" fill="white"/>
</svg>
