<svg width="961" height="800" viewBox="0 0 961 800" fill="none" xmlns="http://www.w3.org/2000/svg">
<mask id="mask0_2824_10785" style="mask-type:alpha" maskUnits="userSpaceOnUse" x="0" y="0" width="961" height="800">
<rect width="961" height="800" fill="#16161C"/>
</mask>
<g mask="url(#mask0_2824_10785)">
<rect width="961" height="800" fill="#16161C"/>
<path d="M-206 356.314L119.273 343.629H804.548V596.249H-206V356.314Z" fill="#3D3D3D"/>
<path d="M310.526 124.426H283.782C277.978 124.426 272.617 127.522 269.715 132.547L256.344 155.704C253.442 160.729 253.442 166.92 256.344 171.945L269.715 195.103C272.617 200.128 277.98 203.223 283.782 203.223H310.526C316.33 203.223 321.691 200.128 324.593 195.103L337.964 171.945C340.866 166.92 340.866 160.729 337.964 155.704L324.593 132.547C321.691 127.522 316.328 124.426 310.526 124.426Z" fill="#FF7059"/>
<path d="M708.464 27.5901C708.464 -6.89915 683.592 -35.5184 650.828 -41.4736C633.666 -95.022 583.508 -133.811 524.251 -133.811C489.452 -133.811 457.869 -120.378 434.191 -98.4929C417.699 -115.908 394.398 -126.832 368.515 -126.832C318.527 -126.832 277.992 -86.3145 277.992 -36.3222C277.992 -9.42005 289.794 14.6689 308.43 31.2437C292.596 44.4694 282.413 64.2227 282.413 86.4604C282.413 126.32 314.727 158.617 354.581 158.617C358.905 158.617 363.119 158.166 367.224 157.448C387.37 156.571 404.495 143.431 407.784 143.431C446.505 143.431 442.522 214.711 445.75 214.321C462.583 213.907 459.562 137.975 473.399 121.875C482.631 108.406 497.455 101.074 514.251 101.074C533.252 101.074 549.769 111.548 558.441 127.014C566.967 143.516 584.153 154.817 603.995 154.817C632.326 154.817 655.274 131.873 655.274 103.559C655.274 100.928 655.018 98.3715 654.628 95.8375C685.48 88.4215 708.452 60.7276 708.452 27.6022L708.464 27.5901Z" fill="#BCBCBC"/>
<path d="M692.995 -2.5153C692.995 -52.3981 652.545 -92.8547 602.643 -92.8547C589.719 -92.8547 577.454 -90.0902 566.346 -85.2189C549.318 -108.467 521.912 -123.642 490.877 -123.642C470.28 -123.642 451.267 -116.956 435.835 -105.679C416.87 -140.984 379.611 -165 336.724 -165C274.63 -165 224.289 -114.666 224.289 -52.5807C224.289 9.5048 274.63 59.8381 336.724 59.8381C354.702 59.8381 371.621 55.4904 386.688 48.0007C392.753 43.7261 400.11 41.1686 408.088 41.1686C427.784 41.1686 443.752 56.5012 445.104 75.853C447.016 84.926 448.039 94.108 458.088 102.73C476.139 118.209 495.834 105.678 498.965 103.498C499.001 106.165 499.111 108.82 499.367 111.414C499.732 123.348 502.278 145.525 515.274 159.457C534.531 180.076 555.408 187.042 574.165 187.516C577.588 187.931 581.047 188.211 584.579 188.211C631.887 188.211 670.243 149.861 670.243 102.548C670.243 89.31 667.149 76.839 661.778 65.6716C680.864 49.109 692.983 24.7278 692.983 -2.5275L692.995 -2.5153Z" fill="#E3E3E3"/>
<path d="M576.079 48.099C580.476 40.524 583.034 31.7677 583.034 22.3782C583.034 -5.96097 560.062 -28.9294 531.718 -28.9294C515.835 -28.9294 501.633 -21.7076 492.23 -10.3695L374.301 -12.6225C366.348 -27.0905 350.988 -36.9062 333.303 -36.9062C307.481 -36.9062 286.555 -15.9838 286.555 9.83443C286.555 35.6526 307.493 56.5751 333.303 56.5751C341.61 56.5751 349.405 54.383 356.165 50.5834C381.488 45.7729 398.637 57.5494 402.474 69.6669C405.446 79.0439 404.35 88.7749 414.837 97.7629C430.221 110.952 447.005 100.284 449.66 98.4319C449.685 100.698 449.782 102.963 450.014 105.167C450.33 115.336 446.177 196.42 462.169 196.822C465.08 197.175 462.169 139.815 496.371 132.97C535.908 125.054 595.591 137.939 595.591 97.6289C595.591 78.4839 588.161 61.1177 576.091 48.099H576.079Z" fill="#E3E3E3"/>
<path d="M600.597 46.3817C604.994 38.8068 607.565 30.0505 607.565 20.6609C607.565 -7.6782 584.593 -30.6467 556.249 -30.6467C552.741 -30.6467 549.343 -30.2448 546.03 -29.575C539.977 -67.6447 507.078 -96.7754 467.297 -96.7754C427.517 -96.7754 394.983 -67.9613 388.65 -30.1839C379.941 -38.2216 368.333 -43.1782 355.532 -43.1782C328.455 -43.1782 306.506 -21.2328 306.506 5.85201C306.506 32.9367 328.467 54.8822 355.532 54.8822C363.631 54.8822 371.256 52.885 377.992 49.402C404.801 43.191 423.01 55.4181 426.981 67.9618C429.941 77.3388 428.844 87.0698 439.344 96.0698C454.727 109.259 471.512 98.5908 474.167 96.7398C474.191 99.0048 474.289 101.27 474.52 103.474C474.837 113.643 476.993 132.544 488.089 144.406C504.483 161.979 522.266 167.91 538.259 168.312C541.17 168.665 544.13 168.909 547.138 168.909C587.443 168.909 620.11 136.234 620.11 95.9358C620.11 76.7908 612.68 59.4248 600.61 46.4061L600.597 46.3817Z" fill="#F8F8F8"/>
<path d="M551.851 42.2773C555.079 37.7347 557.028 32.2179 557.028 26.2261C557.028 10.8813 544.592 -1.5528 529.245 -1.5528C525.116 -1.5528 521.23 -0.590701 517.698 1.029C515.067 -25.2885 492.875 -45.8457 465.859 -45.8457C448.344 -45.8457 432.899 -37.1868 423.447 -23.9367C455.664 -17.263 480.731 8.811 485.944 41.5466C489.257 40.8767 492.655 40.4748 496.163 40.4748C524.507 40.4748 547.479 63.4433 547.479 91.7824C547.479 101.172 544.921 109.928 540.524 117.503C540.743 117.746 540.938 118.002 541.157 118.246C559.647 114.361 573.544 97.9694 573.544 78.3254C573.544 62.7004 564.762 49.1459 551.876 42.2894L551.851 42.2773Z" fill="white"/>
<path d="M915.5 373.5L938.5 344.5C874.517 334.124 511.183 243.659 470.403 182.901C464.886 174.68 464.167 186.408 455.897 183.291C453.034 182.219 450.891 182.219 448.187 183.291C439.977 186.542 439.198 174.668 433.668 182.901C389.99 248.007 137.908 356.407 -52.0176 359.926L164.948 362.886H441.293V363.19L452.048 363.044L462.803 363.19V362.886H728.797L915.5 373.5Z" fill="#3D3D3D"/>
<path d="M323.646 497.049L437.834 426.531C463.203 410.864 465.512 374.846 442.35 356.069L430.604 346.546C414.722 333.671 415.146 309.308 431.466 296.992L447.755 284.701C456.007 278.474 456.126 266.123 447.997 259.738L444.92 257.323C438.34 252.155 438.441 242.158 445.122 237.123L451.362 232.422C454.802 229.829 454.896 224.696 451.553 221.98L451.339 221.806C448.445 219.455 448.176 215.132 450.759 212.441L451.868 211.286C453.656 209.424 453.626 206.474 451.8 204.648C449.87 202.718 446.715 202.811 444.901 204.851L442.956 207.038C441.218 208.994 438.021 208.393 437.112 205.939C436.206 203.494 433.226 202.575 431.099 204.084L418.182 213.257C415.971 214.826 413.162 212.319 414.472 209.946L421.475 197.251C424.329 194.201 430.566 187.369 432.677 184.441C435.316 180.781 435.532 179.461 437.581 179.534C439.629 179.608 441.789 183.711 445.157 183.638C448.524 183.565 449.076 182.391 451.419 182.245C453.762 182.099 456.203 183.638 458.732 183.638C461.471 183.638 464.277 179.534 466.547 179.534C468.816 179.534 469.428 181.367 470.38 182.904C471.332 184.441 476.049 190.781 482.243 196.266C487.013 200.49 488.831 201.774 489.198 201.917C489.21 201.92 489.222 201.924 489.234 201.928C489.224 201.926 489.212 201.922 489.198 201.917C482.62 199.828 476.449 206.102 478.659 212.649L479.802 216.037C480.371 217.721 478.495 219.178 477.003 218.21L468.173 212.482L466.906 211.548C464.981 210.131 462.314 210.308 460.594 211.968C458.291 214.189 458.7 217.985 461.422 219.666L465.448 222.154C470.201 225.091 470.923 231.714 466.915 235.606L465.378 237.098C460.334 241.997 461.609 250.403 467.878 253.587L479.578 259.53C491.807 265.741 494.056 282.26 483.93 291.512L477.448 297.435C464.583 309.19 466.901 330.067 482.031 338.715L533.136 367.924C577.224 393.122 579.604 455.813 537.555 484.281L518.695 497.049H323.646Z" fill="#FF7059"/>
<path d="M696.764 163.824H689.23C687.595 163.824 686.084 164.696 685.266 166.112L681.499 172.636C680.682 174.051 680.682 175.795 681.499 177.211L685.266 183.735C686.084 185.151 687.596 186.023 689.23 186.023H696.764C698.399 186.023 699.909 185.151 700.727 183.735L704.494 177.211C705.311 175.795 705.311 174.051 704.494 172.636L700.727 166.112C699.909 164.696 698.398 163.824 696.764 163.824Z" fill="#FF7059"/>
<path d="M381.426 174.924H373.892C372.257 174.924 370.747 175.796 369.929 177.212L366.162 183.736C365.345 185.152 365.345 186.896 366.162 188.312L369.929 194.836C370.747 196.251 372.257 197.123 373.892 197.123H381.426C383.062 197.123 384.572 196.251 385.389 194.836L389.156 188.312C389.974 186.896 389.974 185.152 389.156 183.736L385.389 177.212C384.572 175.796 383.061 174.924 381.426 174.924Z" fill="#FF7059"/>
<path d="M726.789 91.1875H710.753C707.273 91.1875 704.059 93.0435 702.319 96.0565L694.301 109.941C692.561 112.954 692.561 116.667 694.301 119.68L702.319 133.566C704.059 136.579 707.274 138.434 710.753 138.434H726.789C730.269 138.434 733.484 136.579 735.224 133.566L743.241 119.68C744.981 116.667 744.981 112.954 743.241 109.941L735.224 96.0565C733.484 93.0435 730.268 91.1875 726.789 91.1875Z" fill="#FF7059"/>
<path d="M1013.63 370.106C986.924 327.259 930.524 314.162 887.667 340.876C876.568 347.794 867.515 356.734 860.583 366.865C833.512 356.011 801.851 357.647 775.198 374.26C757.509 385.286 744.759 401.207 737.543 419.155C702.354 398.981 657.497 398.298 620.666 421.256C567.338 454.496 494.056 516.79 527.295 570.118C560.535 623.446 687.713 647.619 741.041 614.379C756.481 604.756 768.683 591.965 777.613 577.466C780.534 570.547 785.483 564.412 792.335 560.142C809.249 549.598 831.172 554.22 842.694 570.118C849.194 576.888 854.989 584.228 868.235 586.254C892.025 589.887 902.23 568.58 903.752 565.032C905.211 567.303 906.726 569.525 908.335 571.616C915.038 581.672 929.098 599.358 947.719 604.368C975.295 611.769 996.954 606.577 1013.32 596.944C1016.48 595.467 1019.6 593.856 1022.63 591.965C1063.26 566.641 1075.67 513.168 1050.34 472.529C1043.25 461.158 1033.92 452.103 1023.33 445.386C1030.85 420.942 1028.21 393.512 1013.61 370.102L1013.63 370.106Z" fill="white"/>
<path d="M694.499 366.716C691.273 371.539 690.865 377.718 693.43 382.923L704.095 404.576C706.66 409.782 711.806 413.224 717.597 413.607L741.179 415.163C747.236 415.563 753.011 412.552 756.15 407.356L768.917 386.232C771.729 381.577 772.026 375.824 769.707 370.905L760.01 350.334C757.493 344.994 752.278 341.441 746.388 341.052L722.489 339.475C716.699 339.092 711.144 341.828 707.918 346.652L694.499 366.716Z" fill="#FF7059"/>
<path d="M686.21 374.765C682.728 379.971 682.549 386.715 685.751 392.098L695.423 408.36C696.856 410.771 698.889 412.769 701.324 414.16L713.823 421.302C716.014 422.555 718.468 423.279 720.988 423.418L733.528 424.108C738.981 424.409 744.221 421.948 747.472 417.559L761.767 398.263C765.467 393.269 765.992 386.6 763.119 381.088L751.378 358.557C748.757 353.528 743.702 350.229 738.043 349.856L713.714 348.25C707.924 347.868 702.369 350.604 699.143 355.428L686.21 374.765Z" fill="#FF7059"/>
<path d="M674.883 351.769C671.35 356.374 670.543 362.513 672.764 367.874L682.004 390.173C684.226 395.534 689.138 399.302 694.892 400.059L718.323 403.141C724.342 403.933 730.3 401.302 733.769 396.321L747.878 376.069C750.987 371.606 751.656 365.885 749.661 360.825L741.318 339.669C739.152 334.178 734.178 330.293 728.326 329.524L704.581 326.4C698.827 325.644 693.106 328.014 689.574 332.618L674.883 351.769Z" fill="#E55041"/>
<path d="M-31.1717 378.084C-4.465 335.238 51.9347 322.141 94.7918 348.855C105.89 355.772 114.944 364.713 121.876 374.844C148.947 363.989 180.608 365.626 207.261 382.239C224.95 393.265 237.7 409.186 244.916 427.134C280.105 406.96 324.962 406.277 361.793 429.235C415.121 462.475 431.407 532.656 398.167 585.984C364.927 639.313 294.746 655.598 241.418 622.358C225.978 612.735 213.776 599.944 204.846 585.445C201.925 578.526 196.976 572.391 190.124 568.12C173.21 557.577 151.287 562.199 139.765 578.097C133.265 584.867 127.47 592.206 114.224 594.233C90.4341 597.866 80.2286 576.559 78.7073 573.011C77.248 575.282 75.7324 577.504 74.124 579.595C67.4204 589.651 53.3608 607.337 34.7402 612.347C7.16339 619.748 -14.4956 614.556 -30.8592 604.923C-34.0203 603.446 -37.1412 601.835 -40.1747 599.944C-80.8032 574.62 -93.2122 521.147 -67.881 480.508C-60.7936 469.137 -51.46 460.082 -40.8678 453.365C-48.3921 428.921 -45.747 401.491 -31.1548 378.081L-31.1717 378.084Z" fill="white"/>
<path d="M-308 526.328C-308 526.328 -134.087 494.927 91.6478 498.877C261.804 501.855 509.865 584.458 763.379 510.18C1016.89 435.902 1569.19 526.328 1569.19 526.328V946.348H-308V526.328Z" fill="#C2DBF3"/>
<path d="M315.132 483.343C311.906 488.167 311.498 494.345 314.063 499.551L324.728 521.204C327.293 526.41 332.44 529.852 338.23 530.234L362.315 531.824C368.105 532.206 373.66 529.47 376.886 524.646L390.305 504.583C393.531 499.759 393.939 493.581 391.375 488.375L380.709 466.722C378.145 461.516 372.998 458.074 367.207 457.692L343.122 456.102C337.332 455.72 331.777 458.456 328.551 463.28L315.132 483.343Z" fill="#FF7059"/>
<path d="M509.592 478.996C506.767 483.221 506.41 488.633 508.656 493.192L517.998 512.158C520.244 516.718 524.752 519.733 529.824 520.067L550.92 521.46C555.992 521.794 560.857 519.398 563.683 515.173L575.436 497.6C578.262 493.375 578.619 487.963 576.373 483.404L567.03 464.438C564.784 459.878 560.276 456.863 555.204 456.529L534.109 455.136C529.037 454.802 524.173 457.198 521.347 461.423L509.592 478.996Z" fill="#BF4134"/>
<path d="M245.062 487.688C241.141 493.55 240.646 501.059 243.762 507.386L256.725 533.701C259.841 540.027 266.096 544.211 273.133 544.675L302.404 546.607C309.441 547.072 316.192 543.746 320.113 537.884L336.421 513.501C340.342 507.639 340.837 500.13 337.721 493.803L324.758 467.488C321.642 461.161 315.387 456.978 308.35 456.513L279.079 454.582C272.042 454.117 265.291 457.442 261.371 463.305L245.062 487.688Z" fill="#E55041"/>
<path d="M552.532 514.001C550.083 517.663 549.773 522.353 551.72 526.305L559.818 542.742C561.764 546.694 565.67 549.307 570.066 549.597L588.35 550.804C592.746 551.094 596.961 549.017 599.41 545.355L609.597 530.125C612.046 526.463 612.357 521.773 610.41 517.821L602.313 501.384C600.367 497.432 596.459 494.819 592.063 494.529L573.78 493.322C569.384 493.032 565.169 495.109 562.72 498.771L552.532 514.001Z" fill="#E55041"/>
<path d="M567.987 359.088C567.987 358.33 567.454 357.677 566.711 357.525L501.377 344.16L491.035 373.478L567.987 372.005V359.088Z" fill="#95D1F9"/>
<path d="M577.573 353.15L567.865 357.212C566.031 357.98 565.167 360.088 565.934 361.922C566.701 363.755 568.81 364.62 570.644 363.853L580.352 359.791C582.185 359.023 583.05 356.915 582.283 355.081C581.515 353.248 579.407 352.383 577.573 353.15Z" fill="#F3C8B7"/>
<path d="M540.185 360.008L546.681 360.351C548.136 360.427 549.253 361.67 549.177 363.125C549.1 364.58 547.858 365.697 546.402 365.621L539.906 365.278L540.185 360.008Z" fill="#F3C8B7"/>
<path d="M439.899 605.162C439.899 605.162 435.6 615.235 435.6 623.413H504.441C504.441 615.745 471.266 612.262 471.266 605.162H439.899Z" fill="black"/>
<path d="M439.898 605.162H471.265C471.265 605.162 504.398 482.624 504.398 389.523H447.559L439.898 605.162Z" fill="#3D3D3D"/>
<path d="M510.194 370.303L462.721 327.835L505.619 291.717L533.159 362.245L510.194 370.303Z" fill="#95D1F9"/>
<path d="M444.673 387.329L443.402 326.635C444.845 310.994 451.581 296.313 462.507 285.028L478.857 269.828L499.002 283.911C505.18 289.089 508.901 296.627 509.249 304.677L513.399 399.514C513.756 407.58 505.992 413.552 498.287 411.142L452.791 399.514C447.552 397.875 444.163 392.796 444.667 387.327" fill="#95D1F9"/>
<path d="M512.124 367.761V372.148L486.196 383.37C472.809 386.392 463.037 386.464 458.768 374.479L461.342 383.494L458.672 374.143C458.467 373.557 454.448 354.404 454.285 353.799L449.406 325.002L478.005 280.75L487.27 374.758L512.124 367.761Z" fill="#6AAED8"/>
<path d="M506.448 349.028L504.559 335.744C504.425 334.822 505.705 334.449 506.092 335.291L516.765 368.49L510.131 372.149L506.448 349.028Z" fill="#6AAED8"/>
<mask id="mask1_2824_10785" style="mask-type:luminance" maskUnits="userSpaceOnUse" x="461" y="209" width="83" height="89">
<path d="M543.176 220.953L474.234 209L461.045 285.073L529.986 297.026L543.176 220.953Z" fill="white"/>
</mask>
<g mask="url(#mask1_2824_10785)">
<path d="M477.938 270.966L483.192 240.657C485.143 229.404 495.85 221.858 507.108 223.809C518.365 225.761 525.907 236.468 523.955 247.725L521.924 259.441C519.844 271.438 507.902 279.051 496.149 275.878" fill="#F3C8B7"/>
<path d="M523.618 249.667L525.163 254.113C525.436 254.91 525.198 255.793 524.55 256.338L522.1 258.398L522.106 253.902L523.614 249.666L523.621 249.667L523.618 249.667Z" fill="#F3C8B7"/>
<path d="M477.936 270.966L486.608 267.34L496.143 275.877L496.953 287.154C497.063 288.693 495.179 289.509 494.128 288.38L477.936 270.966Z" fill="#F3C8B7"/>
<path d="M483.694 238.47C486.566 228.445 496.597 221.987 507.108 223.809C515.043 225.185 521.133 230.911 523.352 238.114C523.384 238.218 523.414 238.322 523.445 238.426C517.327 238.185 514.951 232.852 514.819 232.545C517.585 244.727 500.027 246.835 496.556 246.594C496.065 247.232 495.572 247.902 495.069 248.585C491.391 253.576 487.208 259.252 480.182 258.044L483.196 240.658C483.324 239.924 483.49 239.193 483.694 238.47Z" fill="black"/>
<path d="M498.642 249.826C499.061 247.413 497.446 245.121 495.033 244.703C492.62 244.284 490.328 245.899 489.91 248.312C489.492 250.725 491.106 253.017 493.519 253.435C495.932 253.853 498.224 252.239 498.642 249.826Z" fill="#F3C8B7"/>
<path d="M519.287 244.917C518.977 244.863 518.691 244.667 518.533 244.363C518.271 243.852 518.471 243.229 518.982 242.967C519.072 242.917 521.234 241.827 524.05 242.449C524.61 242.57 524.968 243.128 524.844 243.687C524.716 244.246 524.173 244.606 523.606 244.481C521.546 244.023 519.944 244.811 519.931 244.821C519.728 244.924 519.5 244.95 519.287 244.913" fill="black"/>
<path d="M521.691 250.694C521.412 252.504 521.012 253.943 520.483 253.862C519.955 253.782 520.006 252.291 520.281 250.48C520.56 248.67 520.96 247.232 521.488 247.312C522.017 247.392 521.966 248.883 521.691 250.694Z" fill="black"/>
<path d="M509.199 260.449C508.819 260.438 508.572 260.067 508.605 259.723C508.637 259.363 508.964 259.093 509.324 259.128C509.49 259.145 509.659 259.167 509.824 259.196C512.987 259.744 515.699 262.604 516.011 265.708C516.027 265.884 515.974 266.056 515.861 266.194C515.749 266.332 515.592 266.417 515.412 266.436C515.352 266.445 515.297 266.439 515.233 266.428C514.938 266.376 514.715 266.134 514.686 265.836C514.434 263.296 512.199 260.954 509.589 260.502C509.458 260.479 509.333 260.453 509.199 260.449Z" fill="black"/>
<path d="M444.414 363.356L472.865 288.873L497.616 306.453L483.506 338.606L530.452 354.615L520.627 361.342L444.414 363.356Z" stroke="black" stroke-width="0.797787"/>
</g>
<path d="M271.941 622.729C274.239 619.905 277.687 618.266 281.327 618.266H592.198C595.839 618.266 599.287 619.905 601.584 622.729L638.207 667.739C643.118 673.774 641.136 682.783 634.1 686.104C615.282 694.988 580.607 710.864 552.753 720.824C519.557 732.695 465.436 747.111 447.258 751.858C443.186 752.921 438.982 752.928 434.906 751.88C416.538 747.157 361.393 732.714 326.755 720.824C297.522 710.79 260.108 694.754 240.014 685.909C232.759 682.716 230.609 673.527 235.612 667.379L271.941 622.729Z" fill="black" fill-opacity="0.15"/>
<path d="M236.261 536.936C235.706 535.86 236.09 534.557 237.164 533.999C247.442 528.66 297.04 503.021 330.621 487.87C363.295 473.129 413.524 453.577 426.181 448.686C427.624 448.128 429.149 449.206 429.143 450.753L428.358 654.964L278.979 618.187C278.362 618.035 277.84 617.624 277.549 617.058L236.261 536.936Z" fill="#E59A48"/>
<path d="M634.736 542.728C635.265 541.712 634.955 540.48 633.982 539.874C624.441 533.936 576.514 504.419 542.41 489.198C509.464 474.493 459.77 454.39 447.062 449.274C445.603 448.686 444.048 449.789 444.075 451.361L447.505 654.964L594.633 618.188C595.244 618.035 595.761 617.628 596.051 617.069L634.736 542.728Z" fill="#FFBD6E"/>
<path d="M428.609 445.986C428.609 445.986 367.417 471.071 329.059 487.781C295.613 502.352 246.827 525.306 234.878 530.947C233.333 531.676 232.615 533.459 233.206 535.062L240.325 554.376C240.95 556.074 242.826 556.951 244.53 556.343L429.273 490.435L428.609 445.986Z" fill="#824F36"/>
<path d="M783.993 349.01L384.054 373.493C382.295 373.6 380.956 375.114 381.064 376.873C381.172 378.632 382.685 379.971 384.444 379.863L784.383 355.38C786.142 355.273 787.481 353.759 787.374 352C787.266 350.241 785.752 348.902 783.993 349.01Z" fill="#B15945"/>
<path d="M447.75 324.885L480.328 274.539L490.071 347.402V368.366L457.477 357.787L447.75 324.885Z" fill="#95D1F9"/>
<path d="M526.944 354.296L457.157 350.109C455.086 367.546 470.248 379.665 487.726 374.545L527.803 367.281L526.944 354.296Z" fill="#95D1F9"/>
<path d="M444.754 447.02C444.754 447.02 504.279 472.105 542.421 488.815C575.675 503.385 624.183 526.338 636.066 531.98C637.605 532.711 638.32 534.487 637.734 536.087L630.665 555.377C630.038 557.088 628.142 557.967 626.431 557.34L444.754 490.806V447.02Z" fill="#824F36"/>
<path d="M428.357 442.753C428.357 437.466 432.644 433.18 437.931 433.18C443.218 433.18 447.504 437.466 447.504 442.753V654.965H428.357V442.753Z" fill="#FFBD6E"/>
<path d="M670.885 362.116C670.885 362.116 674.472 374.237 681.764 387.799M681.764 387.799C681.764 387.799 691.275 380.908 696.111 375.238C700.758 369.79 705.961 359.757 705.961 359.757M681.764 387.799C685.16 394.117 689.361 400.748 694.378 406.612M776.751 354.996C776.751 354.996 775.588 363.599 772.315 374.763M772.315 374.763C770.7 380.272 768.572 386.404 765.816 392.435M772.315 374.763C772.315 374.763 766.89 370.731 764.135 367.441C760.898 363.576 757.619 356.283 757.619 356.283M694.378 406.612C694.378 406.612 707.596 395.059 713.469 385.667C719.342 376.275 724.456 358.513 724.456 358.513M694.378 406.612C698.915 411.917 704.121 416.594 710.002 419.846M710.002 419.846C710.002 419.846 723.02 413.373 730.87 396.738C738.72 380.103 742.951 357.269 742.951 357.269M710.002 419.846C714.051 422.084 718.42 423.646 723.113 424.273M723.113 424.273C725.19 424.55 727.332 424.644 729.536 424.531C733.169 424.346 735.266 423.833 738.379 422.648M723.113 424.273C723.113 424.273 708.973 407.537 701.956 395.461C694.583 382.773 686.829 361.044 686.829 361.044M763.359 355.897C763.359 355.897 761.795 370.241 754.76 389.977C747.725 409.713 738.379 422.648 738.379 422.648M738.379 422.648C740.03 422.019 741.616 421.263 743.136 420.395M743.136 420.395C743.136 420.395 726.602 405.793 718.537 394.346C709.932 382.13 701.497 360.057 701.497 360.057M743.136 420.395C747.311 418.013 751.001 414.79 754.255 411.045M754.255 411.045C754.255 411.045 741.869 396.339 735.179 386.14C728.488 375.941 719.992 358.813 719.992 358.813M754.255 411.045C758.973 405.614 762.776 399.086 765.816 392.435M765.816 392.435C765.816 392.435 755.895 383.46 750.665 376.723C745.281 369.786 738.909 357.541 738.909 357.541" stroke="#3D3D3D" stroke-width="2.39336"/>
<path d="M564.062 361.337C565.156 358.866 567.556 357.228 570.256 357.11L581.761 356.607C585.189 356.457 587.865 359.535 587.24 362.909L586.72 365.713C586.116 368.976 583.334 371.388 580.018 371.524L569.17 371.969C564.564 372.158 561.358 367.447 563.224 363.231L564.062 361.337Z" fill="#F3C8B7"/>
<path d="M816.941 487.331C813.715 492.155 813.307 498.333 815.872 503.539L826.538 525.192C829.102 530.397 834.249 533.84 840.039 534.222L864.124 535.811C869.915 536.194 875.469 533.458 878.695 528.634L892.114 508.571C895.34 503.747 895.748 497.569 893.184 492.363L882.518 470.71C879.954 465.504 874.807 462.062 869.017 461.68L844.932 460.09C839.141 459.708 833.587 462.444 830.36 467.268L816.941 487.331Z" fill="#FF7059"/>
<path d="M88.2265 538.104C87.5417 543.719 83.9133 548.543 78.7081 550.757L57.0573 559.968C51.8521 562.183 45.8608 561.452 41.3404 558.052L22.5379 543.907C18.0174 540.507 15.6546 534.953 16.3393 529.338L19.1876 505.982C19.8724 500.367 23.5008 495.543 28.706 493.329L50.3567 484.118C55.5619 481.903 61.5532 482.634 66.0737 486.034L84.8761 500.179C89.3966 503.58 91.7595 509.134 91.0747 514.749L88.2265 538.104Z" fill="#E45041"/>
<path d="M748.411 543.361C751.869 546.188 753.556 550.644 752.837 555.052L749.845 573.385C749.126 577.793 746.11 581.482 741.933 583.063L724.561 589.639C720.384 591.22 715.681 590.452 712.224 587.626L697.843 575.869C694.385 573.042 692.698 568.586 693.417 564.178L696.409 545.845C697.128 541.437 700.144 537.748 704.32 536.167L721.693 529.591C725.87 528.01 730.573 528.778 734.03 531.604L748.411 543.361Z" fill="#E55041"/>
<path d="M527.781 367.323L526.898 354.082L533.928 355.572C538.16 356.469 541.912 358.897 544.463 362.391L548.286 367.626C550.17 370.207 548.407 373.845 545.214 373.964L534.428 374.369C532.977 374.423 531.61 373.684 530.861 372.44L527.781 367.323Z" fill="#F3C8B7"/>
<path d="M757.844 579.508C757.844 529.976 797.998 489.822 847.53 489.822C897.062 489.822 937.216 529.976 937.216 579.508V589.13H757.844V579.508Z" fill="#C2DBF3"/>
<path d="M634.984 646.524C634.984 596.992 675.138 556.838 724.67 556.838C774.202 556.838 814.356 596.992 814.356 646.524V656.146H634.984V646.524Z" fill="#C2DBF3"/>
<path d="M721.713 431.553C718.935 438.055 713.21 440.106 712.423 443.04C711.637 445.974 713.378 448.99 716.312 449.776C719.246 450.562 722.262 448.821 723.049 445.887C723.835 442.953 721.35 438.702 721.713 431.553Z" fill="#C2DBF3"/>
<path d="M751.5 479C745.827 483.5 744.551 489.42 745.827 494.184C747.104 498.948 752.001 501.775 756.765 500.499C761.529 499.222 764.356 494.326 763.079 489.562C761.803 484.798 754 484 751.5 479Z" fill="#C2DBF3"/>
<path d="M732.591 454.001C731.993 458.191 729 460.263 729 462.081C729 463.899 730.474 465.373 732.292 465.373C734.11 465.373 735.584 463.899 735.584 462.081C735.584 460.263 733.489 458.191 732.591 454.001Z" fill="#C2DBF3"/>
<path d="M-45.5273 609.825C-45.5273 560.292 -5.37365 520.139 44.1585 520.139C93.6906 520.139 133.845 560.293 133.845 609.825V619.447H-45.5273V609.825Z" fill="#C2DBF3"/>
<path d="M878.345 674.357C873.791 679.554 866.81 681.927 860.032 680.581L831.84 674.984C825.062 673.638 819.517 668.779 817.294 662.236L808.045 635.023C805.821 628.48 807.257 621.248 811.811 616.051L830.755 594.435C835.309 589.238 842.29 586.865 849.068 588.211L877.26 593.808C884.038 595.154 889.583 600.013 891.806 606.556L901.055 633.769C903.279 640.312 901.843 647.544 897.289 652.741L878.345 674.357Z" fill="#FF7059"/>
<path d="M747.473 718.323C747.473 668.791 787.626 628.637 837.158 628.637C886.69 628.637 926.844 668.791 926.844 718.323V727.945H747.473V718.323Z" fill="#C2DBF3"/>
<path d="M170.797 567.276C174.359 571.671 175.305 577.632 173.28 582.914L164.857 604.883C162.832 610.165 158.143 613.965 152.556 614.852L129.319 618.542C123.732 619.429 118.096 617.269 114.535 612.874L99.7202 594.595C96.1585 590.2 95.212 584.239 97.237 578.957L105.66 556.988C107.685 551.706 112.374 547.906 117.961 547.019L141.198 543.329C146.785 542.441 152.421 544.602 155.983 548.997L170.797 567.276Z" fill="#FF7059"/>
<path d="M43.8242 670.455C43.8242 620.923 83.9779 580.77 133.51 580.77C183.042 580.77 223.196 620.923 223.196 670.455V680.077H43.8242V670.455Z" fill="#C2DBF3"/>
</g>
</svg>
