<svg width="24" height="20" viewBox="0 0 24 20" fill="none" xmlns="http://www.w3.org/2000/svg">
<path fill-rule="evenodd" clip-rule="evenodd" d="M2 6C2 3.79086 3.79086 2 6 2H18C20.2091 2 22 3.79086 22 6V14C22 16.2091 20.2091 18 18 18H6C3.79086 18 2 16.2091 2 14V6ZM6 3C4.89543 3 3 4.89543 3 6V14C3 15.1046 4.89543 17 6 17H18C19.1046 17 21 15.6046 21 14.5V6C21 4.89543 19.6046 3 18.5 3H6Z" fill="white"/>
<path fill-rule="evenodd" clip-rule="evenodd" d="M6.21917 6.37534C6.56418 5.94407 7.06874 6.65572 7.5 7.00073L12 9.99999L16.5 6.49999C16.9313 6.15498 17.4359 5.94407 17.7809 6.37534C18.1259 6.8066 18.056 7.43589 17.6247 7.7809L12 12.2807L6.37534 7.7809C5.94408 7.43589 5.87416 6.8066 6.21917 6.37534Z" fill="white"/>
</svg>
