<svg width="20" height="27" viewBox="0 0 20 27" fill="none" xmlns="http://www.w3.org/2000/svg">
<path d="M0.0235301 5.02276C-0.176121 3.47384 0.916785 2.0577 2.46436 1.85786L11.0451 0.752697C11.7878 0.657853 12.5387 0.860761 13.1309 1.31754L16.8461 4.18623C17.4401 4.64454 17.8262 5.31917 17.9227 6.06413L19.9005 21.4449C20.1001 22.9938 19.0074 24.41 17.4596 24.6098L5.5875 26.139C4.03992 26.3388 2.62474 25.245 2.42509 23.6962L0.0235301 5.02276Z" fill="#FFBD6E"/>
<path d="M17.5218 4.93756L14.5295 5.32229C13.597 5.44185 12.743 4.7837 12.6236 3.8504L12.2393 0.855835C12.5583 0.954127 12.8625 1.11124 13.1325 1.31913L16.8477 4.18781C17.1177 4.39724 17.3451 4.65111 17.5218 4.93756Z" fill="#E59A48"/>
</svg>
