<svg width="27" height="30" viewBox="0 0 27 30" fill="none" xmlns="http://www.w3.org/2000/svg">
<path d="M16.9952 13.602H24.6842V26.98C24.6842 28.0846 23.7888 28.98 22.6842 28.98H4.31616C3.21159 28.98 2.31616 28.0846 2.31616 26.98V13.602H10.0052" stroke="#00091F" stroke-width="1.8"/>
<path d="M19.791 13.6018H24.582C25.4104 13.6018 26.082 12.9303 26.082 12.1018V8.11182C26.082 7.28339 25.4104 6.61182 24.582 6.61182H2.41797C1.58954 6.61182 0.917969 7.28339 0.917969 8.11182V12.1018C0.917969 12.9303 1.58954 13.6018 2.41797 13.6018H7.20898" stroke="#00091F" stroke-width="1.8"/>
<path d="M13.5 4.01996C13.5 2.3631 14.8431 1.01996 16.5 1.01996H17.694C19.2382 1.01996 20.49 2.27177 20.49 3.81596V3.81596C20.49 5.36015 19.2382 6.61197 17.694 6.61197H13.5V4.01996Z" stroke="#00091F" stroke-width="1.8"/>
<path d="M13.5 4.01996C13.5 2.3631 12.1569 1.01996 10.5 1.01996H9.306C7.76181 1.01996 6.50999 2.27177 6.50999 3.81596V3.81596C6.50999 5.36015 7.76181 6.61197 9.306 6.61197H13.5V4.01996Z" stroke="#00091F" stroke-width="1.8"/>
<path d="M16.9949 6.61182L16.9949 28.9798L10.0049 28.9798L10.0049 6.61182L16.9949 6.61182Z" stroke="#00091F" stroke-width="1.8"/>
</svg>
