<svg width="17" height="17" viewBox="0 0 17 17" fill="none" xmlns="http://www.w3.org/2000/svg">
<path fill-rule="evenodd" clip-rule="evenodd" d="M1.83325 8.78556C1.83325 5.10366 4.81802 2.1189 8.49992 2.1189C12.1818 2.1189 15.1666 5.10366 15.1666 8.78556C15.1666 12.4675 12.1818 15.4522 8.49992 15.4522C4.81802 15.4522 1.83325 12.4675 1.83325 8.78556ZM8.49992 3.45223C5.5544 3.45223 3.16659 5.84004 3.16659 8.78556C3.16659 11.7311 5.5544 14.1189 8.49992 14.1189C11.4454 14.1189 13.8333 11.7311 13.8333 8.78556C13.8333 5.84004 11.4454 3.45223 8.49992 3.45223Z" fill="white"/>
<path fill-rule="evenodd" clip-rule="evenodd" d="M5.16675 8.78573C5.16675 9.15392 5.46522 9.45239 5.83341 9.45239H11.1667C11.5349 9.45239 11.8334 9.15392 11.8334 8.78573C11.8334 8.41754 11.5349 8.11906 11.1667 8.11906H5.83341C5.46522 8.11906 5.16675 8.41754 5.16675 8.78573Z" fill="white"/>
<path fill-rule="evenodd" clip-rule="evenodd" d="M8.97149 5.64765C9.23184 5.908 9.23184 6.33011 8.97149 6.59046L6.77622 8.78573L8.97149 10.981C9.23184 11.2413 9.23184 11.6634 8.97149 11.9238C8.71114 12.1841 8.28903 12.1841 8.02868 11.9238L5.36201 9.25713C5.10166 8.99678 5.10166 8.57467 5.36201 8.31432L8.02868 5.64765C8.28903 5.38731 8.71114 5.38731 8.97149 5.64765Z" fill="white"/>
</svg>
