<svg width="19" height="19" viewBox="0 0 19 19" fill="none" xmlns="http://www.w3.org/2000/svg">
<path d="M17.4999 8.00002H9.66659V11.0834H14.2499C14.1666 11.8334 13.6666 13 12.5833 13.75C11.9166 14.25 10.9166 14.5834 9.66659 14.5834C7.49992 14.5834 5.58325 13.1667 4.91659 11.0834C4.74992 10.5834 4.66659 10 4.66659 9.41669C4.66659 8.83335 4.74992 8.25002 4.91659 7.75002C4.99992 7.58335 4.99992 7.41669 5.08325 7.33335C5.83325 5.58335 7.58325 4.33335 9.66659 4.33335C11.2499 4.33335 12.2499 5.00002 12.9166 5.58335L15.2499 3.25002C13.8333 2.00002 11.9166 1.16669 9.66659 1.16669C6.41659 1.16669 3.58325 3.00002 2.24992 5.75002C1.66659 6.91669 1.33325 8.16669 1.33325 9.50002C1.33325 10.8334 1.66659 12.0834 2.24992 13.25C3.58325 16 6.41659 17.8334 9.66659 17.8334C11.9166 17.8334 13.8333 17.0834 15.1666 15.8334C16.7499 14.4167 17.6666 12.25 17.6666 9.66669C17.6666 9.00002 17.5833 8.50002 17.4999 8.00002Z" stroke="#00091F" stroke-miterlimit="10" stroke-linecap="round" stroke-linejoin="round"/>
</svg>
