<svg width="15" height="16" viewBox="0 0 15 16" fill="none" xmlns="http://www.w3.org/2000/svg">
<path fill-rule="evenodd" clip-rule="evenodd" d="M0 4.62791C0 2.4862 1.7362 0.75 3.87791 0.75H10.6221C12.7638 0.75 14.5 2.4862 14.5 4.62791V11.3721C14.5 13.5138 12.7638 15.25 10.6221 15.25H3.87791C1.7362 15.25 0 13.5138 0 11.3721V4.62791ZM5.27712 11.1137C5.42131 11.33 5.6672 11.4562 5.92698 11.4472C6.18676 11.4383 6.42338 11.2955 6.55234 11.0698L8.55474 7.56559L9.27685 9.00983C9.4039 9.26392 9.6636 9.42442 9.94767 9.42442H11.2965C11.7107 9.42442 12.0465 9.08863 12.0465 8.67442C12.0465 8.26021 11.7107 7.92442 11.2965 7.92442H10.4112L9.26966 5.64133C9.14596 5.39394 8.89614 5.23471 8.61965 5.22703C8.34316 5.21936 8.08488 5.36449 7.94765 5.60464L5.85206 9.27194L5.17636 8.25839C5.03726 8.04975 4.80309 7.92442 4.55233 7.92442H3.20349C2.78927 7.92442 2.45349 8.26021 2.45349 8.67442C2.45349 9.08863 2.78927 9.42442 3.20349 9.42442H4.15094L5.27712 11.1137Z" fill="white"/>
</svg>
