<svg width="17" height="15" viewBox="0 0 17 15" fill="none" xmlns="http://www.w3.org/2000/svg">
<path fill-rule="evenodd" clip-rule="evenodd" d="M3.97803 12.4283C2.40741 11.5707 1.11104 10.2754 0.253534 8.70743C-0.0845169 8.08928 -0.0845112 7.34203 0.25355 6.72389C1.83601 3.83034 4.91298 1.86572 8.44997 1.86572C10.1964 1.86572 11.8307 2.34471 13.2283 3.17802L10.9363 5.47011C10.3232 4.79219 9.43675 4.36624 8.45078 4.36624C6.60063 4.36624 5.10078 5.86609 5.10078 7.71624C5.10078 8.70221 5.52673 9.58869 6.20465 10.2017L3.97803 12.4283ZM5.45287 13.0748C6.39354 13.3931 7.40157 13.5657 8.45003 13.5657C11.987 13.5657 15.064 11.6011 16.6465 8.70756C16.9845 8.08941 16.9845 7.34217 16.6465 6.72402C16.0899 5.70627 15.3484 4.80344 14.4671 4.0606L11.6856 6.8421C11.7607 7.12077 11.8008 7.41383 11.8008 7.71624C11.8008 9.5664 10.3009 11.0662 8.45078 11.0662C8.14837 11.0662 7.85531 11.0262 7.57664 10.951L5.45287 13.0748ZM8.45078 7.71624L7.14711 9.02886C6.8097 8.69373 6.60078 8.22938 6.60078 7.71624C6.60078 6.69452 7.42905 5.86624 8.45078 5.86624C8.87213 5.86624 9.26058 6.0071 9.57161 6.2443L8.45078 7.71624Z" fill="white"/>
<path d="M14.7349 0.999999L1.73486 14" stroke="white" stroke-linecap="round" stroke-linejoin="round"/>
</svg>
