<svg width="360" height="241" viewBox="0 0 360 241" fill="none" xmlns="http://www.w3.org/2000/svg">
<path d="M173.564 240.323C230.669 240.323 276.962 194.03 276.962 136.925C276.962 79.8194 230.669 33.5265 173.564 33.5265C116.458 33.5265 70.1655 79.8194 70.1655 136.925C70.1655 194.03 116.458 240.323 173.564 240.323Z" fill="#3E5FFF"/>
<path d="M224.52 99.4663L319.954 155.147L324.409 184.979C326.501 199.017 311.518 209.276 299.234 202.19L254.217 176.34L247.13 149.343L198.873 143.269L224.52 99.4663Z" fill="#95D1F9"/>
<mask id="mask0_1_1691" style="mask-type:luminance" maskUnits="userSpaceOnUse" x="70" y="33" width="207" height="208">
<path d="M173.496 240.593C230.564 240.593 276.827 194.33 276.827 137.262C276.827 80.194 230.564 33.9313 173.496 33.9313C116.428 33.9313 70.1655 80.194 70.1655 137.262C70.1655 194.33 116.428 240.593 173.496 240.593Z" fill="white"/>
</mask>
<g mask="url(#mask0_1_1691)">
<path d="M204.475 45.2697C202.451 50.8715 202.788 59.713 205.353 65.1124L209.47 73.8864C211.967 79.2183 212.304 85.4275 210.28 90.9619L209.672 92.6492C205.488 104.258 192.732 110.265 181.123 106.08L141.505 91.8393C129.896 87.6548 123.89 74.8313 128.074 63.2226L128.816 61.2653C129.829 58.4306 131.921 56.1359 134.688 54.8536L141.64 51.6139C144.34 50.3316 146.499 48.0368 147.512 45.2022C148.524 42.3675 150.616 40.0728 153.384 38.7904L158.851 36.2257" fill="black"/>
<path d="M241.933 249.164L103.777 242.617C103.777 242.617 97.2975 237.96 83.934 227.094C70.5706 216.228 74.7551 195.777 74.7551 195.777L82.9216 169.455L97.0275 133.482C100.74 124.033 106.544 115.327 115.25 110.062L149.604 90.6245H198.468L203.665 91.9069L223.778 99.5335C236.264 106.755 247.265 124.438 250.842 134.562L266.77 184.034C270.955 196.115 273.925 216.363 268.66 226.959C266.501 231.413 263.058 235.125 258.941 237.825L241.933 249.164Z" fill="#95D1F9"/>
<path d="M198.806 90.7596L177.276 126.733C175.791 129.23 172.214 129.23 170.729 126.733L149.267 90.7596L158.108 42.3677H189.897L198.806 90.7596Z" fill="#E47B4C"/>
<path d="M195.769 73.8864C194.149 75.2362 192.394 76.3836 190.504 77.3285C187.265 78.8808 183.62 79.7582 179.773 79.7582C175.453 79.7582 171.404 78.6108 167.894 76.6536C166.747 76.0461 167.422 74.2913 168.704 74.5613C170.459 74.9662 172.281 75.1687 174.104 75.1687C182.338 75.1687 189.694 71.1192 194.149 64.8424L195.769 73.8864Z" fill="#CC6942"/>
<path d="M234.964 108.074L246.965 108.112C249.024 108.118 250.638 109.862 250.492 111.922C250.287 114.845 247.86 117.126 244.937 117.136L228.756 117.222C228.392 117.222 233.877 108.07 234.965 108.072L234.964 108.074Z" fill="#DC9E82"/>
<path d="M234.964 108.224L234.946 108.224C234.918 108.23 234.869 108.25 234.795 108.299C234.706 108.359 234.6 108.45 234.476 108.571C234.23 108.814 233.933 109.166 233.603 109.592C232.946 110.445 232.172 111.585 231.443 112.727C230.713 113.869 230.029 115.01 229.551 115.865C229.311 116.293 229.124 116.647 229.009 116.892C228.976 116.963 228.95 117.022 228.93 117.071L244.936 116.986L244.937 116.986C247.781 116.977 250.143 114.757 250.342 111.912L250.342 111.911C250.482 109.937 248.936 108.267 246.965 108.262L246.965 108.262L234.964 108.224Z" stroke="black" stroke-opacity="0.33" stroke-width="0.3"/>
<path d="M231.873 101.445L250.458 96.165C252.363 95.5231 254.431 96.6196 254.973 98.5562C255.746 101.304 254.249 104.159 251.547 105.085L232.185 112.156C227.701 113.696 226.058 103.033 231.873 101.445Z" fill="#DC9E82"/>
<path d="M231.914 101.589L231.913 101.59C229.109 102.355 228.075 105.319 228.317 107.96C228.437 109.275 228.873 110.48 229.541 111.258C229.874 111.645 230.261 111.923 230.691 112.06C231.121 112.197 231.603 112.197 232.135 112.015C232.135 112.015 232.136 112.015 232.136 112.015L251.496 104.944L251.496 104.944L251.499 104.943C254.125 104.043 255.58 101.268 254.829 98.5968L254.829 98.5967C254.31 96.7425 252.33 95.6928 250.505 96.3071L250.505 96.3073L250.499 96.3093L231.914 101.589L231.914 101.589Z" stroke="black" stroke-opacity="0.33" stroke-width="0.3"/>
<mask id="path-12-inside-1_1_1691" fill="white">
<path d="M230.484 104.61C220.996 100.8 228.107 93.5844 231.993 89.2563L249.497 80.6963C251.278 79.7196 253.453 80.4482 254.25 82.2899C255.381 84.8999 254.304 88.0202 251.78 89.4217L238.59 97.0995C238.59 97.0995 237.791 97.4382 237.675 98.2543L237.381 105.347"/>
</mask>
<path d="M230.484 104.61C220.996 100.8 228.107 93.5844 231.993 89.2563L249.497 80.6963C251.278 79.7196 253.453 80.4482 254.25 82.2899C255.381 84.8999 254.304 88.0202 251.78 89.4217L238.59 97.0995C238.59 97.0995 237.791 97.4382 237.675 98.2543L237.381 105.347" fill="#DC9E82"/>
<path d="M231.993 89.2563L231.769 89.0559L231.808 89.0124L231.861 88.9868L231.993 89.2563ZM249.497 80.6963L249.641 80.9596L249.628 80.9658L249.497 80.6963ZM254.25 82.2899L253.975 82.4091L253.975 82.409L254.25 82.2899ZM251.78 89.4217L251.629 89.1624L251.634 89.1594L251.78 89.4217ZM238.59 97.0995L238.741 97.3588L238.725 97.3683L238.707 97.3757L238.59 97.0995ZM237.675 98.2543L237.376 98.2418L237.376 98.2269L237.378 98.2121L237.675 98.2543ZM230.372 104.888C227.963 103.921 226.551 102.715 225.899 101.341C225.245 99.9614 225.387 98.4764 225.943 97.0204C226.498 95.5674 227.477 94.1123 228.548 92.7592C229.621 91.4051 230.803 90.1327 231.769 89.0559L232.216 89.4567C231.24 90.5439 230.076 91.7965 229.019 93.1317C227.96 94.4678 227.026 95.8663 226.503 97.2345C225.982 98.5996 225.882 99.9032 226.441 101.084C227.003 102.269 228.261 103.394 230.596 104.331L230.372 104.888ZM231.861 88.9868L249.365 80.4268L249.628 80.9658L232.124 89.5258L231.861 88.9868ZM249.352 80.4332C251.285 79.3736 253.657 80.163 254.526 82.1707L253.975 82.409C253.25 80.7333 251.271 80.0655 249.641 80.9594L249.352 80.4332ZM254.526 82.1707C255.718 84.9249 254.582 88.2091 251.925 89.684L251.634 89.1594C254.026 87.8314 255.043 84.8748 253.975 82.4091L254.526 82.1707ZM251.931 89.6809L238.741 97.3588L238.439 96.8403L251.629 89.1624L251.931 89.6809ZM238.59 97.0995C238.707 97.3757 238.707 97.3757 238.707 97.3756C238.708 97.3756 238.708 97.3756 238.708 97.3756C238.708 97.3755 238.708 97.3755 238.708 97.3754C238.708 97.3753 238.708 97.3753 238.708 97.3752C238.709 97.3751 238.709 97.3751 238.709 97.3752C238.708 97.3753 238.707 97.3758 238.706 97.3765C238.702 97.378 238.696 97.3808 238.688 97.3849C238.671 97.393 238.646 97.4062 238.614 97.4247C238.55 97.4618 238.463 97.5189 238.373 97.597C238.193 97.7543 238.017 97.9828 237.972 98.2965L237.378 98.2121C237.45 97.7097 237.731 97.3608 237.979 97.1447C238.104 97.0361 238.224 96.9575 238.313 96.9057C238.358 96.8796 238.396 96.86 238.423 96.8465C238.437 96.8397 238.448 96.8344 238.457 96.8305C238.461 96.8286 238.464 96.8271 238.467 96.8259C238.469 96.8253 238.47 96.8247 238.471 96.8243C238.471 96.8241 238.472 96.8239 238.472 96.8237C238.472 96.8237 238.472 96.8236 238.473 96.8235C238.473 96.8235 238.473 96.8234 238.473 96.8234C238.473 96.8234 238.473 96.8233 238.59 97.0995ZM237.975 98.2667L237.68 105.359L237.081 105.334L237.376 98.2418L237.975 98.2667Z" fill="black" fill-opacity="0.33" mask="url(#path-12-inside-1_1_1691)"/>
<path d="M214.125 112.594C213.478 114.723 212.615 116.768 211.368 118.629L208.903 122.311L226.714 134.199L252.162 103.107C253.355 101.587 253.1 99.3875 251.59 98.1631C248.792 95.8956 244.742 96.0878 242.207 98.6114L235.634 105.159C235.206 105.588 234.465 105.333 234.383 104.729L232.829 99.4882L231.467 95.2274C231.282 94.646 231.36 94.0144 231.674 93.4973L237.944 83.2353C238.143 82.9087 238.428 82.6453 238.763 82.4717L246.758 78.3131C249.483 76.8951 250.626 73.6094 249.371 70.7965C248.487 68.8128 246.113 67.9713 244.185 68.9593L244.187 68.9538L232.948 74.7118C231.932 75.2318 231.045 75.9729 230.357 76.8787L219.585 91.0085C218.308 92.681 217.871 94.93 217.441 96.9456C216.902 99.4781 216.39 101.688 215.898 104.155C215.342 106.945 214.959 109.844 214.125 112.594Z" fill="#F7B699"/>
<path d="M214.268 112.638L214.268 112.638C214.865 110.671 215.232 108.624 215.595 106.604C215.741 105.791 215.886 104.982 216.045 104.184C216.359 102.614 216.679 101.149 217.011 99.6379C217.2 98.7756 217.392 97.8981 217.588 96.9768C217.605 96.8955 217.623 96.8139 217.64 96.732C218.056 94.7742 218.502 92.6739 219.704 91.0996L219.704 91.0995L230.477 76.9696L230.477 76.9694C231.151 76.0817 232.02 75.3551 233.016 74.8453L233.016 74.8453L243.928 69.2552L243.926 69.2607L244.254 69.0928C246.104 68.1442 248.385 68.952 249.234 70.8575L249.234 70.8576C250.456 73.5983 249.343 76.7988 246.689 78.1801L238.694 82.3386C238.335 82.5245 238.029 82.8068 237.816 83.1573L237.816 83.1571L237.944 83.2353L237.816 83.1575L214.268 112.638ZM214.268 112.638C213.618 114.776 212.75 116.836 211.493 118.712M214.268 112.638L211.493 118.712M244.183 68.9557L244.185 68.9593L244.183 68.9557ZM244.183 68.9557L244.18 68.9575L243.996 69.0517L244.183 68.9557ZM211.493 118.712L209.111 122.27M211.493 118.712L209.111 122.27M209.111 122.27L226.684 133.999M232.686 99.5308L232.829 99.4882L232.686 99.5339L232.686 99.5308ZM234.236 104.761C234.235 104.757 234.235 104.753 234.234 104.749L234.383 104.729L234.239 104.772L234.236 104.761ZM244.374 68.8691L244.329 69.0015L244.327 69.007L244.191 68.9612L244.374 68.8691Z" stroke="black" stroke-opacity="0.33" stroke-width="0.3"/>
<path d="M210.794 120.317C209.475 119.367 207.63 119.754 206.825 121.149L170.046 184.852L214.507 188.195L228.784 138.24C229.652 135.939 228.857 133.333 226.844 131.882L210.794 120.317Z" fill="black"/>
<path d="M235.994 244.642H110.054C103.777 244.642 98.7148 239.58 98.7148 233.303V161.424C98.7148 155.147 103.777 150.085 110.054 150.085H235.994C242.271 150.085 247.333 155.147 247.333 161.424V233.303C247.333 239.58 242.271 244.642 235.994 244.642Z" fill="#E2E2E2"/>
<path d="M180.516 197.33C180.516 193.213 177.141 189.838 173.024 189.838C168.839 189.838 165.532 193.213 165.532 197.33C165.532 201.447 168.907 204.821 173.024 204.821C177.208 204.821 180.516 201.514 180.516 197.33Z" fill="white"/>
</g>
<path d="M311.518 49.927C312.733 44.3927 309.155 38.9258 303.621 37.7109L298.762 36.6986C297.277 36.3611 295.859 37.171 295.252 38.5209L282.968 68.3524C281.551 71.7945 280.809 75.5066 280.809 79.2862V92.1097H305.308V82.0533C305.308 79.8936 305.511 77.6663 305.983 75.5741L311.518 49.927Z" fill="#E47B4C"/>
<path d="M310.941 11.6318L261.232 24.9039C258.76 25.5638 257.292 28.1026 257.952 30.5724L266.013 60.6922C266.674 63.1619 269.213 64.6286 271.688 63.9684L321.396 50.6966C323.869 50.0364 325.337 47.4999 324.676 45.028L316.616 14.9082C315.955 12.4383 313.416 10.9716 310.941 11.6318Z" fill="#FCFCFC"/>
<path d="M261.361 25.387L261.361 25.387L311.07 12.1149C313.279 11.5257 315.544 12.8348 316.133 15.0374L316.133 15.0374L324.193 45.1572C324.783 47.3619 323.473 49.6245 321.267 50.2135L271.559 63.4853C271.559 63.4853 271.559 63.4853 271.559 63.4853C269.35 64.0745 267.085 62.7654 266.496 60.563L258.435 30.4432C258.435 30.4432 258.435 30.4432 258.435 30.4432C257.846 28.2403 259.155 25.9757 261.361 25.387Z" stroke="black" stroke-opacity="0.1"/>
<path d="M294.438 40.9597L314.427 12.0243C313.423 11.4874 312.221 11.3158 311.029 11.6313L261.153 24.8817C259.964 25.197 259.008 25.9421 258.407 26.905L290.26 42.0678C291.737 42.7706 293.513 42.2991 294.44 40.9574L294.438 40.9597Z" fill="#ECECEC"/>
<path d="M294.027 40.6755L294.027 40.6757C293.239 41.8128 291.731 42.2137 290.475 41.6163C290.475 41.6163 290.475 41.6163 290.475 41.6163L259.163 26.7112C259.692 26.0767 260.417 25.5941 261.281 25.365L261.281 25.365L311.157 12.1146C312.025 11.8849 312.897 11.944 313.675 12.2328L294.027 40.6755Z" stroke="black" stroke-opacity="0.1"/>
<path d="M291.605 42.3839C294.56 42.222 296.823 39.6959 296.661 36.7417C296.499 33.7875 293.973 31.5241 291.019 31.686C288.065 31.848 285.801 34.3741 285.963 37.3283C286.125 40.2824 288.651 42.5459 291.605 42.3839Z" fill="#3D3D3D"/>
<path d="M295.911 40.9695C295.411 39.3079 293.63 38.3573 291.932 38.8463C290.235 39.3353 289.263 41.0787 289.763 42.7404L291.006 46.8744C291.506 48.5361 293.287 49.4866 294.984 48.9976C296.682 48.5086 297.653 46.7652 297.154 45.1035L295.911 40.9695Z" fill="#3D3D3D"/>
<path d="M306.591 80.2986C308.143 80.2986 309.425 81.446 309.628 82.9308L322.384 171.008L277.164 188.624V83.8757C277.164 81.9184 278.784 80.2986 280.741 80.2986H306.591Z" fill="#95D1F9"/>
<path d="M276.084 49.9946C275.814 48.5773 276.557 47.1599 277.974 46.6875C279.324 46.2151 280.876 46.8225 281.483 48.1048L287.49 60.051L281.281 74.6293L276.084 49.9946Z" fill="#E47B4C"/>
<path d="M158.108 35.8887C158.783 32.5816 156.69 29.342 153.383 28.5996C150.076 27.9247 146.837 30.0169 146.162 33.324C145.487 36.6312 147.039 42.638 150.346 43.3129C153.586 44.0553 157.433 39.1959 158.108 35.8887Z" fill="#E47B4C"/>
<path d="M207.04 46.215C207.714 42.9079 205.622 39.6683 202.315 38.9259C199.008 38.2509 195.768 40.3432 195.093 43.6503C194.419 46.9574 195.971 52.9642 199.278 53.6392C202.518 54.3816 206.365 49.5221 207.04 46.215Z" fill="#E47B4C"/>
<path d="M169.649 72.7396C155.745 69.8374 146.634 56.4064 148.996 42.4356L151.088 28.1947C153.653 12.8739 168.501 2.75011 183.687 5.92225C198.873 9.16188 208.389 24.3476 204.542 39.4659L200.695 53.3693C197.253 67.1377 183.552 75.7092 169.649 72.7396Z" fill="#E47B4C"/>
<path d="M166.545 38.5885C166.072 40.7482 165.465 42.4355 164.655 42.2331C163.845 42.0306 163.912 40.2758 164.385 38.116C164.857 35.9563 165.465 34.269 166.275 34.4715C167.085 34.6739 167.017 36.4287 166.545 38.5885Z" fill="black"/>
<path d="M185.577 42.5705C185.105 44.7303 184.497 46.4176 183.688 46.2151C182.878 46.0126 182.945 44.2578 183.418 42.0981C183.89 39.9383 184.497 38.251 185.307 38.4535C186.185 38.656 186.05 40.4783 185.577 42.5705Z" fill="black"/>
<path d="M169.784 30.4218C170.189 30.2193 170.527 29.8143 170.662 29.3419C170.796 28.532 170.324 27.7221 169.447 27.5196C169.312 27.5196 165.802 26.7772 162.09 28.802C161.348 29.2069 161.078 30.0843 161.483 30.8942C161.887 31.6366 162.832 31.9066 163.575 31.5017C166.342 30.0168 168.907 30.5568 168.907 30.5568C169.177 30.6242 169.514 30.5568 169.784 30.4218Z" fill="black"/>
<path d="M183.822 33.3916C183.485 33.0541 183.35 32.5142 183.485 32.0417C183.687 31.2318 184.497 30.6919 185.307 30.8944C185.442 30.9619 188.952 31.7043 191.584 35.0789C192.124 35.7538 191.989 36.6987 191.314 37.2387C190.639 37.7786 189.694 37.6436 189.154 36.9687C187.264 34.539 184.7 33.9315 184.632 33.9315C184.295 33.864 184.025 33.6616 183.822 33.3916Z" fill="black"/>
<path d="M172.011 56.2039C171.539 55.9339 170.999 56.1364 170.729 56.5414C170.459 56.9463 170.594 57.5538 171.066 57.8237C171.269 57.9587 171.471 58.0262 171.674 58.1612C175.656 60.186 181.055 59.2411 183.957 56.0689C184.092 55.8665 184.227 55.664 184.227 55.394C184.227 55.124 184.092 54.9216 183.957 54.7191C183.89 54.6516 183.822 54.6516 183.755 54.5841C183.417 54.3816 182.945 54.4491 182.675 54.7866C180.313 57.4188 175.858 58.1612 172.619 56.4739C172.349 56.4064 172.214 56.3389 172.011 56.2039Z" fill="black"/>
<path d="M204.678 39.1959L205.96 33.0541C209.065 18.2733 199.616 3.69494 184.835 0.590301C170.054 -2.51434 155.543 6.93457 152.439 21.7154L151.156 27.8572C150.886 29.0045 151.629 30.1519 152.843 30.4219C153.991 30.6918 155.138 29.8819 155.408 28.7346C155.543 27.9921 155.746 27.3172 155.948 26.5748C157.433 19.6231 166.139 18.6782 173.226 19.2182C181.73 19.8256 190.774 17.5983 191.787 12.7389C190.774 17.4634 191.517 23.0652 194.216 26.1699C197.051 29.4095 201.843 31.7042 200.898 35.9562L200.426 38.3185C200.156 39.4658 200.898 40.6132 202.113 40.8832C203.328 41.0856 204.475 40.3432 204.678 39.1959Z" fill="black"/>
</svg>
