<svg width="98" height="55" viewBox="0 0 98 55" fill="none" xmlns="http://www.w3.org/2000/svg">
<path d="M85.2438 55H12.8574C4.65703 55 0 50.3899 0 42.28V20.3603C0 12.2505 4.65703 7.64491 12.8574 7.64491H13.2624C14.1736 4.54112 13.2624 3.03929 9.71901 0.0356445C9.71901 0.0356445 16.1983 -0.96557 19.438 7.64491H85.1426C93.343 7.64491 98 12.2505 98 20.3603V42.28C98 50.3899 93.4442 55 85.2438 55Z" fill="white"/>
<path d="M22.904 27.584C22.728 27.584 22.592 27.536 22.496 27.44C22.4 27.336 22.352 27.192 22.352 27.008V19.532C22.352 19.34 22.4 19.196 22.496 19.1C22.592 19.004 22.728 18.956 22.904 18.956C23.088 18.956 23.228 19.004 23.324 19.1C23.42 19.196 23.468 19.34 23.468 19.532V27.008C23.468 27.192 23.42 27.336 23.324 27.44C23.236 27.536 23.096 27.584 22.904 27.584ZM25.8887 27.584C25.7207 27.584 25.5887 27.536 25.4927 27.44C25.3967 27.344 25.3487 27.204 25.3487 27.02V22.124C25.3487 21.94 25.3967 21.804 25.4927 21.716C25.5887 21.62 25.7207 21.572 25.8887 21.572C26.0567 21.572 26.1847 21.62 26.2727 21.716C26.3687 21.804 26.4167 21.94 26.4167 22.124V23.108L26.2847 22.928C26.4527 22.472 26.7247 22.128 27.1007 21.896C27.4847 21.664 27.9207 21.548 28.4087 21.548C28.8807 21.548 29.2687 21.632 29.5727 21.8C29.8767 21.968 30.1047 22.224 30.2567 22.568C30.4087 22.912 30.4847 23.348 30.4847 23.876V27.02C30.4847 27.204 30.4367 27.344 30.3407 27.44C30.2527 27.536 30.1207 27.584 29.9447 27.584C29.7687 27.584 29.6327 27.536 29.5367 27.44C29.4407 27.344 29.3927 27.204 29.3927 27.02V23.936C29.3927 23.416 29.2927 23.036 29.0927 22.796C28.8927 22.556 28.5727 22.436 28.1327 22.436C27.6207 22.436 27.2087 22.596 26.8967 22.916C26.5927 23.228 26.4407 23.652 26.4407 24.188V27.02C26.4407 27.396 26.2567 27.584 25.8887 27.584ZM32.7558 27.56C32.5878 27.56 32.4558 27.508 32.3598 27.404C32.2638 27.3 32.2158 27.156 32.2158 26.972V22.184C32.2158 21.992 32.2638 21.848 32.3598 21.752C32.4558 21.648 32.5878 21.596 32.7558 21.596C32.9318 21.596 33.0678 21.648 33.1638 21.752C33.2598 21.848 33.3078 21.992 33.3078 22.184V26.972C33.3078 27.156 33.2598 27.3 33.1638 27.404C33.0758 27.508 32.9398 27.56 32.7558 27.56ZM32.7558 20.3C32.5398 20.3 32.3678 20.244 32.2398 20.132C32.1198 20.012 32.0598 19.856 32.0598 19.664C32.0598 19.456 32.1198 19.3 32.2398 19.196C32.3678 19.084 32.5398 19.028 32.7558 19.028C32.9878 19.028 33.1598 19.084 33.2718 19.196C33.3918 19.3 33.4518 19.456 33.4518 19.664C33.4518 19.856 33.3918 20.012 33.2718 20.132C33.1598 20.244 32.9878 20.3 32.7558 20.3ZM37.4875 27.608C37.0155 27.608 36.6195 27.524 36.2995 27.356C35.9875 27.188 35.7515 26.944 35.5915 26.624C35.4395 26.304 35.3635 25.912 35.3635 25.448V22.496H34.5955C34.4515 22.496 34.3395 22.46 34.2595 22.388C34.1795 22.308 34.1395 22.204 34.1395 22.076C34.1395 21.94 34.1795 21.836 34.2595 21.764C34.3395 21.692 34.4515 21.656 34.5955 21.656H35.3635V20.348C35.3635 20.164 35.4115 20.028 35.5075 19.94C35.6035 19.844 35.7395 19.796 35.9155 19.796C36.0915 19.796 36.2235 19.844 36.3115 19.94C36.4075 20.028 36.4555 20.164 36.4555 20.348V21.656H37.9075C38.0595 21.656 38.1755 21.692 38.2555 21.764C38.3355 21.836 38.3755 21.94 38.3755 22.076C38.3755 22.204 38.3355 22.308 38.2555 22.388C38.1755 22.46 38.0595 22.496 37.9075 22.496H36.4555V25.352C36.4555 25.792 36.5475 26.124 36.7315 26.348C36.9155 26.572 37.2195 26.684 37.6435 26.684C37.7955 26.684 37.9235 26.672 38.0275 26.648C38.1315 26.616 38.2235 26.6 38.3035 26.6C38.3755 26.592 38.4355 26.616 38.4835 26.672C38.5395 26.728 38.5675 26.832 38.5675 26.984C38.5675 27.096 38.5475 27.2 38.5075 27.296C38.4755 27.384 38.4075 27.444 38.3035 27.476C38.2075 27.508 38.0795 27.536 37.9195 27.56C37.7595 27.592 37.6155 27.608 37.4875 27.608ZM39.998 27.56C39.83 27.56 39.698 27.508 39.602 27.404C39.506 27.3 39.458 27.156 39.458 26.972V22.184C39.458 21.992 39.506 21.848 39.602 21.752C39.698 21.648 39.83 21.596 39.998 21.596C40.174 21.596 40.31 21.648 40.406 21.752C40.502 21.848 40.55 21.992 40.55 22.184V26.972C40.55 27.156 40.502 27.3 40.406 27.404C40.318 27.508 40.182 27.56 39.998 27.56ZM39.998 20.3C39.782 20.3 39.61 20.244 39.482 20.132C39.362 20.012 39.302 19.856 39.302 19.664C39.302 19.456 39.362 19.3 39.482 19.196C39.61 19.084 39.782 19.028 39.998 19.028C40.23 19.028 40.402 19.084 40.514 19.196C40.634 19.3 40.694 19.456 40.694 19.664C40.694 19.856 40.634 20.012 40.514 20.132C40.402 20.244 40.23 20.3 39.998 20.3ZM44.1657 27.608C43.7657 27.608 43.4017 27.528 43.0737 27.368C42.7537 27.208 42.5017 26.992 42.3177 26.72C42.1417 26.448 42.0537 26.144 42.0537 25.808C42.0537 25.376 42.1617 25.036 42.3777 24.788C42.5937 24.54 42.9577 24.364 43.4697 24.26C43.9817 24.148 44.6697 24.092 45.5337 24.092H46.0977V24.788H45.5577C44.9417 24.788 44.4537 24.816 44.0937 24.872C43.7417 24.928 43.4937 25.028 43.3497 25.172C43.2057 25.308 43.1337 25.5 43.1337 25.748C43.1337 26.06 43.2417 26.316 43.4577 26.516C43.6817 26.716 43.9857 26.816 44.3697 26.816C44.6737 26.816 44.9417 26.744 45.1737 26.6C45.4057 26.448 45.5897 26.248 45.7257 26C45.8617 25.744 45.9297 25.452 45.9297 25.124V23.744C45.9297 23.272 45.8337 22.932 45.6417 22.724C45.4497 22.508 45.1257 22.4 44.6697 22.4C44.4057 22.4 44.1337 22.436 43.8537 22.508C43.5737 22.58 43.2817 22.692 42.9777 22.844C42.8577 22.9 42.7537 22.92 42.6657 22.904C42.5777 22.88 42.5057 22.832 42.4497 22.76C42.4017 22.68 42.3737 22.596 42.3657 22.508C42.3657 22.412 42.3857 22.32 42.4257 22.232C42.4737 22.144 42.5537 22.08 42.6657 22.04C43.0177 21.864 43.3657 21.74 43.7097 21.668C44.0617 21.588 44.3897 21.548 44.6937 21.548C45.2137 21.548 45.6417 21.632 45.9777 21.8C46.3137 21.96 46.5657 22.212 46.7337 22.556C46.9017 22.892 46.9857 23.324 46.9857 23.852V27.02C46.9857 27.204 46.9417 27.344 46.8537 27.44C46.7657 27.536 46.6377 27.584 46.4697 27.584C46.3097 27.584 46.1817 27.536 46.0857 27.44C45.9977 27.344 45.9537 27.204 45.9537 27.02V26.168H46.0617C45.9977 26.464 45.8777 26.72 45.7017 26.936C45.5257 27.152 45.3057 27.32 45.0417 27.44C44.7857 27.552 44.4937 27.608 44.1657 27.608ZM50.5401 27.608C49.9401 27.608 49.4841 27.432 49.1721 27.08C48.8601 26.72 48.7041 26.204 48.7041 25.532V19.508C48.7041 19.324 48.7521 19.188 48.8481 19.1C48.9441 19.004 49.0761 18.956 49.2441 18.956C49.4201 18.956 49.5561 19.004 49.6521 19.1C49.7481 19.188 49.7961 19.324 49.7961 19.508V25.448C49.7961 25.864 49.8801 26.176 50.0481 26.384C50.2241 26.584 50.4721 26.684 50.7921 26.684C50.8641 26.684 50.9281 26.684 50.9841 26.684C51.0401 26.676 51.0961 26.668 51.1521 26.66C51.2401 26.652 51.3041 26.676 51.3441 26.732C51.3841 26.788 51.4041 26.9 51.4041 27.068C51.4041 27.22 51.3681 27.34 51.2961 27.428C51.2321 27.508 51.1241 27.56 50.9721 27.584C50.9001 27.592 50.8281 27.596 50.7561 27.596C50.6841 27.604 50.6121 27.608 50.5401 27.608ZM52.8535 27.56C52.6855 27.56 52.5535 27.508 52.4575 27.404C52.3615 27.3 52.3135 27.156 52.3135 26.972V22.184C52.3135 21.992 52.3615 21.848 52.4575 21.752C52.5535 21.648 52.6855 21.596 52.8535 21.596C53.0295 21.596 53.1655 21.648 53.2615 21.752C53.3575 21.848 53.4055 21.992 53.4055 22.184V26.972C53.4055 27.156 53.3575 27.3 53.2615 27.404C53.1735 27.508 53.0375 27.56 52.8535 27.56ZM52.8535 20.3C52.6375 20.3 52.4655 20.244 52.3375 20.132C52.2175 20.012 52.1575 19.856 52.1575 19.664C52.1575 19.456 52.2175 19.3 52.3375 19.196C52.4655 19.084 52.6375 19.028 52.8535 19.028C53.0855 19.028 53.2575 19.084 53.3695 19.196C53.4895 19.3 53.5495 19.456 53.5495 19.664C53.5495 19.856 53.4895 20.012 53.3695 20.132C53.2575 20.244 53.0855 20.3 52.8535 20.3ZM55.3412 27.5C55.2212 27.5 55.1252 27.472 55.0532 27.416C54.9812 27.36 54.9292 27.288 54.8972 27.2C54.8732 27.112 54.8732 27.016 54.8972 26.912C54.9292 26.808 54.9892 26.704 55.0772 26.6L58.4012 22.22V22.496H55.2692C55.1332 22.496 55.0252 22.46 54.9452 22.388C54.8732 22.308 54.8372 22.204 54.8372 22.076C54.8372 21.94 54.8732 21.836 54.9452 21.764C55.0252 21.692 55.1332 21.656 55.2692 21.656H58.9292C59.0652 21.656 59.1732 21.684 59.2532 21.74C59.3412 21.796 59.3972 21.868 59.4212 21.956C59.4532 22.044 59.4572 22.14 59.4332 22.244C59.4092 22.34 59.3532 22.436 59.2652 22.532L55.8932 26.96V26.66H59.1812C59.4692 26.66 59.6132 26.8 59.6132 27.08C59.6132 27.208 59.5732 27.312 59.4932 27.392C59.4212 27.464 59.3172 27.5 59.1812 27.5H55.3412ZM61.291 27.56C61.123 27.56 60.991 27.508 60.895 27.404C60.799 27.3 60.751 27.156 60.751 26.972V22.184C60.751 21.992 60.799 21.848 60.895 21.752C60.991 21.648 61.123 21.596 61.291 21.596C61.467 21.596 61.603 21.648 61.699 21.752C61.795 21.848 61.843 21.992 61.843 22.184V26.972C61.843 27.156 61.795 27.3 61.699 27.404C61.611 27.508 61.475 27.56 61.291 27.56ZM61.291 20.3C61.075 20.3 60.903 20.244 60.775 20.132C60.655 20.012 60.595 19.856 60.595 19.664C60.595 19.456 60.655 19.3 60.775 19.196C60.903 19.084 61.075 19.028 61.291 19.028C61.523 19.028 61.695 19.084 61.807 19.196C61.927 19.3 61.987 19.456 61.987 19.664C61.987 19.856 61.927 20.012 61.807 20.132C61.695 20.244 61.523 20.3 61.291 20.3ZM64.1387 27.584C63.9707 27.584 63.8387 27.536 63.7427 27.44C63.6467 27.344 63.5987 27.204 63.5987 27.02V22.124C63.5987 21.94 63.6467 21.804 63.7427 21.716C63.8387 21.62 63.9707 21.572 64.1387 21.572C64.3067 21.572 64.4347 21.62 64.5227 21.716C64.6187 21.804 64.6667 21.94 64.6667 22.124V23.108L64.5347 22.928C64.7027 22.472 64.9747 22.128 65.3507 21.896C65.7347 21.664 66.1707 21.548 66.6587 21.548C67.1307 21.548 67.5187 21.632 67.8227 21.8C68.1267 21.968 68.3547 22.224 68.5067 22.568C68.6587 22.912 68.7347 23.348 68.7347 23.876V27.02C68.7347 27.204 68.6867 27.344 68.5907 27.44C68.5027 27.536 68.3707 27.584 68.1947 27.584C68.0187 27.584 67.8827 27.536 67.7867 27.44C67.6907 27.344 67.6427 27.204 67.6427 27.02V23.936C67.6427 23.416 67.5427 23.036 67.3427 22.796C67.1427 22.556 66.8227 22.436 66.3827 22.436C65.8707 22.436 65.4587 22.596 65.1467 22.916C64.8427 23.228 64.6907 23.652 64.6907 24.188V27.02C64.6907 27.396 64.5067 27.584 64.1387 27.584ZM73.0938 29.768C72.6618 29.768 72.2418 29.72 71.8338 29.624C71.4338 29.528 71.0698 29.38 70.7418 29.18C70.6378 29.116 70.5658 29.04 70.5258 28.952C70.4938 28.872 70.4858 28.788 70.5018 28.7C70.5258 28.612 70.5658 28.532 70.6218 28.46C70.6858 28.396 70.7578 28.352 70.8378 28.328C70.9258 28.312 71.0138 28.332 71.1018 28.388C71.4538 28.588 71.7898 28.724 72.1098 28.796C72.4298 28.868 72.7338 28.904 73.0218 28.904C73.5898 28.904 74.0138 28.756 74.2938 28.46C74.5818 28.172 74.7258 27.748 74.7258 27.188V25.892H74.8338C74.7218 26.34 74.4698 26.696 74.0778 26.96C73.6938 27.224 73.2458 27.356 72.7338 27.356C72.2058 27.356 71.7458 27.236 71.3538 26.996C70.9618 26.748 70.6578 26.408 70.4418 25.976C70.2258 25.536 70.1178 25.028 70.1178 24.452C70.1178 24.012 70.1778 23.616 70.2978 23.264C70.4258 22.904 70.6018 22.6 70.8258 22.352C71.0578 22.096 71.3338 21.9 71.6538 21.764C71.9738 21.62 72.3338 21.548 72.7338 21.548C73.2538 21.548 73.7058 21.68 74.0898 21.944C74.4738 22.208 74.7218 22.564 74.8338 23.012L74.7018 23.18V22.124C74.7018 21.94 74.7498 21.804 74.8458 21.716C74.9418 21.62 75.0778 21.572 75.2538 21.572C75.4218 21.572 75.5538 21.62 75.6498 21.716C75.7458 21.804 75.7938 21.94 75.7938 22.124V27.044C75.7938 27.948 75.5618 28.628 75.0978 29.084C74.6418 29.54 73.9738 29.768 73.0938 29.768ZM72.9738 26.492C73.3338 26.492 73.6418 26.412 73.8978 26.252C74.1618 26.084 74.3618 25.848 74.4978 25.544C74.6418 25.232 74.7138 24.868 74.7138 24.452C74.7138 23.82 74.5578 23.324 74.2458 22.964C73.9338 22.596 73.5098 22.412 72.9738 22.412C72.6138 22.412 72.3018 22.496 72.0378 22.664C71.7818 22.824 71.5818 23.056 71.4378 23.36C71.2938 23.664 71.2218 24.028 71.2218 24.452C71.2218 25.076 71.3778 25.572 71.6898 25.94C72.0098 26.308 72.4378 26.492 72.9738 26.492ZM19.0642 43.608C18.2242 43.608 17.5042 43.432 16.9042 43.08C16.3042 42.728 15.8402 42.228 15.5122 41.58C15.1922 40.924 15.0322 40.152 15.0322 39.264C15.0322 38.6 15.1242 38.004 15.3082 37.476C15.4922 36.94 15.7562 36.484 16.1002 36.108C16.4442 35.724 16.8642 35.432 17.3602 35.232C17.8642 35.032 18.4322 34.932 19.0642 34.932C19.5442 34.932 20.0042 35 20.4442 35.136C20.8922 35.272 21.2762 35.464 21.5962 35.712C21.7242 35.8 21.8082 35.9 21.8482 36.012C21.8882 36.124 21.8922 36.232 21.8602 36.336C21.8362 36.432 21.7842 36.516 21.7042 36.588C21.6322 36.652 21.5402 36.688 21.4282 36.696C21.3162 36.696 21.1962 36.652 21.0682 36.564C20.7882 36.348 20.4802 36.192 20.1442 36.096C19.8162 35.992 19.4642 35.94 19.0882 35.94C18.4722 35.94 17.9482 36.072 17.5162 36.336C17.0922 36.592 16.7682 36.968 16.5442 37.464C16.3282 37.952 16.2202 38.552 16.2202 39.264C16.2202 39.968 16.3282 40.572 16.5442 41.076C16.7682 41.572 17.0922 41.952 17.5162 42.216C17.9482 42.472 18.4722 42.6 19.0882 42.6C19.4642 42.6 19.8202 42.548 20.1562 42.444C20.5002 42.34 20.8162 42.18 21.1042 41.964C21.2322 41.876 21.3482 41.836 21.4522 41.844C21.5642 41.852 21.6562 41.888 21.7282 41.952C21.8002 42.008 21.8482 42.088 21.8722 42.192C21.9042 42.288 21.9042 42.388 21.8722 42.492C21.8402 42.596 21.7682 42.688 21.6562 42.768C21.3282 43.048 20.9362 43.26 20.4802 43.404C20.0322 43.54 19.5602 43.608 19.0642 43.608ZM25.36 43.608C24.784 43.608 24.284 43.484 23.86 43.236C23.436 42.988 23.108 42.636 22.876 42.18C22.644 41.724 22.528 41.188 22.528 40.572C22.528 40.108 22.592 39.692 22.72 39.324C22.856 38.948 23.048 38.628 23.296 38.364C23.544 38.1 23.84 37.9 24.184 37.764C24.536 37.62 24.928 37.548 25.36 37.548C25.936 37.548 26.436 37.672 26.86 37.92C27.284 38.168 27.612 38.52 27.844 38.976C28.076 39.424 28.192 39.956 28.192 40.572C28.192 41.036 28.124 41.456 27.988 41.832C27.86 42.208 27.672 42.528 27.424 42.792C27.176 43.056 26.876 43.26 26.524 43.404C26.18 43.54 25.792 43.608 25.36 43.608ZM25.36 42.744C25.712 42.744 26.016 42.66 26.272 42.492C26.536 42.324 26.736 42.08 26.872 41.76C27.016 41.44 27.088 41.044 27.088 40.572C27.088 39.868 26.932 39.332 26.62 38.964C26.308 38.596 25.888 38.412 25.36 38.412C25.016 38.412 24.712 38.496 24.448 38.664C24.192 38.824 23.992 39.064 23.848 39.384C23.704 39.704 23.632 40.1 23.632 40.572C23.632 41.276 23.788 41.816 24.1 42.192C24.42 42.56 24.84 42.744 25.36 42.744ZM30.1308 43.584C29.9628 43.584 29.8308 43.536 29.7348 43.44C29.6388 43.344 29.5908 43.204 29.5908 43.02V38.124C29.5908 37.94 29.6388 37.804 29.7348 37.716C29.8308 37.62 29.9628 37.572 30.1308 37.572C30.2988 37.572 30.4268 37.62 30.5148 37.716C30.6108 37.804 30.6588 37.94 30.6588 38.124V39.108L30.5268 38.928C30.6948 38.472 30.9668 38.128 31.3428 37.896C31.7268 37.664 32.1628 37.548 32.6508 37.548C33.1228 37.548 33.5108 37.632 33.8148 37.8C34.1188 37.968 34.3468 38.224 34.4988 38.568C34.6508 38.912 34.7268 39.348 34.7268 39.876V43.02C34.7268 43.204 34.6788 43.344 34.5828 43.44C34.4948 43.536 34.3628 43.584 34.1868 43.584C34.0108 43.584 33.8748 43.536 33.7788 43.44C33.6828 43.344 33.6348 43.204 33.6348 43.02V39.936C33.6348 39.416 33.5348 39.036 33.3348 38.796C33.1348 38.556 32.8148 38.436 32.3748 38.436C31.8628 38.436 31.4508 38.596 31.1388 38.916C30.8348 39.228 30.6828 39.652 30.6828 40.188V43.02C30.6828 43.396 30.4988 43.584 30.1308 43.584ZM36.998 43.584C36.83 43.584 36.698 43.536 36.602 43.44C36.506 43.344 36.458 43.204 36.458 43.02V38.124C36.458 37.94 36.506 37.804 36.602 37.716C36.698 37.62 36.83 37.572 36.998 37.572C37.166 37.572 37.294 37.62 37.382 37.716C37.478 37.804 37.526 37.94 37.526 38.124V39.108L37.394 38.928C37.562 38.472 37.834 38.128 38.21 37.896C38.594 37.664 39.03 37.548 39.518 37.548C39.99 37.548 40.378 37.632 40.682 37.8C40.986 37.968 41.214 38.224 41.366 38.568C41.518 38.912 41.594 39.348 41.594 39.876V43.02C41.594 43.204 41.546 43.344 41.45 43.44C41.362 43.536 41.23 43.584 41.054 43.584C40.878 43.584 40.742 43.536 40.646 43.44C40.55 43.344 40.502 43.204 40.502 43.02V39.936C40.502 39.416 40.402 39.036 40.202 38.796C40.002 38.556 39.682 38.436 39.242 38.436C38.73 38.436 38.318 38.596 38.006 38.916C37.702 39.228 37.55 39.652 37.55 40.188V43.02C37.55 43.396 37.366 43.584 36.998 43.584ZM46.0252 43.608C45.3932 43.608 44.8492 43.488 44.3932 43.248C43.9452 43 43.5972 42.652 43.3492 42.204C43.1012 41.748 42.9772 41.212 42.9772 40.596C42.9772 39.988 43.0972 39.456 43.3372 39C43.5852 38.544 43.9212 38.188 44.3452 37.932C44.7772 37.676 45.2692 37.548 45.8212 37.548C46.2132 37.548 46.5652 37.616 46.8772 37.752C47.1972 37.88 47.4692 38.068 47.6932 38.316C47.9172 38.564 48.0852 38.868 48.1972 39.228C48.3172 39.58 48.3772 39.98 48.3772 40.428C48.3772 40.556 48.3372 40.656 48.2572 40.728C48.1852 40.792 48.0772 40.824 47.9332 40.824H43.8292V40.128H47.6572L47.4532 40.296C47.4532 39.88 47.3892 39.528 47.2612 39.24C47.1412 38.944 46.9612 38.72 46.7212 38.568C46.4892 38.416 46.1972 38.34 45.8452 38.34C45.4612 38.34 45.1332 38.432 44.8612 38.616C44.5892 38.792 44.3812 39.044 44.2372 39.372C44.0932 39.692 44.0212 40.064 44.0212 40.488V40.56C44.0212 41.28 44.1932 41.824 44.5372 42.192C44.8812 42.56 45.3772 42.744 46.0252 42.744C46.2812 42.744 46.5412 42.712 46.8052 42.648C47.0772 42.584 47.3372 42.468 47.5852 42.3C47.7052 42.228 47.8132 42.196 47.9092 42.204C48.0132 42.204 48.0972 42.236 48.1612 42.3C48.2252 42.356 48.2652 42.428 48.2812 42.516C48.2972 42.596 48.2852 42.684 48.2452 42.78C48.2052 42.876 48.1292 42.96 48.0172 43.032C47.7532 43.216 47.4372 43.36 47.0692 43.464C46.7092 43.56 46.3612 43.608 46.0252 43.608ZM52.2674 43.608C51.6754 43.608 51.1634 43.484 50.7314 43.236C50.2994 42.98 49.9674 42.624 49.7354 42.168C49.5034 41.704 49.3874 41.16 49.3874 40.536C49.3874 40.072 49.4514 39.656 49.5794 39.288C49.7154 38.92 49.9074 38.608 50.1554 38.352C50.4034 38.088 50.7034 37.888 51.0554 37.752C51.4154 37.616 51.8194 37.548 52.2674 37.548C52.5474 37.548 52.8434 37.592 53.1554 37.68C53.4674 37.768 53.7554 37.912 54.0194 38.112C54.1074 38.176 54.1634 38.252 54.1874 38.34C54.2114 38.42 54.2114 38.504 54.1874 38.592C54.1714 38.68 54.1314 38.756 54.0674 38.82C54.0114 38.876 53.9354 38.908 53.8394 38.916C53.7514 38.924 53.6554 38.896 53.5514 38.832C53.3594 38.688 53.1554 38.584 52.9394 38.52C52.7314 38.456 52.5314 38.424 52.3394 38.424C52.0434 38.424 51.7794 38.472 51.5474 38.568C51.3234 38.664 51.1314 38.804 50.9714 38.988C50.8194 39.164 50.7034 39.384 50.6234 39.648C50.5434 39.904 50.5034 40.204 50.5034 40.548C50.5034 41.228 50.6634 41.764 50.9834 42.156C51.3034 42.54 51.7554 42.732 52.3394 42.732C52.5314 42.732 52.7314 42.704 52.9394 42.648C53.1474 42.584 53.3514 42.48 53.5514 42.336C53.6554 42.272 53.7514 42.248 53.8394 42.264C53.9274 42.272 53.9994 42.308 54.0554 42.372C54.1194 42.428 54.1594 42.5 54.1754 42.588C54.1914 42.668 54.1834 42.752 54.1514 42.84C54.1274 42.928 54.0714 43 53.9834 43.056C53.7274 43.248 53.4474 43.388 53.1434 43.476C52.8394 43.564 52.5474 43.608 52.2674 43.608ZM57.7492 43.608C57.2772 43.608 56.8812 43.524 56.5612 43.356C56.2492 43.188 56.0132 42.944 55.8532 42.624C55.7012 42.304 55.6252 41.912 55.6252 41.448V38.496H54.8572C54.7132 38.496 54.6012 38.46 54.5212 38.388C54.4412 38.308 54.4012 38.204 54.4012 38.076C54.4012 37.94 54.4412 37.836 54.5212 37.764C54.6012 37.692 54.7132 37.656 54.8572 37.656H55.6252V36.348C55.6252 36.164 55.6732 36.028 55.7692 35.94C55.8652 35.844 56.0012 35.796 56.1772 35.796C56.3532 35.796 56.4852 35.844 56.5732 35.94C56.6692 36.028 56.7172 36.164 56.7172 36.348V37.656H58.1692C58.3212 37.656 58.4372 37.692 58.5172 37.764C58.5972 37.836 58.6372 37.94 58.6372 38.076C58.6372 38.204 58.5972 38.308 58.5172 38.388C58.4372 38.46 58.3212 38.496 58.1692 38.496H56.7172V41.352C56.7172 41.792 56.8092 42.124 56.9932 42.348C57.1772 42.572 57.4812 42.684 57.9052 42.684C58.0572 42.684 58.1852 42.672 58.2892 42.648C58.3932 42.616 58.4852 42.6 58.5652 42.6C58.6372 42.592 58.6972 42.616 58.7452 42.672C58.8012 42.728 58.8292 42.832 58.8292 42.984C58.8292 43.096 58.8092 43.2 58.7692 43.296C58.7372 43.384 58.6692 43.444 58.5652 43.476C58.4692 43.508 58.3412 43.536 58.1812 43.56C58.0212 43.592 57.8772 43.608 57.7492 43.608ZM60.2598 43.56C60.0918 43.56 59.9598 43.508 59.8638 43.404C59.7678 43.3 59.7198 43.156 59.7198 42.972V38.184C59.7198 37.992 59.7678 37.848 59.8638 37.752C59.9598 37.648 60.0918 37.596 60.2598 37.596C60.4358 37.596 60.5718 37.648 60.6678 37.752C60.7638 37.848 60.8118 37.992 60.8118 38.184V42.972C60.8118 43.156 60.7638 43.3 60.6678 43.404C60.5798 43.508 60.4438 43.56 60.2598 43.56ZM60.2598 36.3C60.0438 36.3 59.8718 36.244 59.7438 36.132C59.6238 36.012 59.5638 35.856 59.5638 35.664C59.5638 35.456 59.6238 35.3 59.7438 35.196C59.8718 35.084 60.0438 35.028 60.2598 35.028C60.4918 35.028 60.6638 35.084 60.7758 35.196C60.8958 35.3 60.9558 35.456 60.9558 35.664C60.9558 35.856 60.8958 36.012 60.7758 36.132C60.6638 36.244 60.4918 36.3 60.2598 36.3ZM65.0514 43.608C64.4754 43.608 63.9754 43.484 63.5514 43.236C63.1274 42.988 62.7994 42.636 62.5674 42.18C62.3354 41.724 62.2194 41.188 62.2194 40.572C62.2194 40.108 62.2834 39.692 62.4114 39.324C62.5474 38.948 62.7394 38.628 62.9874 38.364C63.2354 38.1 63.5314 37.9 63.8754 37.764C64.2274 37.62 64.6194 37.548 65.0514 37.548C65.6274 37.548 66.1274 37.672 66.5514 37.92C66.9754 38.168 67.3034 38.52 67.5354 38.976C67.7674 39.424 67.8834 39.956 67.8834 40.572C67.8834 41.036 67.8154 41.456 67.6794 41.832C67.5514 42.208 67.3634 42.528 67.1154 42.792C66.8674 43.056 66.5674 43.26 66.2154 43.404C65.8714 43.54 65.4834 43.608 65.0514 43.608ZM65.0514 42.744C65.4034 42.744 65.7074 42.66 65.9634 42.492C66.2274 42.324 66.4274 42.08 66.5634 41.76C66.7074 41.44 66.7794 41.044 66.7794 40.572C66.7794 39.868 66.6234 39.332 66.3114 38.964C65.9994 38.596 65.5794 38.412 65.0514 38.412C64.7074 38.412 64.4034 38.496 64.1394 38.664C63.8834 38.824 63.6834 39.064 63.5394 39.384C63.3954 39.704 63.3234 40.1 63.3234 40.572C63.3234 41.276 63.4794 41.816 63.7914 42.192C64.1114 42.56 64.5314 42.744 65.0514 42.744ZM69.8223 43.584C69.6543 43.584 69.5223 43.536 69.4263 43.44C69.3303 43.344 69.2823 43.204 69.2823 43.02V38.124C69.2823 37.94 69.3303 37.804 69.4263 37.716C69.5223 37.62 69.6543 37.572 69.8223 37.572C69.9903 37.572 70.1183 37.62 70.2063 37.716C70.3023 37.804 70.3503 37.94 70.3503 38.124V39.108L70.2183 38.928C70.3863 38.472 70.6583 38.128 71.0343 37.896C71.4183 37.664 71.8543 37.548 72.3423 37.548C72.8143 37.548 73.2023 37.632 73.5063 37.8C73.8103 37.968 74.0383 38.224 74.1903 38.568C74.3423 38.912 74.4183 39.348 74.4183 39.876V43.02C74.4183 43.204 74.3703 43.344 74.2743 43.44C74.1863 43.536 74.0543 43.584 73.8783 43.584C73.7023 43.584 73.5663 43.536 73.4703 43.44C73.3743 43.344 73.3263 43.204 73.3263 43.02V39.936C73.3263 39.416 73.2263 39.036 73.0263 38.796C72.8263 38.556 72.5063 38.436 72.0663 38.436C71.5543 38.436 71.1423 38.596 70.8303 38.916C70.5263 39.228 70.3743 39.652 70.3743 40.188V43.02C70.3743 43.396 70.1903 43.584 69.8223 43.584ZM76.6774 43.548C76.4694 43.548 76.2974 43.48 76.1614 43.344C76.0254 43.208 75.9574 43.036 75.9574 42.828C75.9574 42.62 76.0254 42.452 76.1614 42.324C76.2974 42.196 76.4694 42.132 76.6774 42.132C76.9014 42.132 77.0734 42.196 77.1934 42.324C77.3214 42.452 77.3854 42.62 77.3854 42.828C77.3854 43.036 77.3214 43.208 77.1934 43.344C77.0734 43.48 76.9014 43.548 76.6774 43.548ZM79.4782 43.548C79.2702 43.548 79.0982 43.48 78.9622 43.344C78.8262 43.208 78.7582 43.036 78.7582 42.828C78.7582 42.62 78.8262 42.452 78.9622 42.324C79.0982 42.196 79.2702 42.132 79.4782 42.132C79.7022 42.132 79.8742 42.196 79.9942 42.324C80.1222 42.452 80.1862 42.62 80.1862 42.828C80.1862 43.036 80.1222 43.208 79.9942 43.344C79.8742 43.48 79.7022 43.548 79.4782 43.548ZM82.279 43.548C82.071 43.548 81.899 43.48 81.763 43.344C81.627 43.208 81.559 43.036 81.559 42.828C81.559 42.62 81.627 42.452 81.763 42.324C81.899 42.196 82.071 42.132 82.279 42.132C82.503 42.132 82.675 42.196 82.795 42.324C82.923 42.452 82.987 42.62 82.987 42.828C82.987 43.036 82.923 43.208 82.795 43.344C82.675 43.48 82.503 43.548 82.279 43.548Z" fill="#00091F"/>
</svg>
