<svg width="304" height="304" viewBox="0 0 304 304" fill="none" xmlns="http://www.w3.org/2000/svg">
<mask id="mask0_23_22" style="mask-type:luminance" maskUnits="userSpaceOnUse" x="0" y="0" width="304" height="304">
<path d="M0 0H304V304H0V0Z" fill="white"/>
</mask>
<g mask="url(#mask0_23_22)">
<path d="M154 284.631C226.76 284.631 285.743 225.647 285.743 152.887V65.0002C285.743 48.984 272.759 36.0002 256.743 36.0002H51.2566C35.2403 36.0002 22.2566 48.958 22.2566 64.9743V152.887C22.2566 225.647 81.24 284.631 154 284.631Z" fill="#C3DCF4"/>
<path d="M69.0091 92.5952C69.0072 94.9007 68.5512 97.1833 67.6671 99.3126C66.783 101.442 65.4882 103.376 63.8565 105.005L58.4414 110.408C56.8086 112.036 55.513 113.97 54.6289 116.1C53.7448 118.229 53.2896 120.512 53.2893 122.818V124.201C53.2893 133.894 61.1654 141.745 70.8715 141.745H104.05C113.764 141.745 121.633 133.886 121.633 124.201V122.548C121.633 120.174 120.689 117.907 119.007 116.228L114.741 111.972C113.909 111.143 113.249 110.158 112.799 109.073C112.348 107.989 112.116 106.826 112.115 105.652C112.115 103.286 111.172 101.01 109.49 99.3325L106.118 95.9595" fill="black"/>
<path d="M74.2938 91.0703C74.2036 90.4737 73.9967 89.9008 73.6849 89.3842C73.3731 88.8676 72.9626 88.4175 72.4768 88.0596C71.991 87.7018 71.4395 87.4432 70.8537 87.2986C70.2679 87.154 69.6593 87.1262 69.0628 87.2169C68.4662 87.3072 67.8932 87.5142 67.3766 87.826C66.86 88.1378 66.41 88.5484 66.0521 89.0342C65.6942 89.5201 65.4356 90.0717 65.291 90.6575C65.1464 91.2433 65.1187 91.8519 65.2094 92.4485C65.5906 94.9582 68.2445 98.7508 70.7543 98.3696C73.2646 97.9889 74.6745 93.5801 74.2938 91.0703ZM113.842 85.0719C113.752 84.4753 113.545 83.9023 113.233 83.3856C112.921 82.869 112.51 82.4189 112.025 82.061C111.539 81.7032 110.987 81.4446 110.401 81.3C109.815 81.1554 109.207 81.1277 108.61 81.2185C108.014 81.3088 107.441 81.5158 106.924 81.8276C106.408 82.1394 105.958 82.5499 105.6 83.0357C105.242 83.5215 104.983 84.073 104.839 84.6588C104.694 85.2445 104.667 85.853 104.757 86.4495C105.138 88.9598 107.792 92.7519 110.302 92.3712C112.812 91.9905 114.222 87.5817 113.842 85.0719Z" fill="#E47B4C"/>
<path d="M94.1189 119.068C83.571 120.668 73.648 113.659 71.6251 103.182L68.4197 86.5788C66.2106 75.115 73.9777 64.1179 85.5177 62.3673C97.0571 60.6167 107.736 68.8159 109.026 80.4188L110.889 97.2254C112.064 107.825 104.666 117.468 94.1189 119.068Z" fill="#E47B4C"/>
<path d="M67.8083 83.048L67.9354 83.8838L67.9469 83.8477L67.9524 83.8811L69.4335 91.8815C69.4885 92.176 69.6555 92.4379 69.8994 92.612C70.1432 92.7861 70.4451 92.859 70.7415 92.8154L71.2482 92.7382C71.5233 92.6942 71.7742 92.5552 71.9575 92.3454L85.3845 76.5714C86.783 74.9298 88.7259 73.8468 90.8576 73.5204L95.4181 72.8286C97.4631 72.5183 99.5524 72.9262 101.33 73.9829C103.108 75.0396 104.465 76.6798 105.17 78.6243L107.933 86.2402C108.116 86.7655 108.655 87.0723 109.196 86.9906C109.495 86.9454 109.764 86.7854 109.947 86.5447C110.13 86.3039 110.212 86.0013 110.175 85.7012L109.215 77.6652L109.201 77.5721L109.138 77.158C107.427 65.875 97.0767 57.7338 85.7575 59.2089C74.1162 60.7245 66.0473 71.4954 67.799 83.0408L67.8083 83.048Z" fill="black"/>
<path d="M179.699 250.512H265.384C281.798 250.512 294.312 235.814 291.714 219.583L283.669 169.36C282.009 159.002 276.45 149.67 268.132 143.279L223.282 120.514L176.969 143.279C168.646 149.667 163.086 159 161.431 169.36L153.386 219.583C150.783 235.814 163.303 250.512 179.717 250.512H179.699Z" fill="#0EAD69"/>
<mask id="mask1_23_22" style="mask-type:alpha" maskUnits="userSpaceOnUse" x="10" y="-4" width="288" height="289">
<path d="M153.997 284.63C233.503 284.63 297.955 220.177 297.955 140.672C297.955 61.1658 233.503 -3.28638 153.997 -3.28638C74.4912 -3.28638 10.0391 61.1658 10.0391 140.672C10.0391 220.177 74.4912 284.63 153.997 284.63Z" fill="#95D1F9"/>
</mask>
<g mask="url(#mask1_23_22)">
<path d="M130.351 260.31C130.351 326.851 117.921 456.942 115.911 477.497C115.838 478.256 115.484 478.96 114.918 479.471C114.353 479.983 113.618 480.265 112.856 480.263H58.2785C57.5163 480.265 56.7807 479.983 56.2156 479.471C55.6505 478.96 55.2964 478.256 55.2226 477.497C53.2179 456.942 40.7834 310.891 40.7834 244.35L85.8817 241.878L130.356 260.31H130.351Z" fill="#3D3D3D"/>
<path d="M171.505 333.68L178.626 421.153C179.514 432.033 188.605 440.421 199.521 440.421H245.285C256.207 440.421 265.297 432.039 266.18 421.153L273.307 333.68C274.875 314.399 275.023 295.028 273.751 275.725L268.942 202.945L255.6 161.082L204.912 144.654L175.552 165.057L175.87 202.945L171.054 275.725C169.782 295.028 169.931 314.399 171.499 333.68H171.505Z" fill="#0EAD69"/>
<path d="M171.505 333.68L178.626 421.153C179.514 432.033 188.605 440.421 199.521 440.421H245.285C256.207 440.421 265.297 432.039 266.18 421.153L273.307 333.68C274.875 314.399 275.023 295.028 273.751 275.725L261 250.5H181.5L171.054 275.725C169.782 295.028 169.931 314.399 171.499 333.68H171.505Z" fill="#385146"/>
<path d="M200.379 255.515C197.495 260.056 195.989 261.82 192.262 266.435C188.534 271.05 186.155 271.917 178.823 268.503C169.366 264.098 134.705 248.651 134.705 248.651H57.8486C57.8486 248.651 47.8922 248.587 45.2975 248.587C42.2027 248.587 38.4507 245.888 38.4507 241.375V223.768C38.4507 223.768 33.4924 226.667 24.826 229.533C7.50565 233.482 -1.90794 214.677 9.282 195.245C9.282 195.245 21.7942 170.888 28.205 161.847C34.6159 152.806 40.1087 146.077 48.2701 141.148L56.0536 136.435L65.4168 130.767L73.0678 126.137L95.7078 125.872L106.273 125.75L113.433 130.081L124.229 136.612L131.713 141.148C139.865 146.077 148.159 154.533 151.033 166.109L162.058 200.649C165.972 213.137 171.274 217.194 176.963 222.715C187.268 232.714 196.072 242.145 199.471 245.545C202.517 248.587 203.262 250.973 200.379 255.515Z" fill="#4680E1"/>
<path d="M172.449 136.19L130.308 132.242C128.244 132.041 126.749 130.181 126.987 128.093L130.547 97.991L174.169 98.9145L176.446 132.228C176.605 134.518 174.698 136.405 172.435 136.19H172.449Z" fill="black"/>
<path d="M199.673 253.144C199.673 320.711 186.765 459.521 184.679 480.406C184.526 482.008 183.149 483.215 181.493 483.215H124.798C123.156 483.215 121.779 482.008 121.613 480.406C119.526 459.535 106.617 320.724 106.617 253.144L152.812 252.967V252.845L153.132 252.899L153.451 252.845V252.967L199.646 253.144H199.673Z" fill="#F8F8F8"/>
<path d="M70.8494 239.179C70.7059 238.811 70.5624 238.455 70.4188 238.087C66.4181 227.348 67.5793 215.619 72.9429 205.351L89.9072 172.856C93.6357 164.405 100.404 157.288 109.152 152.587L127.923 142.509C130.132 141.314 132.684 140.692 135.266 140.692H172.55C175.145 140.692 177.684 141.314 179.892 142.509L198.649 152.587C207.397 157.276 214.165 164.405 217.894 172.856L237.698 217.728C237.755 217.855 237.812 217.97 237.855 218.097C245.484 235.888 230.427 254.912 208.96 254.912H119.448C119.448 254.912 103.416 257.021 89.1902 253.984C80.6579 252.154 73.8176 246.525 70.8494 239.192V239.179Z" fill="#F8F8F8"/>
<path d="M199.95 254.967L106.595 255.549C105.142 274.307 112.073 382.203 116.629 434.114C139.895 438.331 187.008 444.235 189.335 434.114C191.661 423.994 198.641 311.096 199.95 254.967Z" fill="#D9D9D9"/>
</g>
<path d="M240.464 94.6108V132.766C240.464 133.29 240.298 133.8 239.99 134.224C239.683 134.648 239.249 134.964 238.751 135.126L237.014 135.684C228.003 138.589 218.308 138.589 209.297 135.684L207.572 135.126C207.072 134.966 206.635 134.652 206.325 134.228C206.015 133.803 205.847 133.292 205.847 132.766V94.6108H240.464Z" fill="#824F36"/>
<path d="M240.462 112.052V121.375C237.05 123.975 232.775 125.511 228.158 125.511C224.778 125.514 221.451 124.673 218.48 123.062C217.541 122.555 218.074 121.109 219.126 121.312C220.433 121.578 221.778 121.705 223.147 121.705C230.454 121.705 236.885 117.849 240.462 112.026V112.052Z" fill="#663C2B"/>
<path d="M205.819 130.771V129.616H240.463V131.766C240.463 135.736 239.012 139.57 236.384 142.547L228.564 151.4C225.895 154.422 221.18 154.414 218.522 151.383L209.861 141.51C207.256 138.539 205.819 134.722 205.819 130.771ZM241.758 94.3196C241.064 96.8491 241.977 101.533 244.506 102.227L244.557 102.242C247.081 102.881 250.217 99.3473 250.907 96.8315C251.552 94.485 250.309 92.0568 248.086 91.1574C247.917 91.1109 247.758 91.0473 247.589 91.0008C246.393 90.6702 245.114 90.8237 244.03 91.428C243.478 91.7332 242.992 92.146 242.602 92.6419C242.212 93.1377 241.926 93.7067 241.759 94.3152L241.758 94.3196ZM201.962 83.3915C201.273 85.9023 202.178 90.545 204.66 91.2856L204.71 91.2993C206.769 91.8651 209.268 89.5952 210.492 87.3736C210.776 86.8571 210.983 86.3739 211.112 85.9034C211.801 83.3925 210.322 80.7672 207.793 80.0726C207.624 80.0266 207.469 80.0031 207.304 79.9582C207.304 79.9582 207.299 79.9762 207.286 79.9532C204.934 79.5972 202.611 81.046 201.967 83.3926L201.962 83.3915Z" fill="#824F36"/>
<path d="M207.675 78.3853C207.606 78.6367 207.532 78.9062 207.477 79.1757L207.467 79.2124L207.297 79.9563L205.515 87.6269L204.655 91.2793L203.517 96.2101C203.484 96.329 203.471 96.4484 203.439 96.5667C202.418 101.33 203.128 106.302 205.441 110.589C205.737 111.118 206.052 111.636 206.383 112.144C206.511 112.341 206.639 112.519 206.77 112.702C207.194 113.3 207.649 113.876 208.133 114.427C208.311 114.637 208.507 114.834 208.684 115.049C210.089 116.495 211.689 117.75 213.487 118.744C213.752 118.89 214.022 119.033 214.291 119.161C214.592 119.317 214.879 119.451 215.181 119.587C215.486 119.725 215.811 119.849 216.121 119.973C216.234 120.024 216.363 120.074 216.481 120.106C216.998 120.3 217.523 120.469 218.056 120.612C218.425 120.714 218.796 120.796 219.169 120.884C219.456 120.948 219.749 121.009 220.042 121.05C220.371 121.106 220.682 121.152 221.011 121.188L221.061 121.202C221.339 121.244 221.604 121.262 221.887 121.267C222.093 121.304 222.308 121.308 222.523 121.313C226.61 121.518 230.605 120.469 234.012 118.434C238.3 115.867 241.5 111.819 243.008 107.054L244.272 103.115L244.294 103.033L244.547 102.238L245.696 98.6449L247.791 92.0669L248.077 91.1533L248.311 90.4275C251.362 80.8365 247.095 71.1808 238.859 66.273C238.237 65.906 237.599 65.5494 236.928 65.2377C236.673 65.1134 236.399 65.0038 236.125 64.8894C236.097 64.8669 236.047 64.8532 235.997 64.8395C235.787 64.7469 235.577 64.6697 235.345 64.5864C235.115 64.4877 234.878 64.4048 234.637 64.3383C234.291 64.222 233.943 64.1148 233.591 64.0168C232.103 63.6082 230.601 63.3573 229.107 63.291C228.588 63.2559 228.068 63.2459 227.549 63.2609C218.403 63.4351 210.213 69.1251 207.669 78.3886L207.675 78.3853Z" fill="#824F36"/>
<path d="M218.358 87.0207C217.833 88.9335 217.65 90.5477 218.385 90.7498C219.12 90.9514 219.788 89.4653 220.312 87.557C220.836 85.6486 221.02 84.03 220.285 83.8279C219.55 83.6263 218.882 85.1124 218.358 87.0207ZM232.986 91.0368C232.461 92.9495 232.278 94.5638 233.013 94.7659C233.748 94.9674 234.416 93.4814 234.94 91.5731C235.464 89.6647 235.649 88.0461 234.914 87.8445C234.179 87.6424 233.51 89.1285 232.986 91.0368Z" fill="black"/>
<path d="M240.5 56.5C264.5 50.5005 255.5 72.5005 255.5 74.0005L248.488 90.6784L248.463 90.7693L247.532 93.3564C247.428 93.6447 247.22 93.8834 246.948 94.0246C246.676 94.1658 246.361 94.1991 246.066 94.1177C245.794 94.0432 245.557 93.8767 245.395 93.6468C245.232 93.4168 245.154 93.1376 245.175 92.8568L245.665 85.9409C245.859 83.2071 245.386 80.4671 244.287 77.9563C243.188 75.4456 241.496 73.2391 239.356 71.5264L239.347 71.5242C237.328 69.9058 235 68.7174 232.504 68.0322C230.009 67.347 227.4 67.1795 224.838 67.5399C222.126 67.9222 219.546 68.9559 217.321 70.5526C215.095 72.1493 213.29 74.2613 212.059 76.7081L208.943 82.9081C208.811 83.1702 208.589 83.3758 208.317 83.4871C208.046 83.5983 207.743 83.6077 207.465 83.5134C207.187 83.4192 206.953 83.2277 206.805 82.9742C206.657 82.7207 206.606 82.4223 206.661 82.1341L207.189 79.3871L207.199 79.351L207.171 79.3822L212.5 64.0006C215.633 52.591 216.5 62.4995 240.5 56.5Z" fill="black"/>
<path d="M238.939 84.6375C239.086 84.7284 239.253 84.7833 239.426 84.7974C239.599 84.8116 239.772 84.7848 239.933 84.7191C240.206 84.6096 240.424 84.3963 240.539 84.1261C240.655 83.8559 240.659 83.5509 240.55 83.2779C240.508 83.1783 239.529 80.7736 236.822 79.2942C236.694 79.2239 236.553 79.1797 236.407 79.164C236.262 79.1483 236.114 79.1615 235.974 79.2027C235.834 79.244 235.703 79.3125 235.589 79.4045C235.475 79.4964 235.38 79.6099 235.31 79.7384C235.016 80.2757 235.226 80.9571 235.755 81.2496C237.74 82.3347 238.475 84.093 238.485 84.1105C238.579 84.3378 238.74 84.5191 238.939 84.6375ZM218.378 78.9929C218.205 78.9959 218.033 78.9578 217.878 78.8817C217.722 78.8057 217.586 78.6938 217.482 78.5553C217.303 78.3219 217.225 78.0272 217.263 77.7358C217.302 77.4444 217.454 77.1802 217.688 77.0013C217.774 76.9367 219.845 75.3696 222.927 75.4797C223.073 75.4848 223.217 75.5188 223.35 75.5795C223.483 75.6403 223.603 75.7268 223.703 75.8339C223.802 75.9411 223.88 76.0668 223.931 76.204C223.982 76.3411 224.005 76.487 224 76.6332C223.978 77.2461 223.45 77.7243 222.846 77.7057C220.585 77.6252 219.055 78.7618 219.038 78.7716C218.841 78.9184 218.609 78.9924 218.378 78.9929ZM222.164 104.67C222.616 104.667 222.956 104.977 222.989 105.376C223.005 105.577 222.941 105.777 222.811 105.932C222.68 106.086 222.494 106.183 222.293 106.2C222.099 106.214 221.902 106.225 221.709 106.226C217.994 106.249 214.32 103.548 213.329 100.076C213.275 99.8801 213.3 99.6705 213.4 99.4929C213.5 99.3122 213.661 99.184 213.863 99.1259C213.928 99.1035 213.994 99.0985 214.069 99.098C214.237 99.0972 214.401 99.1517 214.536 99.2532C214.67 99.3546 214.767 99.4973 214.813 99.6594C215.62 102.501 218.643 104.71 221.709 104.69C221.862 104.69 222.02 104.689 222.173 104.666V104.675L222.164 104.67Z" fill="black"/>
<path d="M70.844 191.395C76.4842 184.946 84.1981 177.002 88.9422 173.259C89.7583 172.614 90.8149 172.464 91.3205 173.372C91.5166 173.731 91.5516 174.159 91.4087 174.541L83.3759 196.037C81.5096 201.032 77.7357 205.081 72.8844 207.294L71.733 207.819L68.6163 200.984C66.8411 197.09 69.8022 192.59 70.8484 191.396L70.844 191.395Z" fill="#E47B4C"/>
<path d="M122.113 183.967H182.41C182.801 183.967 183.188 184.045 183.549 184.194C183.911 184.344 184.239 184.564 184.515 184.84C184.792 185.117 185.011 185.445 185.16 185.807C185.31 186.168 185.386 186.555 185.386 186.946V229.814C185.386 230.205 185.31 230.592 185.16 230.953C185.011 231.315 184.791 231.643 184.515 231.92C184.239 232.196 183.91 232.416 183.549 232.565C183.188 232.715 182.801 232.792 182.41 232.792H122.113C121.722 232.792 121.335 232.715 120.974 232.565C120.613 232.416 120.284 232.196 120.008 231.92C119.732 231.643 119.512 231.315 119.363 230.953C119.213 230.592 119.137 230.205 119.137 229.814V186.946C119.137 186.555 119.213 186.168 119.363 185.807C119.512 185.445 119.731 185.117 120.008 184.84C120.284 184.564 120.612 184.344 120.974 184.194C121.335 184.045 121.722 183.967 122.113 183.967Z" fill="#3E5FFF"/>
<path d="M117.902 175.183H186.584C187.041 175.183 187.494 175.273 187.917 175.448C188.34 175.623 188.724 175.88 189.048 176.204C189.371 176.527 189.628 176.912 189.803 177.334C189.978 177.757 190.068 178.21 190.068 178.668V196.311C190.068 197.235 189.701 198.121 189.048 198.775C188.394 199.428 187.508 199.796 186.584 199.796H117.902C116.977 199.796 116.091 199.428 115.437 198.775C114.784 198.121 114.417 197.235 114.417 196.311V178.668C114.417 178.21 114.507 177.757 114.682 177.334C114.857 176.912 115.114 176.527 115.437 176.204C115.761 175.88 116.145 175.623 116.568 175.448C116.991 175.273 117.444 175.183 117.902 175.183Z" fill="#3E5FFF"/>
<path d="M145.78 175.183H158.704V232.794H145.78V175.183Z" fill="#95D1F9"/>
<path d="M139.065 152.822H139.355C143.421 152.822 147.16 154.963 149.229 158.448L152.279 163.64L155.328 158.448C157.361 154.963 161.1 152.822 165.166 152.822H165.456C171.627 152.822 176.637 157.831 176.637 164.002C176.637 170.174 171.627 175.184 165.456 175.184H139.065C132.894 175.184 127.884 170.174 127.884 164.002C127.884 157.831 132.894 152.822 139.065 152.822ZM165.456 169.048C168.251 169.048 170.538 166.761 170.538 163.966C170.538 161.171 168.251 158.884 165.456 158.884H165.166C163.278 158.884 161.536 159.9 160.555 161.534L156.127 169.048H165.456ZM139.065 169.048H148.358L143.929 161.534C142.95 159.9 141.207 158.884 139.319 158.884H139.029C136.234 158.884 133.947 161.171 133.947 163.966C133.947 166.761 136.234 169.048 139.029 169.048H139.065Z" fill="#95D1F9"/>
<path d="M135.72 199.794H185.385V211.462L135.529 201.781C134.337 201.549 134.505 199.794 135.72 199.794Z" fill="#2E53BC"/>
<path fill-rule="evenodd" clip-rule="evenodd" d="M145.78 199.795H158.703V206.282L145.78 203.773V199.795Z" fill="#6AAED8"/>
<path d="M109.484 186.514H129.506C130.901 186.514 131.821 187.965 131.229 189.23L128.958 194.042C128.223 195.607 126.948 196.855 125.366 197.555L110.874 203.982C110.437 204.178 109.963 204.278 109.484 204.276C108.577 204.276 107.707 203.915 107.065 203.273C106.423 202.631 106.062 201.761 106.062 200.853V189.942C106.062 189.034 106.423 188.164 107.065 187.522C107.706 186.88 108.577 186.52 109.484 186.519V186.514ZM194.297 185.7C195.204 185.7 196.075 186.061 196.716 186.702C197.358 187.344 197.719 188.215 197.719 189.122V200.034C197.719 200.604 197.576 201.165 197.304 201.666C197.032 202.167 196.64 202.592 196.162 202.903C195.684 203.213 195.136 203.4 194.567 203.445C193.999 203.491 193.429 203.394 192.907 203.163L178.415 196.736C176.834 196.035 175.558 194.788 174.823 193.223L172.553 188.411C171.96 187.146 172.875 185.694 174.275 185.694H194.297V185.7ZM172.161 140.682C172.162 141.242 171.985 141.787 171.655 142.24C171.325 142.692 170.86 143.028 170.327 143.198L168.471 143.795C158.831 146.877 148.471 146.877 138.831 143.795L136.988 143.198C136.456 143.029 135.992 142.695 135.662 142.245C135.333 141.796 135.154 141.252 135.153 140.695V100.11H172.163L172.161 140.682Z" fill="#FFBD6E"/>
<path d="M138.097 101.781C138.097 99.0078 135.843 96.7751 133.068 96.7751C130.292 96.7751 128.034 99.0078 128.034 101.781C128.034 104.555 130.287 109.058 133.068 109.058C135.848 109.058 138.097 104.537 138.097 101.781ZM179.22 101.781C179.22 99.0078 176.967 96.7751 174.187 96.7751C171.407 96.7751 169.153 99.0078 169.153 101.781C169.153 104.555 171.407 109.058 174.187 109.058C176.967 109.058 179.22 104.537 179.22 101.781Z" fill="#FFBD6E"/>
<path d="M153.622 125.003C141.94 125.003 132.348 115.833 131.882 104.236L131.144 92.4938C130.63 79.7899 140.848 69.2107 153.626 69.2107C166.404 69.2107 176.618 79.7899 176.108 92.4938L175.37 104.236C174.904 115.833 165.308 125.003 153.626 125.003H153.622Z" fill="black"/>
<path d="M153.622 133.59C141.94 133.59 132.348 124.419 131.882 112.823L131.144 101.08C130.63 88.3766 140.848 77.7974 153.626 77.7974C166.404 77.7974 176.618 88.3766 176.108 101.08L175.37 112.823C174.904 124.419 165.308 133.59 153.626 133.59H153.622Z" fill="#FFBD6E"/>
<path d="M152.712 134.852C151.792 134.598 152.13 133.561 153.085 133.584C153.263 133.589 153.442 133.591 153.621 133.591H153.626C157.337 133.596 160.988 132.652 164.233 130.85C167.477 129.048 170.207 126.446 172.164 123.293V131.266C168.507 134.04 163.945 135.663 159.006 135.663C157.043 135.663 154.803 135.43 152.712 134.852Z" fill="#E59A48"/>
<path d="M148.948 113.156C148.948 114.131 147.597 113.296 145.931 113.296C144.264 113.296 142.913 114.131 142.913 113.156C142.913 112.182 144.264 111.392 145.931 111.392C147.597 111.392 148.948 112.182 148.948 113.156ZM165.224 113.156C165.224 114.131 163.872 113.296 162.206 113.296C160.54 113.296 159.189 114.131 159.189 113.156C159.189 112.182 160.54 111.392 162.206 111.392C163.872 111.392 165.224 112.182 165.224 113.156ZM147.776 104.73C148.083 104.494 148.277 104.129 148.273 103.721C148.268 103.392 148.133 103.077 147.898 102.847C147.663 102.616 147.346 102.487 147.017 102.489C146.882 102.49 143.969 102.527 141.293 104.756C140.757 105.198 140.688 105.975 141.133 106.516C141.348 106.77 141.654 106.928 141.986 106.957C142.317 106.986 142.647 106.883 142.902 106.671C144.858 105.034 147.007 105.001 147.034 105.001C147.31 104.996 147.565 104.88 147.776 104.73ZM159.544 104.73C159.389 104.612 159.263 104.459 159.177 104.284C159.09 104.109 159.046 103.916 159.048 103.721C159.053 103.392 159.187 103.077 159.423 102.847C159.658 102.616 159.974 102.487 160.304 102.489C160.439 102.49 163.351 102.527 166.028 104.756C166.563 105.198 166.632 105.975 166.188 106.516C165.973 106.77 165.666 106.928 165.335 106.957C165.003 106.986 164.674 106.883 164.418 106.671C162.462 105.034 160.314 105.001 160.287 105.001C160.01 104.996 159.755 104.88 159.544 104.73ZM153.953 123.864C153.523 123.75 153.123 123.959 152.992 124.328C152.96 124.421 152.946 124.519 152.951 124.617C152.957 124.715 152.981 124.811 153.024 124.9C153.066 124.988 153.126 125.068 153.199 125.133C153.272 125.199 153.358 125.249 153.45 125.281C153.631 125.343 153.816 125.401 153.999 125.45C157.531 126.391 161.703 124.742 163.51 121.7C163.611 121.527 163.638 121.321 163.587 121.127C163.536 120.934 163.411 120.769 163.239 120.667C163.18 120.631 163.116 120.605 163.049 120.59C162.889 120.547 162.72 120.558 162.567 120.621C162.413 120.684 162.285 120.795 162.201 120.937C160.725 123.429 157.297 124.773 154.382 123.996C154.236 123.958 154.086 123.918 153.946 123.858L153.943 123.866L153.953 123.864Z" fill="black"/>
<path d="M175.913 92.1658V101.469C175.913 102.43 175.12 103.218 174.154 103.218C173.188 103.218 172.396 102.43 172.396 101.469V99.5472C172.396 94.8218 170.223 92.782 166.129 90.3927L162.147 88.6952C155.889 87.5636 153.648 87.5636 149.061 88.6952L143.941 90.3927C138.505 92.2348 134.885 95.7563 134.885 101.469C134.885 102.43 134.094 103.218 133.127 103.218C132.161 103.218 131.369 102.43 131.369 101.469V92.1658C131.396 79.9258 141.354 70.022 153.648 70.022C165.941 70.022 175.913 79.9258 175.913 92.1658Z" fill="black"/>
<path d="M42.4022 223.857C42.4022 223.857 36.1513 229.819 24.228 228.946C12.304 228.074 -0.268404 210.706 10.921 191.274C10.921 191.274 22.1263 170.413 29.3029 160.293C36.4789 150.172 43.8253 143.468 51.9867 138.54L59.7702 133.827L71.0237 127.453H75.9808C69.9474 193.2 61.8878 202.045 42.4022 223.857Z" fill="#4680E1"/>
<path d="M107.724 92.6101V130.766C107.724 131.29 107.558 131.8 107.251 132.224C106.943 132.647 106.509 132.963 106.012 133.125L104.274 133.684C95.2634 136.588 85.5681 136.588 76.5577 133.684L74.8323 133.125C74.3318 132.966 73.8951 132.651 73.5851 132.227C73.275 131.803 73.1078 131.292 73.1074 130.766V92.6101H107.724Z" fill="#E47B4C"/>
<path d="M107.721 110.051V119.375C104.309 121.975 100.035 123.51 95.417 123.51C92.0371 123.514 88.7099 122.672 85.7383 121.062C84.8 120.554 85.3324 119.108 86.3857 119.311C87.7095 119.577 89.0566 119.708 90.4068 119.704C97.7132 119.704 104.144 115.848 107.721 110.026V110.051Z" fill="#CC6942"/>
<path d="M99 93.4865C99.2591 95.1932 99.6852 96.5429 100.34 96.4432C100.995 96.3441 101.002 94.9287 100.743 93.2219C100.484 91.5151 100.058 90.1655 99.4032 90.2646C98.748 90.3643 98.7415 91.7791 99 93.4865ZM83.8143 95.7897C84.0733 97.4965 84.4995 98.8462 85.1546 98.7465C85.8097 98.6473 85.8163 97.232 85.5572 95.5252C85.2987 93.8184 84.8725 92.4687 84.2174 92.5679C83.5623 92.6676 83.5552 94.0824 83.8143 95.7897ZM96.8134 86.9365C96.6485 86.8458 96.5069 86.718 96.3998 86.5633C96.2927 86.4085 96.223 86.231 96.1961 86.0448C96.1523 85.7307 96.2343 85.4121 96.4241 85.1582C96.614 84.9042 96.8964 84.7354 97.21 84.6885C97.3376 84.6699 100.108 84.2865 102.971 86.0272C103.542 86.3723 103.721 87.1041 103.377 87.6842C103.21 87.957 102.942 88.1526 102.631 88.228C102.321 88.3034 101.993 88.2524 101.72 88.0862C99.6272 86.8072 97.5835 87.0838 97.5572 87.0877C97.2943 87.1233 97.0358 87.0493 96.8134 86.9365ZM85.6454 88.6301C85.8216 88.4494 85.9366 88.2177 85.974 87.968C86.0113 87.7183 85.9692 87.4632 85.8536 87.2388C85.7379 87.0143 85.5546 86.8319 85.3296 86.7174C85.1046 86.6029 84.8492 86.5621 84.5997 86.6007C84.4721 86.621 81.7131 87.0767 79.4953 89.5881C79.0516 90.0871 79.0982 90.8386 79.5988 91.2905C80.0972 91.7309 80.857 91.6827 81.3006 91.1832C82.9198 89.3411 84.9541 88.9993 84.9799 88.9949C85.2411 88.9511 85.4663 88.8038 85.6454 88.6301ZM93.7219 106.086C94.113 105.915 94.5233 106.057 94.7007 106.391C94.7905 106.56 94.8096 106.757 94.754 106.94C94.6983 107.123 94.5724 107.276 94.4039 107.366C94.2417 107.451 94.0747 107.533 93.9076 107.606C90.6918 109.013 86.4944 108.04 84.3385 105.397C84.2179 105.246 84.1632 105.057 84.1823 104.864C84.1914 104.768 84.2195 104.676 84.2649 104.591C84.3103 104.507 84.3722 104.432 84.4469 104.372C84.497 104.33 84.5538 104.296 84.6151 104.272C84.761 104.208 84.9238 104.194 85.0785 104.232C85.2331 104.269 85.3711 104.357 85.4712 104.481C87.2322 106.646 90.6803 107.435 93.3336 106.274C93.4667 106.216 93.6031 106.156 93.7279 106.079L93.7312 106.087L93.7219 106.086Z" fill="black"/>
</g>
</svg>
