<svg width="967" height="800" viewBox="0 0 967 800" fill="none" xmlns="http://www.w3.org/2000/svg">
<mask id="mask0_2824_10630" style="mask-type:alpha" maskUnits="userSpaceOnUse" x="0" y="0" width="967" height="800">
<rect width="967" height="800" fill="#C2DBF3"/>
</mask>
<g mask="url(#mask0_2824_10630)">
<rect width="967" height="800" fill="#C2DBF3"/>
<path d="M580.809 149.371H406.839C380.769 149.371 356.689 163.281 343.659 185.851L256.679 336.511C243.649 359.081 243.649 386.891 256.679 409.471L343.659 560.131C356.689 582.701 380.779 596.611 406.839 596.611H580.809C606.879 596.611 630.959 582.701 643.989 560.131L730.969 409.471C743.999 386.901 743.999 359.091 730.969 336.511L643.989 185.851C630.959 163.281 606.869 149.371 580.809 149.371Z" fill="#F7F7F7"/>
<path d="M878.989 390.531H834.889C828.279 390.531 822.179 394.051 818.869 399.781L796.819 437.971C793.519 443.691 793.519 450.741 796.819 456.461L818.869 494.651C822.169 500.371 828.279 503.901 834.889 503.901H878.989C885.599 503.901 891.699 500.381 895.009 494.651L917.059 456.461C920.359 450.741 920.359 443.691 917.059 437.971L895.009 399.781C891.709 394.061 885.599 390.531 878.989 390.531Z" fill="#F7F7F7"/>
<path d="M172.549 485.352H138.559C133.469 485.352 128.759 488.072 126.209 492.482L109.209 521.922C106.659 526.332 106.659 531.772 109.209 536.182L126.209 565.622C128.759 570.032 133.459 572.752 138.559 572.752H172.549C177.639 572.752 182.349 570.032 184.899 565.622L201.899 536.182C204.449 531.772 204.449 526.332 201.899 521.922L184.899 492.482C182.349 488.072 177.649 485.352 172.549 485.352Z" fill="#F7F7F7"/>
<path d="M197.399 255.83H176.969C173.909 255.83 171.079 257.46 169.549 260.11L159.329 277.8C157.799 280.45 157.799 283.72 159.329 286.37L169.549 304.06C171.079 306.71 173.909 308.34 176.969 308.34H197.399C200.459 308.34 203.289 306.71 204.819 304.06L215.039 286.37C216.569 283.72 216.569 280.45 215.039 277.8L204.819 260.11C203.289 257.46 200.459 255.83 197.399 255.83Z" fill="#F7F7F7"/>
<path d="M776.2 401.46L337.73 585.66C315.74 594.9 290.43 584.56 281.19 562.57L213.34 401.06C204.1 379.07 214.44 353.76 236.43 344.52L674.9 160.32C696.89 151.08 722.2 161.42 731.44 183.41L799.29 344.92C808.52 366.91 798.19 392.22 776.2 401.46Z" fill="#3D3D3D"/>
<path d="M289.969 397.381L270.339 405.621C265.609 407.611 260.159 405.381 258.169 400.651L249.929 381.021C247.939 376.291 250.169 370.841 254.899 368.851L274.529 360.611C279.259 358.621 284.709 360.851 286.699 365.581L294.939 385.211C296.929 389.941 294.699 395.391 289.969 397.381Z" fill="black"/>
<path d="M340.79 376.031L321.16 384.271C316.43 386.261 310.98 384.031 308.99 379.301L300.75 359.671C298.76 354.941 300.99 349.491 305.72 347.501L325.35 339.261C330.08 337.271 335.53 339.501 337.52 344.231L345.76 363.861C347.75 368.591 345.53 374.041 340.79 376.031Z" fill="black"/>
<path d="M391.62 354.68L371.99 362.92C367.26 364.91 361.81 362.68 359.82 357.95L351.58 338.32C349.59 333.59 351.82 328.14 356.55 326.15L376.18 317.91C380.91 315.92 386.36 318.15 388.35 322.88L396.59 342.51C398.58 347.24 396.35 352.69 391.62 354.68Z" fill="black"/>
<path d="M442.44 333.33L422.81 341.57C418.08 343.56 412.63 341.33 410.64 336.6L402.4 316.97C400.41 312.24 402.64 306.79 407.37 304.8L427 296.56C431.73 294.57 437.18 296.8 439.17 301.53L447.41 321.16C449.4 325.89 447.18 331.34 442.44 333.33Z" fill="black"/>
<path d="M493.27 311.981L473.64 320.221C468.91 322.211 463.46 319.981 461.47 315.251L453.23 295.621C451.24 290.891 453.47 285.441 458.2 283.451L477.83 275.211C482.56 273.221 488.01 275.451 490 280.181L498.24 299.811C500.23 304.541 498 309.991 493.27 311.981Z" fill="black"/>
<path d="M544.09 290.621L524.46 298.861C519.73 300.851 514.28 298.621 512.29 293.891L504.05 274.261C502.06 269.531 504.29 264.081 509.02 262.091L528.65 253.851C533.38 251.861 538.83 254.091 540.82 258.821L549.06 278.451C551.05 283.191 548.83 288.641 544.09 290.621Z" fill="black"/>
<path d="M594.92 269.272L575.29 277.512C570.56 279.502 565.11 277.272 563.12 272.542L554.881 252.912C552.891 248.182 555.12 242.732 559.85 240.742L579.48 232.502C584.21 230.512 589.66 232.742 591.65 237.472L599.89 257.102C601.88 261.832 599.65 267.282 594.92 269.272Z" fill="black"/>
<path d="M645.739 247.92L626.109 256.16C621.379 258.15 615.929 255.92 613.939 251.19L605.699 231.56C603.709 226.83 605.939 221.38 610.669 219.39L630.299 211.15C635.029 209.16 640.479 211.39 642.469 216.12L650.709 235.75C652.699 240.48 650.479 245.93 645.739 247.92Z" fill="black"/>
<path d="M696.569 226.57L676.939 234.81C672.209 236.8 666.759 234.57 664.769 229.84L656.529 210.22C654.539 205.49 656.769 200.04 661.499 198.05L681.129 189.81C685.859 187.82 691.309 190.05 693.299 194.78L701.539 214.41C703.529 219.13 701.299 224.58 696.569 226.57Z" fill="black"/>
<path d="M336.879 440.5L317.249 448.74C312.519 450.73 307.07 448.5 305.08 443.77L296.839 424.14C294.849 419.41 297.079 413.96 301.809 411.97L321.439 403.73C326.169 401.74 331.62 403.97 333.61 408.7L341.849 428.33C343.839 433.06 341.609 438.51 336.879 440.5Z" fill="black"/>
<path d="M387.7 419.15L368.07 427.391C363.34 429.381 357.89 427.151 355.9 422.421L347.66 402.791C345.67 398.061 347.9 392.61 352.63 390.62L372.26 382.38C376.99 380.39 382.44 382.621 384.43 387.351L392.67 406.981C394.66 411.711 392.44 417.16 387.7 419.15Z" fill="black"/>
<path d="M438.53 397.791L418.9 406.031C414.17 408.021 408.72 405.791 406.73 401.061L398.49 381.431C396.5 376.701 398.73 371.251 403.46 369.261L423.09 361.021C427.82 359.031 433.27 361.261 435.26 365.991L443.5 385.621C445.49 390.361 443.26 395.811 438.53 397.791Z" fill="black"/>
<path d="M489.35 376.442L469.72 384.682C464.99 386.672 459.54 384.442 457.55 379.712L449.31 360.082C447.32 355.352 449.55 349.902 454.28 347.912L473.91 339.672C478.64 337.682 484.09 339.912 486.08 344.642L494.32 364.272C496.31 369.002 494.09 374.452 489.35 376.442Z" fill="black"/>
<path d="M540.18 355.09L520.55 363.33C515.82 365.32 510.37 363.09 508.38 358.36L500.14 338.73C498.15 334 500.38 328.55 505.11 326.56L524.74 318.32C529.47 316.33 534.92 318.56 536.91 323.29L545.15 342.92C547.14 347.65 544.91 353.1 540.18 355.09Z" fill="black"/>
<path d="M591.01 333.74L571.38 341.98C566.65 343.97 561.2 341.74 559.21 337.01L550.97 317.38C548.98 312.65 551.21 307.2 555.94 305.21L575.57 296.97C580.3 294.98 585.75 297.21 587.74 301.94L595.98 321.57C597.96 326.3 595.74 331.75 591.01 333.74Z" fill="black"/>
<path d="M641.829 312.391L622.199 320.631C617.469 322.621 612.019 320.391 610.029 315.661L601.789 296.031C599.799 291.301 602.029 285.851 606.759 283.861L626.389 275.621C631.119 273.631 636.569 275.861 638.559 280.591L646.799 300.221C648.789 304.951 646.559 310.401 641.829 312.391Z" fill="black"/>
<path d="M692.659 291.041L673.029 299.281C668.299 301.271 662.849 299.041 660.859 294.311L652.619 274.681C650.629 269.951 652.859 264.501 657.589 262.511L677.219 254.271C681.949 252.281 687.399 254.511 689.389 259.241L697.629 278.871C699.609 283.601 697.389 289.051 692.659 291.041Z" fill="black"/>
<path d="M334.829 504.18L315.199 512.42C310.469 514.41 305.019 512.18 303.029 507.45L294.789 487.82C292.799 483.09 295.029 477.64 299.759 475.65L319.389 467.41C324.119 465.42 329.569 467.65 331.559 472.38L339.799 492.01C341.789 496.74 339.569 502.19 334.829 504.18Z" fill="black"/>
<path d="M385.659 482.83L366.029 491.07C361.299 493.06 355.849 490.83 353.859 486.1L345.619 466.47C343.629 461.74 345.859 456.29 350.589 454.3L370.219 446.06C374.949 444.07 380.399 446.3 382.389 451.03L390.629 470.66C392.619 475.39 390.389 480.84 385.659 482.83Z" fill="black"/>
<path d="M436.479 461.481L416.849 469.721C412.119 471.711 406.669 469.481 404.679 464.751L396.439 445.121C394.449 440.391 396.679 434.941 401.409 432.951L421.039 424.711C425.769 422.721 431.219 424.951 433.209 429.681L441.449 449.311C443.439 454.041 441.219 459.491 436.479 461.481Z" fill="black"/>
<path d="M487.309 440.121L467.679 448.361C462.949 450.351 457.499 448.121 455.509 443.391L447.269 423.761C445.279 419.031 447.509 413.581 452.239 411.591L471.869 403.351C476.599 401.361 482.049 403.591 484.039 408.321L492.279 427.951C494.269 432.691 492.039 438.141 487.309 440.121Z" fill="black"/>
<path d="M538.129 418.772L518.499 427.012C513.769 429.002 508.32 426.772 506.33 422.042L498.089 402.412C496.099 397.682 498.329 392.232 503.059 390.242L522.689 382.002C527.419 380.012 532.87 382.242 534.86 386.972L543.099 406.602C545.089 411.332 542.869 416.782 538.129 418.772Z" fill="black"/>
<path d="M588.96 397.42L569.33 405.66C564.6 407.65 559.15 405.42 557.16 400.69L548.92 381.06C546.93 376.33 549.16 370.88 553.89 368.89L573.52 360.65C578.25 358.66 583.7 360.89 585.69 365.62L593.93 385.25C595.92 389.98 593.69 395.43 588.96 397.42Z" fill="black"/>
<path d="M639.78 376.07L620.15 384.31C615.42 386.3 609.97 384.07 607.98 379.34L599.74 359.71C597.75 354.98 599.98 349.53 604.71 347.54L624.34 339.3C629.07 337.31 634.52 339.54 636.51 344.27L644.75 363.9C646.74 368.63 644.52 374.08 639.78 376.07Z" fill="black"/>
<path d="M690.61 354.721L670.98 362.961C666.25 364.951 660.8 362.721 658.81 357.991L650.57 338.361C648.58 333.631 650.81 328.181 655.54 326.191L675.17 317.951C679.9 315.961 685.35 318.191 687.34 322.921L695.58 342.551C697.57 347.281 695.34 352.731 690.61 354.721Z" fill="black"/>
<path d="M741.43 333.371L721.8 341.611C717.07 343.601 711.62 341.371 709.63 336.641L701.39 317.011C699.4 312.281 701.63 306.831 706.36 304.841L725.99 296.601C730.72 294.611 736.17 296.841 738.16 301.571L746.4 321.201C748.39 325.931 746.17 331.381 741.43 333.371Z" fill="black"/>
<path d="M712.63 408.59L389.09 544.51C384.07 546.62 378.29 544.26 376.18 539.24L367.98 519.71C365.87 514.69 368.23 508.91 373.25 506.8L696.79 370.88C701.81 368.77 707.59 371.13 709.7 376.15L717.9 395.68C720.01 400.7 717.65 406.48 712.63 408.59Z" fill="black"/>
<path d="M330.37 305.06L232.15 218.22L96 97.77L201.09 -95L356.7 187.83L409.8 199.81C422.46 202.67 435.55 203.08 448.37 201.01L563.41 182.48C568.84 181.61 574.13 184.68 576.05 189.84C578.21 195.64 575.41 202.1 569.71 204.5L330.37 305.06Z" fill="#F3C8B7"/>
<path d="M358.709 286.421L463.019 323.181C470.369 325.771 478.499 322.621 482.189 315.761C485.929 308.811 483.959 300.161 477.579 295.511L422.269 255.191L358.709 286.421Z" fill="#F3C8B7"/>
<path d="M356.7 187.831L271.2 264.121C259.73 274.361 242.03 272.951 232.32 261.021L-2 -0.5H84.5H252.5L356.7 187.831Z" fill="#3D3D3D"/>
</g>
</svg>
