<svg width="69" height="94" viewBox="0 0 69 94" fill="none" xmlns="http://www.w3.org/2000/svg">
<path d="M49.8676 38.5515L49.8282 23.3424C49.8058 14.8192 42.8332 7.90285 34.282 7.92532C25.7307 7.9478 18.7863 14.8978 18.8087 23.421L18.8481 38.6302C16.0838 40.4506 13.651 42.7429 11.6789 45.3948L11.6227 23.4435C11.5946 10.9761 21.7472 0.801125 34.2595 0.773033C46.7718 0.739322 56.9805 10.8638 57.0086 23.3311L57.0648 45.2824C55.0815 42.6418 52.6431 40.3663 49.8619 38.5571L49.8676 38.5515Z" fill="#6AADD7"/>
<path d="M48.7102 29.6577H20.1123C9.56521 29.6577 1.01514 38.2078 1.01514 48.7548V74.4761C1.01514 85.0232 9.56521 93.5733 20.1123 93.5733H48.7102C59.2573 93.5733 67.8073 85.0232 67.8073 74.4761V48.7548C67.8073 38.2078 59.2573 29.6577 48.7102 29.6577Z" fill="#94D0F8"/>
<path d="M27.4492 55.6706C27.438 51.7938 30.5394 48.6475 34.3768 48.6363C38.2142 48.625 41.3324 51.7601 41.3437 55.6368C41.3493 58.1764 40.0177 60.4069 38.0232 61.643L38.0456 70.0594C38.0456 72.0652 36.4331 73.7114 34.4442 73.7114C32.4609 73.7114 30.8315 72.0821 30.8259 70.0763L30.8035 61.6598C28.7977 60.435 27.4605 58.2101 27.4492 55.6706Z" fill="black"/>
</svg>
