<svg width="361" height="301" viewBox="0 0 361 301" fill="none" xmlns="http://www.w3.org/2000/svg">
<path d="M301.054 154.606C301.054 220.521 247.797 273.955 182.101 273.955C116.405 273.955 63.1477 220.521 63.1477 154.606C63.1477 88.6909 116.405 35.2563 182.101 35.2563C247.797 35.2563 301.054 88.6909 301.054 154.606Z" fill="#C3DCF4"/>
<path d="M43.1714 31.0948C43.1715 30.0802 43.5733 29.1073 44.2884 28.3899C45.0035 27.6725 45.9733 27.2695 46.9845 27.2695H173.749C174.76 27.2695 175.729 27.6726 176.444 28.3899C177.159 29.1073 177.561 30.0803 177.561 31.0948V97.0685C177.561 97.5709 177.463 98.0684 177.271 98.5326C177.08 98.9967 176.799 99.4185 176.445 99.7738C176.091 100.129 175.67 100.411 175.208 100.603C174.745 100.795 174.249 100.894 173.749 100.894H46.9845C45.9732 100.894 45.0033 100.491 44.2882 99.7738C43.5731 99.0563 43.1714 98.0832 43.1714 97.0685V31.0948Z" fill="#E2F1FF"/>
<path d="M43.1714 31.0948C43.1715 30.0802 43.5733 29.1073 44.2884 28.3899C45.0035 27.6725 45.9733 27.2695 46.9845 27.2695H173.749C174.76 27.2695 175.729 27.6726 176.444 28.3899C177.159 29.1073 177.561 30.0803 177.561 31.0948V40.1995H43.1714V31.0948Z" fill="#3E5FFF"/>
<path d="M52.924 33.7348C52.924 34.5654 52.5951 35.362 52.0097 35.9494C51.4243 36.5367 50.6304 36.8666 49.8026 36.8666C48.9747 36.8666 48.1808 36.5367 47.5954 35.9494C47.01 35.362 46.6812 34.5654 46.6812 33.7348C46.6812 32.9042 47.01 32.1076 47.5954 31.5203C48.1808 30.933 48.9747 30.603 49.8026 30.603C50.6304 30.603 51.4243 30.933 52.0097 31.5203C52.5951 32.1076 52.924 32.9042 52.924 33.7348ZM60.5853 33.7348C60.5853 34.5654 60.2564 35.362 59.6711 35.9494C59.0857 36.5367 58.2917 36.8666 57.4639 36.8666C56.636 36.8666 55.8421 36.5367 55.2567 35.9494C54.6713 35.362 54.3425 34.5654 54.3425 33.7348C54.3425 32.9042 54.6713 32.1076 55.2567 31.5203C55.8421 30.933 56.636 30.603 57.4639 30.603C58.2917 30.603 59.0857 30.933 59.6711 31.5203C60.2564 32.1076 60.5853 32.9042 60.5853 33.7348ZM68.2466 33.7348C68.2466 34.5654 67.9178 35.362 67.3324 35.9494C66.747 36.5367 65.9531 36.8666 65.1252 36.8666C64.2974 36.8666 63.5034 36.5367 62.9181 35.9494C62.3327 35.362 62.0038 34.5654 62.0038 33.7348C62.0038 32.9042 62.3327 32.1076 62.9181 31.5203C63.5034 30.933 64.2974 30.603 65.1252 30.603C65.9531 30.603 66.747 30.933 67.3324 31.5203C67.9178 32.1076 68.2466 32.9042 68.2466 33.7348Z" fill="#F8F8F8"/>
<path d="M47.3638 48.082C47.3638 47.1048 47.7507 46.1676 48.4394 45.4766C49.1281 44.7857 50.0621 44.3975 51.0361 44.3975H103.575C104.058 44.3975 104.535 44.4928 104.981 44.6779C105.426 44.8631 105.831 45.1345 106.172 45.4766C106.513 45.8188 106.784 46.225 106.968 46.672C107.153 47.119 107.248 47.5981 107.248 48.082V93.003C107.248 93.4869 107.153 93.966 106.968 94.413C106.784 94.86 106.513 95.2662 106.172 95.6084C105.831 95.9505 105.426 96.2219 104.981 96.4071C104.535 96.5922 104.058 96.6875 103.575 96.6875H51.0361C50.0621 96.6875 49.1281 96.2994 48.4394 95.6084C47.7507 94.9174 47.3638 93.9802 47.3638 93.003V48.082ZM111.442 48.0912C111.442 47.114 111.829 46.1768 112.517 45.4858C113.206 44.7949 114.14 44.4067 115.114 44.4067H169.655C170.629 44.4068 171.563 44.795 172.251 45.486C172.94 46.177 173.327 47.114 173.327 48.0912V64.5179C173.327 65.4951 172.94 66.4323 172.251 67.1233C171.563 67.8143 170.629 68.2024 169.655 68.2024H115.114C114.14 68.2024 113.206 67.8143 112.517 67.1233C111.829 66.4323 111.442 65.4951 111.442 64.5179V48.0912ZM111.482 76.094C111.482 75.1168 111.869 74.1796 112.557 73.4886C113.246 72.7976 114.18 72.4094 115.154 72.4094H169.695C170.669 72.4094 171.603 72.7976 172.291 73.4886C172.98 74.1796 173.367 75.1168 173.367 76.094V93.003C173.367 93.9802 172.98 94.9174 172.291 95.6084C171.603 96.2994 170.669 96.6875 169.695 96.6875H115.154C114.672 96.6875 114.194 96.5922 113.749 96.4071C113.303 96.2219 112.898 95.9505 112.557 95.6084C112.216 95.2662 111.946 94.86 111.761 94.413C111.577 93.966 111.482 93.4869 111.482 93.003V76.094Z" fill="white"/>
<mask id="mask0_1_5822" style="mask-type:alpha" maskUnits="userSpaceOnUse" x="63" y="35" width="239" height="239">
<path d="M301.051 154.606C301.051 220.521 247.794 273.955 182.099 273.955C116.403 273.955 63.1455 220.521 63.1455 154.606C63.1455 88.6909 116.403 35.2563 182.099 35.2563C247.794 35.2563 301.051 88.6909 301.051 154.606Z" fill="#C3DCF4"/>
</mask>
<g mask="url(#mask0_1_5822)">
<path d="M248.444 250.644H265.14V283.263C265.139 284.076 264.846 284.862 264.316 285.478C263.786 286.093 263.053 286.496 262.251 286.615C261.449 286.733 260.631 286.559 259.947 286.123C259.262 285.687 258.757 285.019 258.522 284.24L248.444 250.644ZM116.83 250.644H100.134V283.263C100.136 284.076 100.428 284.862 100.958 285.476C101.489 286.091 102.221 286.495 103.023 286.613C103.825 286.731 104.642 286.557 105.326 286.122C106.011 285.686 106.516 285.018 106.751 284.24L116.83 250.644Z" fill="#824F36"/>
<path d="M270.432 243.631H96.1122C94.2545 243.631 92.7485 249.359 92.7485 256.426V283.226C92.7485 290.293 94.2545 296.021 96.1122 296.021H270.432C272.29 296.021 273.796 290.293 273.796 283.226V256.426C273.796 249.359 272.29 243.631 270.432 243.631Z" fill="#E59A48"/>
<path d="M84.7881 214.893H279.405C282.428 214.893 284.883 217.357 284.883 220.39V239.743C284.883 247.982 278.214 254.674 270.002 254.674H94.1911C85.9789 254.676 79.3098 247.985 79.3098 239.746V220.392C79.3098 217.357 81.7649 214.893 84.7881 214.893Z" fill="#FFBD6E"/>
<path d="M115.057 127.407H248.599C258.303 127.407 266.183 135.313 266.183 145.049V222.525C266.183 225.874 263.473 228.593 260.135 228.593H103.521C100.184 228.593 97.4739 225.874 97.4739 222.525V145.049C97.4739 135.313 105.353 127.407 115.057 127.407Z" fill="#E59A48"/>
<path d="M284.887 205.755V232.74H247.474V205.755C247.474 195.396 255.857 186.985 266.182 186.985C276.507 186.985 284.89 195.396 284.89 205.755H284.887ZM116.723 205.755V232.74H79.3103V205.755C79.3103 195.395 87.693 186.985 98.0177 186.985C108.343 186.985 116.726 195.395 116.726 205.755H116.723Z" fill="#FFBD6E"/>
<path d="M87.7047 241.614C89.3784 240.667 91.2826 242.422 90.484 244.175L87.484 250.76C87.3099 251.143 87.2609 251.57 87.344 251.982C87.427 252.394 87.6379 252.769 87.9464 253.054L93.2617 257.951C94.677 259.255 93.6022 261.614 91.6932 261.394L84.5239 260.567C84.1078 260.519 83.6871 260.604 83.3223 260.81C82.9574 261.017 82.6671 261.334 82.493 261.716L79.493 268.302C78.6944 270.055 76.1261 269.758 75.7446 267.869L74.3137 260.772C74.2306 260.36 74.0198 259.985 73.7112 259.701C73.4027 259.417 73.0124 259.238 72.5962 259.189L65.4275 258.362C63.5185 258.142 63.0054 255.599 64.6792 254.651L70.964 251.093C71.3288 250.887 71.619 250.569 71.7931 250.187C71.9672 249.805 72.0162 249.377 71.9331 248.965L70.5022 241.868C70.1212 239.978 72.3729 238.704 73.7881 240.008L79.1034 244.905C79.4121 245.19 79.8024 245.369 80.2186 245.417C80.6348 245.465 81.0555 245.379 81.4203 245.173L87.7047 241.614Z" fill="#FF7059"/>
<path d="M81.5849 254.77C81.5058 254.998 81.3828 255.208 81.2229 255.387C81.0631 255.567 80.8695 255.714 80.6532 255.818C80.4369 255.923 80.2022 255.984 79.9624 255.998C79.7227 256.011 79.4826 255.978 79.2558 255.898C79.0291 255.819 78.8202 255.696 78.6409 255.535C78.4617 255.375 78.3158 255.181 78.2114 254.964C78.107 254.747 78.0462 254.511 78.0325 254.27C78.0189 254.03 78.0525 253.789 78.1316 253.561C78.2914 253.102 78.6266 252.725 79.0633 252.514C79.5001 252.302 80.0028 252.273 80.4607 252.434C80.9186 252.594 81.2943 252.93 81.5051 253.368C81.716 253.807 81.7447 254.311 81.5849 254.77ZM86.993 257.214C86.946 257.356 86.8712 257.487 86.7731 257.6C86.675 257.713 86.5555 257.805 86.4215 257.871C86.2875 257.937 86.1418 257.976 85.9927 257.985C85.8437 257.994 85.6944 257.973 85.5534 257.924C85.4125 257.875 85.2827 257.798 85.1717 257.697C85.0608 257.597 84.9708 257.476 84.907 257.34C84.8432 257.205 84.8069 257.058 84.8003 256.908C84.7936 256.759 84.8167 256.609 84.8682 256.469C84.97 256.19 85.1768 255.963 85.4439 255.837C85.711 255.71 86.0171 255.694 86.296 255.792C86.5748 255.89 86.8042 256.094 86.9346 256.36C87.065 256.625 87.086 256.932 86.993 257.214ZM84.5331 249.442C84.4347 249.724 84.2284 249.956 83.9597 250.086C83.6909 250.216 83.3817 250.234 83.1 250.135C82.8183 250.036 82.5872 249.83 82.4576 249.56C82.328 249.29 82.3104 248.98 82.4088 248.697C82.4575 248.557 82.5332 248.428 82.6316 248.318C82.73 248.207 82.8491 248.117 82.9822 248.053C83.1153 247.988 83.2597 247.951 83.4072 247.943C83.5547 247.934 83.7024 247.955 83.8419 248.004C83.9814 248.053 84.1099 248.129 84.2201 248.227C84.3303 248.326 84.4201 248.446 84.4843 248.579C84.5485 248.713 84.5858 248.858 84.5942 249.006C84.6026 249.154 84.5818 249.302 84.5331 249.442ZM74.2942 255.357C74.196 255.639 73.9898 255.871 73.7211 256.002C73.4524 256.132 73.1432 256.15 72.8614 256.051C72.5796 255.952 72.3484 255.746 72.2187 255.476C72.0889 255.206 72.0712 254.896 72.1694 254.613C72.2181 254.473 72.2937 254.344 72.392 254.234C72.4904 254.123 72.6095 254.033 72.7425 253.968C72.8756 253.904 73.02 253.866 73.1675 253.858C73.315 253.849 73.4627 253.87 73.6022 253.919C73.7418 253.968 73.8703 254.044 73.9806 254.142C74.0909 254.241 74.1807 254.361 74.245 254.494C74.3092 254.628 74.3467 254.772 74.3551 254.92C74.3636 255.068 74.3429 255.217 74.2942 255.357ZM79.8793 260.336C79.8335 260.48 79.7595 260.613 79.6616 260.727C79.5637 260.842 79.444 260.935 79.3094 261.003C79.1749 261.07 79.0283 261.11 78.8783 261.119C78.7283 261.129 78.5779 261.108 78.436 261.058C78.2941 261.008 78.1635 260.93 78.0521 260.829C77.9406 260.728 77.8505 260.606 77.787 260.469C77.7236 260.332 77.688 260.184 77.6825 260.033C77.677 259.883 77.7017 259.732 77.755 259.591C77.8591 259.316 78.0662 259.093 78.3321 258.968C78.598 258.844 78.9018 258.829 79.1787 258.926C79.4556 259.023 79.6838 259.225 79.8146 259.488C79.9455 259.752 79.9687 260.056 79.8793 260.336ZM77.8581 248.83C77.8106 248.972 77.7356 249.103 77.6373 249.216C77.5391 249.328 77.4196 249.42 77.2857 249.485C77.1519 249.551 77.0064 249.59 76.8576 249.598C76.7088 249.607 76.5598 249.587 76.4191 249.537C76.2784 249.488 76.1489 249.411 76.0381 249.311C75.9272 249.211 75.8372 249.09 75.7733 248.955C75.7094 248.82 75.6729 248.674 75.6658 248.524C75.6588 248.375 75.6813 248.226 75.7322 248.085C75.8333 247.806 76.0401 247.577 76.3078 247.45C76.5755 247.322 76.8825 247.306 77.1622 247.404C77.4419 247.502 77.6718 247.707 77.802 247.974C77.9323 248.241 77.9524 248.549 77.8581 248.83Z" fill="#E55041"/>
<path d="M219.954 205.077L219.149 205.438L219.796 204.645L219.954 205.077Z" fill="white"/>
<path d="M166.305 76.2422C166.302 79.8285 164.883 83.2675 162.357 85.8049L158.207 89.9675C156.956 91.2231 155.963 92.714 155.285 94.3548C154.608 95.9956 154.259 97.7542 154.259 99.5302V100.596C154.259 108.064 160.295 114.114 167.732 114.114H193.155C200.599 114.114 206.628 108.058 206.628 100.596V99.3217C206.628 97.493 205.905 95.7455 204.616 94.4527L201.347 91.1726C200.06 89.8809 199.336 88.1295 199.335 86.303C199.335 84.4802 198.612 82.7267 197.323 81.4334L194.739 78.8348" fill="black"/>
<path d="M221.873 195.647L138.844 195.54C138.844 195.54 134.928 192.733 126.868 186.16C118.808 179.588 121.329 167.212 121.329 167.212L126.245 151.279L134.77 129.523C137.005 123.821 141.051 119.017 146.281 115.854L166.518 103.617H196.016L215.725 115.533C221.277 118.89 225.485 124.089 227.62 130.23L238.477 161.503C241.011 168.802 241.123 175.929 237.974 182.319C236.654 185 234.604 187.258 232.115 188.898L221.873 195.641" fill="#E3E3E3"/>
<path d="M196.215 103.63L183.227 125.404C182.334 126.899 180.178 126.899 179.291 125.404L166.309 103.63L171.659 74.3433H190.865L196.215 103.63Z" fill="#F4C9B8"/>
<path d="M194.356 93.418C191.666 95.7291 188.24 96.9959 184.699 96.9884C182.185 96.9922 179.712 96.3518 177.514 95.1277C176.829 94.7428 177.237 93.6893 177.991 93.8598C179.041 94.0931 180.135 94.2193 181.254 94.2193C186.233 94.2193 190.659 91.7593 193.356 87.9746L194.356 93.418Z" fill="#CEA193"/>
<path d="M169.738 71.2209C169.722 70.3165 169.353 69.4545 168.71 68.8205C168.067 68.1866 167.201 67.8314 166.3 67.8314C165.398 67.8314 164.533 68.1866 163.889 68.8205C163.246 69.4545 162.877 70.3165 162.861 71.2209C162.861 73.126 164.401 76.2421 166.3 76.2421C168.198 76.2421 169.738 73.132 169.738 71.2209ZM199.655 71.2209C199.644 70.3133 199.277 69.4467 198.633 68.8089C197.989 68.1711 197.121 67.8135 196.216 67.8135C195.312 67.8135 194.443 68.1711 193.8 68.8089C193.156 69.4467 192.789 70.3133 192.777 71.2209C192.777 73.126 194.317 76.2421 196.216 76.2421C198.115 76.2421 199.655 73.132 199.655 71.2209Z" fill="#F4C9B8"/>
<path d="M181.261 94.2186C173.283 94.2186 166.733 87.8981 166.411 79.9065L165.903 67.2282C165.55 58.4732 172.529 51.1875 181.261 51.1875C189.993 51.1875 196.972 58.4732 196.619 67.2282L196.11 79.9065C195.789 87.9046 189.238 94.2186 181.261 94.2186Z" fill="#F4C9B8"/>
<path d="M196.631 66.6036V67.2283L196.619 67.2029V67.2283L196.424 73.2331C196.417 73.4542 196.324 73.6638 196.166 73.8179C196.008 73.9719 195.796 74.0584 195.576 74.0593H195.198C194.997 74.0593 194.796 73.9835 194.639 73.8514L183.128 63.822C181.929 62.7784 180.396 62.2028 178.809 62.2006H175.414C173.892 62.2006 172.417 62.7297 171.239 63.6981C170.062 64.6665 169.256 66.0143 168.958 67.512L167.788 73.3782C167.746 73.5836 167.63 73.7662 167.462 73.8915C167.295 74.0168 167.087 74.0762 166.879 74.0583C166.67 74.0404 166.476 73.9466 166.332 73.7945C166.188 73.6425 166.104 73.4428 166.097 73.2331L165.908 67.2597V66.8813C165.908 58.4544 172.541 51.3641 180.94 51.1876C189.578 51.0046 196.638 57.9747 196.638 66.5971L196.631 66.6036ZM187.504 78.5001C187.504 79.7301 187.321 80.7267 186.768 80.7267C186.215 80.7267 186.033 79.7301 186.033 78.5001C186.033 77.2701 186.215 76.2735 186.768 76.2735C187.321 76.2735 187.504 77.2701 187.504 78.5001ZM176.504 78.5001C176.504 79.7301 176.322 80.7267 175.768 80.7267C175.215 80.7267 175.033 79.7301 175.033 78.5001C175.033 77.2701 175.215 76.2735 175.768 76.2735C176.322 76.2735 176.504 77.2701 176.504 78.5001Z" fill="black"/>
<path d="M173.385 74.974C173.259 74.9753 173.135 74.9468 173.023 74.8909C172.91 74.835 172.813 74.7533 172.737 74.6525C172.61 74.4813 172.555 74.2667 172.585 74.0553C172.614 73.8439 172.726 73.6527 172.895 73.5232C172.958 73.4728 174.466 72.35 176.704 72.4507C176.81 72.4548 176.914 72.48 177.011 72.5249C177.107 72.5697 177.193 72.6333 177.264 72.712C177.336 72.7906 177.391 72.8828 177.426 72.983C177.462 73.0832 177.477 73.1896 177.472 73.2958C177.467 73.402 177.442 73.5062 177.397 73.6024C177.352 73.6986 177.288 73.785 177.21 73.8566C177.132 73.9281 177.04 73.9834 176.941 74.0193C176.841 74.0552 176.735 74.0709 176.629 74.0656C174.994 73.9898 173.875 74.8035 173.863 74.816C173.725 74.9187 173.557 74.9742 173.385 74.974ZM189.144 74.98C188.974 74.98 188.805 74.9296 188.66 74.816C188.635 74.7975 187.516 73.9963 185.894 74.0656C185.681 74.074 185.473 73.998 185.315 73.8539C185.158 73.7099 185.063 73.5094 185.051 73.2958C185.042 73.0818 185.117 72.8728 185.261 72.7144C185.405 72.5561 185.605 72.4612 185.818 72.4507C188.056 72.35 189.565 73.4728 189.628 73.5232C189.797 73.6539 189.909 73.8462 189.938 74.0586C189.967 74.2709 189.912 74.4863 189.785 74.6584C189.711 74.7587 189.614 74.8401 189.503 74.8959C189.391 74.9518 189.269 74.9806 189.144 74.98ZM181.242 89.5639C181.123 89.5634 181.01 89.5161 180.926 89.4323C180.843 89.3484 180.796 89.2348 180.795 89.1162C180.796 88.9975 180.843 88.8837 180.926 88.7997C181.01 88.7157 181.123 88.6683 181.242 88.6679C184.794 88.6679 187.17 86.555 187.195 86.536C187.284 86.457 187.4 86.416 187.519 86.4219C187.638 86.4277 187.749 86.48 187.83 86.5674C187.909 86.6567 187.95 86.7733 187.944 86.8924C187.938 87.0115 187.886 87.1235 187.799 87.2046C187.692 87.3058 185.152 89.5763 181.242 89.5763" fill="black"/>
<path d="M221.811 134.611H138.731C134.166 134.611 130.466 138.324 130.466 142.904V189.846C130.466 194.426 134.166 198.139 138.731 198.139H221.811C226.376 198.139 230.077 194.426 230.077 189.846V142.904C230.077 138.324 226.376 134.611 221.811 134.611Z" fill="white"/>
<path d="M180.268 171.425C181.602 171.425 182.882 170.893 183.826 169.946C184.77 168.999 185.3 167.715 185.3 166.376C185.3 165.036 184.77 163.752 183.826 162.805C182.882 161.858 181.602 161.326 180.268 161.326C178.933 161.326 177.653 161.858 176.709 162.805C175.765 163.752 175.235 165.036 175.235 166.376C175.235 167.715 175.765 168.999 176.709 169.946C177.653 170.893 178.933 171.425 180.268 171.425Z" fill="#BCBCBC"/>
<path d="M138.014 226.005C138.014 226.005 134.195 230.671 129.538 231.768L120.417 192.752C124.782 191.725 128.785 204.784 132.83 203.832" fill="black"/>
<path d="M158.344 207.873C158.344 199.522 165.092 192.752 173.415 192.752H220.714C229.038 192.752 235.785 199.522 235.785 207.873V213.878C235.785 222.229 229.038 228.999 220.714 228.999H173.415C165.092 228.999 158.344 222.229 158.344 213.878V207.873Z" fill="#4680E1"/>
<path d="M130.085 200.343C129.221 197.079 131.78 193.919 135.14 194.098L215.941 198.399L216.678 213.119C217.111 221.757 210.247 228.999 201.627 228.999H141.484C140.391 228.999 139.328 228.636 138.461 227.968C137.595 227.299 136.972 226.361 136.692 225.301L130.085 200.343Z" fill="#4680E1"/>
<path fill-rule="evenodd" clip-rule="evenodd" d="M154.509 195.277L170.662 196.905L186.679 228.999L186.678 229H141.482C140.389 228.999 139.326 228.637 138.459 227.968C137.593 227.299 136.971 226.362 136.69 225.301L130.093 200.382C129.227 197.108 131.805 193.94 135.176 194.139L154.509 195.277Z" fill="#306DC6"/>
<path d="M155.289 182.255C162.391 182.255 168.53 187.231 170.023 194.198L186.911 272.989C187.575 276.087 185.221 279.01 182.063 279.01H153.829C152.628 279.01 151.468 278.573 150.564 277.779C149.66 276.986 149.074 275.89 148.914 274.696L138.855 199.385C137.644 190.317 144.674 182.255 153.793 182.255H155.289Z" fill="#4680E1"/>
</g>
<path d="M236.817 30.0197C236.817 29.005 237.219 28.0319 237.934 27.3144C238.649 26.5969 239.619 26.1938 240.631 26.1938H321.667C322.678 26.1938 323.648 26.5969 324.363 27.3144C325.078 28.0319 325.48 29.005 325.48 30.0197V136.87C325.48 137.885 325.078 138.858 324.363 139.576C323.648 140.293 322.678 140.696 321.667 140.696H240.631C239.619 140.696 238.649 140.293 237.934 139.576C237.219 138.858 236.817 137.885 236.817 136.87V30.0197Z" fill="#E2F1FF"/>
<path d="M236.817 30.0197C236.817 29.005 237.219 28.0319 237.934 27.3144C238.649 26.5969 239.619 26.1938 240.631 26.1938H321.667C322.678 26.1938 323.648 26.5969 324.363 27.3144C325.078 28.0319 325.48 29.005 325.48 30.0197V39.1244H236.817V30.0197Z" fill="#3E5FFF"/>
<path d="M246.57 32.659C246.57 33.4896 246.241 34.2862 245.655 34.8735C245.07 35.4608 244.276 35.7908 243.448 35.7908C242.62 35.7908 241.826 35.4608 241.241 34.8735C240.656 34.2862 240.327 33.4896 240.327 32.659C240.327 31.8284 240.656 31.0318 241.241 30.4445C241.826 29.8571 242.62 29.5272 243.448 29.5272C244.276 29.5272 245.07 29.8571 245.655 30.4445C246.241 31.0318 246.57 31.8284 246.57 32.659ZM254.231 32.659C254.231 33.4896 253.902 34.2862 253.317 34.8735C252.731 35.4608 251.937 35.7908 251.11 35.7908C250.282 35.7908 249.488 35.4608 248.902 34.8735C248.317 34.2862 247.988 33.4896 247.988 32.659C247.988 31.8284 248.317 31.0318 248.902 30.4445C249.488 29.8571 250.282 29.5272 251.11 29.5272C251.937 29.5272 252.731 29.8571 253.317 30.4445C253.902 31.0318 254.231 31.8284 254.231 32.659ZM261.893 32.659C261.893 33.4897 261.564 34.2864 260.978 34.8738C260.393 35.4612 259.599 35.7911 258.771 35.7911C257.943 35.791 257.149 35.4609 256.563 34.8734C255.978 34.2859 255.649 33.4892 255.649 32.6584C255.649 31.8277 255.978 31.031 256.563 30.4436C257.149 29.8562 257.943 29.5263 258.771 29.5264C259.599 29.5264 260.393 29.8565 260.979 30.444C261.564 31.0315 261.893 31.8282 261.893 32.659Z" fill="#F8F8F8"/>
<path d="M241.01 47.0156C241.01 46.0384 241.397 45.1012 242.085 44.4102C242.774 43.7192 243.708 43.3311 244.682 43.3311H317.615C318.589 43.3311 319.523 43.7192 320.212 44.4102C320.9 45.1012 321.287 46.0384 321.287 47.0156V82.5585C321.287 83.5357 320.9 84.473 320.212 85.1641C319.523 85.8551 318.589 86.2434 317.615 86.2436H244.682C243.708 86.2434 242.774 85.8551 242.085 85.1641C241.397 84.473 241.01 83.5357 241.01 82.5585V47.0156ZM241.01 119.258C241.01 118.281 241.397 117.344 242.085 116.653C242.774 115.962 243.708 115.574 244.682 115.574H317.615C318.589 115.574 319.523 115.962 320.212 116.653C320.9 117.344 321.287 118.281 321.287 119.258V132.805C321.287 133.783 320.9 134.72 320.212 135.411C319.523 136.102 318.589 136.49 317.615 136.49H244.682C243.708 136.49 242.774 136.102 242.085 135.411C241.397 134.72 241.01 133.783 241.01 132.805V119.258ZM241.01 94.1345C241.01 93.1573 241.397 92.2202 242.085 91.5292C242.774 90.8382 243.708 90.45 244.682 90.45H317.615C318.589 90.45 319.523 90.8382 320.212 91.5292C320.9 92.2202 321.287 93.1573 321.287 94.1345V107.682C321.287 108.659 320.9 109.597 320.212 110.288C319.523 110.979 318.589 111.367 317.615 111.367H244.682C243.708 111.367 242.774 110.979 242.085 110.288C241.397 109.597 241.01 108.659 241.01 107.682V94.1345Z" fill="white"/>
</svg>
