<svg width="72" height="72" viewBox="0 0 72 72" fill="none" xmlns="http://www.w3.org/2000/svg">
<rect width="72" height="72" rx="16" fill="url(#paint0_linear_16_2413)"/>
<rect x="2.75" y="2.25" width="66.5" height="67.5" rx="15.25" stroke="#FCFCFC" stroke-opacity="0.75" stroke-width="1.5"/>
<circle cx="17.5" cy="17.5" r="17" transform="matrix(-1 0 0 1 42 18.5)" fill="white" fill-opacity="0.2" stroke="white"/>
<circle cx="17.5" cy="17.5" r="17" transform="matrix(-1 0 0 1 53 18.5)" fill="white" fill-opacity="0.2" stroke="white"/>
<circle cx="17.5" cy="17.5" r="17" transform="matrix(-1 0 0 1 64 18.5)" fill="white" fill-opacity="0.2" stroke="white"/>
<mask id="mask0_16_2413" style="mask-type:alpha" maskUnits="userSpaceOnUse" x="3" y="2" width="66" height="68">
<rect x="3" y="2.5" width="66" height="67" rx="14" fill="#D9D9D9"/>
</mask>
<g mask="url(#mask0_16_2413)">
<rect x="10.5" y="1" width="1" height="70" fill="white" fill-opacity="0.12"/>
<rect x="20.5" y="1" width="1" height="70" fill="white" fill-opacity="0.12"/>
<rect x="30.5" y="1" width="1" height="70" fill="white" fill-opacity="0.12"/>
<rect x="40.5" y="1" width="1" height="70" fill="white" fill-opacity="0.12"/>
<rect x="50.5" y="1" width="1" height="70" fill="white" fill-opacity="0.12"/>
<rect x="60.5" y="1" width="1" height="70" fill="white" fill-opacity="0.12"/>
<rect x="1" y="10.5" width="70" height="1" fill="white" fill-opacity="0.12"/>
<rect x="1" y="20.5" width="70" height="1" fill="white" fill-opacity="0.12"/>
<rect x="1" y="30.5" width="70" height="1" fill="white" fill-opacity="0.12"/>
<rect x="1" y="40.5" width="70" height="1" fill="white" fill-opacity="0.12"/>
<rect x="1" y="50.5" width="70" height="1" fill="white" fill-opacity="0.12"/>
<rect x="1" y="60.5" width="70" height="1" fill="white" fill-opacity="0.12"/>
</g>
<defs>
<linearGradient id="paint0_linear_16_2413" x1="36" y1="0" x2="36" y2="72" gradientUnits="userSpaceOnUse">
<stop stop-color="#04B0FC"/>
<stop offset="1" stop-color="#036AF0"/>
</linearGradient>
</defs>
</svg>
