<svg width="309" height="246" viewBox="0 0 309 246" fill="none" xmlns="http://www.w3.org/2000/svg">
<mask id="mask0_1_1658" style="mask-type:luminance" maskUnits="userSpaceOnUse" x="0" y="0" width="309" height="246">
<path d="M291.753 0H17.2465C7.72153 0 0 6.14723 0 13.7302V232.27C0 239.853 7.72153 246 17.2465 246H291.753C301.278 246 309 239.853 309 232.27V13.7302C309 6.14723 301.278 0 291.753 0Z" fill="white"/>
</mask>
<g mask="url(#mask0_1_1658)">
<path d="M173.807 179.946C172.69 180.246 171.737 180.978 171.159 181.98C170.58 182.982 170.423 184.173 170.722 185.291L174.323 198.732C174.512 199.434 174.873 200.077 175.373 200.605C175.874 201.132 176.498 201.526 177.189 201.751C177.88 201.976 178.616 202.025 179.331 201.893C180.046 201.761 180.717 201.453 181.282 200.997L197.011 188.297C198.728 186.914 199.888 184.956 200.277 182.786L201.485 176.108C201.559 175.706 201.529 175.291 201.399 174.903C201.268 174.515 201.042 174.166 200.741 173.889C200.44 173.612 200.073 173.415 199.676 173.318C199.278 173.22 198.862 173.225 198.467 173.332L173.806 179.939L173.807 179.946Z" fill="#FFBD6E"/>
<path d="M231.23 137.639C230.125 134.873 225.701 134.182 223.627 134.182L211.185 142.476L216.024 163.904H229.847L236.067 158.373C234.916 152.614 232.335 140.404 231.23 137.639ZM193.868 166.38H97.7906L95.9596 95.6621L207.346 133.347L193.868 166.38Z" fill="#4680E1"/>
<path d="M62.8204 238.66L47.9223 169.198C43.7665 149.825 46.3547 129.613 55.2578 111.911L69.2188 87.4542L98.7765 96.8234C103.42 98.7556 107.61 101.633 111.08 105.273C114.55 108.913 117.225 113.236 118.933 117.966L159.641 230.583C163.106 240.161 156.009 250.274 145.824 250.274H77.1824C73.8203 250.274 70.5599 249.12 67.9451 247.007C65.3303 244.893 63.519 241.947 62.8132 238.66" fill="#4680E1"/>
<path d="M68.4528 88.2634L80.0841 82.1035L92.6884 85.7799L98.7879 106.562C99.301 108.623 96.9325 110.178 95.2423 108.892L68.4528 88.982V88.2634Z" fill="#F4C9B8"/>
<path d="M136.439 166.38L130.684 150.464C130.282 149.358 131.765 148.569 132.46 149.509L144.99 166.38H136.431H136.439Z" fill="#306DC6"/>
<path d="M212.341 215.456C228.387 212.187 244.448 208.941 260.487 205.637C270.888 203.49 276.15 195.767 274.241 185.363C273.136 179.356 271.891 173.379 270.594 167.413C269.155 160.762 264.099 158.833 257.716 161.552C253.054 163.539 247.896 165.653 243.001 165.551C231.351 165.303 222.918 154.772 223.832 143.067C224.739 131.549 234.481 123.333 246.523 123.93C259.807 124.596 261.496 122.63 258.836 109.62C257.825 104.659 256.937 99.6718 255.708 94.7638C253.525 86.0284 245.626 80.9033 236.75 82.5748C225.924 84.6156 215.147 86.9482 204.344 89.104C198.471 90.2725 196.498 88.2374 197.832 82.5058C199.363 75.9449 200.758 69.4387 197.26 62.9684C191.627 52.5529 178.977 48.8349 168.471 54.6498C158.434 60.2046 155.04 72.6437 160.89 82.7846C162.294 85.2192 163.993 87.4857 165.633 89.7809C168.631 93.9704 167.699 96.5056 162.544 97.6022C154.826 99.2478 147.075 100.735 139.352 102.355C128.13 104.706 122.942 112.342 125.198 123.547C131.104 152.89 137.078 182.212 143.125 211.528C145.368 222.405 153.28 227.463 164.191 225.258C180.243 222.014 196.293 218.717 212.339 215.448L212.341 215.456Z" fill="#C3DCF4"/>
<path d="M149.473 202.454L157.867 225.679L133.857 239.587C118.877 248.266 100.592 243.723 90.9394 230.901H90.9308L90.8374 230.766C90.3675 230.135 89.9207 229.487 89.4979 228.824L54.5349 164.973L72.3046 100.925L118.857 210.619L149.473 202.454Z" fill="#2E53BC"/>
<path d="M52.5012 165.457L72.7644 92.575L109.971 179.423L128.514 223.117L91.51 222.011L52.5012 165.457Z" fill="#4680E1"/>
<path d="M152.53 217.319L202.987 189.953L186.594 206.806L157.56 225.517L152.53 217.319Z" fill="#9BC2DE"/>
<path fill-rule="evenodd" clip-rule="evenodd" d="M68.4686 88.9604L94.3901 87.1495L94.3886 87.1423C111.118 85.9696 123.226 70.6719 120.523 54.1225L120.281 52.6465L122.522 48.8953C122.812 48.4075 122.948 47.843 122.911 47.2765C122.874 46.71 122.666 46.168 122.315 45.722L118.324 40.663L117.881 37.9538C115.345 22.4248 100.697 11.8901 85.1675 14.4267C69.637 16.962 59.1023 31.6115 61.6404 47.1405L68.4686 88.9604Z" fill="#F4C9B8"/>
<path d="M109.659 30.5149C109.438 30.5509 109.212 30.5349 108.999 30.4683C108.785 30.4017 108.59 30.2863 108.429 30.1312C108.293 30.0016 108.185 29.8467 108.11 29.6751C108.034 29.5036 107.993 29.3189 107.99 29.1316C107.986 28.9443 108.019 28.7581 108.087 28.5836C108.155 28.4091 108.257 28.2498 108.387 28.1147C108.482 28.0113 110.803 25.6154 114.751 25.1541C114.938 25.1313 115.127 25.1456 115.308 25.1963C115.49 25.2471 115.659 25.3332 115.807 25.4497C115.955 25.5662 116.078 25.7108 116.169 25.8751C116.261 26.0395 116.319 26.2204 116.341 26.4073C116.363 26.594 116.349 26.7833 116.298 26.9644C116.247 27.1454 116.161 27.3146 116.044 27.4622C115.928 27.6098 115.783 27.7329 115.619 27.8244C115.455 27.916 115.274 27.9741 115.087 27.9955C112.199 28.3318 110.468 30.0794 110.455 30.0967C110.241 30.3164 109.961 30.4602 109.658 30.5063M116.292 42.8375C116.744 45.3167 116.871 47.3676 116.148 47.5013C115.428 47.6349 114.819 45.6703 114.366 43.1925C113.913 40.7148 113.785 38.6639 114.508 38.5302C115.23 38.3951 115.84 40.3598 116.292 42.8375ZM114.616 64.4316C115.145 64.3454 115.602 64.6472 115.718 65.1071C115.774 65.3416 115.736 65.5888 115.61 65.7949C115.485 66.001 115.284 66.1495 115.05 66.208C114.824 66.2612 114.596 66.3068 114.367 66.3445C110.004 67.0574 105.181 64.5566 103.375 60.6589C103.276 60.4376 103.267 60.1859 103.351 59.9582C103.435 59.7305 103.606 59.545 103.825 59.4416C104.047 59.3408 104.299 59.3315 104.527 59.4158C104.755 59.5 104.94 59.671 105.043 59.8914C106.516 63.0821 110.48 65.1229 114.08 64.5336C114.259 64.5049 114.446 64.4761 114.622 64.423L114.616 64.4316Z" fill="black"/>
<path d="M59.8713 50.0365L66.0585 75.4909C69.1485 74.9491 70.3557 74.0192 72.6193 72.0042C74.9243 69.9566 76.6117 67.306 77.4915 64.3511L81.829 49.8611L105.102 18.5587C104.695 16.2578 103.557 14.1551 101.512 12.8243C99.2522 11.3526 96.3591 11.7075 93.7046 12.1775L85.6907 13.5946C85.6045 13.5989 85.5283 13.6147 85.4407 13.6277L85.3257 13.6463C85.1992 13.6708 85.0742 13.6966 84.9376 13.7211C84.5985 13.7929 84.2406 13.8547 83.9 13.928C83.5793 14.0035 83.2597 14.0835 82.9414 14.1681C82.8134 14.2025 82.687 14.2284 82.5591 14.2629C82.1566 14.3721 81.7815 14.4857 81.3949 14.6078C81.3575 14.6107 81.3274 14.6236 81.2871 14.6366C66.4982 19.319 57.1046 34.3364 59.8813 50.0279" fill="#663C2B"/>
<path d="M73.473 48.7186C74.2176 47.215 75.5285 46.0683 77.1178 45.5305C78.7072 44.9926 80.445 45.1075 81.9497 45.8499C83.4531 46.5948 84.5994 47.9058 85.137 49.4951C85.6746 51.0844 85.5594 52.8221 84.8169 54.3266C84.0723 55.8302 82.7614 56.9769 81.1721 57.5147C79.5828 58.0526 77.8449 57.9377 76.3403 57.1953C74.8369 56.4504 73.6905 55.1394 73.153 53.5501C72.6154 51.9608 72.7305 50.2231 73.473 48.7186ZM180.628 183.397C179.594 183.674 178.713 184.351 178.177 185.278C177.642 186.206 177.496 187.308 177.773 188.342L181.106 200.778C181.683 202.934 183.172 204.304 185.322 203.727C185.868 203.584 186.378 203.325 186.816 202.969L202.098 191.124C203.686 189.843 204.758 188.032 205.119 186.024L206.237 179.847C206.304 179.474 206.276 179.09 206.156 178.731C206.035 178.372 205.826 178.049 205.547 177.793C205.268 177.536 204.929 177.355 204.561 177.264C204.193 177.174 203.809 177.179 203.443 177.277L180.627 183.391L180.628 183.397Z" fill="#F4C9B8"/>
<path d="M179.151 184.21L86.0055 210.643C91.6063 231.648 115.626 241.595 134.432 230.698L185.284 203.694L179.151 184.21Z" fill="#4680E1"/>
<path d="M233.294 162.396C227.953 160.042 223.729 156.644 220.704 153.628C217.579 150.51 218.094 145.101 221.664 143.103L231.361 137.686L238.202 157.198C239.413 160.66 236.434 163.793 233.294 162.396Z" fill="#F4C9B8"/>
</g>
</svg>
