<svg width="309" height="328" viewBox="0 0 309 328" fill="none" xmlns="http://www.w3.org/2000/svg">
<mask id="mask0_1_5575" style="mask-type:luminance" maskUnits="userSpaceOnUse" x="0" y="0" width="309" height="328">
<path d="M291.753 0H17.2465C7.72153 0 0 8.19631 0 18.307V309.693C0 319.804 7.72153 328 17.2465 328H291.753C301.278 328 309 319.804 309 309.693V18.307C309 8.19631 301.278 0 291.753 0Z" fill="white"/>
</mask>
<g mask="url(#mask0_1_5575)">
<mask id="mask1_1_5575" style="mask-type:luminance" maskUnits="userSpaceOnUse" x="3" y="-14" width="309" height="353">
<path d="M20.2465 -14H294.753C304.278 -14 312 -5.17897 312 5.70233V319.298C312 330.179 304.278 339 294.753 339H20.2465C10.7215 339 3 330.179 3 319.298V5.70233C3 -5.17897 10.7215 -14 20.2465 -14Z" fill="white"/>
</mask>
<g mask="url(#mask1_1_5575)">
<path d="M117.5 155L129.5 165L145.047 161.827C150.487 160.717 156.07 162.927 159.276 167.46L182.999 201L186.499 232.001L216.499 189.501L164.515 137.516C162.41 135.411 159.203 134.867 156.522 136.162L117.5 155Z" fill="#4680E1"/>
<path d="M249.179 331.661L264.078 262.199C268.233 242.825 265.645 222.613 256.742 204.912L242.781 180.455L213.223 189.824C208.58 191.756 204.39 194.634 200.92 198.274C197.449 201.914 194.775 206.236 193.067 210.967L152.359 323.583C148.894 333.161 155.991 343.275 166.176 343.275H234.817C238.18 343.274 241.44 342.121 244.055 340.007C246.67 337.894 248.481 334.948 249.187 331.661" fill="#4680E1"/>
<path d="M243.547 181.264L231.916 175.104L219.311 178.78L213.212 199.562C212.699 201.623 215.067 203.178 216.758 201.892L243.547 181.982V181.264Z" fill="#F4C9B8"/>
<path d="M152.701 62.8456C145.389 48.1922 138.098 33.5186 130.755 18.881C125.989 9.39008 117.167 6.30674 107.611 10.8431C102.096 13.4651 96.6445 16.2144 91.2179 19.012C85.1654 22.1232 84.611 27.5062 88.8895 32.9676C92.0148 36.9569 95.3919 41.3921 96.5603 46.1469C99.3367 57.4639 91.3461 68.3346 79.8037 70.481C68.4437 72.5861 57.9859 65.3032 55.4466 53.5164C52.6512 40.5127 50.315 39.3904 38.4372 45.3272C33.9065 47.5872 29.3192 49.7358 24.8964 52.1931C17.0237 56.5627 14.1176 65.5189 18.0295 73.66C22.8029 83.5894 27.8451 93.3947 32.7236 103.272C35.3721 108.642 33.9171 111.075 28.0356 111.27C21.3022 111.49 14.6564 111.826 9.31197 116.879C0.709188 125.015 0.391956 138.197 8.72792 146.84C16.6913 155.098 29.5848 155.156 37.8662 146.881C39.8545 144.895 41.6041 142.667 43.3967 140.489C46.6674 136.509 49.3573 136.752 51.7508 141.448C55.3379 148.477 58.7808 155.579 62.3443 162.62C67.5199 172.851 76.2384 175.886 86.4771 170.807C113.292 157.508 140.069 144.148 166.821 130.72C176.747 125.738 179.584 116.786 174.631 106.817C167.343 92.1518 160.004 77.5027 152.693 62.8492L152.701 62.8456Z" fill="#C3DCF4"/>
<path d="M230.257 260.861C233.191 260.451 233.819 256.49 231.156 255.193L224.143 251.778C222.745 251.097 221.178 250.838 219.635 251.034L176.5 256.5L172 269L230.257 260.861Z" fill="#3764B0"/>
<path d="M222 249.5L237.5 197L163.669 218.522L119.661 236.307L146.608 261.691L222 249.5Z" fill="#4680E1"/>
<path fill-rule="evenodd" clip-rule="evenodd" d="M243.531 181.96L217.61 180.149L217.611 180.142C200.882 178.969 188.774 163.672 191.477 147.122L191.718 145.646L189.478 141.895C189.188 141.407 189.052 140.843 189.089 140.276C189.126 139.71 189.334 139.168 189.685 138.722L193.676 133.663L194.119 130.954C196.655 115.425 211.303 104.89 226.832 107.426C242.363 109.962 252.898 124.611 250.359 140.14L243.531 181.96Z" fill="#F4C9B8"/>
<path d="M202.341 123.515C202.562 123.551 202.788 123.535 203.001 123.468C203.215 123.401 203.41 123.286 203.571 123.131C203.706 123.001 203.815 122.846 203.89 122.675C203.966 122.503 204.006 122.319 204.01 122.131C204.014 121.944 203.981 121.758 203.913 121.583C203.845 121.409 203.743 121.25 203.613 121.115C203.518 121.011 201.197 118.615 197.249 118.154C197.062 118.131 196.873 118.145 196.691 118.196C196.51 118.247 196.341 118.333 196.193 118.449C196.045 118.566 195.922 118.711 195.83 118.875C195.739 119.039 195.681 119.22 195.659 119.407C195.637 119.594 195.651 119.783 195.702 119.964C195.753 120.145 195.839 120.314 195.955 120.462C196.072 120.61 196.216 120.733 196.381 120.824C196.545 120.916 196.726 120.974 196.912 120.995C199.801 121.332 201.532 123.079 201.545 123.096C201.759 123.316 202.039 123.46 202.342 123.506M195.708 135.837C195.255 138.316 195.129 140.367 195.852 140.501C196.572 140.635 197.181 138.67 197.634 136.192C198.087 133.715 198.215 131.664 197.492 131.53C196.77 131.395 196.159 133.36 195.708 135.837ZM197.384 157.431C196.855 157.345 196.398 157.647 196.282 158.107C196.225 158.341 196.264 158.589 196.389 158.795C196.514 159.001 196.716 159.149 196.95 159.208C197.176 159.261 197.403 159.307 197.632 159.344C201.996 160.057 206.819 157.556 208.624 153.659C208.724 153.437 208.733 153.186 208.648 152.958C208.564 152.73 208.394 152.545 208.174 152.441C207.953 152.341 207.701 152.331 207.473 152.416C207.245 152.5 207.06 152.671 206.957 152.891C205.484 156.082 201.52 158.123 197.92 157.533C197.74 157.505 197.553 157.476 197.378 157.423L197.384 157.431Z" fill="black"/>
<path d="M252.129 143.036L245.941 168.491C242.851 167.949 241.644 167.019 239.381 165.004C237.076 162.956 235.388 160.306 234.508 157.351L230.171 142.861L206.898 111.558C207.305 109.258 208.443 107.155 210.488 105.824C212.748 104.352 215.641 104.707 218.295 105.177L226.309 106.594C226.395 106.599 226.472 106.614 226.559 106.627L226.674 106.646C226.801 106.671 226.926 106.696 227.062 106.721C227.401 106.793 227.759 106.854 228.1 106.928C228.421 107.003 228.74 107.083 229.059 107.168C229.186 107.202 229.313 107.228 229.441 107.263C229.843 107.372 230.218 107.485 230.605 107.608C230.642 107.61 230.673 107.623 230.713 107.636C245.502 112.319 254.895 127.336 252.119 143.028" fill="#663C2B"/>
<path d="M109.451 171.042C109.927 171.867 110.056 172.847 109.809 173.767C109.563 174.686 108.962 175.471 108.137 175.947L98.2212 181.672C96.5023 182.664 94.7048 182.589 93.7152 180.875C93.4622 180.441 93.3047 179.958 93.2534 179.458L91.0916 162.401C90.8985 160.597 91.3629 158.783 92.3993 157.294L95.5805 152.707C95.7724 152.43 96.0312 152.206 96.3328 152.056C96.6345 151.906 96.9691 151.835 97.3057 151.849C97.6423 151.863 97.9698 151.962 98.2579 152.136C98.5459 152.311 98.7851 152.556 98.9533 152.848L109.456 171.039L109.451 171.042Z" fill="#F4C9B8"/>
<path d="M234.882 138.531C236.472 139.069 237.782 140.215 238.527 141.719C239.27 143.223 239.385 144.961 238.847 146.55C238.309 148.14 237.163 149.451 235.66 150.196C234.155 150.938 232.417 151.053 230.828 150.515C229.239 149.977 227.928 148.83 227.183 147.327C226.441 145.822 226.325 144.085 226.863 142.495C227.401 140.906 228.547 139.595 230.05 138.85C231.555 138.108 233.293 137.993 234.882 138.531Z" fill="#F4C9B8"/>
<path d="M111.366 172.99L158.539 257.545C139.726 268.437 115.707 258.486 110.115 237.483L93.2521 182.431L111.366 172.99Z" fill="#4680E1"/>
<path d="M117.997 154.225C117.172 154.702 116.571 155.486 116.324 156.406C116.078 157.326 116.206 158.306 116.682 159.131L122.407 169.046C123.4 170.765 124.994 171.599 126.708 170.609C127.144 170.36 127.522 170.02 127.816 169.613L138.217 155.922C139.286 154.456 139.791 152.653 139.638 150.845L139.177 145.282C139.149 144.946 139.037 144.623 138.85 144.342C138.664 144.062 138.41 143.833 138.112 143.677C137.813 143.52 137.48 143.442 137.143 143.45C136.806 143.457 136.477 143.549 136.185 143.718L117.994 154.221L117.997 154.225Z" fill="#F4C9B8"/>
</g>
</g>
</svg>
