<svg width="309" height="353" viewBox="0 0 309 353" fill="none" xmlns="http://www.w3.org/2000/svg">
<mask id="mask0_1_1807" style="mask-type:luminance" maskUnits="userSpaceOnUse" x="0" y="0" width="309" height="353">
<path d="M17.2465 0H291.753C301.278 0 309 8.82103 309 19.7023V333.298C309 344.179 301.278 353 291.753 353H17.2465C7.72153 353 0 344.179 0 333.298V19.7023C0 8.82103 7.72153 0 17.2465 0Z" fill="white"/>
</mask>
<g mask="url(#mask0_1_1807)">
<path d="M222.938 108.639C224.138 88.9206 225.371 69.1936 226.529 49.4733C227.275 36.6837 219.918 28.1416 207.199 27.1172C199.856 26.5298 192.503 26.1139 185.146 25.7634C176.947 25.3631 173.121 30.6522 174.297 38.9381C175.155 44.9907 176.008 51.661 174.361 57.3329C170.436 70.8301 155.532 77.3669 142.179 72.6476C129.042 67.9949 122.509 54.0791 126.966 40.2341C131.889 24.9634 130.125 22.3819 114.136 21.4199C108.039 21.0482 101.951 20.526 95.8488 20.4255C84.9889 20.242 76.5511 27.8455 75.7274 38.7098C74.7252 51.9619 74.0787 65.2464 73.2176 78.5076C72.7457 85.7149 69.7583 87.3787 63.4963 84.0352C56.3296 80.2034 49.1843 76.546 40.553 78.6019C26.6586 81.9129 18.3768 95.4921 21.8722 109.549C25.2108 122.979 38.6452 130.816 52.2875 127.167C55.5627 126.291 58.734 125.019 61.9203 123.825C67.7378 121.639 70.4011 123.516 70.0693 129.865C69.5772 139.372 68.8905 148.867 68.3664 158.373C67.6025 172.182 74.8799 180.611 88.6397 181.48C124.674 183.761 160.705 185.954 196.751 188.062C210.125 188.844 218.489 181.204 219.326 167.802C220.558 148.085 221.728 128.355 222.928 108.638L222.938 108.639Z" fill="#C3DCF4"/>
<path d="M200.355 233.466L295.789 289.147L300.243 318.979C302.335 333.017 287.352 343.276 275.069 336.19L230.051 310.34L210 301.5L174.708 277.269L200.355 233.466Z" fill="#4680E1"/>
<path d="M222 352H54.9998L51.6757 335.25C50.9629 331.659 51.1579 327.946 52.2429 324.449L58.7562 303.456L72.862 267.482C76.5741 258.033 82.3784 249.327 91.0849 244.062L125.438 224.625H174.303L179.5 225.907L199.612 233.534C212.099 240.755 223.1 258.438 226.677 268.562L222 352Z" fill="#4680E1"/>
<path d="M114.743 297.398C114.283 294.501 110.367 293.918 109.083 296.555L104.961 305.02C104.644 305.67 104.417 306.36 104.286 307.071L99.4998 333L102.5 352.5L123.5 352.5L114.743 297.398Z" fill="#3764B0"/>
<path d="M174.641 224.76L159.767 239.392C154.339 244.731 145.638 244.754 140.183 239.443L125.101 224.76L133.943 176.368H165.732L174.641 224.76Z" fill="#F4C9B8"/>
<path d="M171.603 207.886C169.983 209.236 168.229 210.384 166.339 211.329C163.099 212.881 159.455 213.758 155.607 213.758C151.288 213.758 147.238 212.611 143.729 210.654C142.581 210.046 143.256 208.291 144.539 208.561C146.294 208.966 148.116 209.169 149.938 209.169C158.172 209.169 165.529 205.119 169.983 198.842L171.603 207.886Z" fill="#DAB09F"/>
<path d="M287.352 183.927C288.567 178.393 284.99 172.926 279.456 171.711L274.596 170.699C273.111 170.361 271.694 171.171 271.087 172.521L258.803 202.352C257.386 205.795 256.643 209.507 256.643 213.286V226.11H281.143V216.053C281.143 213.894 281.345 211.666 281.818 209.574L287.352 183.927Z" fill="#F4C9B8"/>
<path d="M282.425 214.299C283.978 214.299 285.26 215.446 285.462 216.931L298.218 305.008L252.999 322.624V217.876C252.999 215.918 254.618 214.299 256.576 214.299H282.425Z" fill="#4680E1"/>
<path d="M251.919 183.995C251.649 182.577 252.391 181.16 253.808 180.687C255.158 180.215 256.711 180.822 257.318 182.105L263.325 194.051L257.115 208.629L251.919 183.995Z" fill="#F4C9B8"/>
<path d="M133.942 169.889C134.617 166.582 132.525 163.342 129.218 162.6C125.911 161.925 122.671 164.017 121.996 167.324C121.321 170.631 122.873 176.638 126.181 177.313C129.42 178.055 133.267 173.196 133.942 169.889Z" fill="#F4C9B8"/>
<path d="M182.874 180.215C183.549 176.908 181.457 173.668 178.15 172.926C174.842 172.251 171.603 174.343 170.928 177.65C170.253 180.957 171.805 186.964 175.112 187.639C178.352 188.382 182.199 183.522 182.874 180.215Z" fill="#F4C9B8"/>
<path d="M145.483 206.74C131.58 203.837 122.468 190.406 124.831 176.435L126.923 162.195C129.488 146.874 144.336 136.75 159.522 139.922C174.707 143.162 184.224 158.348 180.377 173.466L176.53 187.369C173.088 201.138 159.387 209.709 145.483 206.74Z" fill="#F4C9B8"/>
<path d="M142.379 172.589C141.906 174.748 141.299 176.436 140.489 176.233C139.679 176.031 139.747 174.276 140.219 172.116C140.692 169.956 141.299 168.269 142.109 168.471C142.919 168.674 142.851 170.429 142.379 172.589Z" fill="black"/>
<path d="M161.412 176.57C160.939 178.73 160.332 180.418 159.522 180.215C158.712 180.013 158.779 178.258 159.252 176.098C159.724 173.938 160.332 172.251 161.142 172.453C162.019 172.656 161.884 174.478 161.412 176.57Z" fill="black"/>
<path d="M145.618 164.422C146.023 164.219 146.361 163.814 146.496 163.342C146.631 162.532 146.158 161.722 145.281 161.52C145.146 161.52 141.636 160.777 137.924 162.802C137.182 163.207 136.912 164.084 137.317 164.894C137.722 165.637 138.667 165.907 139.409 165.502C142.176 164.017 144.741 164.557 144.741 164.557C145.011 164.624 145.348 164.557 145.618 164.422Z" fill="black"/>
<path d="M159.657 167.392C159.319 167.054 159.184 166.514 159.319 166.042C159.522 165.232 160.332 164.692 161.142 164.894C161.277 164.962 164.786 165.704 167.418 169.079C167.958 169.754 167.823 170.699 167.148 171.239C166.473 171.779 165.529 171.644 164.989 170.969C163.099 168.539 160.534 167.932 160.467 167.932C160.129 167.864 159.859 167.662 159.657 167.392Z" fill="black"/>
<path d="M147.846 190.204C147.373 189.934 146.833 190.136 146.563 190.541C146.293 190.946 146.428 191.554 146.901 191.824C147.103 191.959 147.306 192.026 147.508 192.161C151.49 194.186 156.89 193.241 159.792 190.069C159.927 189.866 160.062 189.664 160.062 189.394C160.062 189.124 159.927 188.922 159.792 188.719C159.724 188.652 159.657 188.652 159.589 188.584C159.252 188.382 158.779 188.449 158.51 188.787C156.147 191.419 151.693 192.161 148.453 190.474C148.183 190.406 148.048 190.339 147.846 190.204Z" fill="black"/>
<path d="M180.512 173.196L181.794 167.054C184.899 152.273 175.45 137.695 160.669 134.59C145.888 131.486 131.378 140.935 128.273 155.715L126.991 161.857C126.721 163.005 127.463 164.152 128.678 164.422C129.825 164.692 130.973 163.882 131.243 162.735C131.378 161.992 131.58 161.317 131.783 160.575C133.267 153.623 141.974 152.678 149.061 153.218C157.565 153.826 166.609 151.598 167.621 146.739C166.609 151.463 167.351 157.065 170.051 160.17C172.885 163.409 177.677 165.704 176.732 169.956L176.26 172.318C175.99 173.466 176.732 174.613 177.947 174.883C179.162 175.086 180.31 174.343 180.512 173.196Z" fill="#663C2B"/>
</g>
</svg>
