<svg width="309" height="346" viewBox="0 0 309 346" fill="none" xmlns="http://www.w3.org/2000/svg">
<mask id="mask0_1_2871" style="mask-type:luminance" maskUnits="userSpaceOnUse" x="0" y="0" width="309" height="346">
<path d="M291.753 0H17.2465C7.72153 0 0 8.64611 0 19.3116V326.688C0 337.354 7.72153 346 17.2465 346H291.753C301.278 346 309 337.354 309 326.688V19.3116C309 8.64611 301.278 0 291.753 0Z" fill="white"/>
</mask>
<g mask="url(#mask0_1_2871)">
<path d="M139 129.5L120.5 183L98.5002 212.5L56.0002 215.847L136.5 104.5L139 129.5Z" fill="#4680E1"/>
<path d="M62.8204 338.66L61 271C56.8443 251.627 46.3547 229.613 55.2579 211.911L69.2189 187.454L98.7765 196.823C103.42 198.756 107.61 201.633 111.08 205.273C114.551 208.913 117.225 213.236 118.933 217.966L159.641 330.583C163.106 340.161 156.009 350.274 145.824 350.274H77.1825C73.8203 350.274 70.56 349.12 67.9452 347.007C65.3303 344.893 63.519 341.947 62.8133 338.66" fill="#4680E1"/>
<path d="M68.4529 188.263L72.0002 181.5L105 174L101 195L98.5002 205.5C86.7695 203.428 72.7884 199.317 68.4529 188.982V188.263Z" fill="#F4C9B8"/>
<path d="M111 140C119.739 148.824 119.578 156.598 109.5 176L107 198.5L100 197.5L111 140Z" fill="#3764B0"/>
<path d="M212.66 166.544C196.614 169.814 180.563 173.102 164.512 176.354C153.601 178.559 145.689 173.501 143.445 162.625C137.389 133.31 131.425 103.986 125.518 74.643C123.263 63.4385 128.45 55.8026 139.673 53.4513C147.396 51.833 155.147 50.3455 162.865 48.6985C168.02 47.6033 168.952 45.0666 165.954 40.8772C164.314 38.5819 162.615 36.3169 161.211 33.8808C155.367 23.7284 158.763 11.2994 168.792 5.74745C179.298 -0.0674942 191.957 3.6477 197.589 14.0632C201.088 20.5335 199.692 27.0383 198.161 33.6006C196.826 39.3235 198.791 41.3701 204.673 40.1988C215.477 38.043 226.252 35.7018 237.08 33.6696C245.956 31.9981 253.855 37.1232 256.038 45.8585C257.267 50.7666 258.148 55.7638 259.165 60.715C261.817 73.726 260.127 75.6835 246.853 75.0253C234.802 74.4303 225.059 82.6453 224.162 94.1617C223.246 105.856 231.689 116.397 243.33 116.645C248.225 116.747 253.383 114.633 258.046 112.647C264.428 109.926 269.484 111.857 270.923 118.508C272.212 124.477 273.465 130.451 274.571 136.457C276.479 146.861 271.218 154.585 260.817 156.732C244.777 160.036 228.717 163.281 212.67 166.551L212.66 166.544Z" fill="#C3DCF4"/>
<path fill-rule="evenodd" clip-rule="evenodd" d="M80.454 192.099L101.997 177.57L101.992 177.564C115.894 168.184 118.731 148.882 108.115 135.901L107.168 134.743L107.233 130.375C107.241 129.807 107.076 129.25 106.761 128.778C106.445 128.306 105.994 127.941 105.467 127.73L99.4813 125.344L97.7434 123.219C87.782 111.039 69.8291 109.24 57.6489 119.201C45.4667 129.162 43.6681 147.116 53.6307 159.296L80.454 192.099Z" fill="#F4C9B8"/>
<path d="M183.155 138.162C182.617 139.035 182.448 140.085 182.685 141.082C182.922 142.079 183.545 142.942 184.417 143.48L194.907 149.944C196.726 151.065 198.662 151.04 199.779 149.226C200.065 148.767 200.249 148.252 200.32 147.717L203.172 129.433C203.436 127.498 202.992 125.533 201.923 123.899L198.643 118.866C198.445 118.562 198.173 118.313 197.853 118.142C197.533 117.972 197.176 117.885 196.813 117.89C196.451 117.894 196.095 117.991 195.78 118.17C195.465 118.349 195.2 118.604 195.01 118.913L183.15 138.159L183.155 138.162Z" fill="#9BC2DE"/>
<path d="M179.155 133.162C178.617 134.035 178.448 135.085 178.685 136.082C178.922 137.079 179.545 137.942 180.417 138.48L190.907 144.944C192.726 146.065 194.662 146.04 195.779 144.226C196.065 143.767 196.249 143.252 196.32 142.717L199.172 124.433C199.436 122.498 198.992 120.533 197.923 118.899L194.643 113.866C194.445 113.562 194.173 113.313 193.853 113.142C193.533 112.972 193.176 112.885 192.813 112.89C192.451 112.894 192.095 112.991 191.78 113.17C191.465 113.349 191.2 113.604 191.01 113.913L179.15 133.159L179.155 133.162Z" fill="#F4C9B8"/>
<path d="M86.9028 120.888C86.7296 121.03 86.5258 121.129 86.3075 121.178C86.0893 121.227 85.8626 121.225 85.6455 121.171C85.4635 121.127 85.2921 121.047 85.141 120.936C84.99 120.825 84.8623 120.685 84.7653 120.525C84.6683 120.365 84.6039 120.187 84.5757 120.002C84.5476 119.816 84.5562 119.627 84.6012 119.446C84.6316 119.309 85.4438 116.073 88.6322 113.7C88.7825 113.586 88.9538 113.504 89.1361 113.457C89.3184 113.411 89.5081 113.401 89.6943 113.428C89.8806 113.455 90.0596 113.518 90.2211 113.615C90.3826 113.711 90.5234 113.839 90.6354 113.99C90.7484 114.141 90.8304 114.312 90.877 114.494C90.9235 114.676 90.9335 114.866 90.9064 115.052C90.8793 115.238 90.8157 115.417 90.7192 115.578C90.6227 115.74 90.4952 115.88 90.3441 115.992C88.0105 117.728 87.3858 120.107 87.3832 120.128C87.3075 120.425 87.1369 120.69 86.8972 120.881M98.8082 128.244C100.44 130.164 101.575 131.877 101.016 132.354C100.459 132.83 98.9488 131.433 97.3178 129.514C95.6869 127.594 94.5507 125.882 95.1099 125.405C95.6672 124.927 97.1785 126.323 98.8082 128.244ZM108.154 147.782C108.569 147.443 109.116 147.476 109.446 147.816C109.612 147.991 109.702 148.225 109.697 148.466C109.692 148.707 109.591 148.936 109.418 149.104C109.249 149.263 109.075 149.416 108.895 149.563C105.473 152.362 100.045 152.608 96.5331 150.135C96.3362 149.994 96.2028 149.78 96.1619 149.541C96.1209 149.301 96.1755 149.056 96.3141 148.856C96.4552 148.658 96.6689 148.524 96.9085 148.483C97.1481 148.442 97.3942 148.498 97.5932 148.637C100.464 150.664 104.917 150.449 107.741 148.139C107.882 148.024 108.029 147.906 108.155 147.772L108.154 147.782Z" fill="black"/>
<path d="M53.5461 162.688L71.6316 181.639C74.0367 179.625 74.6173 178.216 75.5701 175.339C76.5425 172.413 76.6786 169.274 75.963 166.275L72.4744 151.558L76.9779 112.813C75.4752 111.023 73.4381 109.772 71.0015 109.642C68.3091 109.497 65.9811 111.251 63.9172 112.985L57.6855 118.219C57.613 118.266 57.5549 118.318 57.4855 118.373L57.3952 118.446C57.2979 118.531 57.2026 118.616 57.0965 118.705C56.8387 118.937 56.5597 119.169 56.3014 119.403C56.0614 119.629 55.8246 119.858 55.5912 120.09C55.4977 120.184 55.4011 120.27 55.3075 120.364C55.0136 120.659 54.7456 120.945 54.4718 121.244C54.4409 121.266 54.4212 121.292 54.3928 121.323C43.9265 132.773 43.3001 150.475 53.5505 162.676" fill="#663C2B"/>
<path d="M64.6671 154.746C64.5601 153.072 65.122 151.423 66.2295 150.163C67.337 148.902 68.8994 148.133 70.5737 148.023C72.2481 147.917 73.8964 148.479 75.1566 149.586C76.4168 150.694 77.186 152.256 77.2952 153.931C77.4022 155.605 76.8402 157.254 75.7327 158.514C74.6253 159.775 73.0628 160.544 71.3885 160.653C69.7141 160.76 68.0659 160.198 66.8057 159.09C65.5454 157.983 64.7763 156.42 64.6671 154.746Z" fill="#F4C9B8"/>
<path d="M203 153L186 172L168.5 176L157 171.5L184 142L203 153Z" fill="#9BC2DE"/>
<path d="M196.5 147L145.5 213L107.95 252.693L60.0002 224.942C113.514 189.362 150.452 159.836 178 135L196.5 147Z" fill="#4680E1"/>
</g>
</svg>
