<svg width="296" height="191" viewBox="0 0 296 191" fill="none" xmlns="http://www.w3.org/2000/svg">
<path d="M296 161.275H0V34.7174C0 28.7337 4.84862 23.8851 10.8323 23.8851H285.164C291.147 23.8851 295.996 28.7337 295.996 34.7174L296 161.275Z" fill="#F7F7F7"/>
<path d="M285.168 190.383H10.8323C4.84862 190.383 0 185.534 0 179.551V161.275H296V179.547C296 185.534 291.147 190.383 285.168 190.383Z" fill="#3E5FFF"/>
<path d="M218.583 23.8605H77.4175L0 161.275H296L218.583 23.8605Z" fill="white"/>
<mask id="mask0_1_1847" style="mask-type:luminance" maskUnits="userSpaceOnUse" x="0" y="0" width="296" height="162">
<path d="M296 161.275H0V10.8323C0 4.84862 4.84862 0 10.8323 0H285.164C291.147 0 295.996 4.84862 295.996 10.8323L296 161.275Z" fill="white"/>
</mask>
<g mask="url(#mask0_1_1847)">
<path d="M178.334 10.6976H121.985C119.909 10.6976 118.226 12.3806 118.226 14.4567V137.651C118.226 139.727 119.909 141.41 121.985 141.41H178.334C180.41 141.41 182.093 139.727 182.093 137.651V14.4567C182.093 12.3806 180.41 10.6976 178.334 10.6976Z" fill="#F8F8F8"/>
<path d="M175.251 49.562L160.354 32.7111C159.584 31.8401 158.256 31.7584 157.388 32.5262L128.977 57.6431C128.654 57.9286 128.457 58.3309 128.431 58.7612L128.003 65.7307C127.977 66.1611 128.122 66.5841 128.408 66.9069L140.352 80.4173C141.118 81.2846 142.448 81.3665 143.315 80.5998L175.07 52.5273C175.938 51.7593 176.019 50.4306 175.252 49.5633L175.251 49.562Z" fill="white"/>
<path d="M157.553 32.7135L157.388 32.5262L157.553 32.7135C158.318 32.0373 159.488 32.1089 160.167 32.8767L175.063 49.7269L175.064 49.7276L175.064 49.7283L175.065 49.7289C175.74 50.4928 175.669 51.6636 174.904 52.34C174.904 52.34 174.904 52.34 174.904 52.34L143.15 80.4124L143.315 80.5998L143.15 80.4125C142.386 81.0877 141.214 81.0156 140.539 80.2518L128.595 66.7413L128.595 66.7413C128.353 66.4682 128.23 66.1102 128.253 65.7461L128.68 58.7766C128.68 58.7766 128.68 58.7765 128.68 58.7765C128.703 58.4124 128.869 58.072 129.142 57.8304L128.977 57.6435L129.142 57.8304L157.553 32.7135Z" stroke="black" stroke-opacity="0.3" stroke-width="0.5"/>
<path d="M142.871 55.1986C141.561 53.733 141.649 51.5261 143.062 50.2708L155.613 39.1236C157.019 37.8645 159.223 38.043 160.529 39.5156L169.142 49.213C170.446 50.6819 170.362 52.8915 168.952 54.1444L156.405 65.2907C154.994 66.5448 152.793 66.3689 151.488 64.9012L142.869 55.1974L142.871 55.1986Z" fill="#FFBD6E"/>
<path d="M160.342 39.6816L168.955 49.3789L168.956 49.379C170.174 50.7522 170.086 52.8028 168.786 53.9576L156.239 65.1038L156.239 65.1039C154.938 66.2599 152.894 66.1069 151.675 64.7351L143.057 55.0321L143.057 55.032C141.834 53.6631 141.925 51.6153 143.228 50.4577L155.779 39.3106L155.779 39.3099C157.075 38.1501 159.12 38.3045 160.342 39.6815L160.342 39.6816Z" stroke="black" stroke-opacity="0.3" stroke-width="0.5"/>
<path d="M158.362 50.1119L160.064 52.0344L162.227 52.1628L167.551 47.4269L167.721 47.6137L162.318 52.4175L162.264 52.413L160.112 52.2876L157.936 54.2158L159.429 55.8966L166.493 56.3301L166.23 56.563L159.469 56.153L158.946 58.4523L158.702 58.3967L159.237 56.0528L157.584 54.1953L159.857 52.1765L156.185 48.0409L151.526 52.1848L151.475 52.1828L151.45 52.1825L155.168 56.3687L155.022 58.8496L155.018 58.9043L150.066 63.3006L149.903 63.1117L154.771 58.7841L154.913 56.4577L153.277 54.6156L147.17 60.0398L147.004 59.8521L153.11 54.4337L151.121 52.1944L151.129 52.1878L149.246 52.2102L144.198 56.6959L144.029 56.5057L149.151 51.96L149.196 51.9603L151.427 51.9356L153.703 49.9145L152.22 48.2427L145.781 47.8537L146.047 47.6232L152.161 47.9877L152.275 46.0089L152.527 46.0243L152.412 48.0734L153.891 49.7461L156.025 47.8499L156.067 47.8918L156.069 47.8587L156.203 45.589L156.204 45.5378L161.611 40.7356L161.781 40.9248L156.452 45.6555L156.323 47.823L158.18 49.9087L164.653 44.159L164.834 44.3633L158.362 50.1119Z" fill="#E59A48"/>
<path d="M158.498 60.4241L157.899 63.9702L158.198 63.7014L158.745 60.4667L158.498 60.4241Z" fill="#E59A48"/>
<path d="M152.977 43.9284L153.004 41.4365L152.751 41.6593L152.723 43.9283L152.977 43.9284Z" fill="#E59A48"/>
<path d="M181.319 46.4957C182.19 45.7159 182.7 45.2643 182.7 45.2643C185.735 42.5286 190.303 42.4702 193.429 45.0824C196.583 47.7271 197.275 52.3245 195.05 55.7848C195.05 55.7848 185.342 70.9026 181.644 76.6144" fill="#FFBC6E"/>
<path d="M159.921 140.156C159.98 151.157 162.264 165.694 162.264 165.694L109.723 165.944L109.541 128.31C109.541 128.31 113.57 128.278 119.34 128.252L117.235 133.811L121.443 139.854L159.918 140.156H159.921Z" fill="#FFBC6E"/>
<path d="M116.842 84.6396C108.095 90.202 100.671 94.8903 100.671 94.8903C100.941 96.2712 101.243 97.6553 101.513 99.0394C102.176 102.256 102.835 105.473 103.495 108.689C104.245 112.328 104.999 115.996 105.75 119.629C106.292 122.335 106.861 125.038 107.403 127.716C108.547 133.245 112.183 138.236 116.601 141.664C120.66 144.819 125.65 146.713 130.79 146.982C131.3 147.015 131.784 147.015 132.294 147.015L133.289 153.477C140.804 153.445 154.537 148.097 165.542 140.942L129.292 142.086L121.475 139.86L117.268 133.817L116.848 84.6396H116.842Z" fill="#FFBC6E"/>
<path d="M179.429 95.7026C181.443 95.6701 183.457 96.3037 185.108 97.717L187.782 99.9719C191.421 103.006 191.869 108.419 188.835 112.023C188.835 112.023 185.378 116.172 182.041 120.109" fill="#FFBC6E"/>
<path d="M181.261 72.7351C184.689 71.3543 188.714 71.8644 191.752 74.3889C196.109 78.057 196.684 84.5487 193.016 88.9056L182.496 101.44C182.226 101.772 181.895 102.071 181.566 102.344" fill="#FFBC6E"/>
<path d="M115.971 93.3275L111.764 98.6786C111.494 99.01 111.553 99.4909 111.884 99.7606C112.124 99.9718 112.485 100.001 112.755 99.8191L118.106 96.7844L115.971 93.3275Z" fill="#E49948"/>
<path d="M110.743 77.3973C110.233 79.7724 109.931 82.2059 109.84 84.6395L110.743 77.3973Z" fill="#F7F7F7"/>
<path d="M158.147 16.9455C158.911 16.9455 159.528 16.3282 159.528 15.5646C159.528 14.8011 158.911 14.1838 158.147 14.1838C157.384 14.1838 156.766 14.8011 156.766 15.5646C156.766 16.3282 157.384 16.9455 158.147 16.9455Z" fill="#3D3D3D"/>
<path d="M143.627 14.8759L153.277 14.8174C153.667 14.8174 153.969 15.1195 153.969 15.5094C153.969 15.8993 153.667 16.2015 153.277 16.2015L143.627 16.26C143.234 16.26 142.935 15.9578 142.935 15.5679C142.935 15.178 143.237 14.8759 143.627 14.8759Z" fill="#3D3D3D"/>
<path d="M109.749 132.823L109.33 133.005C109.33 133.005 109.542 133.307 109.542 133.846L109.873 133.697" fill="#FFBC6E"/>
<path d="M184.565 18.6318C184.533 12.1694 179.272 6.96766 172.81 7.00015L126.878 7.21134C120.416 7.24383 115.214 12.504 115.246 18.9664L115.789 131.959C115.822 138.421 121.082 143.623 127.544 143.59L173.476 143.379C179.938 143.347 185.14 138.086 185.108 131.624L184.565 18.6318ZM172.54 139.438L128.473 139.649C123.665 139.682 119.756 135.802 119.727 130.994L119.184 19.8664C119.152 15.0578 123.031 11.1524 127.84 11.1199L171.907 10.938C176.715 10.9055 180.624 14.7849 180.653 19.5935L181.196 130.721C181.196 135.5 177.316 139.409 172.54 139.435V139.438Z" fill="#3D3D3D"/>
<path d="M107.767 105.352C98.4198 98.318 97.3379 84.7012 105.454 76.2862L114.863 66.5163C115.974 65.3726 117.748 65.2232 119.012 66.1849C124.753 70.4509 126.105 78.5085 122.047 84.4315L107.771 105.352H107.767Z" fill="#FFBC6E"/>
<path d="M192.801 88.7885C196.32 84.6103 195.778 78.3591 191.57 74.8404L190.969 74.3303C186.791 70.8115 180.539 71.3541 177.021 75.5616C176.871 75.7436 176.719 75.9223 176.602 76.1042C172.514 81.7251 177.053 89.6008 183.967 89.2402L192.805 88.7885H192.801Z" fill="#FFBC6E"/>
<path d="M189.374 111.304C192.892 107.126 192.35 100.875 188.142 97.3562L187.541 96.8461C183.363 93.3274 177.112 93.87 173.593 98.0775C173.444 98.2595 173.291 98.4382 173.174 98.6201C169.087 104.241 173.626 112.117 180.54 111.756L189.377 111.304H189.374Z" fill="#FFBC6E"/>
<path d="M161.12 143.646C161.12 143.646 159.889 144.338 159.947 145.93L159.135 145.238C159.135 145.238 159.707 143.944 159.677 143.944C159.645 143.944 161.123 143.642 161.123 143.642H161.12V143.646Z" fill="#FFBC6E"/>
</g>
</svg>
