<svg width="40" height="41" viewBox="0 0 40 41" fill="none" xmlns="http://www.w3.org/2000/svg">
<g clip-path="url(#clip0_1_1886)">
<rect y="0.883026" width="40" height="40" rx="7" fill="#00091F" fill-opacity="0.1"/>
<path d="M14.5278 1.88768L7.07084 5.83087C6.0223 6.38538 5.62184 7.68482 6.17624 8.73356L15.877 27.0783C16.4315 28.1269 17.7309 28.5273 18.7797 27.9729L26.2363 24.0298C27.285 23.4754 27.6856 22.1758 27.1311 21.1272L17.4305 2.78228C16.8759 1.73374 15.5763 1.33318 14.5278 1.88768Z" fill="#3D3D3D"/>
<path d="M26.4099 21.3132L16.8704 3.27277L16.8701 3.27237C16.458 2.49311 15.4923 2.19548 14.713 2.60752L7.56048 6.39033C6.78121 6.80237 6.48349 7.76832 6.89552 8.54759L16.4352 26.5878C16.8472 27.3671 17.813 27.6647 18.5922 27.2527L25.745 23.4703C26.5243 23.0582 26.8219 22.0925 26.4099 21.3132Z" fill="#72D5FF"/>
<path d="M6.89472 8.65232C6.4297 7.77384 6.7649 6.68475 7.64338 6.21973L14.8014 2.43088C15.6799 1.96586 16.769 2.30105 17.234 3.17953L17.7604 4.17374L7.42088 9.64643L6.89472 8.65232Z" fill="#3D3D3D"/>
<path d="M10.5313 6.06618C10.4065 6.13232 10.2517 6.08474 10.1855 5.9599C10.1194 5.83507 10.167 5.68025 10.2918 5.61411C10.4166 5.54797 10.5714 5.59555 10.6376 5.72039C10.7037 5.84522 10.6561 6.00004 10.5313 6.06618Z" fill="#F8F8F8"/>
<path d="M11.1378 5.2982L12.7024 4.46921C12.7648 4.43614 12.8422 4.45993 12.8753 4.52235L12.8753 4.52235C12.9084 4.58477 12.8846 4.66217 12.8222 4.69524L11.2575 5.52424C11.1951 5.55731 11.1177 5.53351 11.0846 5.4711C11.0515 5.40868 11.0753 5.33127 11.1378 5.2982Z" fill="#F8F8F8"/>
<path d="M32.3294 9.38183L24.2683 6.89724C23.1348 6.5479 21.9328 7.18358 21.5833 8.31718L15.471 28.1483C15.1217 29.2818 15.7573 30.4839 16.8909 30.8334L24.9518 33.3179C26.0854 33.6674 27.2876 33.0317 27.6369 31.8981L33.7494 12.0669C34.0987 10.9334 33.463 9.73116 32.3294 9.38183Z" fill="#3D3D3D"/>
<path d="M26.9956 31.5202L33.0067 12.0181L33.0068 12.0177C33.2664 11.1753 32.794 10.2819 31.9516 10.0223L24.2192 7.63952C23.3768 7.37985 22.4832 7.85236 22.2236 8.69474L16.2127 28.1967C15.9531 29.039 16.4255 29.9324 17.2679 30.1921L25.0003 32.5753C25.8426 32.835 26.736 32.3625 26.9956 31.5202Z" fill="#72D5FF"/>
<path d="M22.1475 8.76909C22.4398 7.81909 23.4469 7.28601 24.3969 7.57837L32.1376 9.96075C33.0876 10.2531 33.6207 11.2602 33.3283 12.2102L32.9975 13.2854L21.8166 9.84407L22.1475 8.76909Z" fill="#3D3D3D"/>
<path d="M26.5478 9.51083C26.4128 9.46932 26.337 9.32621 26.3785 9.19117C26.42 9.05613 26.5631 8.9803 26.6981 9.02181C26.8332 9.06331 26.909 9.20643 26.8675 9.34146C26.826 9.4765 26.6829 9.55233 26.5478 9.51083Z" fill="#F8F8F8"/>
<path d="M27.5199 9.39652L29.2125 9.91671C29.28 9.93746 29.3179 10.009 29.2971 10.0765L29.2971 10.0765C29.2764 10.1441 29.2048 10.182 29.1373 10.1612L27.4447 9.64103C27.3772 9.62028 27.3393 9.54872 27.3601 9.4812C27.3808 9.41368 27.4524 9.37577 27.5199 9.39652Z" fill="#F8F8F8"/>
<path d="M19.843 43.0563L34.7766 41.5178V14.8489H19.843V43.0563Z" fill="#E49948"/>
<path d="M19.843 43.0563L5.09399 41.5178V14.8489H19.843V43.0563Z" fill="#FFBD6E"/>
<path d="M32.0248 30.2022L24.5252 30.7419C24.1722 30.7673 23.8987 31.0611 23.8987 31.415V35.4973C23.8987 35.8935 24.2382 36.2044 24.6328 36.1698L32.1324 35.5101C32.4809 35.4795 32.7481 35.1878 32.7481 34.8379V30.8755C32.7481 30.4836 32.4156 30.1743 32.0248 30.2022Z" fill="#FFBD6E"/>
<path d="M29.0272 31.5557L24.8647 31.8956C24.7031 31.9088 24.5827 32.0505 24.5959 32.2122C24.6091 32.3738 24.7509 32.4941 24.9125 32.4809L29.075 32.141C29.2367 32.1278 29.357 31.9861 29.3438 31.8244C29.3306 31.6628 29.1889 31.5425 29.0272 31.5557Z" fill="#E49948"/>
<path d="M30.2932 32.5788L24.8788 33.0209C24.7172 33.0341 24.5969 33.1759 24.6101 33.3375C24.6233 33.4991 24.765 33.6195 24.9266 33.6063L30.341 33.1641C30.5026 33.1509 30.6229 33.0092 30.6097 32.8476C30.5965 32.6859 30.4548 32.5656 30.2932 32.5788Z" fill="#E49948"/>
<path d="M29.4264 34.2612C29.4201 34.0252 29.597 33.8245 29.8318 33.8011L31.5565 33.6299C31.8165 33.604 32.0437 33.8043 32.0507 34.0655L32.0629 34.5176C32.0694 34.7541 31.8914 34.9552 31.6561 34.9777L29.931 35.1428C29.6717 35.1676 29.4456 34.9676 29.4384 34.7071L29.4264 34.2612Z" fill="#E49948"/>
<path d="M16.5403 22.1521L20.6858 16.2689C21.0403 15.7654 20.5908 15.0887 19.9893 15.2208L5.62425 18.3751C5.31469 18.4432 5.09399 18.7175 5.09399 19.0345V24.2506H12.4944C14.1041 24.2506 15.6132 23.4679 16.5403 22.1521Z" fill="#E59A48"/>
<path d="M15.4937 21.4936L20.2118 14.6637H5.19928L0.199763 21.7246C-0.222281 22.3206 0.204041 23.1444 0.934295 23.1444H12.347C13.6033 23.1444 14.7796 22.5273 15.4937 21.4936Z" fill="#FFBD6E"/>
<path d="M24.7452 21.4936L20.0271 14.6637H35.0396L40.0391 21.7246C40.4612 22.3206 40.0348 23.1444 39.3046 23.1444H27.8918C26.6356 23.1444 25.4592 22.5273 24.7452 21.4936Z" fill="#FFBD6E"/>
</g>
<defs>
<clipPath id="clip0_1_1886">
<rect y="0.883026" width="40" height="40" rx="7" fill="white"/>
</clipPath>
</defs>
</svg>
