<svg width="282" height="245" viewBox="0 0 282 245" fill="none" xmlns="http://www.w3.org/2000/svg">
<rect width="180" height="180" rx="4" transform="matrix(-1 0 0 1 180.5 64.999)" fill="#8295A4"/>
<rect width="144" height="144" rx="7" transform="matrix(-1 0 0 1 162.5 82.999)" fill="#697986"/>
<path d="M178.073 70.2573C178.519 69.2781 180.01 69.5562 180.013 70.6324L180.489 240.989C180.495 243.202 178.702 245 176.489 245H5.86567C4.7785 245 4.50273 243.487 5.49901 243.052C95.8239 203.599 134.895 164.941 178.073 70.2573Z" fill="black" fill-opacity="0.2"/>
<path fill-rule="evenodd" clip-rule="evenodd" d="M81.0206 31L80.8612 130.18H168.341L168.5 31H81.0206Z" fill="#FFBD6E"/>
<path d="M84.5803 35.2573H164.781V125.923H84.5803V35.2573Z" fill="#E59A48"/>
<path d="M88.9937 40.1149H160.367V121.064H88.9937V40.1149Z" fill="url(#paint0_linear_1_3957)"/>
<path d="M160.404 40.1203L164.769 35.2493H84.5876L88.9963 40.1203H160.404Z" fill="#FFBD6E"/>
<path d="M164.807 35.2466L168.483 31.0012H81.0139L84.5877 35.2466H164.807Z" fill="#E59A48"/>
<path d="M137.5 72H109.5L111.486 121H135.514L137.5 72Z" fill="#82D9FD"/>
<path d="M107.17 74.0013H135.209L138.907 80.9072C139.713 81.3682 140.594 81.5903 141.465 81.5903C143.129 81.5903 144.755 80.7841 145.745 79.3117L149.182 74.2137C151.833 70.2768 152.383 65.2898 150.655 60.8653L144.454 45.014C143.288 42.0305 141.168 39.5129 138.429 37.8546L132.554 34.2941C131.861 33.8741 131.064 33.6521 130.253 33.6521H118.578C117.767 33.6521 116.97 33.8741 116.277 34.2941L110.402 37.8546C107.662 39.5129 105.543 42.0305 104.377 45.014L98.1762 60.8653C98.1594 60.9089 98.1424 60.9522 98.1256 60.9958C95.7382 67.2813 100.45 74.0013 107.172 74.0013H107.17Z" fill="#2A2D3E"/>
<path opacity="0.5" d="M139.006 20.4429L127.748 33.9373C127.589 34.1239 127.271 34.0572 127.398 33.8434L137.102 18.7049C137.165 18.5985 137.296 18.5728 137.38 18.6507L138.997 20.1463C139.076 20.2198 139.08 20.355 139.005 20.4426L139.006 20.4429Z" fill="white"/>
<path d="M127.554 33.8854L138.822 19.4349L138.058 18.73L127.554 33.8854Z" fill="white"/>
<path d="M136.741 19.3248C136.926 18.6352 137.635 18.2261 138.324 18.4108C139.014 18.5956 139.423 19.3043 139.238 19.9938C139.054 20.6833 138.345 21.0925 137.655 20.9078C136.966 20.723 136.557 20.0143 136.741 19.3248Z" fill="white"/>
<path d="M148.936 11.0059C147.182 13.7105 144.739 15.7829 142.303 17.9224C141.706 18.4476 141.107 18.9731 140.509 19.4983C140.366 19.6238 140.155 19.632 140.003 19.5176L138.893 18.6822C138.681 18.5226 138.469 18.3631 138.257 18.2035C138.017 18.0231 137.675 17.8608 137.583 17.5504C137.511 17.3089 137.723 16.9987 137.824 16.778C138.088 16.1974 138.376 15.6273 138.666 15.0588C138.853 14.6924 139.048 14.3299 139.23 13.9611C140.46 11.4662 141.813 9.09306 143.469 6.89173C144.025 6.28272 144.687 5.78722 145.481 5.43182C146.519 4.96751 147.781 4.74294 149.325 4.81821C149.664 5.80874 149.834 6.71315 149.86 7.5433C149.901 8.87732 149.549 10.0067 148.936 11.0056M144.055 7.33244L144.047 7.32629C144.05 7.32842 144.053 7.33035 144.055 7.33244Z" fill="white"/>
<path d="M138.831 18.5959L140.024 19.494L139.522 19.6233L138.458 19.1107L137.616 18.2736L137.637 17.6977L138.831 18.5959Z" fill="black"/>
<path d="M138.005 19.7455L137.148 19.139C136.97 19.0128 136.967 18.749 137.144 18.6199L137.616 18.2735L138.569 18.9484L139.522 19.6232L139.352 20.1836C139.289 20.3926 139.039 20.4781 138.861 20.3519L138.004 19.7454L138.005 19.7455Z" fill="#3D3D3D"/>
<path d="M142.253 14.2493L144.531 15.9633L143.98 16.4498L141.82 14.8242L139.659 13.1989L139.974 12.535L142.253 14.2493Z" fill="#E2F1FF"/>
<path d="M141.475 15.2503L143.56 16.8188L140.482 19.5225C140.355 19.6342 140.167 19.6423 140.031 19.5416L137.638 17.7739C137.498 17.67 137.452 17.4797 137.53 17.3232L139.018 14.3518L139.391 13.6818L141.475 15.2502L141.475 15.2503Z" fill="#E2F1FF"/>
<path d="M149.424 10.0429L144.306 6.12955C145.737 5.04079 147.544 4.56872 149.325 4.8182C150.07 6.3446 150.153 8.11128 149.553 9.70052L149.424 10.0426L149.424 10.0429Z" fill="#E2F1FF"/>
<path d="M144.238 16.2222L145.489 16.8055C146.118 17.0982 146.209 17.9538 145.658 18.373L139.446 23.2576C139.118 23.5151 138.696 23.0863 138.959 22.7629L142.148 18.8339L141.632 18.5142L144.238 16.222L144.238 16.2222Z" fill="#FF7059"/>
<path d="M139.843 12.7729L138.966 11.7063C138.526 11.1709 137.674 11.2953 137.406 11.9341L134.223 19.1673C134.055 19.5487 134.576 19.8506 134.823 19.5157L137.834 15.448L138.272 15.8684L139.843 12.7729Z" fill="#FF7059"/>
<path d="M137.706 20.5436L142.071 15.1898C142.287 14.9251 142.421 14.6034 142.456 14.2638C142.485 13.9792 142.193 13.7718 141.934 13.8936L141.874 13.9216C141.589 14.0557 141.346 14.2641 141.17 14.5248L137.303 20.2435C137.123 20.5092 137.504 20.7921 137.706 20.5434L137.706 20.5436Z" fill="#FF7059"/>
<path d="M137.704 17.4115C137.732 17.3072 137.84 17.2453 137.944 17.2733C138.048 17.3012 138.11 17.4084 138.082 17.5127C138.054 17.6169 137.947 17.6788 137.843 17.6508C137.738 17.6229 137.676 17.5157 137.704 17.4115Z" fill="#B1CFE5"/>
<path d="M140.048 19.0891C140.076 18.9848 140.183 18.923 140.288 18.9509C140.392 18.9788 140.454 19.086 140.426 19.1902C140.398 19.2945 140.291 19.3564 140.186 19.3285C140.082 19.3005 140.02 19.1933 140.048 19.0891Z" fill="#B1CFE5"/>
<path d="M142.675 16.8427C142.703 16.7385 142.81 16.6766 142.914 16.7046C143.019 16.7325 143.081 16.8397 143.053 16.9439C143.025 17.0482 142.918 17.11 142.813 17.0821C142.709 17.0542 142.647 16.947 142.675 16.8427Z" fill="#B1CFE5"/>
<path d="M139.352 14.2225C139.38 14.1183 139.487 14.0564 139.592 14.0844C139.696 14.1123 139.758 14.2194 139.73 14.3237C139.702 14.4279 139.595 14.4898 139.491 14.4619C139.386 14.4339 139.324 14.3268 139.352 14.2225Z" fill="#B1CFE5"/>
<path d="M149.061 9.26257C149.089 9.15829 149.197 9.09642 149.301 9.12436C149.405 9.15229 149.467 9.25945 149.439 9.36373C149.411 9.46797 149.304 9.52984 149.2 9.50191C149.095 9.47397 149.034 9.36681 149.061 9.26257Z" fill="#B1CFE5"/>
<path d="M147.011 7.67586C147.039 7.57162 147.146 7.50975 147.251 7.53769C147.355 7.56562 147.417 7.67278 147.389 7.77703C147.361 7.8813 147.254 7.94317 147.149 7.91524C147.045 7.8873 146.983 7.78014 147.011 7.67586Z" fill="#B1CFE5"/>
<path d="M144.792 6.09347C144.82 5.98923 144.927 5.92736 145.031 5.95529C145.135 5.98322 145.197 6.09039 145.169 6.19463C145.141 6.29891 145.034 6.36078 144.93 6.33284C144.826 6.30491 144.764 6.19775 144.792 6.09347Z" fill="#B1CFE5"/>
<path d="M136.469 81.1647C134.494 79.9466 133.375 79.3948 132.71 77.0708C132.516 76.3907 132.105 75.7825 131.492 75.4289C131.311 75.3243 131.092 75.4832 131.136 75.6877C131.869 79.0956 132.823 80.9456 135.018 82.9713C135.369 83.2953 135.911 82.987 135.834 82.5157L136.285 81.9903L136.469 81.1647Z" fill="#559CBA"/>
<path d="M122.677 62.446C120.77 62.446 119.224 61.4715 119.224 60.2694C119.224 59.0673 120.77 58.0928 122.677 58.0928C124.583 58.0928 126.129 59.0673 126.129 60.2694C126.129 61.4715 124.583 62.446 122.677 62.446Z" fill="#BCBCBC"/>
<path d="M124.178 62.5961H121.176V81.8102H124.178V62.5961Z" fill="#824F36"/>
<path d="M124.178 75.6556H121.176V76.8565H124.178V75.6556Z" fill="#663C2B"/>
<path d="M127.48 80.4591H118.023L119.5 121H127.48V80.4591Z" fill="#E3E3E3"/>
<path d="M122.827 84.6621L123.5 114" stroke="#BCBCBC" stroke-width="5.56846" stroke-linecap="round"/>
<path d="M127.18 80.4591L122.827 84.6622" stroke="#BCBCBC" stroke-width="5.56846" stroke-linecap="round"/>
<path d="M118.323 80.4591L122.677 84.6622" stroke="#BCBCBC" stroke-width="5.56846" stroke-linecap="round"/>
<path d="M138.738 76.8566H106.765V80.7594H138.738V76.8566Z" fill="#824F36"/>
<path d="M121.122 61.5453H124.381C124.932 61.5453 125.379 62.0157 125.379 62.5961V62.5961C125.379 63.1764 124.932 63.6468 124.381 63.6468H121.122C120.571 63.6468 120.125 63.1764 120.125 62.5961V62.5961C120.125 62.0157 120.571 61.5453 121.122 61.5453Z" fill="#663C2B"/>
<path d="M138.738 84.0619C136.749 84.0619 135.136 82.4489 135.136 80.4592C135.136 78.4695 136.749 76.8566 138.738 76.8566C140.728 76.8566 142.341 78.4695 142.341 80.4592C142.341 82.4489 140.728 84.0619 138.738 84.0619Z" fill="#824F36"/>
<path d="M106.765 84.0619C104.775 84.0619 103.162 82.4489 103.162 80.4592C103.162 78.4695 104.775 76.8566 106.765 76.8566C108.754 76.8566 110.367 78.4695 110.367 80.4592C110.367 82.4489 108.754 84.0619 106.765 84.0619Z" fill="#824F36"/>
<path d="M106.69 82.1103C105.819 82.1103 105.114 81.4047 105.114 80.5342C105.114 79.6637 105.819 78.958 106.69 78.958C107.56 78.958 108.266 79.6637 108.266 80.5342C108.266 81.4047 107.56 82.1103 106.69 82.1103Z" fill="#663C2B"/>
<path d="M138.813 82.1103C137.943 82.1103 137.237 81.4047 137.237 80.5342C137.237 79.6637 137.943 78.958 138.813 78.958C139.684 78.958 140.39 79.6637 140.39 80.5342C140.39 81.4047 139.684 82.1103 138.813 82.1103Z" fill="#663C2B"/>
<path d="M118.44 20.7524V34.2577C118.44 34.6392 118.686 34.9771 119.048 35.0929L119.664 35.2908C122.855 36.3168 126.285 36.3168 129.474 35.2908L130.084 35.0953C130.446 34.9795 130.693 34.6416 130.693 34.2601V20.7548H118.44V20.7524Z" fill="#F4C9B8"/>
<path d="M129.711 20.7983C129.711 19.8786 130.456 19.1327 131.376 19.1327C132.296 19.1327 133.042 19.8786 133.042 20.7983C133.042 21.718 132.296 23.2218 131.376 23.2218C130.456 23.2218 129.711 21.718 129.711 20.7983Z" fill="#F4C9B8"/>
<path d="M116.101 20.7983C116.101 19.8786 116.847 19.1327 117.767 19.1327C118.687 19.1327 119.432 19.8786 119.432 20.7983C119.432 21.718 118.687 23.2218 117.767 23.2218C116.847 23.2218 116.101 21.718 116.101 20.7983Z" fill="#F4C9B8"/>
<path d="M118.328 27.9229V31.2251C119.537 32.1446 121.048 32.6901 122.682 32.6901C123.92 32.6901 125.088 32.3764 126.107 31.8237C126.44 31.6427 126.249 31.1309 125.88 31.2057C125.419 31.2974 124.944 31.3458 124.458 31.3458C121.873 31.3458 119.597 29.9794 118.33 27.9205L118.328 27.9229Z" fill="#CEA193"/>
<path d="M120.922 30.6866C123.241 31.5625 125.837 31.4843 128.184 30.6888C131.609 29.5282 131.732 28.2586 131.732 24.2946L131.977 20.126C132.146 15.6149 128.774 11.8586 124.553 11.8586C120.334 11.8586 116.96 15.6149 117.129 20.126L117.374 24.2946C117.496 27.5609 117.361 29.3413 120.922 30.6866Z" fill="#F4C9B8"/>
<path d="M122.288 48.2258H127.118C128.108 48.2258 128.909 49.0277 128.909 50.0169V60.9586C128.909 61.9477 128.108 62.7498 127.118 62.7498H122.288C121.299 62.7498 120.497 61.9477 120.497 60.9586V50.0169C120.497 49.0277 121.299 48.2258 122.288 48.2258Z" fill="black"/>
<path d="M126.476 53.7638C126.718 53.4334 126.482 52.9687 126.072 52.9687L125.653 52.9687C125.493 52.9687 125.344 53.0446 125.249 53.1731L124.697 53.9262C124.507 54.185 124.126 54.2005 123.916 53.958L123.145 53.0687C123.09 53.0052 123.011 52.9687 122.927 52.9687C122.676 52.9687 122.544 53.265 122.711 53.4516L123.666 54.5189C123.823 54.6953 123.836 54.9582 123.696 55.1488L122.521 56.7449C122.28 57.0718 122.509 57.5341 122.915 57.5412L123.303 57.548C123.457 57.5507 123.603 57.4826 123.7 57.3634L124.444 56.448C124.638 56.2089 125 56.2006 125.205 56.4307L126.091 57.4255C126.147 57.4883 126.227 57.5243 126.312 57.5243C126.565 57.5243 126.701 57.2265 126.535 57.0354L125.466 55.8053C125.313 55.6292 125.302 55.3707 125.439 55.1823L126.476 53.7638Z" fill="white"/>
<path d="M125.937 53.7011C126.033 53.5716 125.917 53.3919 125.759 53.4277C125.719 53.4367 125.684 53.4592 125.659 53.4915L122.967 57.0049C122.852 57.1551 122.988 57.3669 123.173 57.325C123.219 57.3143 123.261 57.2873 123.29 57.2487L125.937 53.7011Z" fill="black"/>
<path d="M119.667 54.941H126.626C127.111 54.941 127.432 55.4456 127.225 55.8848L126.435 57.5576C126.179 58.1007 125.735 58.5353 125.185 58.7791L120.147 61.0118C119.995 61.0794 119.831 61.1131 119.665 61.1131C119.008 61.1131 118.474 60.5796 118.474 59.9231V56.131C118.474 55.4745 119.008 54.941 119.665 54.941" fill="#F4C9B8"/>
<path d="M126.806 23.0061C126.806 23.6109 126.883 24.1007 127.115 24.1007C127.347 24.1007 127.424 23.6109 127.424 23.0061C127.424 22.4013 127.347 21.9115 127.115 21.9115C126.883 21.9115 126.806 22.4013 126.806 23.0061Z" fill="black"/>
<path d="M121.425 23.0061C121.425 23.6109 121.502 24.1007 121.734 24.1007C121.966 24.1007 122.043 23.6109 122.043 23.0061C122.043 22.4013 121.966 21.9115 121.734 21.9115C121.502 21.9115 121.425 22.4013 121.425 23.0061Z" fill="black"/>
<path d="M126.395 21.0099C126.292 20.93 126.227 20.8066 126.228 20.6685C126.231 20.4392 126.418 20.2503 126.651 20.2518C126.696 20.2521 127.676 20.2649 128.576 21.0186C128.756 21.1683 128.78 21.4311 128.63 21.6141C128.48 21.7927 128.215 21.8158 128.035 21.6663C127.377 21.113 126.654 21.1015 126.645 21.1013C126.552 21.1 126.466 21.0608 126.395 21.0099Z" fill="#886A5A"/>
<path d="M122.438 19.1714C122.541 19.0915 122.606 18.9681 122.605 18.8302C122.602 18.6007 122.415 18.412 122.182 18.4133C122.137 18.4136 121.157 18.4264 120.257 19.1801C120.076 19.3298 120.053 19.5926 120.203 19.7756C120.352 19.9542 120.618 19.9775 120.798 19.8278C121.456 19.2745 122.179 19.2631 122.188 19.263C122.281 19.2615 122.367 19.2223 122.438 19.1714Z" fill="#886A5A"/>
<path fill-rule="evenodd" clip-rule="evenodd" d="M124.171 27.8378C124.243 27.9564 124.398 27.995 124.517 27.9239C124.638 27.8523 124.678 27.6963 124.606 27.5758C124.606 27.5758 124.606 27.5758 124.606 27.5755C124.583 27.5376 124.556 27.5023 124.528 27.4686C124.48 27.4112 124.409 27.3359 124.311 27.2542C124.112 27.0901 123.805 26.9033 123.354 26.7824C122.903 26.6616 122.543 26.6697 122.289 26.7126C122.163 26.7339 122.064 26.7638 121.994 26.7896C121.959 26.8025 121.931 26.8145 121.911 26.824C121.898 26.83 121.885 26.8365 121.873 26.8434C121.75 26.912 121.707 27.0667 121.775 27.1891C121.843 27.3107 121.996 27.3545 122.118 27.288C122.125 27.2847 122.212 27.2409 122.374 27.2135C122.558 27.1823 122.844 27.172 123.222 27.2731C123.6 27.3745 123.842 27.5265 123.987 27.6457C124.113 27.7502 124.167 27.832 124.171 27.8378Z" fill="black"/>
<path d="M131.158 12.7593C131.074 12.2384 130.768 11.4807 130.332 11.1831C129.878 10.8725 129.907 11.2492 129.357 11.2582C128.633 11.2701 128.497 10.3884 127.78 10.2825C127.493 10.24 127.14 10.3071 126.834 10.3958C126.363 10.5322 125.864 10.5916 125.379 10.6578C125.2 10.6821 124.435 10.8134 124.256 10.8372C124.14 10.8526 124.013 10.9103 123.878 11.033C123.678 11.2133 123.27 11.197 123.007 11.1429C122.454 11.0291 121.557 10.8913 120.95 11.033C119.905 11.2771 120.574 11.9492 119.674 12.5341C118.773 13.12 117.321 12.0427 116.972 13.0595C116.072 15.6865 117.273 22.2913 117.273 22.2913L118.023 19.6644L118.248 17.0375C119.155 15.9403 120.49 15.2872 121.913 15.2454L123.619 15.1952C124.39 15.1725 125.162 15.2197 125.924 15.3362L128.415 15.7167C129.509 15.8838 130.431 16.6205 130.836 17.6504C130.949 17.9397 131.008 18.2478 131.008 18.5586V20.7152L131.833 22.2913L131.983 19.3642L132.119 17.8518C132.274 16.1141 131.435 14.4818 131.158 12.7593Z" fill="#30241D"/>
<path d="M129.506 12.9094L129.056 12.2339C129.056 12.2339 128.499 12.8686 128.08 12.7593C127.739 12.6702 127.798 12.2374 127.48 12.0838C127.189 11.9429 126.654 12.0087 126.654 12.0087C126.654 12.0087 126.576 11.387 126.279 11.3332C125.904 11.2653 126.262 12.1043 125.904 12.2339C125.738 12.2937 125.454 12.2339 125.454 12.2339C125.454 12.2339 125.442 12.6365 125.303 12.8344C124.972 13.3069 125.206 11.1992 124.703 11.4834C124.356 11.6796 124.403 12.4591 124.403 12.4591C124.403 12.4591 124.265 12.4723 124.178 12.4591C123.735 12.3919 123.577 11.4834 123.577 11.4834L123.427 12.6092L123.052 12.0087C123.052 12.0087 122.789 12.6583 122.526 12.5341C122.372 12.461 122.301 12.1589 122.301 12.1589C122.301 12.1589 122.008 12.5041 121.776 12.4591C121.551 12.4154 121.401 12.0087 121.401 12.0087C121.401 12.0087 121.337 12.2104 121.25 12.309C121.103 12.4768 120.725 12.5341 120.725 12.5341C120.725 12.5341 119.965 13.8633 120.5 13.8851C120.817 13.8981 120.882 13.5546 121.175 13.4348C121.479 13.311 121.7 13.1557 122.001 13.2847C122.339 13.4293 122.088 14.0541 122.451 14.1103C122.82 14.1673 123.127 13.4348 123.127 13.4348C123.127 13.4348 123.164 13.8392 123.352 13.9602C123.683 14.1739 123.634 13.1851 124.027 13.2096C124.224 13.2219 124.478 13.4348 124.478 13.4348C124.478 13.4348 124.749 14.4465 125.228 14.4105C125.644 14.3794 125.595 13.865 125.904 13.5849C126.169 13.3443 126.297 13.0568 126.654 13.0595C127.271 13.0642 126.141 14.8194 126.729 14.6357C127.167 14.4989 126.812 13.7046 127.255 13.5849C127.687 13.4681 127.792 14.2733 128.231 14.1853C128.639 14.1034 128.489 13.3562 128.906 13.3597C129.3 13.3631 129.582 14.1103 129.582 14.1103L129.506 12.9094Z" fill="#513D30"/>
<path d="M141.648 63.3113C142.06 62.9313 142.173 62.3267 141.927 61.8239L141.695 61.3501C141.062 60.0574 139.105 60.7401 139.414 62.1457C138.606 63.3272 140.17 64.6777 141.221 63.7062L141.648 63.3113Z" fill="#262837"/>
<path d="M109.516 54.8831C108.835 56.0188 109.907 57.3985 111.176 57.0183L113.261 56.3935C114.495 56.0238 114.428 54.2548 113.171 53.9784C113.294 52.4949 111.329 51.8621 110.563 53.1386L109.516 54.8831Z" fill="#262837"/>
<path d="M112.426 70.2925C111.28 71.7762 112.338 73.9294 114.213 73.9294L116.924 73.9294C118.328 73.9295 119.067 72.2641 118.124 71.2234C118.453 68.4692 114.944 67.0333 113.248 69.2285L112.426 70.2925Z" fill="#262837"/>
<path fill-rule="evenodd" clip-rule="evenodd" d="M94.0461 145L93.8612 222.18H195.315L195.5 145H94.0461Z" fill="#FFBD6E"/>
<path d="M98.1744 148.313H191.187V218.867H98.1744V148.313Z" fill="#E59A48"/>
<path d="M103.293 152.093H186.068V215.086H103.293V152.093Z" fill="url(#paint1_linear_1_3957)"/>
<path d="M155.9 195.451L149.5 193.5L143.1 195.451L141.5 201.695L143.1 207.939L149.5 209.5L155.9 207.939L157.5 201.695L155.9 195.451Z" fill="black"/>
<path d="M153.238 200.577C152.904 199.272 151.914 198.236 150.625 197.843C149.892 197.619 149.108 197.619 148.375 197.843C147.086 198.236 146.096 199.272 145.762 200.577L145.739 200.663C145.582 201.276 145.582 201.919 145.739 202.532C146.084 203.878 147.143 204.925 148.494 205.255L148.575 205.274C149.183 205.423 149.817 205.423 150.425 205.274L150.506 205.255C151.857 204.925 152.916 203.878 153.261 202.532C153.418 201.919 153.418 201.276 153.261 200.663L153.238 200.577Z" fill="#1F1F1F"/>
<path d="M164.5 187.5H133.5L129.5 201H160.5L164.5 187.5Z" fill="#4B4B4B"/>
<g filter="url(#filter0_d_1_3957)">
<path d="M163.5 188.5H134.5L133.5 190.5H162.5L163.5 188.5Z" fill="#FFFEE7"/>
</g>
<path d="M125 170L103 170.5L133.5 187.5H164.5L125 170Z" fill="#1F1B1B"/>
<path d="M133.5 187.5L103 170.5V183V201H129.5L133.5 187.5Z" fill="#3F3B3B"/>
<path d="M103 177V186.5H121L103 177Z" fill="#1F1B1B"/>
<path d="M125.9 196.451L119.5 194.5L113.1 196.451L111.5 202.695L113.1 208.939L119.5 210.5L125.9 208.939L127.5 202.695L125.9 196.451Z" fill="black"/>
<path d="M123.238 201.577C122.904 200.272 121.914 199.236 120.625 198.843C119.892 198.619 119.108 198.619 118.375 198.843C117.086 199.236 116.096 200.272 115.762 201.577L115.739 201.663C115.582 202.276 115.582 202.919 115.739 203.532C116.084 204.878 117.143 205.925 118.494 206.255L118.575 206.274C119.183 206.423 119.817 206.423 120.425 206.274L120.506 206.255C121.857 205.925 122.916 204.878 123.261 203.532C123.418 202.919 123.418 202.276 123.261 201.663L123.238 201.577Z" fill="#1F1F1F"/>
<path d="M176 182.656L170.158 182.768L169.373 194.265L171.212 209.099H174.067L174.503 194.265L176 182.656Z" fill="#3B5C6A"/>
<path d="M168.174 211.875H174.422C174.422 211.875 174.422 208.824 174.422 208.341H170.852C170.852 208.824 168.174 210.108 168.174 211.875Z" fill="black"/>
<path d="M175.45 182.607L180.67 182.025L179.84 193.948L179.731 209.477H176.414L175.179 193.948L175.45 182.607Z" fill="#3B5C6A"/>
<path d="M177.736 171.67H172.207V178.679H177.736V171.67Z" fill="#F8F8F8"/>
<path d="M160.084 167.323L159.8 168.8L157.983 168.644C157.558 168.608 157.197 168.322 157.063 167.919C157.001 167.736 156.895 167.576 156.755 167.453C156.615 167.33 156.443 167.243 156.253 167.207L154.93 166.953C154.828 166.933 154.773 166.821 154.819 166.728C154.844 166.679 154.892 166.646 154.946 166.641L157.496 166.425C157.942 166.387 158.392 166.474 158.794 166.674L160.085 167.323L160.084 167.323Z" fill="#814F36"/>
<path d="M163.646 166.888C165.051 166.888 166.452 167.023 167.831 167.29L172.967 168.288L170.58 171.02L167.284 169.953C166.271 169.625 165.219 169.434 164.156 169.384L160.792 169.226C160.012 169.19 159.398 168.546 159.398 167.765C159.398 167.281 159.791 166.888 160.276 166.888H163.646Z" fill="#AFC7BE"/>
<path d="M180.979 182.099V181.198V177.61C181.869 176.714 182.213 175.992 182.496 174.235C182.55 172.576 182.089 171.999 181.277 170.962L178.216 168.635L175.861 168.352L173.079 168.148C172.802 168.127 172.533 168.248 172.363 168.468L171.728 168.013L167.595 167.187L166.745 169.804L170.335 171.103L169.614 176.964V183.121L180.02 183.064C180.55 183.061 180.979 182.63 180.979 182.099Z" fill="#F20936"/>
<path d="M180.98 177.702L177.399 176.154L169.615 175.419V183.524L180.039 183.465C180.521 183.415 180.732 183.265 180.98 182.73V177.702Z" fill="black"/>
<path d="M178.937 174.051L173.909 174.441L170.074 173.454L169.799 175.406L173.725 176.232L178.868 176.163L178.937 174.051Z" fill="#A7BDB5"/>
<path d="M177.605 169.953L174.9 169.557C174.297 169.469 173.788 170.004 173.906 170.602C173.957 170.857 174.032 171.106 174.131 171.347L174.553 172.375C174.686 172.699 175.101 172.792 175.36 172.557L176.069 171.913L178.009 170.069L177.812 170.003C177.745 169.98 177.675 169.964 177.605 169.953Z" fill="black" fill-opacity="0.25"/>
<path d="M171.755 167.972L171.347 169.218C171.111 169.941 172.177 170.617 173.73 170.727L176.356 170.913C177.908 171.023 179.36 170.527 179.598 169.805L180.017 168.525C180.319 167.608 179.601 166.682 178.111 166.065L177.74 165.912C177.203 165.69 176.441 165.632 175.781 165.763L175.256 165.868C173.385 166.241 172.063 167.036 171.756 167.972H171.755Z" fill="black"/>
<path d="M178.266 164.881L178.34 169.968C178.34 170.103 178.179 169.927 178.05 169.968L177.832 170.038C176.701 170.402 175.578 171.022 174.447 170.658L174.136 170.49C174.007 170.449 173.92 170.329 173.92 170.194V164.882H178.267L178.266 164.881Z" fill="#814F36"/>
<path d="M171.223 169.678C171.223 169.626 171.23 169.574 171.248 169.522L171.75 167.984C172.057 167.043 173.381 166.244 175.252 165.869H175.253L175.779 165.764C176.437 165.632 177.201 165.69 177.739 165.913L178.11 166.067C178.18 166.097 178.249 166.126 178.316 166.157C178.383 166.188 178.448 166.219 178.512 166.251C178.575 166.283 178.637 166.316 178.697 166.348C178.757 166.381 178.815 166.415 178.871 166.449C178.927 166.484 178.981 166.518 179.034 166.554C179.14 166.624 179.236 166.697 179.326 166.772C179.372 166.809 179.415 166.847 179.455 166.885C179.497 166.923 179.536 166.962 179.573 167.001C179.909 167.352 180.086 167.735 180.085 168.125C180.085 168.174 180.082 168.223 180.076 168.272C180.076 168.28 180.074 168.288 180.073 168.297C180.066 168.349 180.055 168.402 180.042 168.454C180.035 168.482 180.027 168.51 180.017 168.538L179.725 169.422L179.568 169.896L179.498 170.11C179.375 170.486 178.801 170.795 178.021 170.903L178.006 170.905L176.004 171.184L175.998 171.185L175.828 171.209C175.226 171.293 174.575 171.247 174.054 171.083L173.729 170.98L173.6 170.94L172.956 170.738L172.151 170.484C171.991 170.434 171.85 170.375 171.728 170.308C171.407 170.133 171.227 169.91 171.223 169.676L171.223 169.678ZM179.469 168.433C179.506 168.32 179.444 168.204 179.3 168.111L179.272 168.093L178.807 167.798L178.608 167.671L178.425 167.555C178.039 167.31 177.381 167.192 176.744 167.256L175.233 167.407L174.525 167.478L173.898 167.54C173.884 167.542 173.87 167.543 173.856 167.545C173.582 167.576 173.337 167.64 173.142 167.727C173.013 167.784 172.905 167.85 172.824 167.925C172.746 167.995 172.693 168.071 172.666 168.151L172.374 169.044C172.332 169.172 172.415 169.302 172.598 169.398L172.713 169.458L173.342 169.788L173.766 170.011L174.133 170.203L174.259 170.27C174.297 170.289 174.337 170.308 174.377 170.326C174.682 170.457 175.072 170.527 175.469 170.53C175.592 170.53 175.717 170.525 175.839 170.513C175.85 170.512 175.86 170.511 175.87 170.51C176.031 170.492 176.189 170.463 176.337 170.423L177.984 169.969L178.688 169.775C178.927 169.709 179.09 169.596 179.132 169.468L179.163 169.374L179.47 168.433L179.469 168.433Z" fill="#F20936"/>
<path d="M178.221 164.867L178.294 167.644C178.294 167.718 178.135 167.622 178.008 167.644L177.793 167.683C176.676 167.881 175.568 168.22 174.451 168.021L174.144 167.929C174.017 167.907 173.932 167.841 173.932 167.768V164.868H178.222L178.221 164.867Z" fill="#814F36"/>
<path d="M178.27 166.751L178.27 167.921C177.854 168.265 177.376 168.481 176.797 168.505C176.357 168.523 175.939 168.43 175.57 168.248C175.45 168.189 175.509 168.005 175.642 168.025C175.806 168.051 175.976 168.061 176.148 168.054C177.064 168.016 177.851 167.499 178.27 166.75" fill="#663C2B"/>
<path d="M174.694 164.703C174.763 164.387 174.564 164.076 174.249 164.006C173.934 163.937 173.622 164.136 173.552 164.452C173.483 164.769 173.625 165.339 173.941 165.409C174.257 165.478 174.625 165.018 174.694 164.703L174.694 164.703Z" fill="#814F36"/>
<path d="M179.362 165.729C179.431 165.412 179.232 165.101 178.916 165.032C178.6 164.963 178.288 165.161 178.219 165.478C178.15 165.794 178.292 166.365 178.608 166.434C178.923 166.503 179.293 166.044 179.362 165.729L179.362 165.729Z" fill="#814F36"/>
<path d="M175.767 168.232C175.372 168.102 174.984 167.935 174.66 167.674C173.925 167.082 173.623 166.426 173.819 165.32L174.03 163.961C174.29 162.498 175.715 161.546 177.166 161.864C178.616 162.183 179.51 163.645 179.134 165.082L178.756 166.404C178.412 167.716 177.031 167.829 175.767 168.232L175.767 168.232Z" fill="#814F36"/>
<path d="M178.79 164.742L178.741 164.965C178.717 165.076 178.787 165.186 178.898 165.21C179.009 165.234 179.12 165.165 179.144 165.053L179.272 164.468L179.271 164.467C179.58 163.058 178.688 161.663 177.277 161.353C175.867 161.044 174.471 161.937 174.162 163.346L174.033 163.93C174.009 164.04 174.079 164.152 174.19 164.176C174.302 164.201 174.412 164.129 174.437 164.018C174.452 163.95 174.47 163.881 174.493 163.813C174.818 162.509 175.442 162.081 177.145 162.431C178.915 162.795 178.841 163.595 178.789 164.743L178.79 164.742Z" fill="black"/>
<path d="M177.05 161.736C176.615 161.548 176.416 161.043 176.604 160.609C176.792 160.174 177.297 159.974 177.731 160.162C178.166 160.35 178.366 160.855 178.177 161.29C177.989 161.724 177.485 161.924 177.05 161.736Z" fill="black"/>
<path d="M178.152 162.241C177.718 162.053 177.518 161.548 177.706 161.114C177.894 160.679 178.399 160.479 178.833 160.668C179.268 160.856 179.468 161.36 179.279 161.795C179.091 162.23 178.587 162.429 178.152 162.241Z" fill="black"/>
<path d="M178.564 162.955C178.129 162.767 177.929 162.262 178.118 161.827C178.306 161.393 178.81 161.193 179.245 161.381C179.679 161.569 179.879 162.074 179.691 162.508C179.503 162.943 178.998 163.143 178.564 162.955Z" fill="black"/>
<path d="M175.813 162.082C175.262 161.844 175.009 161.205 175.248 160.655C175.486 160.104 176.125 159.851 176.675 160.089C177.225 160.328 177.478 160.967 177.24 161.517C177.002 162.067 176.363 162.32 175.813 162.082Z" fill="black"/>
<path d="M174.999 162.247C174.564 162.059 174.364 161.554 174.552 161.119C174.74 160.685 175.245 160.485 175.68 160.673C176.114 160.861 176.314 161.366 176.126 161.801C175.938 162.235 175.433 162.435 174.999 162.247Z" fill="black"/>
<path d="M174.486 161.366L174.162 163.346L175.316 162.129L174.486 161.366Z" fill="black"/>
<path d="M179.744 162.344L179.301 164.311L178.699 162.642L179.744 162.344Z" fill="black"/>
<path d="M177.336 164.874C177.292 165.075 177.283 165.242 177.36 165.259C177.437 165.276 177.498 165.119 177.542 164.919C177.585 164.719 177.595 164.551 177.518 164.534C177.44 164.518 177.379 164.674 177.336 164.874Z" fill="black"/>
<path d="M175.542 164.484C175.498 164.684 175.488 164.852 175.566 164.869C175.643 164.886 175.704 164.729 175.748 164.529C175.791 164.329 175.801 164.161 175.723 164.144C175.646 164.127 175.585 164.284 175.542 164.484Z" fill="black"/>
<path d="M177.434 164.003C177.405 163.97 177.392 163.924 177.403 163.878C177.42 163.803 177.496 163.754 177.573 163.771C177.588 163.774 177.914 163.85 178.16 164.164C178.209 164.227 178.198 164.316 178.135 164.365C178.072 164.413 177.982 164.402 177.933 164.339C177.753 164.109 177.513 164.052 177.51 164.052C177.48 164.045 177.454 164.025 177.434 164.003Z" fill="black"/>
<path d="M176.114 163.717C176.154 163.698 176.185 163.662 176.195 163.616C176.21 163.54 176.161 163.464 176.084 163.447C176.069 163.444 175.741 163.377 175.387 163.561C175.316 163.598 175.289 163.683 175.326 163.755C175.363 163.825 175.45 163.851 175.521 163.815C175.78 163.68 176.021 163.728 176.024 163.729C176.056 163.735 176.087 163.728 176.114 163.717Z" fill="black"/>
<path d="M176.149 166.556C176.2 166.553 176.24 166.586 176.246 166.631C176.252 166.677 176.218 166.721 176.171 166.726C176.149 166.729 176.127 166.731 176.105 166.732C175.687 166.751 175.259 166.465 175.13 166.08C175.123 166.058 175.125 166.035 175.136 166.015C175.146 165.994 175.164 165.979 175.186 165.971C175.193 165.969 175.201 165.968 175.209 165.967C175.248 165.966 175.284 165.99 175.296 166.027C175.401 166.342 175.752 166.576 176.098 166.56C176.115 166.559 176.133 166.558 176.15 166.555L176.15 166.556L176.149 166.556Z" fill="black"/>
<path d="M168.411 175.602L169.153 177.522L167.934 177.028L166.153 176.632C165.737 176.54 165.417 176.208 165.338 175.791C165.301 175.601 165.217 175.428 165.094 175.288C164.972 175.148 164.813 175.039 164.63 174.978L163.353 174.55C163.254 174.517 163.214 174.398 163.272 174.312C163.303 174.267 163.355 174.241 163.41 174.243L165.965 174.368C166.413 174.39 166.847 174.535 167.219 174.788L168.412 175.602L168.411 175.602Z" fill="#814F36"/>
<path d="M167.96 176.94C167.81 177.592 168.15 178.258 168.766 178.518L173.816 180.65C175.848 181.508 178.202 180.95 179.633 179.271L181.097 177.551L178.868 174.074C177.077 175.769 174.601 176.537 172.165 176.154L168.281 175.544L167.96 176.94Z" fill="#AFC7BE"/>
<path d="M175.539 166.846L175.153 166.521L175.138 166.538C175.048 166.645 175.062 166.804 175.168 166.894C175.275 166.984 175.434 166.97 175.524 166.864L175.539 166.846Z" fill="black"/>
<path d="M176.687 167.99C176.748 167.868 176.653 167.726 176.517 167.734L175.768 167.783L174.898 167.57C174.807 167.548 174.715 167.602 174.689 167.691L174.899 167.846C175.049 167.957 175.215 168.045 175.39 168.107C175.636 168.195 175.904 168.205 176.156 168.136L176.687 167.99Z" fill="black"/>
<path d="M176.763 166.327C176.793 166.275 176.781 166.21 176.735 166.171L176.279 165.792C176.174 165.705 176.049 165.645 175.915 165.618L175.343 165.501C175.293 165.49 175.243 165.516 175.221 165.562C175.19 165.626 175.227 165.703 175.297 165.719L175.865 165.847C175.955 165.867 176.038 165.908 176.108 165.967L176.577 166.36C176.636 166.41 176.725 166.394 176.763 166.327Z" fill="black"/>
<path d="M179.045 174.18C178.985 174.085 178.857 174.06 178.766 174.126C178.682 174.187 178.661 174.304 178.718 174.391L180.817 177.579C180.869 177.657 180.976 177.674 181.049 177.615C181.111 177.565 181.126 177.476 181.083 177.408L179.045 174.18Z" fill="black"/>
<path d="M167.538 167.445C167.571 167.34 167.51 167.228 167.403 167.199C167.301 167.172 167.196 167.231 167.167 167.332L166.516 169.587C166.491 169.675 166.544 169.766 166.633 169.786C166.714 169.805 166.795 169.758 166.82 169.68L167.538 167.445Z" fill="black"/>
<path d="M175.432 211.876H180.354C180.354 211.876 179.874 208.988 179.874 208.531H176.146C176.146 208.988 175.432 211.876 175.432 211.876Z" fill="black"/>
<path d="M179.155 210.613C179.155 210.021 178.675 209.541 178.082 209.541H177.893C177.301 209.541 176.82 210.021 176.82 210.613H179.155Z" fill="#181818"/>
<path d="M186.111 152.098L191.173 148.307H98.1829L103.296 152.098H186.111Z" fill="#FFBD6E"/>
<path d="M191.217 148.305L195.48 145.001H94.0383L98.183 148.305H191.217Z" fill="#E59A48"/>
<path fill-rule="evenodd" clip-rule="evenodd" d="M180.046 60.0001L179.861 137.18H281.315L281.5 60.0001H180.046Z" fill="#FFBD6E"/>
<path d="M184.174 63.3131H277.187V133.868H184.174V63.3131Z" fill="#E59A48"/>
<path d="M189.293 67.0929H272.068V130.086H189.293V67.0929Z" fill="url(#paint2_linear_1_3957)"/>
<path d="M272.111 67.0978L277.173 63.3073H184.183L189.296 67.0978H272.111Z" fill="#FFBD6E"/>
<path d="M277.217 63.3048L281.48 60.0011H180.038L184.183 63.3048H277.217Z" fill="#E59A48"/>
<path d="M241.337 55.2754C240.674 50.5428 236.309 47 231.139 47C225.97 47 221.605 50.5428 220.942 55.2754L218.752 70.9165H243.527L241.337 55.2754Z" fill="#E0BA71"/>
<path d="M241.319 54.9107C233.394 53.2872 228.936 53.2666 220.96 54.8493L220.714 56.689L241.565 56.9344L241.319 54.9107Z" fill="#B90A31"/>
<path d="M217.41 57.6305C210.574 60.715 210.968 71.0888 217.726 74.3401C221.291 76.0548 225.939 76.7426 231.753 76.7426C236.56 76.7426 240.347 76.1547 243.349 74.9342C250.985 71.831 250.711 60.5059 243.062 57.4383C239.68 56.082 235.48 55.3403 230.588 55.3403C225.253 55.3403 220.794 56.1037 217.41 57.6305Z" fill="#E0BA71"/>
<path d="M207.006 130.646L254.977 130.589C254.977 130.589 257.062 129.098 261.353 125.606C265.643 122.114 264.301 115.538 264.301 115.538L261.684 107.073L255.775 95.5142C254.586 92.4847 252.705 89.6734 249.921 87.991L238.874 81.7504L223.462 81.5864L212.68 88.0811C209.721 89.864 207.486 92.6287 206.348 95.8895L198.168 112.505C196.819 116.383 196.759 120.17 198.435 123.565C199.138 124.989 200.229 126.189 201.555 127.06L207.006 130.643" fill="#B5253E"/>
<path d="M224.64 82C224.64 82.4848 224.899 82.9116 225.284 83.06L225.936 83.3115C229.322 84.61 232.965 84.61 236.348 83.3115L236.995 83.06C237.381 82.9116 237.64 82.4848 237.64 82.0054V64.9069H224.639L224.64 82Z" fill="#EDC1A4"/>
<path d="M237.64 65.5347C237.64 64.3715 238.601 63.4352 239.785 63.4352C240.969 63.4352 241.933 64.3715 241.933 65.5347C241.933 66.6977 240.971 68.5864 239.785 68.5864C238.599 68.5864 237.64 66.6906 237.64 65.5347Z" fill="#EDC1A4"/>
<path d="M231.918 79.1531C232.262 79.0438 232.136 78.5983 231.779 78.6082C231.712 78.61 231.645 78.6109 231.578 78.6109H231.576C228.651 78.6109 226.076 74.928 224.639 72.2654V77.6112C226.007 78.8038 227.715 79.5017 229.563 79.5017C230.298 79.5017 231.136 79.4019 231.918 79.1531Z" fill="#CB8568"/>
<path d="M240.372 84.7342C239.657 82.7751 237.657 81.699 235.571 81.6825L227.28 81.617C224.925 81.5984 222.63 82.933 222.18 85.2448C222.12 85.5491 222.079 85.8464 222.063 86.1244C221.976 87.6953 222.658 89.6866 223.242 91.0736C223.709 92.1846 223.958 93.3886 223.832 94.5874L222.063 111.39L219.365 130.646H242.117L240.89 112.003L239.127 95.1462C238.997 93.9051 239.272 92.6596 239.769 91.515C240.34 90.2015 240.976 88.377 240.89 86.9217C240.85 86.238 240.64 85.4682 240.372 84.7342Z" fill="#CB8568"/>
<path d="M239.172 84.8147C238.555 82.6796 236.443 81.452 234.221 81.4315L228.564 81.3794C226.085 81.3566 223.681 82.8394 223.345 85.2953C223.316 85.5042 223.296 85.7079 223.287 85.9023C223.208 87.5574 223.858 89.6771 224.376 91.0743C224.741 92.0598 224.93 93.1093 224.835 94.1559L223.287 111.294L220.96 130.646H240.583L239.525 111.911L237.982 94.71C237.884 93.6248 238.094 92.5365 238.483 91.519C238.993 90.1891 239.603 88.2412 239.525 86.7035C239.496 86.112 239.358 85.4563 239.172 84.8147Z" fill="#EDC1A4"/>
<path d="M238.928 93.239L239.296 92.3805L235.893 91.6506V94.3791L233.995 95.5653H231.029L230.317 93.6673H227.826L226.995 91.6506L223.555 91.6506L224.026 92.8711L223.903 93.6673H224.148L225.335 96.1585L227.351 96.9889V99.4801L223.555 100.666L222.606 106.056L222.247 109.563H222.606L226.521 105.293L227.826 102.564L231.029 101.971L232.427 99.4801L234.206 99.8008L234.942 101.334L237.946 101.971L239.05 102.564L240.425 107.65L240.519 108.754L240.093 103.726L239.97 102.928L239.602 99.9546L237.394 100.353L235.893 97.7006L238.858 95.5653L239.05 94.8335L238.928 93.239Z" fill="#A97978" fill-opacity="0.66"/>
<path d="M220.347 65.5347C220.347 64.3715 221.307 63.4352 222.493 63.4352C223.678 63.4352 224.639 64.3715 224.639 65.5347C224.639 66.6977 223.678 68.5864 222.493 68.5864C221.307 68.5864 220.347 66.6906 220.347 65.5347Z" fill="#EDC1A4"/>
<path d="M231.141 79.0119C233.173 78.7813 235.541 76.9497 237.577 74.4119C239.626 71.8568 240.371 68.5595 240.576 65.2905C240.791 59.9283 236.504 58.5908 231.141 58.5908C225.778 58.5908 221.489 59.9283 221.703 65.2905C221.908 68.5585 222.667 71.8463 224.691 74.4204C226.865 77.185 229.303 79.0284 231.14 79.0119H231.141Z" fill="#EDC1A4"/>
<path d="M240.706 61.4116L239.786 62.3315C237.877 60.4748 235.561 59.2856 232.366 59.3266C231.148 58.8636 224.238 59.1632 222.37 61.9635C222.288 62.0861 221.757 61.9635 221.757 61.9635C219.798 62.487 219.118 64.2612 218.629 65.5817L220.53 64.1099C219.84 65.0125 219.59 65.7427 219.672 66.8695C220.39 66.015 220.304 64.3639 221.45 64.2939L222.983 62.3315H223.965L225.13 61.1663C225.13 61.1663 226.142 68.8914 226.172 68.6479C226.724 64.1712 229.852 59.7559 229.852 59.7559C229.852 59.7559 230.016 68.3722 230.097 68.28C234.451 63.3127 233.838 59.3995 233.838 59.3995C233.838 59.3995 235.739 64.6618 236.168 67.1148C236.332 68.0526 236.168 60.5531 236.168 60.5531C236.168 60.5531 237.208 61.7138 237.333 62.6381C237.795 66.0478 237.027 67.7894 237.027 67.7894L238.376 66.011C238.376 66.011 238.923 68.7345 238.928 68.6479C239.112 65.1524 240.032 64.2939 240.032 64.2939L241.933 64.9071L240.216 62.9448L240.706 61.4116Z" fill="#C1896E"/>
<path d="M241.074 60.6758L240.154 61.5957C238.245 59.739 235.929 58.5497 232.734 58.5908C231.516 58.1278 224.606 58.4274 222.738 61.2277C222.656 61.3503 222.125 61.2277 222.125 61.2277C220.166 61.7511 219.486 63.5254 218.997 64.8458L220.898 63.374C220.208 64.2767 219.958 65.0069 220.04 66.1336C220.758 65.2792 220.672 63.628 221.818 63.5581L223.351 61.5957H224.332L225.498 60.4305C225.498 60.4305 226.51 68.1555 226.54 67.9121C227.092 63.4354 230.22 59.02 230.22 59.02C230.22 59.02 230.384 67.6364 230.465 67.5441C234.819 62.5768 234.206 58.6637 234.206 58.6637C234.206 58.6637 236.107 63.926 236.536 66.379C236.7 67.3167 236.536 59.8173 236.536 59.8173C236.536 59.8173 237.576 60.9779 237.701 61.9023C238.162 65.3119 237.395 67.0535 237.395 67.0535L238.744 65.2751C238.744 65.2751 239.291 67.9987 239.296 67.9121C239.48 64.4166 240.399 63.558 240.399 63.558L242.301 64.1713L240.583 62.2089L241.074 60.6758Z" fill="#000003"/>
<path d="M227.414 100.174H234.617C236.092 100.174 237.288 101.386 237.288 102.881V119.417C237.288 120.912 236.092 122.124 234.617 122.124H227.414C225.939 122.124 224.743 120.912 224.743 119.417V102.881C224.743 101.386 225.939 100.174 227.414 100.174Z" fill="black"/>
<path d="M242.362 109.922C243.277 109.922 244.018 110.664 244.018 111.576V116.85C244.018 117.765 243.275 118.504 242.362 118.504C242.13 118.504 241.903 118.458 241.69 118.362L234.678 115.256C233.913 114.917 233.296 114.314 232.94 113.558L231.842 111.232C231.555 110.62 231.998 109.919 232.675 109.919H242.362V109.922Z" fill="#EDC1A4"/>
<path d="M219.156 97.2527C216.106 98.8346 213.959 100.53 213.959 100.529C212.801 104.521 211.322 108.434 211.752 110.526H217.464C223.61 98.0518 221.265 101.622 219.156 97.2527Z" fill="#870D1B"/>
<path d="M243.834 97.1636C246.889 98.7522 247.574 103.235 247.574 103.235C247.574 104.461 248.31 104.461 249.905 110.287H244.259C244.259 102.192 241.721 101.551 243.834 97.1636Z" fill="#870D1B"/>
<path d="M219.917 109.922C219.002 109.922 218.261 110.664 218.261 111.576V116.85C218.261 117.765 219.005 118.504 219.917 118.504C220.15 118.504 220.376 118.458 220.589 118.362L227.601 115.256C228.366 114.917 228.984 114.314 229.339 113.558L230.437 111.232C230.724 110.62 230.282 109.919 229.604 109.919H219.917V109.922Z" fill="#EDC1A4"/>
<path d="M237.565 66.6908C237.578 66.5723 237.517 66.4576 237.411 66.4031C235.929 65.6392 235.002 65.5688 233.388 65.9828C233.272 66.0127 233.186 66.1127 233.174 66.2324C233.153 66.4286 233.33 66.59 233.524 66.5581C234.006 66.479 234.833 66.3707 235.434 66.4392C235.979 66.5014 236.715 66.7652 237.152 66.9373C237.337 67.01 237.545 66.8883 237.565 66.6908Z" fill="black"/>
<path d="M229.107 65.9771C229.086 65.8598 228.996 65.7663 228.879 65.7431C227.243 65.4185 226.334 65.6067 224.897 66.4505C224.793 66.5115 224.739 66.6311 224.76 66.7496C224.794 66.9439 225.008 67.0503 225.186 66.9658C225.628 66.7567 226.393 66.4242 226.989 66.3242C227.53 66.2333 228.31 66.2835 228.778 66.3281C228.976 66.347 229.142 66.1726 229.107 65.9771Z" fill="black"/>
<path d="M234.328 73.5996C234.328 73.3202 234.039 73.1349 233.785 73.252L233.397 73.4314C233.31 73.4712 233.216 73.4918 233.121 73.4918H228.352C228.255 73.4918 228.16 73.4716 228.071 73.4326L227.494 73.1785C227.305 73.095 227.092 73.2337 227.092 73.4408C227.092 73.568 227.176 73.68 227.298 73.7158L228.026 73.9297C228.145 73.9647 228.268 73.9824 228.392 73.9824H233.266H233.946C234.157 73.9824 234.328 73.811 234.328 73.5996Z" fill="black"/>
<ellipse cx="0.981192" cy="1.22649" rx="0.981192" ry="1.22649" transform="matrix(-1 0 0 1 241.933 95.9368)" fill="#E6DB88"/>
<ellipse cx="0.981192" cy="1.22649" rx="0.981192" ry="1.22649" transform="matrix(-1 0 0 1 242.546 101.21)" fill="#E6DB88"/>
<ellipse cx="0.981192" cy="1.22649" rx="0.981192" ry="1.22649" transform="matrix(-1 0 0 1 243.036 106.73)" fill="#E6DB88"/>
<path d="M127.5 75.2377C127.5 71.9009 125.145 69.028 121.873 68.3736L100.8 64.1591C96.4927 63.2976 92.4653 66.5707 92.4279 70.9635L91.0671 230.623C91.0314 234.815 94.6626 238.098 98.8294 237.641L121.263 235.183C124.812 234.794 127.5 231.795 127.5 228.224V75.2377Z" fill="#343737"/>
<path d="M108.5 70.8187C108.5 65.1917 103.394 60.9445 97.8612 61.9692L95 62.499L93.5 238.499L98.6045 239.009C103.903 239.539 108.5 235.379 108.5 230.054V70.8187Z" fill="#798691"/>
<path d="M104.5 69.1171C104.5 64.5158 100.137 61.166 95.6915 62.3548L23.6915 81.6106C20.6296 82.4295 18.5 85.2035 18.5 88.3729V220.978C18.5 224.44 21.0307 227.382 24.4537 227.899L96.4537 238.783C100.688 239.423 104.5 236.144 104.5 231.861V69.1171Z" fill="#95A9B8"/>
<ellipse cx="6.5" cy="10" rx="6.5" ry="10" transform="matrix(-1 0 0 1 124.5 74.999)" fill="#636969"/>
<ellipse cx="4.5" cy="7" rx="4.5" ry="7" transform="matrix(-1 0 0 1 122.5 77.999)" fill="#494E4E"/>
<ellipse cx="2.5" cy="4" rx="2.5" ry="4" transform="matrix(-1 0 0 1 120.5 80.999)" fill="#BDC1C1"/>
<ellipse cx="6.5" cy="10" rx="6.5" ry="10" transform="matrix(-1 0 0 1 124.5 106.999)" fill="#636969"/>
<ellipse cx="4.5" cy="7" rx="4.5" ry="7" transform="matrix(-1 0 0 1 122.5 109.999)" fill="#494E4E"/>
<ellipse cx="2.5" cy="4" rx="2.5" ry="4" transform="matrix(-1 0 0 1 120.5 112.999)" fill="#BDC1C1"/>
<ellipse cx="6.5" cy="10" rx="6.5" ry="10" transform="matrix(-1 0 0 1 124.5 138.999)" fill="#636969"/>
<ellipse cx="4.5" cy="7" rx="4.5" ry="7" transform="matrix(-1 0 0 1 122.5 141.999)" fill="#494E4E"/>
<ellipse cx="2.5" cy="4" rx="2.5" ry="4" transform="matrix(-1 0 0 1 120.5 144.999)" fill="#BDC1C1"/>
<ellipse cx="6.5" cy="10" rx="6.5" ry="10" transform="matrix(-1 0 0 1 124.5 170.999)" fill="#636969"/>
<ellipse cx="4.5" cy="7" rx="4.5" ry="7" transform="matrix(-1 0 0 1 122.5 173.999)" fill="#494E4E"/>
<ellipse cx="2.5" cy="4" rx="2.5" ry="4" transform="matrix(-1 0 0 1 120.5 176.999)" fill="#BDC1C1"/>
<ellipse cx="6.5" cy="10" rx="6.5" ry="10" transform="matrix(-1 0 0 1 124.5 202.999)" fill="#636969"/>
<ellipse cx="4.5" cy="7" rx="4.5" ry="7" transform="matrix(-1 0 0 1 122.5 205.999)" fill="#494E4E"/>
<ellipse cx="2.5" cy="4" rx="2.5" ry="4" transform="matrix(-1 0 0 1 120.5 208.999)" fill="#BDC1C1"/>
<rect width="7" height="32" rx="3.5" transform="matrix(-1 0 0 1 87.5 144.999)" fill="#798690"/>
<ellipse cx="8.5" cy="13" rx="8.5" ry="13" transform="matrix(-1 0 0 1 90.5 132.999)" fill="#798690"/>
<ellipse cx="8.5" cy="13" rx="8.5" ry="13" transform="matrix(-1 0 0 1 87.5 132.999)" fill="#B5CBDC"/>
<ellipse cx="3.5" cy="4" rx="3.5" ry="4" transform="matrix(-1 0 0 1 77.5 143.999)" fill="#798690"/>
<mask id="path-169-inside-1_1_3957" fill="white">
<path d="M77.5 148.499C77.5 146.566 75.933 144.999 74 144.999C72.067 144.999 70.5 146.566 70.5 148.499V173.499C70.5 175.432 72.067 176.999 74 176.999C75.933 176.999 77.5 175.432 77.5 173.499V148.499Z"/>
</mask>
<path d="M77.5 148.499C77.5 146.566 75.933 144.999 74 144.999C72.067 144.999 70.5 146.566 70.5 148.499V173.499C70.5 175.432 72.067 176.999 74 176.999C75.933 176.999 77.5 175.432 77.5 173.499V148.499Z" fill="#B4CBDC"/>
<path d="M77.5 144.999H70.5H77.5ZM70.5 176.999H77.5H70.5ZM74 176.999C76.7614 176.999 79 174.76 79 171.999V149.999C79 147.238 76.7614 144.999 74 144.999C75.1046 144.999 76 146.566 76 148.499V173.499C76 175.432 75.1046 176.999 74 176.999ZM70.5 144.999V176.999V144.999Z" fill="#798690" mask="url(#path-169-inside-1_1_3957)"/>
<ellipse cx="12.5" cy="19.3107" rx="12.5" ry="19.3107" transform="matrix(-1 0 0 1 58.5 129.013)" fill="#798690"/>
<ellipse cx="12.5" cy="19.3107" rx="12.5" ry="19.3107" transform="matrix(-1 0 0 1 55.5 129.013)" fill="#B4CBDC"/>
<ellipse cx="7.5" cy="10.5" rx="7.5" ry="10.5" transform="matrix(-1 0 0 1 50.5 137.999)" fill="#221E20"/>
<ellipse cx="4.5" cy="7" rx="4.5" ry="7" transform="matrix(-1 0 0 1 47.5 141.589)" fill="#D8EEFF"/>
<path d="M42.9554 134.269L44.8576 129.232C43.3755 128.921 42.5468 128.922 41.0728 129.232L42.9554 134.269Z" fill="#DE2022"/>
<path d="M43 138.999L40.8349 143.499H45.1651L43 138.999Z" fill="#D8EEFF"/>
<defs>
<filter id="filter0_d_1_3957" x="131.5" y="186.5" width="34" height="6" filterUnits="userSpaceOnUse" color-interpolation-filters="sRGB">
<feFlood flood-opacity="0" result="BackgroundImageFix"/>
<feColorMatrix in="SourceAlpha" type="matrix" values="0 0 0 0 0 0 0 0 0 0 0 0 0 0 0 0 0 0 127 0" result="hardAlpha"/>
<feOffset/>
<feGaussianBlur stdDeviation="1"/>
<feComposite in2="hardAlpha" operator="out"/>
<feColorMatrix type="matrix" values="0 0 0 0 1 0 0 0 0 1 0 0 0 0 1 0 0 0 1 0"/>
<feBlend mode="normal" in2="BackgroundImageFix" result="effect1_dropShadow_1_3957"/>
<feBlend mode="normal" in="SourceGraphic" in2="effect1_dropShadow_1_3957" result="shape"/>
</filter>
<linearGradient id="paint0_linear_1_3957" x1="124.681" y1="40.1149" x2="124.681" y2="121.064" gradientUnits="userSpaceOnUse">
<stop offset="0.461826" stop-color="#60C5FF"/>
<stop offset="0.46453" stop-color="#B5B5B5"/>
</linearGradient>
<linearGradient id="paint1_linear_1_3957" x1="144.68" y1="152.093" x2="144.68" y2="215.086" gradientUnits="userSpaceOnUse">
<stop offset="0.560153" stop-color="#84ABD9"/>
<stop offset="0.564556" stop-color="#B6B6B6"/>
</linearGradient>
<linearGradient id="paint2_linear_1_3957" x1="230.68" y1="67.0929" x2="230.68" y2="130.086" gradientUnits="userSpaceOnUse">
<stop offset="0.696945" stop-color="#60C6FF"/>
<stop offset="0.703896" stop-color="#A36E3E"/>
</linearGradient>
</defs>
</svg>
