<svg width="52" height="52" viewBox="0 0 52 52" fill="none" xmlns="http://www.w3.org/2000/svg">
<g clip-path="url(#clip0_1_1163)">
<rect width="52" height="52" rx="12" fill="white" fill-opacity="0.5"/>
<path d="M36.6076 47.4003C30.5495 44.9626 28.5531 41.9352 29.0703 37.5735H22.4157C22.9329 41.9352 20.9365 44.9626 14.8783 47.4003C8.82021 49.838 8.00647 52.4999 8.00647 52.4999H43.5036C43.5036 52.4999 42.6727 49.838 36.6076 47.4003Z" fill="#FF8482"/>
<path d="M25.702 44.6762C27.4007 44.6773 29.0733 44.258 30.5706 43.4556C29.2293 41.7937 28.8052 39.8697 29.0776 37.594H22.4161C22.6885 39.9007 22.2575 41.835 20.8955 43.5073C22.3792 44.2808 24.0288 44.682 25.702 44.6762Z" fill="#FF5B59"/>
<path d="M36.6081 47.4008C34.8366 46.7443 33.1822 45.8072 31.7085 44.6251L26.1261 49.7972L19.8335 44.5527C18.6371 45.5871 17.0096 46.5284 14.8719 47.387C8.81373 49.8247 8 52.4866 8 52.4866H43.5041C43.5041 52.4866 42.6731 49.8385 36.6081 47.4008Z" fill="#6F87ED"/>
<path d="M17.1374 29.6648C18.2511 31.7991 17.7856 34.2472 16.103 35.1333C14.4204 36.0194 12.1309 35.0057 11.0138 32.8714C9.89661 30.7371 10.3655 28.2856 12.0482 27.3994C13.7308 26.5133 16.0203 27.5201 17.1374 29.6648Z" fill="#FF8482"/>
<path d="M16.1544 33.7338C16.1544 33.6476 16.1337 33.5717 16.1234 33.489C16.1349 33.5389 16.1429 33.5896 16.1475 33.6407C16.1491 33.2765 16.0872 32.9148 15.9648 32.5718C15.7373 31.5558 15.2084 30.6322 14.4475 29.9216C13.6865 29.2111 12.7288 28.7467 11.6996 28.5894C13.055 29.3762 14.2298 30.4394 15.1476 31.7098C13.9339 31.2167 12.0444 32.2649 12.0444 32.2649C14.2718 31.6719 15.2855 32.1615 15.751 32.7304C15.9236 33.0482 16.059 33.3849 16.1544 33.7338Z" fill="#FF5B59"/>
<path d="M34.2667 29.6648C33.1495 31.7991 33.6185 34.2472 35.3011 35.1333C36.9837 36.0194 39.2732 35.0057 40.3903 32.8714C41.5075 30.7371 41.0386 28.2856 39.3559 27.3994C37.6733 26.5133 35.3838 27.5201 34.2667 29.6648Z" fill="#FF8482"/>
<path d="M35.2458 33.7338C35.2458 33.6476 35.2699 33.5717 35.2768 33.489C35.2768 33.551 35.2561 33.5993 35.2527 33.6407C35.2521 33.2763 35.3151 32.9145 35.4389 32.5718C35.6668 31.5548 36.1967 30.6305 36.959 29.9199C37.7213 29.2092 38.6805 28.7455 39.711 28.5894C38.3555 29.3762 37.1808 30.4394 36.263 31.7098C37.4801 31.2167 39.3662 32.2649 39.3662 32.2649C37.1353 31.6719 36.1216 32.1615 35.6561 32.7304C35.483 33.0488 35.3454 33.3853 35.2458 33.7338Z" fill="#FF5B59"/>
<path d="M38.9869 20.5929C40.3661 17.5827 42.0418 12.2625 35.2389 9.16273C35.2872 9.18687 32.3288 6.69397 27.0706 11.2315C25.3949 12.7038 23.1468 13.3486 21.0159 12.6452C18.8851 11.9418 16.0922 12.0142 14.5406 15.8725C14.1603 16.7472 13.9937 17.6998 14.0544 18.6516C13.5613 18.0344 12.889 17.6172 12.2615 18.6171C11.7546 19.3998 12.1718 22.8651 13.3993 25.9993C13.3993 25.9993 14.113 33.5297 17.5369 34.7021L20.9159 30.068C23.7192 30.0025 27.2085 29.9093 30.0807 29.8473L33.6218 34.7021C36.0733 33.8642 37.1388 29.7887 37.5491 27.5233L37.9491 27.0785C39.5282 25.3339 40.1282 22.9134 39.1593 20.9135C39.1007 20.7997 39.0455 20.6997 38.9869 20.5929Z" fill="#420E2F"/>
<path d="M21.0158 12.6372C18.8918 11.9303 16.0921 12.0131 14.5232 15.868C14.3673 16.2464 14.2438 16.6374 14.1543 17.0368L14.2439 17.2506C14.2439 17.2506 16.3196 12.3958 21.0158 12.6372Z" fill="#7C1A59"/>
<path d="M35.2286 9.16202C35.2665 9.16202 33.4804 7.67248 30.2048 9.16202C30.8462 9.16202 39.0283 9.24477 40.0834 17.2648C40.5868 14.4926 39.9282 11.2998 35.2286 9.16202Z" fill="#7C1A59"/>
<path d="M22.5812 17.5058C20.6958 17.5057 18.8865 18.2495 17.5463 19.5755C16.2061 20.9015 15.4431 22.7028 15.4231 24.588L15.3507 31.4116C15.3507 37.6491 19.9848 42.7107 25.6947 42.7107C31.4046 42.7107 36.0387 37.6491 36.0387 31.4116L36.018 24.1708C36.018 20.4884 33.6423 15.406 29.9564 15.406L22.5812 17.5058Z" fill="#FDB193"/>
<path opacity="0.39" d="M26.5183 37.8588C26.5183 37.8588 28.3733 37.914 29.0354 36.4382C29.0354 36.4382 29.5629 37.514 28.2975 38.1622C27.0321 38.8105 26.5183 37.8588 26.5183 37.8588Z" fill="#FF8282"/>
<g style="mix-blend-mode:multiply" opacity="0.55">
<path d="M36.0285 24.1708C36.0285 20.4884 33.6529 15.406 29.9669 15.406L22.5813 17.5058C20.696 17.5057 18.8867 18.2495 17.5465 19.5755C16.2062 20.9015 15.4433 22.7028 15.4233 24.588L15.3888 27.8188L16.4232 26.0431C16.4232 26.0121 17.1404 22.9709 23.695 22.8882C25.9845 22.8571 28.7705 22.1986 30.591 19.5609C31.2427 21.5193 32.3323 23.2812 33.6287 24.3398C34.3171 24.9222 35.1518 25.305 36.0423 25.4466L36.0285 24.1708Z" fill="#FDB193"/>
</g>
<path d="M28.8495 33.3789C28.9735 33.7168 29.0365 34.0741 29.0357 34.434C29.0523 35.1695 28.7917 35.8843 28.3056 36.4365C27.8195 36.9887 27.1435 37.338 26.4118 37.4148C25.6802 37.4917 24.9464 37.2905 24.3562 36.8514C23.7659 36.4122 23.3624 35.7672 23.2258 35.0443L28.8495 33.3789Z" fill="#230F0B"/>
<path d="M26.102 37.4442C25.6205 37.4472 25.1461 37.3286 24.7228 37.0994C24.8812 36.4339 25.263 35.8429 25.8045 35.425C26.3461 35.0071 27.0145 34.7876 27.6984 34.803C28.1388 34.8035 28.5743 34.895 28.9776 35.072C28.8437 35.7375 28.4848 36.3367 27.9611 36.7687C27.4374 37.2008 26.7809 37.4393 26.102 37.4442Z" fill="#E8132C"/>
<path d="M27.1772 31.581C27.1772 32.5602 26.5152 33.3533 25.7015 33.3533C24.8878 33.3533 24.2223 32.5602 24.2223 31.581C24.2223 30.6018 24.8843 29.3743 25.7015 29.3743C26.5187 29.3743 27.1772 30.6018 27.1772 31.581Z" fill="#FF6A68"/>
<path d="M31.0245 28.434C31.0245 29.2442 30.7521 29.9028 30.4107 29.9028C30.0694 29.9028 29.797 29.2442 29.797 28.434C29.797 27.6237 30.0728 26.9617 30.4107 26.9617C30.7486 26.9617 31.0245 27.6202 31.0245 28.434Z" fill="#25110D"/>
<path d="M33.3039 26.8232C33.3832 26.7784 29.98 24.6268 27.8802 24.7061C27.856 24.7406 27.9216 22.827 30.7075 23.8303C33.4108 24.9406 33.2797 26.8542 33.3039 26.8232Z" fill="#420E2F"/>
<path d="M20.9873 29.9016C21.3262 29.9016 21.601 29.2439 21.601 28.4327C21.601 27.6215 21.3262 26.9639 20.9873 26.9639C20.6483 26.9639 20.3735 27.6215 20.3735 28.4327C20.3735 29.2439 20.6483 29.9016 20.9873 29.9016Z" fill="#25110D"/>
<path d="M17.7844 26.8235C17.7051 26.7786 21.1083 24.6271 23.2082 24.7064C23.2357 24.7409 23.1668 22.8272 20.3808 23.8306C17.681 24.9408 17.8086 26.8545 17.7844 26.8235Z" fill="#420E2F"/>
<path d="M19.5152 33.4229C19.4749 33.4232 19.4349 33.4149 19.398 33.3987C19.333 33.3668 19.2832 33.3105 19.2593 33.2421C19.2354 33.1737 19.2394 33.0987 19.2704 33.0332L20.1289 31.2575C20.1622 31.1955 20.2181 31.1487 20.2851 31.127C20.3521 31.1053 20.4248 31.1104 20.4881 31.1412C20.5514 31.1719 20.6003 31.226 20.6247 31.292C20.649 31.3581 20.6468 31.431 20.6186 31.4954L19.76 33.2712C19.7378 33.317 19.703 33.3557 19.6596 33.3825C19.6163 33.4094 19.5662 33.4234 19.5152 33.4229Z" fill="#FF6A68"/>
<path d="M17.8017 33.4229C17.7555 33.4236 17.7098 33.4125 17.6691 33.3904C17.6285 33.3684 17.5942 33.3362 17.5695 33.297C17.5449 33.2579 17.5308 33.213 17.5286 33.1668C17.5264 33.1206 17.5362 33.0746 17.5569 33.0332L18.4155 31.2575C18.4487 31.1955 18.5047 31.1487 18.5716 31.127C18.6386 31.1053 18.7113 31.1104 18.7746 31.1412C18.8379 31.1719 18.8869 31.226 18.9112 31.292C18.9355 31.3581 18.9333 31.431 18.9051 31.4954L18.0466 33.2712C18.024 33.3168 17.9891 33.3552 17.9458 33.382C17.9026 33.4088 17.8526 33.423 17.8017 33.4229Z" fill="#FF6A68"/>
<path d="M31.7213 33.4241C31.6704 33.4242 31.6205 33.4101 31.5772 33.3832C31.534 33.3564 31.4991 33.318 31.4765 33.2724L30.618 31.4967C30.5897 31.4322 30.5876 31.3593 30.6119 31.2933C30.6362 31.2272 30.6851 31.1731 30.7484 31.1424C30.8117 31.1116 30.8845 31.1066 30.9514 31.1283C31.0184 31.1499 31.0743 31.1967 31.1076 31.2587L31.9661 33.0345C31.9971 33.0999 32.0011 33.175 31.9772 33.2433C31.9534 33.3117 31.9036 33.368 31.8386 33.3999C31.8016 33.4162 31.7617 33.4244 31.7213 33.4241Z" fill="#FF6A68"/>
<path d="M33.4349 33.4242C33.384 33.4243 33.3341 33.4102 33.2908 33.3834C33.2475 33.3566 33.2127 33.3182 33.1901 33.2725L32.335 31.4968C32.3192 31.4649 32.3098 31.4302 32.3075 31.3947C32.3051 31.3591 32.3099 31.3235 32.3214 31.2898C32.333 31.2562 32.3511 31.2251 32.3747 31.1985C32.3984 31.1719 32.4271 31.1502 32.4591 31.1348C32.4913 31.1188 32.5262 31.1094 32.562 31.107C32.5978 31.1047 32.6337 31.1094 32.6677 31.1209C32.7016 31.1324 32.733 31.1506 32.7599 31.1743C32.7868 31.1979 32.8088 31.2267 32.8246 31.2589L33.6797 33.0346C33.711 33.0997 33.7154 33.1743 33.6922 33.2427C33.669 33.311 33.62 33.3675 33.5556 33.4001C33.5176 33.4167 33.4764 33.4249 33.4349 33.4242Z" fill="#FF6A68"/>
<path d="M36.4906 21.2266L31.6324 12.9204L19.8919 16.4753L13.5924 24.1057C14.2963 24.5825 14.9112 25.1788 15.4095 25.8676C15.4095 25.8676 16.0991 21.9507 23.6847 21.8542C28.6705 21.7887 30.3221 18.6648 30.9738 16.1374C31.1117 19.0854 32.5461 22.1266 34.277 23.5368C34.747 23.9633 35.3227 24.2561 35.9443 24.3847C36.5658 24.5132 37.2105 24.4729 37.8112 24.2678L36.4906 21.2266Z" fill="#420E2F"/>
</g>
<defs>
<clipPath id="clip0_1_1163">
<rect width="52" height="52" rx="12" fill="white"/>
</clipPath>
</defs>
</svg>
