<svg width="16" height="17" viewBox="0 0 16 17" fill="none" xmlns="http://www.w3.org/2000/svg">
<path fill-rule="evenodd" clip-rule="evenodd" d="M3.99992 5.16675C3.81422 5.16675 3.63694 5.2442 3.51077 5.38045C3.3846 5.5167 3.32098 5.6994 3.33522 5.88455L3.85984 12.7046C3.96671 14.0939 5.12522 15.1667 6.51865 15.1667H9.48119C10.8746 15.1667 12.0331 14.0939 12.14 12.7046L12.6646 5.88455C12.6789 5.6994 12.6152 5.5167 12.4891 5.38045C12.3629 5.2442 12.1856 5.16675 11.9999 5.16675H3.99992Z" fill="#F1736E"/>
<path fill-rule="evenodd" clip-rule="evenodd" d="M10.6667 2.49991L12.6667 2.49992C13.0349 2.49992 13.3334 2.7984 13.3334 3.16659C13.3334 3.53478 13.0349 3.83325 12.6667 3.83325H3.33341C2.96522 3.83325 2.66675 3.53478 2.66675 3.16659C2.66675 2.7984 2.96522 2.49992 3.33341 2.49992H5.33341V2.49991L6.56327 2.49991C6.82151 2.49991 7.06267 2.37085 7.20591 2.15598C7.58371 1.58928 8.41645 1.58928 8.79425 2.15598C8.9375 2.37085 9.17865 2.49991 9.43689 2.49991L10.6667 2.49991Z" fill="#F1736E"/>
</svg>
