<svg width="967" height="800" viewBox="0 0 967 800" fill="none" xmlns="http://www.w3.org/2000/svg">
<mask id="mask0_2824_10669" style="mask-type:alpha" maskUnits="userSpaceOnUse" x="0" y="0" width="967" height="800">
<rect width="967" height="800" fill="#C2DBF3"/>
</mask>
<g mask="url(#mask0_2824_10669)">
<rect width="967" height="800" fill="#C2DBF3"/>
<path d="M-244.2 242.6L249.7 421.5L246.5 486.6L-260 487.7L-244.2 242.6Z" fill="#E2F1FF"/>
<path d="M-16.5 -5.5L310.8 360.4L345.8 302.6L212.9 -75L-16.5 -5.5Z" fill="#E2F1FF"/>
<path d="M589.403 -29L471 294.185L579.011 336L836 -20.5514L589.403 -29Z" fill="#E2F1FF"/>
<path d="M667.4 378.599L1113.2 281.699L1115.2 517.799L685.6 513.699L667.4 378.599Z" fill="#E2F1FF"/>
<path d="M-60.1 30.9004L172.1 259.9C175 262.8 171 267.4 167.8 264.8L-101.5 54.7004L-60.1 30.9004Z" fill="#E2F1FF"/>
<path d="M725.2 321L991.7 237.4L987.4 195.9L722.6 314.2C718.5 316.1 720.9 322.3 725.2 321Z" fill="#E2F1FF"/>
<path d="M786 388.204C786 544.384 659.521 671 503.5 671C347.479 671 221 544.394 221 388.204C221 279.751 281.981 185.562 371.486 138.11L401.78 278.329H602.838L633.369 137C724.039 184.076 786 278.889 786 388.204Z" fill="#94D0F8"/>
<path d="M704.099 679.176C770.375 679.176 824.101 625.449 824.101 559.174C824.101 492.899 770.375 439.172 704.099 439.172C637.824 439.172 584.098 492.899 584.098 559.174C584.098 625.449 637.824 679.176 704.099 679.176Z" fill="white"/>
<path d="M310.5 641C393.067 641 460 574.29 460 492C460 409.71 393.067 343 310.5 343C227.933 343 161 409.71 161 492C161 574.29 227.933 641 310.5 641Z" fill="white"/>
<path d="M149.913 393.826C163.672 393.826 174.826 382.672 174.826 368.913C174.826 355.154 163.672 344 149.913 344C136.154 344 125 355.154 125 368.913C125 382.672 136.154 393.826 149.913 393.826Z" fill="white"/>
<path d="M805.971 423.63C816.664 423.63 825.334 414.961 825.334 404.267C825.334 393.573 816.664 384.904 805.971 384.904C795.277 384.904 786.607 393.573 786.607 404.267C786.607 414.961 795.277 423.63 805.971 423.63Z" fill="white"/>
<path d="M544.26 442.872C582.608 442.872 613.696 411.784 613.696 373.436C613.696 335.087 582.608 304 544.26 304C505.912 304 474.824 335.087 474.824 373.436C474.824 411.784 505.912 442.872 544.26 442.872Z" fill="white"/>
<path d="M400 503C466.274 503 520 449.274 520 383C520 316.726 466.274 263 400 263C333.726 263 280 316.726 280 383C280 449.274 333.726 503 400 503Z" fill="white"/>
<path d="M629.5 558C702.678 558 762 498.902 762 426C762 353.098 702.678 294 629.5 294C556.322 294 497 353.098 497 426C497 498.902 556.322 558 629.5 558Z" fill="white"/>
<path d="M800.173 807.501H553.509C499.49 807.501 455.584 763.719 455.584 709.576C455.584 655.557 499.367 611.65 553.509 611.65H800.173C854.192 611.65 898.099 655.433 898.099 709.576C897.975 763.595 854.192 807.501 800.173 807.501Z" fill="white"/>
<path d="M383.19 799.424H233.095C150.216 799.424 83 732.208 83 649.329C83 566.45 150.216 499.234 233.095 499.234H383.19C466.069 499.234 533.284 566.45 533.284 649.329C533.408 732.208 466.192 799.424 383.19 799.424Z" fill="white"/>
<path d="M602.717 400.074C603.555 401.324 604.932 402 606.328 402C607.147 402 607.975 401.769 608.71 401.287L646.177 376.653L654.525 371.173L664.054 364.906C666.046 363.6 666.604 360.925 665.283 358.935C664.445 357.685 663.068 357 661.662 357C660.843 357 660.015 357.231 659.289 357.713L658.498 358.231L650.709 363.36L603.955 394.094C601.954 395.409 601.395 398.084 602.717 400.074Z" fill="#C2DBF3"/>
<path d="M642 380L653.325 371.578L656.991 358.039L657 358L645.511 366.587L642 380Z" fill="#9AC1DD"/>
<path d="M633 137.62L603.986 271.989C603.518 271.686 603.032 271.392 602.556 271.098L554.006 241.635H454.917L406.367 271.098C404.341 272.328 402.361 273.623 400.427 275L371 138.74C410.419 117.844 455.357 106 503.063 106C549.917 106 594.103 117.412 633 137.62Z" fill="#E2F1FF"/>
<path d="M650 61L633.398 136.896C594.566 116.971 550.452 105.719 503.685 105.719C456.058 105.719 411.185 117.397 371.84 138L355 61H650Z" fill="white"/>
<path d="M338.5 -15H669.5L650 61H355L338.5 -15Z" fill="white"/>
<path d="M721.729 669H241.271C236.151 669 232 684.745 232 704.169V777.832C232 797.255 236.151 813 241.271 813H721.729C726.849 813 731 797.255 731 777.832V704.169C731 684.745 726.849 669 721.729 669Z" fill="#E59A48"/>
<path d="M210.11 590H746.89C755.227 590 762 596.813 762 605.199V658.714C762 681.497 743.606 700 720.955 700H236.045C213.394 700.007 195 681.505 195 658.721V605.205C195 596.813 201.771 590 210.11 590Z" fill="#FFBD6E"/>
<path d="M293.464 350H661.536C688.281 350 710 371.72 710 398.47V611.33C710 620.53 702.531 628 693.33 628H261.668C252.469 628 245 620.53 245 611.33V398.47C245 371.72 266.717 350 293.464 350Z" fill="#E59A48"/>
<path d="M761.993 565.688V640H658.806V565.688C658.806 537.161 681.927 514 710.404 514C738.88 514 762 537.161 762 565.688H761.993ZM298.186 565.688V640H195V565.688C195 537.16 218.12 514 246.596 514C275.074 514 298.194 537.16 298.194 565.688H298.186Z" fill="#FFBD6E"/>
<path d="M344 617.154C344 617.154 332.065 631.605 317.509 635L289 514.179C302.642 510.997 315.155 551.437 327.798 548.488" fill="black"/>
<path d="M397.22 778.975C397.22 778.975 386.356 794.206 386.837 809.101L490.795 804.347C490.344 790.387 485.055 790.427 484.638 777.488" fill="black"/>
<path d="M335.466 550.194C333.087 541.22 340.132 532.529 349.387 533.02L571.917 544.848L573.947 585.33C575.138 609.085 556.234 629 532.493 629H366.859C363.848 629 360.921 628.003 358.534 626.163C356.147 624.324 354.434 621.746 353.661 618.83L335.466 550.194Z" fill="#4680E1"/>
<path d="M587 223.918V228.105C587 237.707 583.933 246.566 578.703 253.786C570.77 264.817 557.854 272 543.268 272H460.741C447.132 272 434.991 265.761 426.977 255.957C420.761 248.362 417 238.687 417 228.096V224.605C417 212.951 421.619 201.792 429.797 193.546L443.289 180.05C450.929 172.336 455.511 162.038 456.04 151.171V150.97C456.077 150.31 456.077 149.66 456.077 149L482.11 151.382L484.848 151.629L488.81 152.005L520.119 154.873L524.82 155.285L528.416 155.615L548.407 157.466L552.779 161.818L556.823 165.876C560.994 170.063 563.322 175.762 563.322 181.672C563.322 187.618 565.695 193.326 569.858 197.504L580.446 208.132C584.627 212.31 587 218.017 587 223.918Z" fill="black"/>
<path d="M605 271.808L603.466 279H401.882L401 274.854C402.929 273.457 404.914 272.143 406.954 270.895L455.611 241H554.919L603.576 270.895C604.045 271.203 604.531 271.501 605 271.808Z" fill="#E37B4C"/>
<path d="M681.214 503.472L610.365 546.15C602.059 551.156 591.441 545.2 591.441 535.536V523.249H417.631L417.585 535.609C417.558 545.264 406.958 551.184 398.661 546.187L327.784 503.472C311.476 493.186 304.749 472.851 311.752 454.937L318.359 438.01C319.038 435.864 319.791 433.744 320.626 431.625L364.063 321.046C371.368 302.429 384.023 286.424 400.341 274.987L401.222 279.052H602.592L604.124 272C622.626 283.565 636.933 300.757 644.908 321.055L644.927 321.082L644.936 321.055L649.103 331.697L688.363 431.625C689.162 433.653 689.887 435.699 690.529 437.764L690.63 438.01L697.247 454.937C704.249 472.842 697.531 493.186 681.214 503.472Z" fill="#E37B4C"/>
<path d="M546 211.874C543.659 213.496 541.16 214.949 538.522 216.17C531.887 219.271 524.428 221 516.57 221C507.742 221 499.422 218.817 492.185 214.958C489.871 213.728 491.232 210.288 493.814 210.831C497.377 211.607 501.088 212.008 504.873 212.008C519.18 212.008 532.146 206.26 541.326 197L546 211.874Z" fill="#E49948"/>
<path d="M554.456 241.513C527.471 269.789 482.345 269.789 455.361 241.522L455.352 241.513L484.269 145.533H525.547L541.005 196.872L545.889 213.063L554.456 241.513Z" fill="#FFBC6E"/>
<path d="M467.07 140.768C467.07 133.978 461.582 128.508 454.811 128.508C448.039 128.508 442.551 133.978 442.551 140.768C442.551 147.53 448.039 158.598 454.811 158.598C461.582 158.607 467.07 147.53 467.07 140.768Z" fill="#FFBC6E"/>
<path d="M567.264 140.768C567.264 133.978 561.775 128.508 555.004 128.508C548.233 128.508 542.744 133.978 542.744 140.768C542.744 147.53 548.233 158.598 555.004 158.598C561.775 158.607 567.264 147.53 567.264 140.768Z" fill="#FFBC6E"/>
<path d="M504.975 211.102C476.515 211.102 453.141 188.635 452.005 160.231L450.209 131.46C448.963 100.334 473.849 74.4219 504.984 74.4219C536.119 74.4219 561.005 100.343 559.758 131.46L557.963 160.231C556.817 188.635 533.434 211.102 504.975 211.102Z" fill="#FFBC6E"/>
<path d="M528.473 163.025C524.313 162.713 520.864 164.021 521.004 161.755C521.145 159.489 524.691 156.711 528.851 157.024C532.985 157.328 536.136 160.608 535.995 162.874C535.855 165.14 532.599 163.338 528.473 163.025Z" fill="black"/>
<path d="M537.529 154.971C538.558 155.01 539.57 154.549 540.259 153.636C541.397 152.105 541.209 149.819 539.803 148.554C539.561 148.308 533.544 142.99 524.322 143C522.486 143 521.018 144.609 521 146.64C521.009 148.642 522.495 150.261 524.331 150.261C531.091 150.231 535.541 154.117 535.568 154.186C536.141 154.686 536.83 154.951 537.511 155" fill="black"/>
<path d="M482.028 163.025C486.466 162.713 490.145 164.021 489.996 161.755C489.846 159.489 486.063 156.711 481.626 157.024C477.216 157.328 473.855 160.608 474.005 162.874C474.155 165.14 477.619 163.338 482.028 163.025Z" fill="black"/>
<path d="M473.471 154.971C472.442 155.01 471.43 154.549 470.741 153.636C469.603 152.105 469.791 149.819 471.197 148.554C471.439 148.308 477.456 142.99 486.678 143C488.514 143 489.982 144.609 490 146.64C489.991 148.642 488.505 150.261 486.669 150.261C479.909 150.231 475.459 154.117 475.432 154.186C474.859 154.686 474.17 154.951 473.489 155" fill="black"/>
<path d="M502.389 195C501.132 195 499.828 194.941 498.468 194.812C497.583 194.733 496.931 193.901 497.006 192.961C497.08 192.021 497.853 191.328 498.748 191.407C506.264 192.1 512.98 190.684 518.717 187.181C523.002 184.558 525.097 181.687 525.125 181.667C525.666 180.925 526.672 180.777 527.37 181.351C528.069 181.925 528.208 182.984 527.677 183.736C527.324 184.231 519.425 195 502.389 195Z" fill="black"/>
<path d="M542 183C546.418 183 550 179.418 550 175C550 170.582 546.418 167 542 167C537.582 167 534 170.582 534 175C534 179.418 537.582 183 542 183Z" fill="#E49948"/>
<path d="M467 183C471.418 183 475 179.418 475 175C475 170.582 471.418 167 467 167C462.582 167 459 170.582 459 175C459 179.418 462.582 183 467 183Z" fill="#E49948"/>
<path d="M505.009 68C473.523 68 448 91.385 448 120.231V122.232C448 122.305 448 122.388 448.009 122.461L448.581 129.152C448.71 130.694 450.12 131.887 451.807 131.887C451.807 131.887 505.535 136.439 504.806 87.8332H504.677C503.958 136.439 557.428 131.887 557.428 131.887L557.419 131.804C557.659 131.85 557.898 131.887 558.147 131.887C559.843 131.887 561.244 130.694 561.373 129.152L561.954 122.351C561.954 122.323 561.954 122.287 561.954 122.259L562 122.351V120.24C562.018 91.3851 536.496 68 505.009 68Z" fill="black"/>
<path d="M418 483H592V533H436L418 483Z" fill="#CB6942"/>
<path d="M592 483V508L553.115 506.585C547.691 506.385 542.36 505.258 537.361 503.25L518.039 495.469C514.977 494.238 512.44 492.081 510.817 489.331L509.35 486.842C508.336 485.122 509.645 483.009 511.73 483.009L592 483Z" fill="#FFBC6E"/>
<path d="M418 483V508L456.885 506.585C462.309 506.385 467.64 505.258 472.639 503.25L491.961 495.469C495.023 494.238 497.56 492.081 499.183 489.331L500.65 486.842C501.664 485.122 500.355 483.009 498.27 483.009L418 483Z" fill="#FFBC6E"/>
<path d="M546 213.112C537.791 218.128 528.119 221 517.77 221C508.543 221 499.862 218.72 492.274 214.672C489.809 213.35 491.218 209.593 493.969 210.112C497.397 210.805 500.946 211.17 504.568 211.17C518.651 211.17 531.482 205.799 541.071 197L546 213.112Z" fill="#E49948"/>
<path d="M407 561.305C407 535.731 427.824 515 453.512 515H599.488C625.176 515 646 535.731 646 561.305V579.693C646 605.267 625.176 626 599.488 626H453.512C427.824 626 407 605.267 407 579.693V561.305Z" fill="#4680E1"/>
<path fill-rule="evenodd" clip-rule="evenodd" d="M394.805 521.554L444.611 526.594L494 625.998L493.997 626H354.638C351.266 626 347.99 624.876 345.318 622.805C342.646 620.733 340.728 617.83 339.862 614.546L319.522 537.365C316.85 527.223 324.799 517.412 335.194 518.028L394.805 521.554Z" fill="#306DC6"/>
<path opacity="0.75" d="M530.705 123.5C518.205 123.5 508.205 112.4 505.405 124.1C502.705 112.4 491.805 123.5 479.305 123.5C464.105 123.5 452.005 136.3 453.005 151.6C453.905 165 464.905 175.7 478.305 176.3C483.305 176.5 488.105 175.3 492.205 173C500.205 168.6 510.005 168.6 517.905 173C522.005 175.3 526.705 176.5 531.805 176.3C545.205 175.8 556.305 165 557.105 151.6C558.005 136.3 545.805 123.5 530.705 123.5Z" fill="#E37B4C"/>
<path d="M574.805 133.9C573.905 146.2 571.005 183.7 571.005 183.7C570.505 190.1 565.205 194.7 559.205 194.8C558.305 194.8 557.305 194.7 556.305 194.5L553.705 193.9C551.905 193.5 550.605 191.9 550.505 190.1L548.405 159.6L547.505 147C546.905 138.8 540.705 132 532.505 131C530.405 130.7 528.405 130.5 526.305 130.3C521.805 129.9 517.405 129.6 512.905 129.4C512.505 129.4 512.005 129.4 511.605 129.4C507.205 129.3 502.705 129.3 498.205 129.5C497.805 129.5 497.305 129.5 496.905 129.6C492.405 129.8 488.005 130.1 483.505 130.6C481.505 130.8 479.405 131 477.405 131.3C469.205 132.3 462.905 139.1 462.405 147.3L461.605 159.1L459.505 190.2C459.405 192 458.105 193.6 456.305 194L453.705 194.6C452.605 194.9 451.505 195 450.505 194.9C444.605 194.7 439.505 190.1 439.005 183.8L435.205 134.2C434.905 129.9 434.905 125.6 435.405 121.3C438.805 93.9 458.005 71.4 483.605 63.3C484.605 63 485.705 62.7 486.905 62.3C490.205 61.4 493.605 60.8 497.005 60.4C497.405 60.3 497.905 60.3 498.305 60.3C500.505 60.1 502.705 60 505.005 60C507.305 60 509.505 60.1 511.705 60.3C512.105 60.3 512.605 60.4 513.005 60.4C516.905 60.8 520.805 61.6 524.505 62.7C525.205 62.9 525.805 63.1 526.405 63.3C552.505 71.6 571.905 94.8 574.805 122.9C575.105 126.6 575.105 130.2 574.805 133.9Z" fill="#FF7059"/>
<path d="M498.204 60.3008V126.401C497.804 126.401 488.004 127.001 483.504 127.401V63.2008C484.504 62.9008 485.604 62.6008 486.804 62.2008C490.104 61.3008 493.504 60.7008 496.904 60.3008C497.404 60.3008 497.804 60.3008 498.204 60.3008Z" fill="#3D3D3D"/>
<path d="M511.605 126.301V60.3008C512.005 60.3008 512.505 60.4008 512.905 60.4008C516.805 60.8008 520.705 61.6008 524.405 62.7008C525.105 62.9008 525.705 63.1008 526.305 63.3008V127.301" fill="#3D3D3D"/>
<path d="M559.704 146.501L559.204 194.801C558.304 194.801 557.304 194.701 556.304 194.501L553.704 193.901C551.904 193.501 550.604 191.901 550.504 190.101L548.404 159.601L547.504 147.001C546.904 138.801 540.704 132.001 532.504 131.001C514.404 128.601 496.004 128.801 477.404 131.201C469.204 132.201 462.904 139.001 462.404 147.201L461.604 159.001L459.504 190.101C459.404 191.901 458.104 193.501 456.304 193.901L453.704 194.501C452.604 194.801 451.504 194.901 450.504 194.801L450.004 146.601C449.804 131.001 461.704 117.901 477.304 116.601C495.704 115.101 514.004 115.101 532.204 116.501C547.704 117.801 559.804 130.801 559.704 146.501Z" fill="#E45041"/>
<path d="M634.8 498.5H392.8C380.8 498.5 371 488.7 371 476.7V338.8C371 326.8 380.8 317 392.8 317H634.8C646.8 317 656.6 326.8 656.6 338.8V476.7C656.6 488.8 646.9 498.5 634.8 498.5Z" fill="#3D3D3D"/>
<path d="M528.3 407.8C528.3 399.8 521.8 393.4 513.9 393.4C505.9 393.4 499.5 399.9 499.5 407.8C499.5 415.7 506 422.2 513.9 422.2C521.8 422.2 528.3 415.7 528.3 407.8Z" fill="white"/>
<path d="M397.111 483C419.019 483 437.954 498.274 442.559 519.659L494.652 761.518C496.701 771.028 489.441 780 479.699 780H392.607C388.903 780 385.324 778.657 382.536 776.222C379.748 773.786 377.94 770.423 377.448 766.757L346.419 535.582C342.685 507.747 364.368 483 392.497 483H397.111Z" fill="#4680E1"/>
</g>
</svg>
