<svg width="17" height="18" viewBox="0 0 17 18" fill="none" xmlns="http://www.w3.org/2000/svg">
<path fill-rule="evenodd" clip-rule="evenodd" d="M14.066 0.837679C15.4088 0.662067 16.5186 1.77194 16.343 3.11468C16.1083 4.90964 15.4604 8.00221 13.6007 10.0074C13.0371 10.6151 12.3624 11.1775 11.6665 11.6797L11.861 13.0411C11.9282 13.5114 11.7701 13.9858 11.4342 14.3216L9.01884 16.737C8.13951 17.6163 6.63371 17.1144 6.45785 15.8833L6.14892 13.7208C5.95864 13.6181 5.78183 13.4872 5.62534 13.3307L3.84997 11.5554C3.69348 11.3989 3.56255 11.2221 3.45986 11.0318L1.29734 10.7229C0.0662883 10.547 -0.435647 9.04119 0.443675 8.16187L2.85904 5.7465C3.19491 5.41063 3.66932 5.25249 4.13954 5.31967L5.501 5.51416C6.0032 4.81834 6.56557 4.14364 7.17334 3.57995C9.17849 1.72025 12.2711 1.07244 14.066 0.837679ZM2.57785 11.3823C2.87074 11.6752 2.87074 12.1501 2.57785 12.443L1.50435 13.5165C1.21146 13.8094 0.736585 13.8094 0.443691 13.5165C0.150798 13.2236 0.150797 12.7487 0.443691 12.4558L1.51719 11.3823C1.81008 11.0895 2.28496 11.0895 2.57785 11.3823ZM4.1881 12.9926C4.48099 13.2855 4.48099 13.7604 4.1881 14.0533L2.0411 16.2002C1.74821 16.4931 1.27333 16.4931 0.98044 16.2002C0.687546 15.9074 0.687547 15.4325 0.98044 15.1396L3.12743 12.9926C3.42033 12.6997 3.8952 12.6997 4.1881 12.9926ZM5.79834 14.6028C6.09123 14.8957 6.09123 15.3706 5.79834 15.6635L4.72484 16.737C4.43195 17.0299 3.95708 17.0299 3.66418 16.737C3.37129 16.4441 3.37129 15.9692 3.66418 15.6763L4.73768 14.6028C5.03057 14.3099 5.50545 14.3099 5.79834 14.6028ZM9.56183 7.61829C8.96895 7.02541 8.96895 6.06417 9.56183 5.47129C10.1547 4.87842 11.1159 4.87842 11.7088 5.47129C12.3017 6.06417 12.3017 7.02541 11.7088 7.61829C11.1159 8.21117 10.1547 8.21116 9.56183 7.61829Z" fill="white"/>
</svg>
