<svg width="16" height="15" viewBox="0 0 16 15" fill="none" xmlns="http://www.w3.org/2000/svg">
<path d="M14.3 5.29495V5.19995C14.3 2.99081 12.5091 1.19995 10.3 1.19995H10.205M14.3 9.70495V9.79995C14.3 12.0091 12.5091 13.8 10.3 13.8H10.205M5.79495 13.8H5.69995C3.49081 13.8 1.69995 12.0091 1.69995 9.79995V9.70495M1.69995 5.29495V5.19995C1.69995 2.99081 3.49081 1.19995 5.69995 1.19995H5.79495" stroke="white" stroke-linecap="round"/>
<path d="M15 7.5L1 7.5" stroke="white" stroke-linecap="round" stroke-linejoin="round"/>
<path fill-rule="evenodd" clip-rule="evenodd" d="M3.79932 5.39907C3.79932 4.23927 4.73952 3.29907 5.89932 3.29907H10.0993C11.2591 3.29907 12.1993 4.23927 12.1993 5.39907V6.04907L3.79932 6.04907V5.39907ZM3.79932 8.94907L12.1993 8.94907V9.59907C12.1993 10.7589 11.2591 11.6991 10.0993 11.6991H5.89932C4.73952 11.6991 3.79932 10.7589 3.79932 9.59907V8.94907Z" fill="white"/>
</svg>
