<svg width="25" height="28" viewBox="0 0 25 28" fill="none" xmlns="http://www.w3.org/2000/svg">
<path d="M1.17627 10.3636V17.6234C1.17627 20.2908 1.17627 20.2908 3.69267 21.9893L10.6128 25.9904C11.6571 26.5944 13.3557 26.5944 14.3874 25.9904L21.3075 21.9893C23.8239 20.2908 23.8239 20.2908 23.8239 17.636V10.3636C23.8239 7.70876 23.8239 7.70876 21.3075 6.01019L14.3874 2.0091C13.3557 1.40517 11.6571 1.40517 10.6128 2.0091L3.69267 6.01019C1.17627 7.70876 1.17627 7.70876 1.17627 10.3636Z" stroke="#00091F" stroke-width="1.8" stroke-linecap="round" stroke-linejoin="round"/>
<path d="M12.5002 17.7743C14.5848 17.7743 16.2748 16.0844 16.2748 13.9997C16.2748 11.915 14.5848 10.2251 12.5002 10.2251C10.4155 10.2251 8.72559 11.915 8.72559 13.9997C8.72559 16.0844 10.4155 17.7743 12.5002 17.7743Z" stroke="#00091F" stroke-width="1.8" stroke-linecap="round" stroke-linejoin="round"/>
</svg>
