<svg width="25" height="28" viewBox="0 0 25 28" fill="none" xmlns="http://www.w3.org/2000/svg">
<path d="M1.17627 10.3638V17.6236C1.17627 20.291 1.17627 20.291 3.69267 21.9896L10.6128 25.9907C11.6571 26.5946 13.3557 26.5946 14.3874 25.9907L21.3075 21.9896C23.8239 20.291 23.8239 20.291 23.8239 17.6362V10.3638C23.8239 7.709 23.8239 7.709 21.3075 6.01043L14.3874 2.00935C13.3557 1.40541 11.6571 1.40541 10.6128 2.00935L3.69267 6.01043C1.17627 7.709 1.17627 7.709 1.17627 10.3638Z" stroke="white" stroke-width="1.8" stroke-linecap="round" stroke-linejoin="round"/>
<path d="M12.5002 17.7746C14.5848 17.7746 16.2748 16.0846 16.2748 13.9999C16.2748 11.9153 14.5848 10.2253 12.5002 10.2253C10.4155 10.2253 8.72559 11.9153 8.72559 13.9999C8.72559 16.0846 10.4155 17.7746 12.5002 17.7746Z" stroke="white" stroke-width="1.8" stroke-linecap="round" stroke-linejoin="round"/>
</svg>
