<svg width="15" height="17" viewBox="0 0 15 17" fill="none" xmlns="http://www.w3.org/2000/svg">
<path d="M9.19807 0.960099C7.98739 0.279903 6.51261 0.279901 5.30193 0.960098L0.813162 3.48203C-0.271051 4.09117 -0.271057 5.65826 0.81316 6.26741L5.30193 8.78933C6.5126 9.46953 7.98739 9.46953 9.19807 8.78934L13.6868 6.26741C14.771 5.65826 14.7711 4.09118 13.6868 3.48203L9.19807 0.960099Z" fill="white"/>
<path d="M0.539226 10.9255C-0.261707 11.6245 -0.170399 12.9654 0.81316 13.518L5.30193 16.04C6.5126 16.7201 7.98739 16.7202 9.19807 16.04L13.6868 13.518C14.6704 12.9654 14.7617 11.6245 13.9608 10.9255L9.74441 13.2944C8.19444 14.1652 6.30555 14.1652 4.75559 13.2944L0.539226 10.9255Z" fill="white"/>
<path d="M0.418033 7.3252C-0.249343 8.04795 -0.117637 9.27692 0.81316 9.79987L5.30193 12.3218C6.5126 13.002 7.98739 13.002 9.19807 12.3218L13.6868 9.79987C14.6176 9.27693 14.7493 8.04795 14.082 7.3252L9.74441 9.76217C8.19444 10.633 6.30555 10.633 4.75559 9.76217L0.418033 7.3252Z" fill="white"/>
</svg>
