<svg width="25" height="28" viewBox="0 0 25 28" fill="none" xmlns="http://www.w3.org/2000/svg">
<path d="M23.9309 9.69698V18.303C23.9309 19.7122 23.1759 21.0208 21.9555 21.738L14.4818 26.0536C13.2613 26.7582 11.7515 26.7582 10.5184 26.0536L3.04471 21.738C1.82426 21.0334 1.06934 19.7248 1.06934 18.303V9.69698C1.06934 8.28779 1.82426 6.97921 3.04471 6.26204L10.5184 1.94641C11.7389 1.24182 13.2487 1.24182 14.4818 1.94641L21.9555 6.26204C23.1759 6.97921 23.9309 8.27521 23.9309 9.69698Z" stroke="#00091F" stroke-width="1.8" stroke-linecap="round" stroke-linejoin="round"/>
<path d="M12.5063 12.7416C14.1254 12.7416 15.4379 11.4291 15.4379 9.80997C15.4379 8.19089 14.1254 6.87842 12.5063 6.87842C10.8872 6.87842 9.57471 8.19089 9.57471 9.80997C9.57471 11.4291 10.8872 12.7416 12.5063 12.7416Z" stroke="#00091F" stroke-width="1.8" stroke-linecap="round" stroke-linejoin="round"/>
<path d="M17.5392 19.8629C17.5392 17.5981 15.2871 15.7612 12.5064 15.7612C9.72581 15.7612 7.47363 17.5981 7.47363 19.8629" stroke="#00091F" stroke-width="1.8" stroke-linecap="round" stroke-linejoin="round"/>
</svg>
