<svg width="296" height="191" viewBox="0 0 296 191" fill="none" xmlns="http://www.w3.org/2000/svg">
<path d="M296 161.275H0V34.7174C0 28.7337 4.84862 23.8851 10.8323 23.8851H285.164C291.147 23.8851 295.996 28.7337 295.996 34.7174L296 161.275Z" fill="#F7F7F7"/>
<path d="M285.168 190.383H10.8323C4.84862 190.383 0 185.534 0 179.551V161.275H296V179.547C296 185.534 291.147 190.383 285.168 190.383Z" fill="#3E5FFF"/>
<path d="M30.6996 185.526C25.9332 185.526 22.0552 181.648 22.0552 176.882C22.0552 172.115 25.9332 168.237 30.6996 168.237C35.466 168.237 39.344 172.115 39.344 176.882C39.344 181.648 35.466 185.526 30.6996 185.526ZM30.6996 170.178C27.0025 170.178 23.9963 173.185 23.9963 176.882C23.9963 180.579 27.0025 183.585 30.6996 183.585C34.3967 183.585 37.403 180.579 37.403 176.882C37.403 173.185 34.3967 170.178 30.6996 170.178Z" fill="white"/>
<path d="M41.5852 179.189V174.567C41.5852 173.789 42.4488 173.321 43.1027 173.744L46.6436 176.055C47.2357 176.442 47.2357 177.31 46.6436 177.696L43.1027 180.007C42.4488 180.435 41.5852 179.97 41.5852 179.189Z" fill="white"/>
<path d="M49.7488 180.172C49.0743 180.172 48.5273 179.625 48.5273 178.95V174.809C48.5273 174.135 49.0743 173.588 49.7488 173.588C50.4232 173.588 50.9702 174.135 50.9702 174.809V178.95C50.9743 179.625 50.4273 180.172 49.7488 180.172Z" fill="white"/>
<path d="M18.2059 174.571V179.193C18.2059 179.97 17.3422 180.439 16.6884 180.016L13.1475 177.704C12.5553 177.318 12.5553 176.45 13.1475 176.063L16.6884 173.752C17.3422 173.325 18.2059 173.789 18.2059 174.571Z" fill="white"/>
<path d="M10.0385 173.588C10.713 173.588 11.26 174.135 11.26 174.809V178.95C11.26 179.625 10.713 180.172 10.0385 180.172C9.3641 180.172 8.81714 179.625 8.81714 178.95V174.809C8.81714 174.135 9.3641 173.588 10.0385 173.588Z" fill="white"/>
<path d="M28.5818 180.172C27.9073 180.172 27.3604 179.625 27.3604 178.95V174.809C27.3604 174.135 27.9073 173.588 28.5818 173.588C29.2562 173.588 29.8032 174.135 29.8032 174.809V178.95C29.8073 179.625 29.2603 180.172 28.5818 180.172Z" fill="white"/>
<path d="M32.8176 180.172C32.1432 180.172 31.5962 179.625 31.5962 178.95V174.809C31.5962 174.135 32.1432 173.588 32.8176 173.588C33.492 173.588 34.039 174.135 34.039 174.809V178.95C34.039 179.625 33.492 180.172 32.8176 180.172Z" fill="white"/>
<path d="M282.215 176.882C282.215 177.573 281.935 178.194 281.483 178.646C281.031 179.098 280.41 179.374 279.719 179.374H154.946V174.385H279.719C281.096 174.385 282.215 175.5 282.215 176.882Z" fill="#2E53BB"/>
<path d="M154.946 174.385V179.374H64.6523C63.2746 179.374 62.156 178.259 62.156 176.882C62.156 176.191 62.4357 175.566 62.8839 175.117C63.3322 174.669 63.9614 174.39 64.6482 174.39H154.946V174.385Z" fill="white"/>
<path d="M154.946 182.339C157.96 182.339 160.403 179.896 160.403 176.882C160.403 173.868 157.96 171.424 154.946 171.424C151.932 171.424 149.489 173.868 149.489 176.882C149.489 179.896 151.932 182.339 154.946 182.339Z" fill="white"/>
<path d="M218.583 23.8605H77.4175L0 161.275H296L218.583 23.8605Z" fill="white"/>
<mask id="mask0_1_2902" style="mask-type:luminance" maskUnits="userSpaceOnUse" x="0" y="0" width="296" height="162">
<path d="M296 161.275H0V10.8323C0 4.84862 4.84862 0 10.8323 0H285.164C291.147 0 295.996 4.84862 295.996 10.8323L296 161.275Z" fill="white"/>
</mask>
<g mask="url(#mask0_1_2902)">
<mask id="mask1_1_2902" style="mask-type:luminance" maskUnits="userSpaceOnUse" x="-3" y="21" width="302" height="158">
<path d="M-2.05615 21.502H298.566V178.971H-2.05615V21.502Z" fill="white"/>
</mask>
<g mask="url(#mask1_1_2902)">
<path d="M29.4888 135.39L53.3765 122.114L84.2521 137.678L92.89 153.51L84.0368 160.332L53.9984 155.482C52.6336 155.262 51.2416 155.439 49.9777 155.999C45.3974 158.03 33.9782 163.111 30.2909 164.909L29.8213 148.945L29.4888 135.39Z" fill="#E47B4C"/>
<path d="M257.184 125.421L237.683 111.293L209.035 121.661L199.812 134.603L206.839 141.502L233.628 140.42C234.845 140.37 236.045 140.672 237.091 141.295C240.884 143.553 250.34 149.199 253.376 151.161L255.467 137.244L257.184 125.421Z" fill="#824F36"/>
<path d="M80.7531 156.531L98.1332 124.527L80.114 129.237C78.88 129.559 77.5678 129.2 76.6704 128.293L71.2099 122.78L57.0784 135.279L64.9795 150.254L80.7531 156.531Z" fill="#E47B4C"/>
<path d="M210.111 138.523L198.274 108.696L213.542 114.712C214.588 115.124 215.774 114.947 216.654 114.249L222.011 110L233.059 122.421L224.571 134.691L210.111 138.523Z" fill="#824F36"/>
<path d="M76.4849 146.258L81.5684 143.376L82.491 152.154C82.6576 153.741 80.4941 154.368 79.7869 152.937L76.4849 146.258Z" fill="#CC6942"/>
<path d="M214.927 129.984L210.783 126.928L209.052 134.51C208.74 135.881 210.566 136.657 211.336 135.48L214.927 129.984Z" fill="#663C2B"/>
<path d="M132.317 90.6985C134.067 89.2336 136.673 89.4651 138.138 91.2154C139.603 92.9657 139.371 95.5718 137.621 97.0367L71.9109 152.027C70.1606 153.492 67.5546 153.261 66.0896 151.51C64.625 149.76 64.8563 147.154 66.6066 145.689L132.317 90.6985Z" fill="black"/>
<path d="M171.929 75.5044C170.552 74.0389 168.247 73.9673 166.782 75.3444C165.316 76.7213 165.244 79.0257 166.622 80.4913L218.321 135.512C219.698 136.978 222.002 137.05 223.468 135.673C224.933 134.295 225.005 131.991 223.628 130.525L171.929 75.5044Z" fill="black"/>
<path d="M87.2635 106.914C86.0893 105.211 83.8287 104.652 81.9992 105.614L47.4658 125.487L47.7712 145.73L85.0592 119.341C89.0726 116.503 90.0534 110.965 87.2622 106.917L87.2635 106.914Z" fill="#E47B4C"/>
<path d="M209.638 94.4307C210.844 93.0644 212.88 92.8134 214.379 93.8476L242.5 114.866L240.103 132.543L210.258 105.534C207.046 102.629 206.77 97.6815 209.638 94.4339L209.638 94.4307Z" fill="#824F36"/>
<path d="M82.3943 143.404L120.695 111.138C123.491 109.055 127.392 109.315 129.885 111.755C131.895 113.722 131.871 116.965 129.833 118.902L91.2965 155.111C84.9739 156.323 82.3943 143.404 82.3943 143.404Z" fill="#E47B4C"/>
<path d="M82.6698 143.499L120.851 111.334C123.548 109.329 127.307 109.582 129.71 111.934L129.884 111.756L129.71 111.934C131.619 113.801 131.596 116.881 129.662 118.72C129.662 118.72 129.661 118.72 129.661 118.721L91.179 154.878C89.7271 155.132 88.4804 154.596 87.4075 153.609C86.3113 152.6 85.4127 151.133 84.701 149.606C83.9909 148.083 83.475 146.52 83.1365 145.335C82.9674 144.743 82.8429 144.247 82.7608 143.899C82.7202 143.727 82.6899 143.592 82.6698 143.499Z" stroke="black" stroke-opacity="0.3" stroke-width="0.5"/>
<path d="M210.057 126.866L179.945 94.6089C177.718 92.4918 174.279 92.3095 171.84 94.1817C169.875 95.6905 169.555 98.531 171.134 100.439L201.037 136.171C206.441 137.896 210.057 126.866 210.057 126.866Z" fill="#824F36"/>
<path d="M171.992 94.38C174.331 92.5843 177.629 92.7575 179.767 94.785L209.772 126.927C209.745 127.005 209.706 127.114 209.656 127.25C209.548 127.545 209.387 127.966 209.177 128.465C208.757 129.465 208.142 130.777 207.361 132.033C206.579 133.293 205.641 134.478 204.58 135.242C203.545 135.987 202.411 136.321 201.182 135.954L171.327 100.28C171.326 100.28 171.326 100.279 171.326 100.279C169.838 98.4802 170.14 95.8024 171.992 94.38Z" stroke="black" stroke-opacity="0.3" stroke-width="0.5"/>
<path d="M103.26 146.98L101.886 124.583C101.735 121.099 104.142 118.02 107.562 117.329C110.318 116.772 112.987 118.615 113.443 121.389L114.265 139.176C114.443 143.031 111.529 146.331 107.682 146.633L103.26 146.98Z" fill="#E47B4C"/>
<path d="M107.612 117.574L107.612 117.574C110.224 117.046 112.754 118.789 113.194 121.415L114.015 139.187C114.187 142.907 111.375 146.092 107.662 146.384L103.494 146.711L102.136 124.57C101.991 121.21 104.313 118.241 107.612 117.574Z" stroke="black" stroke-opacity="0.3" stroke-width="0.5"/>
<path d="M191.427 127.798L194.985 108.349C195.484 105.317 193.702 102.37 190.783 101.406C188.43 100.628 185.901 101.96 185.21 104.338L182.62 119.812C182.059 123.166 184.261 126.36 187.594 127.029L191.427 127.798Z" fill="#824F36"/>
<path d="M194.738 108.306L191.227 127.503L187.644 126.784L187.644 126.784C184.442 126.142 182.328 123.074 182.867 119.854L185.454 104.394C186.112 102.161 188.491 100.911 190.705 101.643L190.783 101.406L190.705 101.643C193.506 102.569 195.217 105.397 194.738 108.306Z" stroke="black" stroke-opacity="0.3" stroke-width="0.5"/>
<path d="M93.988 155.123L91.2859 131.479C91.1338 127.995 93.5417 124.916 96.9614 124.225C99.7173 123.668 102.387 125.511 102.843 128.285L104.901 146.754C105.341 150.703 102.477 154.253 98.524 154.658L93.988 155.123Z" fill="#E47B4C"/>
<path d="M97.011 124.47L97.011 124.47C99.6259 123.941 102.159 125.689 102.595 128.319L104.653 146.782C105.077 150.593 102.313 154.019 98.4985 154.409L98.524 154.658L98.4985 154.409L94.2083 154.849L91.5353 131.459C91.3929 128.102 93.7147 125.136 97.011 124.47Z" stroke="black" stroke-opacity="0.3" stroke-width="0.5"/>
<path d="M198.681 135.897L203.533 115.497C204.032 112.466 202.25 109.519 199.331 108.554C196.978 107.777 194.449 109.109 193.758 111.487L190.015 127.428C189.214 130.837 191.347 134.244 194.762 135.014L198.681 135.897Z" fill="#824F36"/>
<path d="M199.253 108.792L199.253 108.792C202.052 109.717 203.762 112.541 203.287 115.448L198.495 135.599L194.817 134.77C191.537 134.03 189.49 130.758 190.258 127.485L194 111.551C194.654 109.312 197.037 108.059 199.253 108.792Z" stroke="black" stroke-opacity="0.3" stroke-width="0.5"/>
<path d="M83.9929 160.337L81.2158 139.897C81.064 136.413 83.4716 133.334 86.8913 132.643C89.6472 132.086 92.3165 133.929 92.7727 136.703L95.2321 151.891C95.9199 156.137 92.7288 160.025 88.4298 160.178L83.9929 160.337Z" fill="#E47B4C"/>
<path d="M88.4208 159.929L88.4208 159.929L84.2102 160.079L81.4651 139.875C81.3244 136.519 83.6455 133.554 86.9409 132.888C89.5579 132.359 92.0928 134.109 92.526 136.743L94.9853 151.931C95.649 156.029 92.5696 159.781 88.4208 159.929Z" stroke="black" stroke-opacity="0.3" stroke-width="0.5"/>
<path d="M206.877 141.511L211.457 123.922C211.957 120.89 210.174 117.943 207.255 116.978C204.903 116.201 202.374 117.533 201.683 119.911L197.933 132.939C196.885 136.582 199.268 140.319 203.013 140.906L206.877 141.511Z" fill="#824F36"/>
<path d="M207.177 117.216L207.177 117.216C209.975 118.141 211.686 120.964 211.212 123.87L206.692 141.229L203.051 140.659C199.455 140.095 197.167 136.507 198.174 133.009L201.923 119.981C201.923 119.981 201.923 119.981 201.923 119.981C202.575 117.739 204.959 116.483 207.177 117.216Z" stroke="black" stroke-opacity="0.3" stroke-width="0.5"/>
<path d="M37.1388 132.072C36.5028 130.052 34.2601 129.025 32.3148 129.862L-27.8228 155.762L-9.72322 197.788L41.9064 164.834C44.6311 163.095 45.8501 159.744 44.8792 156.661L37.1388 132.072Z" fill="#95D1F9"/>
<path d="M32.5126 130.321C32.5126 130.321 32.5126 130.321 32.5126 130.321C34.1858 129.601 36.1149 130.485 36.6618 132.222L44.4023 156.811L44.8792 156.661L44.4023 156.811C45.3053 159.679 44.1716 162.795 41.6374 164.413L-9.49658 197.05L-27.1658 156.024L32.5126 130.321Z" stroke="black" stroke-opacity="0.21"/>
<path d="M250.84 121.714C251.608 120.014 253.679 119.351 255.292 120.289L305.177 149.274L298.489 204.886L243.222 149.874C241.021 148.066 240.307 145.006 241.481 142.411L250.84 121.714Z" fill="#FF7059"/>
</g>
<path d="M133.237 27.3931C135.141 30.1644 137.595 32.089 139.223 33.0228C139.392 33.1199 139.439 33.3461 139.319 33.5008C132.946 41.7511 124.269 40.6948 120.046 38.6417C119.798 38.5212 119.834 38.1713 120.097 38.0863L123.334 37.0395C123.693 36.9235 123.579 36.301 123.202 36.2945C116.845 36.1862 113.179 33.8037 111.806 32.2152C111.655 32.04 111.763 31.7804 111.991 31.7404L114.75 31.257C115.133 31.1902 115.098 30.3635 114.717 30.2893C109.738 29.3193 106.314 26.5175 104.891 24.5057C104.749 24.305 104.898 24.0397 105.145 24.0394L109.875 24.0364C110.263 24.0363 110.364 23.241 110.002 23.103C105.606 21.4323 103.906 18.5969 103.53 16.8982C103.485 16.6951 103.663 16.5228 103.869 16.5529L123.073 19.351C127.475 19.9925 130.719 23.7259 133.237 27.3931Z" fill="white"/>
<path d="M139.098 33.2397L139.098 33.2397C137.443 32.2898 134.958 30.3409 133.031 27.5346L133.237 27.3931L133.031 27.5346C130.512 23.8667 127.322 20.2229 123.037 19.5984L103.833 16.8003L103.833 16.8003C103.809 16.7969 103.792 16.8051 103.782 16.8147C103.778 16.8195 103.775 16.8241 103.774 16.8276C103.773 16.8305 103.772 16.8355 103.774 16.8441L103.774 16.8442C104.13 18.4526 105.766 21.2255 110.09 22.8693L110.091 22.8694C110.266 22.9361 110.37 23.078 110.423 23.2188C110.476 23.3581 110.486 23.5131 110.468 23.654C110.449 23.7944 110.399 23.9422 110.308 24.0613C110.215 24.184 110.068 24.2863 109.875 24.2864C109.875 24.2864 109.875 24.2864 109.875 24.2864L105.145 24.2894L139.098 33.2397ZM139.098 33.2397C139.138 33.2622 139.147 33.3147 139.121 33.348C132.842 41.4771 124.307 40.435 120.155 38.4169L120.155 38.4168M139.098 33.2397L120.155 38.4168M120.155 38.4168C120.14 38.4093 120.135 38.4018 120.133 38.3979C120.13 38.3927 120.128 38.3848 120.129 38.3747C120.13 38.3645 120.134 38.3544 120.14 38.3461C120.146 38.3386 120.156 38.33 120.174 38.3241L123.411 37.2774C123.754 37.1664 123.833 36.8228 123.79 36.5818C123.747 36.341 123.557 36.0505 123.207 36.0445L123.207 36.0445L120.155 38.4168ZM112.034 31.9867C112.034 31.9867 112.034 31.9867 112.034 31.9867L112.034 31.9867ZM112.034 31.9867L114.793 31.5033L112.034 31.9867ZM115.183 31.201C115.113 31.339 114.987 31.4695 114.794 31.5033L115.183 31.201ZM115.183 31.201C115.251 31.0664 115.275 30.9101 115.27 30.7665M115.183 31.201L115.27 30.7665M115.27 30.7665C115.264 30.6222 115.228 30.4688 115.154 30.3383M115.27 30.7665L115.154 30.3383M115.154 30.3383C115.079 30.2069 114.952 30.0804 114.765 30.044M115.154 30.3383L114.765 30.044M114.765 30.044C109.85 29.0863 106.481 26.3209 105.095 24.3613C105.087 24.3504 105.086 24.3429 105.086 24.3383C105.086 24.3328 105.087 24.3258 105.091 24.3181C105.099 24.3031 105.116 24.2895 105.145 24.2894L114.765 30.044ZM111.806 32.2152L111.995 32.0518C111.995 32.0518 111.995 32.0517 111.995 32.0517L111.806 32.2152Z" stroke="black" stroke-opacity="0.3" stroke-width="0.5"/>
<circle cx="148.942" cy="25.4326" r="8.4776" fill="white"/>
<path d="M167.689 25.8847C165.97 28.774 163.645 30.8546 162.082 31.8917C161.919 31.9996 161.888 32.2286 162.017 32.3752C168.913 40.1937 177.503 38.5751 181.583 36.2519C181.823 36.115 181.764 35.7685 181.496 35.7007L178.198 34.8667C177.832 34.7743 177.905 34.1457 178.281 34.1146C184.619 33.5932 188.121 30.9772 189.388 29.303C189.528 29.1182 189.403 28.8663 189.173 28.8412L186.388 28.5384C186.002 28.4964 185.983 27.6693 186.358 27.5704C191.263 26.2787 194.498 23.26 195.787 21.16C195.916 20.9503 195.749 20.6954 195.504 20.7112L190.783 21.0159C190.396 21.0408 190.243 20.2538 190.596 20.0927C194.874 18.1396 196.386 15.1996 196.65 13.4801C196.682 13.2745 196.493 13.1141 196.29 13.1575L177.309 17.1987C172.957 18.1251 169.964 22.0616 167.689 25.8847Z" fill="white"/>
<path d="M162.22 32.1C163.81 31.045 166.163 28.9383 167.903 26.0125C170.179 22.1888 173.125 18.3451 177.361 17.4432L196.342 13.402L196.342 13.402C196.365 13.3971 196.383 13.4041 196.393 13.4132C196.398 13.4176 196.401 13.4221 196.402 13.4256C196.403 13.4285 196.405 13.4334 196.403 13.442L196.403 13.4421C196.153 15.0701 194.701 17.9436 190.492 19.8653L190.492 19.8653C190.321 19.9433 190.227 20.0917 190.183 20.2356C190.14 20.378 190.139 20.5333 190.167 20.6728C190.195 20.8117 190.254 20.9558 190.352 21.0688C190.453 21.1852 190.606 21.2778 190.799 21.2653L190.799 21.2653L195.52 20.9607C195.548 20.9589 195.566 20.9713 195.575 20.9856C195.58 20.993 195.582 20.9999 195.582 21.0054C195.582 21.01 195.581 21.0177 195.574 21.0292C194.319 23.0747 191.137 26.0534 186.294 27.3287C186.11 27.3772 185.992 27.5117 185.925 27.6477C185.859 27.7828 185.833 27.9382 185.837 28.0825C185.841 28.2262 185.875 28.3806 185.952 28.5105C186.031 28.6436 186.165 28.7657 186.361 28.7869C186.361 28.7869 186.361 28.7869 186.361 28.7869L189.146 29.0897C189.173 29.0927 189.188 29.1073 189.194 29.1198C189.197 29.1261 189.197 29.1313 189.197 29.1347C189.197 29.1374 189.196 29.1431 189.189 29.1522C187.972 30.7606 184.539 33.3489 178.261 33.8655L178.261 33.8655L162.204 32.2098M162.22 32.1L162.082 31.8917L162.22 32.1C162.22 32.1 162.22 32.1 162.22 32.1ZM162.22 32.1C162.183 32.1249 162.177 32.1781 162.204 32.2098M162.204 32.2098C168.999 39.9135 177.449 38.3183 181.46 36.0347M162.204 32.2098L181.46 36.0347M181.46 36.0347C181.475 36.0261 181.479 36.0182 181.481 36.014C181.484 36.0085 181.485 36.0005 181.483 35.9905C181.482 35.9803 181.477 35.9705 181.47 35.9627C181.464 35.9557 181.454 35.9478 181.435 35.9431L181.46 36.0347ZM178.137 35.1091L181.435 35.9431L178.137 35.1091L178.137 35.1091Z" stroke="black" stroke-opacity="0.3" stroke-width="0.5"/>
<path d="M146.87 6.3276C157.596 4.98802 167.085 12.9735 167.787 23.6319C167.904 25.4093 167.772 27.1458 167.41 28.8064C167.403 28.8311 167.4 28.8677 167.385 28.9171C167.377 28.9417 167.373 28.9723 167.367 29.009C167.35 29.0827 167.331 29.1596 167.315 29.2303C167.318 29.2331 167.315 29.2333 167.316 29.2393C166.778 31.656 163.794 43.0809 153.011 57.3346C152.207 58.4014 150.636 58.5048 149.695 57.5533C137.135 44.8387 132.676 33.9044 131.826 31.5791C131.826 31.576 131.823 31.5762 131.825 31.57C131.793 31.4875 131.767 31.4197 131.745 31.3575C131.734 31.3222 131.726 31.2923 131.715 31.2687C131.697 31.2217 131.685 31.1861 131.675 31.1624C131.128 29.6343 130.774 28.0149 130.641 26.3231C129.892 16.7932 137.409 7.508 146.864 6.328L146.87 6.3276ZM149.71 32.4816C153.912 32.2045 157.09 28.5671 156.812 24.3525C156.534 20.1379 152.907 16.9581 148.705 17.2351C144.503 17.5121 141.325 21.1498 141.603 25.3552C141.88 29.5608 145.508 32.7587 149.71 32.4816Z" fill="#3E5FFF"/>
<path d="M167.146 28.8445C167.133 28.8852 167.125 28.9391 167.121 28.9605C167.112 29.0017 167.103 29.0412 167.093 29.0816C167.086 29.1116 167.079 29.1421 167.071 29.1741L167.038 29.32L167.04 29.3224C166.431 31.9839 163.376 43.2193 152.812 57.1838L152.812 57.184C152.099 58.1288 150.707 58.221 149.873 57.3776C137.494 44.8467 133.01 34.0558 132.093 31.5804L132.096 31.5738L132.058 31.4782C132.027 31.3995 132.003 31.3356 131.982 31.2778C131.981 31.2751 131.98 31.272 131.979 31.2684C131.972 31.2455 131.96 31.2062 131.946 31.1741C131.94 31.1583 131.935 31.1442 131.93 31.1293L131.927 31.1215L131.927 31.1209C131.922 31.1075 131.915 31.0888 131.907 31.0701C131.369 29.565 131.021 27.97 130.89 26.3036L130.89 26.3035C130.152 16.9079 137.57 7.74409 146.888 6.57698L146.894 6.57658L146.901 6.57568C157.483 5.25412 166.844 13.1317 167.538 23.6483C167.653 25.4003 167.523 27.111 167.168 28.7466C167.165 28.7583 167.162 28.7688 167.161 28.7765L167.155 28.8038C167.152 28.8188 167.149 28.8312 167.146 28.8445ZM167.146 28.8445C167.146 28.8442 167.146 28.8438 167.146 28.8435L167.385 28.9171L167.145 28.845C167.145 28.8448 167.145 28.8447 167.146 28.8445ZM167.316 29.2393L167.308 29.2378L167.071 29.1851C167.071 29.1881 167.07 29.1912 167.069 29.1943M167.316 29.2393L167.069 29.1981M167.316 29.2393L167.307 29.2399L167.067 29.2542M167.316 29.2393L167.067 29.2542M167.069 29.1943C167.071 29.1861 167.072 29.1794 167.073 29.1746C167.074 29.172 167.075 29.17 167.075 29.1685L167.075 29.1684C167.075 29.1676 167.076 29.1647 167.077 29.1627C167.077 29.1603 167.078 29.1593 167.076 29.1646C167.075 29.1669 167.074 29.1703 167.073 29.1746C167.072 29.178 167.072 29.182 167.071 29.1865C167.07 29.1903 167.069 29.1942 167.069 29.1981M167.069 29.1943C167.069 29.1956 167.069 29.1968 167.069 29.1981M167.069 29.1943C167.067 29.2096 167.065 29.2302 167.067 29.2542M167.069 29.1981C167.066 29.2161 167.065 29.2349 167.066 29.2543L167.067 29.2542M132.042 31.4531C132.043 31.4542 132.044 31.4562 132.045 31.4588L132.042 31.4531ZM157.062 24.3361L157.062 24.3361C156.775 19.984 153.029 16.6995 148.689 16.9857C144.348 17.2718 141.067 21.029 141.353 25.3717L141.353 25.3717C141.64 29.7141 145.386 33.0174 149.727 32.7311C154.067 32.4449 157.349 28.6878 157.062 24.3361Z" stroke="black" stroke-opacity="0.3" stroke-width="0.5"/>
</g>
</svg>
