<svg width="193" height="192" viewBox="0 0 193 192" fill="none" xmlns="http://www.w3.org/2000/svg">
<path d="M185.497 96.0691C185.488 107.819 183.163 119.452 178.657 130.303C174.151 141.154 167.551 151.011 159.234 159.311C150.917 167.61 141.046 174.19 130.186 178.673C119.325 183.157 107.688 185.457 95.938 185.441C46.6897 185.428 6.6897 145.31 6.6897 96.0691C6.72418 46.5794 46.8276 6.45526 96.3449 6.68974C120.011 6.74818 142.687 16.1909 159.401 32.9467C176.114 49.7024 185.498 72.403 185.497 96.0691V96.0691Z" fill="#0CA1FB"/>
<path d="M118.414 40.4C114.793 38.9448 112.731 35.9241 112.807 32.2414C112.859 30.6769 113.378 29.1639 114.297 27.8965C115.393 26.3493 116.803 25.05 118.435 24.0827C120.772 22.6552 125.028 22.7379 127.304 25.5862C130.062 29.0345 131.441 33.0345 132.131 37.3103C132.364 38.8075 132.229 40.339 131.738 41.7724C131.342 43.1175 130.577 44.3247 129.53 45.2572C128.483 46.1897 127.196 46.8102 125.814 47.0483C122.772 47.6689 119.214 46.0552 118.655 42.1655C118.545 41.5862 118.476 40.9793 118.414 40.4Z" fill="#48D9B9"/>
<path d="M100.938 6.82767C99.4207 6.74492 97.8966 6.68974 96.3449 6.68974C46.8276 6.45526 6.72418 46.5794 6.6897 96.069C6.6882 111.703 10.7876 127.063 18.5786 140.617C26.3696 154.171 37.5797 165.444 51.0897 173.31C53.2485 166.952 54.1389 160.232 53.7104 153.531C53.9791 153.285 54.3153 153.124 54.6759 153.069C57.9009 152.141 60.92 150.608 63.5725 148.552C66.269 146.483 68.4828 144.007 69.6483 140.731C70.3411 138.915 70.5085 136.941 70.1311 135.035C69.8447 133.918 69.4061 132.846 68.8276 131.848C69.1173 130.772 69.4138 129.779 69.6552 128.779C69.8924 127.769 70.0173 126.735 70.0276 125.697C70.0373 121.019 68.2413 116.517 65.0138 113.131C61.8435 109.739 57.9058 107.156 53.5311 105.6C47.1859 103.241 40.3808 102.381 33.6483 103.09C32.0107 103.253 30.3573 103.136 28.7587 102.745C27.268 102.437 25.8945 101.714 24.7965 100.66C23.6984 99.606 22.9203 98.2632 22.5518 96.7863C21.9104 94.5725 22.338 92.3863 23.0897 90.2621C24.471 86.5371 26.7638 83.2175 29.7587 80.607C32.3794 78.2277 34.9173 75.7794 37.4276 73.2828C40.669 70.069 43.9311 66.938 46.738 63.3587C49.9348 59.3718 52.2459 54.7497 53.5173 49.8001C53.9044 48.2423 53.9934 46.6254 53.7793 45.0346C53.3593 42.4281 52.725 39.8608 51.8828 37.3587C51.738 36.8828 51.6207 36.4001 51.4897 35.938C51.6187 35.8914 51.7562 35.8729 51.8929 35.8836C52.0297 35.8943 52.1626 35.934 52.2828 36.0001C54.7776 36.8917 57.4454 37.1915 60.0759 36.8759C63.2134 36.4859 66.2762 35.6353 69.1656 34.3518C74.9671 31.8274 80.3984 28.5259 85.3104 24.538C90.6506 20.4011 95.3154 15.4593 99.138 9.88974C99.8173 8.91778 100.419 7.89394 100.938 6.82767V6.82767Z" fill="#48D9B9"/>
<path d="M100.938 6.82767L103.636 8.14036C103.05 9.34422 102.37 10.5003 101.604 11.5981C97.6135 17.4102 92.7459 22.5683 87.1746 26.8887C82.0615 31.0359 76.4094 34.4704 70.3729 37.0981C67.2172 38.4988 63.8723 39.427 60.446 39.853L60.4332 39.8546C58.8752 40.0415 57.3061 40.0447 55.7575 39.8679C56.1585 41.4141 56.4868 42.9789 56.7411 44.5573L56.7474 44.5959L56.7526 44.6346C57.017 46.6005 56.9072 48.5986 56.4287 50.5237L56.4259 50.5351L56.423 50.5465C55.0469 55.9035 52.5468 60.9063 49.0887 65.2227C46.4487 68.5869 43.4294 71.5696 40.5438 74.4202C40.2076 74.7523 39.8733 75.0827 39.5415 75.4116C39.5409 75.4121 39.5404 75.4127 39.5399 75.4132L37.4276 73.2828C34.9173 75.7794 32.3794 78.2277 29.7587 80.607C26.7638 83.2175 24.471 86.537 23.0897 90.2621L100.938 6.82767ZM100.938 6.82767L101.101 3.83213C99.5506 3.74754 97.9716 3.68991 96.352 3.68974C45.1666 3.4512 3.72533 44.9279 3.6897 96.067V96.0688C3.68815 112.227 7.92515 128.103 15.9777 142.112C24.0303 156.121 35.6166 167.772 49.5801 175.903L52.7508 177.749L53.9304 174.275C55.9784 168.243 56.9479 161.904 56.8004 155.547C59.9028 154.497 62.8116 152.936 65.4055 150.927C68.3758 148.646 71.0398 145.746 72.4635 141.768C73.3469 139.435 73.5586 136.9 73.074 134.452L73.0578 134.37L73.0371 134.29C72.7914 133.331 72.4553 132.4 72.0338 131.507C72.2196 130.84 72.4122 130.143 72.5715 129.483L72.5737 129.474L72.5759 129.465C72.8635 128.239 73.0149 126.985 73.0275 125.727L73.0276 125.715L73.0276 125.703C73.0389 120.257 70.9499 115.017 67.1956 111.072C63.7044 107.34 59.3708 104.497 54.5569 102.781C47.7864 100.267 40.5265 99.351 33.3436 100.105C32.0467 100.233 30.7374 100.14 29.4714 99.8308L29.4188 99.8179L29.3656 99.807C28.4282 99.6133 27.5646 99.1589 26.8741 98.496C26.1836 97.8331 25.6943 96.9887 25.4625 96.0599L25.4489 96.0054L25.4333 95.9515C25.0508 94.6314 25.2456 93.1694 25.9103 91.2843L100.938 6.82767ZM6.68335 96.069L6.6897 96.0691L6.68335 96.069Z" stroke="url(#paint0_linear_83_623)" stroke-opacity="0.1" stroke-width="6"/>
<path d="M185.041 105.11C184.89 105.228 184.779 105.373 184.655 105.483C183.668 106.358 182.486 106.985 181.207 107.31C179.416 107.755 177.546 107.776 175.745 107.373C172.285 106.565 169.093 104.873 166.483 102.462C164.699 100.776 163.156 98.8523 161.897 96.7449C155.952 87.7105 148.552 80.1932 139.138 74.676C138.419 74.2247 137.678 73.8104 136.917 73.4346C133.697 71.938 130.366 71.076 126.779 71.8829C122.041 72.9449 118.538 75.476 116.8 80.1587C116.077 82.052 115.492 83.995 115.048 85.9725C114.36 89.3847 113.917 92.8418 113.724 96.3174C113.551 99.0281 112.367 101.575 110.407 103.455C107.276 106.614 103.952 109.504 99.9311 111.538C96.7817 113.157 93.858 115.181 91.2345 117.559C89.4068 119.146 87.9876 121.149 87.0966 123.4C86.5338 124.954 86.1903 126.579 86.0759 128.228C85.469 134.538 87.4552 139.904 92.3311 143.959C95.9239 146.817 100.205 148.682 104.745 149.366C105.069 149.387 105.386 149.473 105.677 149.617C105.968 149.762 106.228 149.962 106.441 150.207C107.012 150.846 107.719 151.348 108.51 151.676C110.53 152.647 112.822 152.89 115 152.366C119.558 151.301 123.843 149.295 127.579 146.476C128.793 145.579 130.007 144.683 131.297 143.904C133.303 142.645 135.584 141.888 137.945 141.697C138.803 141.608 139.67 141.698 140.492 141.96C141.314 142.223 142.073 142.653 142.72 143.223C143.368 143.793 143.891 144.491 144.256 145.272C144.621 146.054 144.82 146.903 144.841 147.766C144.916 149.712 144.339 151.627 143.2 153.207C141.638 155.452 139.872 157.549 137.924 159.469C135.166 162.379 132.49 165.359 130 168.504C127.504 171.61 125.938 175.359 125.483 179.317C125.363 179.705 125.314 180.112 125.338 180.517C141.436 174.937 155.607 164.876 166.183 151.518C176.76 138.16 183.302 122.06 185.041 105.11Z" fill="#48D9B9"/>
<path d="M188.026 105.417L188.739 98.4616L183.207 102.737C182.947 102.938 182.755 103.137 182.674 103.222C182.644 103.253 182.63 103.267 182.623 103.275C182.004 103.812 181.269 104.198 180.475 104.401C179.143 104.73 177.753 104.746 176.414 104.448C173.47 103.758 170.754 102.319 168.531 100.27C166.952 98.7758 165.587 97.0721 164.472 95.2064L164.439 95.1504L164.403 95.0959C158.251 85.7469 150.542 77.8914 140.694 72.1105C139.901 71.6147 139.084 71.1589 138.246 70.7448L138.214 70.729L138.181 70.714C134.659 69.077 130.615 67.9456 126.123 68.9555C120.593 70.1951 116.15 73.3015 113.993 79.1014C113.22 81.1254 112.595 83.2024 112.121 85.3162L112.114 85.3476L112.108 85.3792C111.392 88.9277 110.931 92.523 110.73 96.1373C110.602 98.0942 109.746 99.9325 108.33 101.29L108.303 101.316L108.276 101.343C105.234 104.412 102.176 107.04 98.5766 108.861L98.5682 108.865L98.5598 108.87C95.1866 110.603 92.0544 112.77 89.2427 115.315C87.0638 117.214 85.3713 119.608 84.3072 122.296L84.2909 122.337L84.2759 122.379C83.6228 124.182 83.2224 126.067 83.0859 127.98C82.4042 135.179 84.7221 141.532 90.4128 146.265L90.4378 146.286L90.4633 146.306C94.4674 149.492 99.2382 151.57 104.298 152.332L104.323 152.336C105.153 153.228 106.161 153.936 107.282 154.414C109.904 155.654 112.871 155.962 115.692 155.285C120.649 154.126 125.309 151.944 129.374 148.88C130.602 147.973 131.701 147.164 132.848 146.471L132.87 146.458L132.891 146.445C134.489 145.442 136.306 144.839 138.187 144.687L138.22 144.684L138.253 144.681C138.7 144.635 139.151 144.681 139.579 144.818C140.007 144.955 140.402 145.178 140.739 145.475C141.076 145.772 141.348 146.135 141.538 146.542C141.728 146.948 141.831 147.39 141.842 147.839L141.843 147.86L141.844 147.881C141.893 149.159 141.514 150.416 140.766 151.453L140.752 151.473L140.737 151.494C139.281 153.587 137.634 155.542 135.818 157.333L135.782 157.368L135.747 157.405C132.956 160.35 130.217 163.397 127.654 166.634C124.859 170.116 123.086 174.305 122.532 178.733C122.368 179.373 122.304 180.035 122.343 180.696L122.58 184.649L126.321 183.352C142.959 177.584 157.604 167.186 168.535 153.38C179.466 139.574 186.228 122.934 188.026 105.417Z" stroke="url(#paint1_linear_83_623)" stroke-opacity="0.1" stroke-width="6"/>
<path d="M169.138 70.9794C172.586 77.4001 177.883 81.6553 184.724 84.4277C183.039 71.6894 178.635 59.4623 171.811 48.5749C164.986 37.6874 155.902 28.3939 145.172 21.3242C145.386 21.6897 145.586 22.0139 145.779 22.3932C147.488 25.2158 148.728 28.2973 149.448 31.5173C150.138 35.138 149.531 38.3518 146.91 41.069C146.043 42.0008 145.256 43.0044 144.559 44.0691C143.826 45.1221 143.328 46.321 143.101 47.5838C142.874 48.8467 142.922 50.1437 143.241 51.3863C144.012 55.0075 145.805 58.3319 148.407 60.9656C153.505 66.0766 160.069 69.473 167.186 70.6828C167.847 70.6963 168.503 70.796 169.138 70.9794V70.9794Z" fill="#48D9B9"/>
<path d="M183.597 87.208L188.374 89.1439L187.698 84.0341C185.956 70.8696 181.405 58.2334 174.352 46.9816C167.3 35.7298 157.912 26.1254 146.823 18.8191L142.583 22.8389C142.646 22.9473 142.702 23.0411 142.751 23.1252C142.902 23.3809 143 23.5463 143.106 23.7542L143.156 23.8526L143.213 23.947C144.745 26.4777 145.859 29.2392 146.51 32.1248C147.046 34.9876 146.543 37.1287 144.751 38.9864L144.733 39.0056L144.714 39.0251C143.741 40.0712 142.857 41.197 142.072 42.391C141.105 43.7896 140.45 45.379 140.148 47.0523C139.849 48.7185 139.907 50.4291 140.32 52.0704C141.217 56.2295 143.282 60.0469 146.273 63.0741L146.278 63.0792L146.283 63.0843C151.822 68.6366 158.952 72.3261 166.683 73.6404L166.903 73.6777L167.125 73.6822C167.158 73.6829 167.191 73.6839 167.224 73.6853C171.058 80.1061 176.676 84.4031 183.597 87.208Z" stroke="url(#paint2_linear_83_623)" stroke-opacity="0.1" stroke-width="6"/>
<path d="M95.9381 185.441C102.127 185.45 108.3 184.817 114.359 183.552C113.14 182.514 111.829 181.591 110.442 180.793C108.744 179.754 106.804 179.177 104.814 179.117C102.999 179.154 101.204 178.734 99.5932 177.897C96.5381 176.31 93.145 175.828 89.7312 175.738C82.5422 175.618 75.435 177.276 69.0415 180.566C68.7644 180.668 68.5093 180.823 68.2898 181.021C77.2143 183.946 86.5463 185.439 95.9381 185.441V185.441Z" fill="#48D9B9"/>
<path d="M120.964 185.238L114.972 186.489C108.711 187.796 102.332 188.45 95.9358 188.441C95.9352 188.441 95.9346 188.441 95.934 188.441L95.9381 185.441C87.9879 185.439 80.0807 184.369 72.4272 182.267L120.964 185.238ZM120.964 185.238L116.304 181.268C114.956 180.12 113.505 179.097 111.971 178.212C109.836 176.914 107.401 176.193 104.903 176.119L104.829 176.116L104.754 176.118C103.441 176.144 102.142 175.841 100.977 175.235L100.976 175.234C97.3383 173.346 93.4212 172.834 89.8099 172.739L89.7956 172.739L89.7812 172.738C82.1467 172.611 74.5984 174.36 67.7991 177.831L120.964 185.238Z" stroke="url(#paint3_linear_83_623)" stroke-opacity="0.1" stroke-width="6"/>
<g style="mix-blend-mode:multiply">
<path d="M152.71 26.8828C166.797 44.0299 174.001 65.8036 172.922 87.9684C171.843 110.133 162.558 131.104 146.873 146.802C131.188 162.5 110.225 171.802 88.0609 172.9C65.897 173.997 44.1174 166.81 26.9587 152.738C34.8754 162.39 44.7258 170.277 55.8757 175.891C67.0255 181.505 79.2276 184.722 91.6961 185.333C104.165 185.945 116.623 183.939 128.269 179.443C139.915 174.948 150.49 168.063 159.313 159.232C168.137 150.401 175.013 139.821 179.499 128.171C183.985 116.521 185.981 104.061 185.359 91.5933C184.737 79.1254 181.511 66.926 175.887 55.7807C170.264 44.6354 162.369 34.7915 152.71 26.8828V26.8828Z" fill="#EAEAEA"/>
</g>
<g filter="url(#filter0_d_83_623)">
<circle cx="152" cy="100.5" r="16" fill="url(#paint4_radial_83_623)" shape-rendering="crispEdges"/>
</g>
<g filter="url(#filter1_d_83_623)">
<circle cx="152" cy="100.5" r="10" fill="url(#paint5_radial_83_623)" shape-rendering="crispEdges"/>
</g>
<circle cx="152" cy="100.5" r="5" fill="white"/>
<defs>
<filter id="filter0_d_83_623" x="132" y="80.5" width="40" height="40" filterUnits="userSpaceOnUse" color-interpolation-filters="sRGB">
<feFlood flood-opacity="0" result="BackgroundImageFix"/>
<feColorMatrix in="SourceAlpha" type="matrix" values="0 0 0 0 0 0 0 0 0 0 0 0 0 0 0 0 0 0 127 0" result="hardAlpha"/>
<feOffset/>
<feGaussianBlur stdDeviation="2"/>
<feComposite in2="hardAlpha" operator="out"/>
<feColorMatrix type="matrix" values="0 0 0 0 0 0 0 0 0 0 0 0 0 0 0 0 0 0 0.05 0"/>
<feBlend mode="normal" in2="BackgroundImageFix" result="effect1_dropShadow_83_623"/>
<feBlend mode="normal" in="SourceGraphic" in2="effect1_dropShadow_83_623" result="shape"/>
</filter>
<filter id="filter1_d_83_623" x="138" y="86.5" width="28" height="28" filterUnits="userSpaceOnUse" color-interpolation-filters="sRGB">
<feFlood flood-opacity="0" result="BackgroundImageFix"/>
<feColorMatrix in="SourceAlpha" type="matrix" values="0 0 0 0 0 0 0 0 0 0 0 0 0 0 0 0 0 0 127 0" result="hardAlpha"/>
<feOffset/>
<feGaussianBlur stdDeviation="2"/>
<feComposite in2="hardAlpha" operator="out"/>
<feColorMatrix type="matrix" values="0 0 0 0 0 0 0 0 0 0 0 0 0 0 0 0 0 0 0.05 0"/>
<feBlend mode="normal" in2="BackgroundImageFix" result="effect1_dropShadow_83_623"/>
<feBlend mode="normal" in="SourceGraphic" in2="effect1_dropShadow_83_623" result="shape"/>
</filter>
<linearGradient id="paint0_linear_83_623" x1="53.8138" y1="6.68872" x2="53.8138" y2="173.31" gradientUnits="userSpaceOnUse">
<stop stop-color="white"/>
<stop offset="1" stop-color="white" stop-opacity="0"/>
</linearGradient>
<linearGradient id="paint1_linear_83_623" x1="135.506" y1="71.5737" x2="135.506" y2="180.517" gradientUnits="userSpaceOnUse">
<stop stop-color="white"/>
<stop offset="1" stop-color="white" stop-opacity="0"/>
</linearGradient>
<linearGradient id="paint2_linear_83_623" x1="163.842" y1="21.3242" x2="163.842" y2="84.4277" gradientUnits="userSpaceOnUse">
<stop stop-color="white"/>
<stop offset="1" stop-color="white" stop-opacity="0"/>
</linearGradient>
<linearGradient id="paint3_linear_83_623" x1="91.3243" y1="175.732" x2="91.3243" y2="185.442" gradientUnits="userSpaceOnUse">
<stop stop-color="white"/>
<stop offset="1" stop-color="white" stop-opacity="0"/>
</linearGradient>
<radialGradient id="paint4_radial_83_623" cx="0" cy="0" r="1" gradientUnits="userSpaceOnUse" gradientTransform="translate(152 100.5) rotate(90) scale(16)">
<stop stop-color="white" stop-opacity="0"/>
<stop offset="1" stop-color="white" stop-opacity="0.25"/>
</radialGradient>
<radialGradient id="paint5_radial_83_623" cx="0" cy="0" r="1" gradientUnits="userSpaceOnUse" gradientTransform="translate(152 100.5) rotate(90) scale(10)">
<stop stop-color="white" stop-opacity="0"/>
<stop offset="1" stop-color="white" stop-opacity="0.25"/>
</radialGradient>
</defs>
</svg>
